<?xml-stylesheet type="text/css" href="https://ig.ft.com/graphics/bloomberg-economics/chart-style.css" ?><svg xmlns="http://www.w3.org/2000/svg" viewBox="0 0 304 270"><text class="chart-title" fill="#43423e" font-size="20" y="22">中国平均年薪</text><text class="chart-subtitle" fill="#43423e" font-size="15" y="42">年同比变化％</text><text class="chart-source" font-size="10" fill-opacity="0.4" y="265">来源：CEIC、中国国家统计局 21 Mar 2016</text><g transform="translate(1,100)"><g transform="translate(0,120)" class="x axis"><g class="tick" style="" transform="translate(31.87063655030801,0)"><line y2="6" x2="0" fill="none" stroke="#000" stroke-opacity="0.2"/><text dy="0" style="" y="20" x="0" font-family="MetricWeb,sans-serif" fill-opacity="0.6" font-size="12" text-anchor="start">1980</text></g><g class="tick" style="" transform="translate(95.629363449692,0)"><line y2="6" x2="0" fill="none" stroke="#000" stroke-opacity="0.2"/><text dy="0" style="" y="20" x="0" font-family="MetricWeb,sans-serif" fill-opacity="0.6" font-size="12" text-anchor="start">1990</text></g><g class="tick" style="" transform="translate(159.370636550308,0)"><line y2="6" x2="0" fill="none" stroke="#000" stroke-opacity="0.2"/><text dy="0" style="" y="20" x="0" font-family="MetricWeb,sans-serif" fill-opacity="0.6" font-size="12" text-anchor="start">2000</text></g><g class="tick" style="" transform="translate(223.129363449692,0)"><line y2="6" x2="0" fill="none" stroke="#000" stroke-opacity="0.2"/><text dy="0" style="" y="20" x="0" font-family="MetricWeb,sans-serif" fill-opacity="0.6" font-size="12" text-anchor="start">2010</text></g><path class="domain" d="M0,0V0H255V0" fill="none" stroke="#74736c"/></g><g transform="translate(255,0)" class="y axis"><g class="tick" style="" transform="translate(0,120)"><line x2="-255" y2="0" fill="none" stroke="#000" stroke-opacity="0.2"/><text dy="0" style="text-anchor: start;" x="3" y="0" font-family="MetricWeb,sans-serif" fill-opacity="0.6" font-size="12">0</text></g><g class="tick" style="" transform="translate(0,86.00000000000001)"><line x2="-255" y2="0" fill="none" stroke="#000" stroke-opacity="0.2"/><text dy="0" style="text-anchor: start;" x="3" y="0" font-family="MetricWeb,sans-serif" fill-opacity="0.6" font-size="12">10</text></g><g class="tick" style="" transform="translate(0,52)"><line x2="-255" y2="0" fill="none" stroke="#000" stroke-opacity="0.2"/><text dy="0" style="text-anchor: start;" x="3" y="0" font-family="MetricWeb,sans-serif" fill-opacity="0.6" font-size="12">20</text></g><g class="tick" style="" transform="translate(0,18.000000000000007)"><line x2="-255" y2="0" fill="none" stroke="#000" stroke-opacity="0.2"/><text dy="0" style="text-anchor: start;" x="3" y="0" font-family="MetricWeb,sans-serif" fill-opacity="0.6" font-size="12">30</text></g><path class="domain" d="M-255,1H0V120H-255" fill="none" stroke="#000" stroke-opacity="0"/><line class="highlight-line" x1="0" x2="-255" y1="120" y2="120" fill="none" stroke="#74736c"/></g><g><path d="M31.33,90.699L37.718,72.156L44.088,115.538L50.459,108.549L56.83,108.07L63.218,59.08L69.588,59.261L75.959,66.394L82.33,86.742L88.718,52.886L95.088,83.412L101.459,83.979L107.83,88.224L114.218,66.094L120.588,37.226L126.959,2.296L133.33,59.312L139.718,79.82L146.088,93.619L152.459,67.132L158.83,80.137L165.218,78.558L171.588,65.319L177.959,71.702L184.33,76.143L190.718,72.513L197.088,71.307L203.459,70.382L209.83,56.992L216.218,62.552L222.588,80.633L228.959,74.711L235.33,71.055L241.718,79.573L248.088,85.73L254.459,87.792" stroke-width="2" fill="none" stroke="#af516c"/></g></g></svg>