<?xml-stylesheet type="text/css" href="https://ig.ft.com/graphics/bloomberg-economics/chart-style.css" ?><svg xmlns="http://www.w3.org/2000/svg" viewBox="0 0 304 270"><text class="chart-title" fill="#43423e" font-size="20" y="22">中国失业率</text><text class="chart-subtitle" fill="#43423e" font-size="15" y="42">占劳动人口比例％</text><text class="chart-source" font-size="10" fill-opacity="0.4" y="265">来源：CEIC，2016/2/17</text><g transform="translate(1,100)"><g transform="translate(0,120)" class="x axis"><g class="tick" style="" transform="translate(0,0)"><line y2="6" x2="0" fill="none" stroke="#000" stroke-opacity="0.2"/><text dy="0" style="" y="20" x="0" font-family="MetricWeb,sans-serif" fill-opacity="0.6" font-size="12" text-anchor="start">1990</text></g><g class="tick" style="" transform="translate(49.034330244313395,0)"><line y2="6" x2="0" fill="none" stroke="#000" stroke-opacity="0.2"/><text dy="0" style="" y="20" x="0" font-family="MetricWeb,sans-serif" fill-opacity="0.6" font-size="12" text-anchor="start">1995</text></g><g class="tick" style="" transform="translate(98.06866048862679,0)"><line y2="6" x2="0" fill="none" stroke="#000" stroke-opacity="0.2"/><text dy="0" style="" y="20" x="0" font-family="MetricWeb,sans-serif" fill-opacity="0.6" font-size="12" text-anchor="start">2000</text></g><g class="tick" style="" transform="translate(147.1298441449031,0)"><line y2="6" x2="0" fill="none" stroke="#000" stroke-opacity="0.2"/><text dy="0" style="" y="20" x="0" font-family="MetricWeb,sans-serif" fill-opacity="0.6" font-size="12" text-anchor="start">2005</text></g><g class="tick" style="" transform="translate(196.16417438921653,0)"><line y2="6" x2="0" fill="none" stroke="#000" stroke-opacity="0.2"/><text dy="0" style="" y="20" x="0" font-family="MetricWeb,sans-serif" fill-opacity="0.6" font-size="12" text-anchor="start">2010</text></g><g class="tick" style="" transform="translate(245.1985046335299,0)"><line y2="6" x2="0" fill="none" stroke="#000" stroke-opacity="0.2"/><text dy="0" style="" y="20" x="0" font-family="MetricWeb,sans-serif" fill-opacity="0.6" font-size="12" text-anchor="start">2015</text></g><path class="domain" d="M0,0V0H255V0" fill="none" stroke="#74736c"/></g><g transform="translate(255,0)" class="y axis"><g class="tick" style="" transform="translate(0,120)"><line x2="-255" y2="0" fill="none" stroke="#000" stroke-opacity="0.2"/><text dy="0" style="text-anchor: start;" x="3" y="0" font-family="MetricWeb,sans-serif" fill-opacity="0.6" font-size="12">3.0</text></g><g class="tick" style="" transform="translate(0,90.25)"><line x2="-255" y2="0" fill="none" stroke="#000" stroke-opacity="0.2"/><text dy="0" style="text-anchor: start;" x="3" y="0" font-family="MetricWeb,sans-serif" fill-opacity="0.6" font-size="12">3.5</text></g><g class="tick" style="" transform="translate(0,60.5)"><line x2="-255" y2="0" fill="none" stroke="#000" stroke-opacity="0.2"/><text dy="0" style="text-anchor: start;" x="3" y="0" font-family="MetricWeb,sans-serif" fill-opacity="0.6" font-size="12">4.0</text></g><g class="tick" style="" transform="translate(0,30.75)"><line x2="-255" y2="0" fill="none" stroke="#000" stroke-opacity="0.2"/><text dy="0" style="text-anchor: start;" x="3" y="0" font-family="MetricWeb,sans-serif" fill-opacity="0.6" font-size="12">4.5</text></g><g class="tick" style="" transform="translate(0,1)"><line x2="-255" y2="0" fill="none" stroke="#000" stroke-opacity="0.2"/><text dy="0" style="text-anchor: start;" x="3" y="0" font-family="MetricWeb,sans-serif" fill-opacity="0.6" font-size="12">5.0</text></g><path class="domain" d="M-255,1H0V120H-255" fill="none" stroke="#000" stroke-opacity="0"/></g><g><path d="M18.771,6.95L28.599,36.7L38.4,42.65L48.202,42.65L58.003,30.75L67.832,24.8L77.633,24.8L87.435,18.85L97.236,18.85L107.065,30.75L116.866,30.75L126.668,36.7L136.469,42.65L146.297,42.65L156.099,54.55L165.9,60.5L175.702,72.4L185.53,36.7L195.332,36.7L205.133,48.6L214.935,42.65L224.763,30.75L234.565,24.8L244.366,18.85" stroke-width="2" fill="none" stroke="#af516c"/></g></g></svg>