<?xml-stylesheet type="text/css" href="https://ig.ft.com/graphics/bloomberg-economics/chart-style.css" ?><svg xmlns="http://www.w3.org/2000/svg" viewBox="0 0 304 270"><text class="chart-title" fill="#43423e" font-size="20" y="22">中国贸易收支平衡</text><text class="chart-subtitle" fill="#43423e" font-size="15" y="42">10亿美元</text><text class="chart-source" font-size="10" fill-opacity="0.4" y="265">来源：CEIC，2017/03/08</text><g transform="translate(1,100)"><g transform="translate(0,120)" class="x axis"><g class="tick" style="" transform="translate(19.602990732940185,0)"><line y2="6" x2="0" fill="none" stroke="#000" stroke-opacity="0.2"/><text dy="0" style="" y="20" x="0" font-family="MetricWeb,sans-serif" fill-opacity="0.6" font-size="12" text-anchor="start">2006</text></g><g class="tick" style="" transform="translate(58.808972198820555,0)"><line y2="6" x2="0" fill="none" stroke="#000" stroke-opacity="0.2"/><text dy="0" style="" y="20" x="0" font-family="MetricWeb,sans-serif" fill-opacity="0.6" font-size="12" text-anchor="start">2008</text></g><g class="tick" style="" transform="translate(98.06866048862679,0)"><line y2="6" x2="0" fill="none" stroke="#000" stroke-opacity="0.2"/><text dy="0" style="" y="20" x="0" font-family="MetricWeb,sans-serif" fill-opacity="0.6" font-size="12" text-anchor="start">2010</text></g><g class="tick" style="" transform="translate(137.27464195450716,0)"><line y2="6" x2="0" fill="none" stroke="#000" stroke-opacity="0.2"/><text dy="0" style="" y="20" x="0" font-family="MetricWeb,sans-serif" fill-opacity="0.6" font-size="12" text-anchor="start">2012</text></g><g class="tick" style="" transform="translate(176.5343302443134,0)"><line y2="6" x2="0" fill="none" stroke="#000" stroke-opacity="0.2"/><text dy="0" style="" y="20" x="0" font-family="MetricWeb,sans-serif" fill-opacity="0.6" font-size="12" text-anchor="start">2014</text></g><g class="tick" style="" transform="translate(215.74031171019377,0)"><line y2="6" x2="0" fill="none" stroke="#000" stroke-opacity="0.2"/><text dy="0" style="" y="20" x="0" font-family="MetricWeb,sans-serif" fill-opacity="0.6" font-size="12" text-anchor="start">2016</text></g><g class="tick" style="" transform="translate(255,0)"><line y2="6" x2="0" fill="none" stroke="#000" stroke-opacity="0.2"/><text dy="0" style="" y="20" x="0" font-family="MetricWeb,sans-serif" fill-opacity="0.6" font-size="12" text-anchor="start">2018</text></g><path class="domain" d="M0,0V0H255V0" fill="none" stroke="#74736c"/></g><g transform="translate(255,0)" class="y axis"><g class="tick" style="" transform="translate(0,103.77272727272728)"><line x2="-255" y2="0" fill="none" stroke="#000" stroke-opacity="0.2"/><text dy="0" style="text-anchor: start;" x="3" y="0" font-family="MetricWeb,sans-serif" fill-opacity="0.6" font-size="12">50</text></g><g class="tick" style="" transform="translate(0,76.72727272727272)"><line x2="-255" y2="0" fill="none" stroke="#000" stroke-opacity="0.2"/><text dy="0" style="text-anchor: start;" x="3" y="0" font-family="MetricWeb,sans-serif" fill-opacity="0.6" font-size="12">100</text></g><g class="tick" style="" transform="translate(0,49.68181818181818)"><line x2="-255" y2="0" fill="none" stroke="#000" stroke-opacity="0.2"/><text dy="0" style="text-anchor: start;" x="3" y="0" font-family="MetricWeb,sans-serif" fill-opacity="0.6" font-size="12">150</text></g><g class="tick" style="" transform="translate(0,22.63636363636363)"><line x2="-255" y2="0" fill="none" stroke="#000" stroke-opacity="0.2"/><text dy="0" style="text-anchor: start;" x="3" y="0" font-family="MetricWeb,sans-serif" fill-opacity="0.6" font-size="12">200</text></g><path class="domain" d="M-255,1H0V120H-255" fill="none" stroke="#000" stroke-opacity="0"/></g><g class="chart-key" transform="translate(0,-35)"><g class="key-element" transform="translate(0,0)"><text x="28" font-size="12" fill="#43423e">进口</text><line x1="0" x2="25" y1="-5" y2="-5" stroke-width="2" fill="none" stroke="#af516c"/></g><g class="key-element" transform="translate(0,20)"><text x="28" font-size="12" fill="#43423e">出口</text><line x1="0" x2="25" y1="-5" y2="-5" stroke-width="2" fill="none" stroke="#76acb8"/></g></g><g><path d="M1.665,106.871L3.169,97.894L4.834,97.2L6.445,99.214L8.11,95.14L9.721,95.343L11.386,93.82L13.051,92.854L14.662,93.987L16.327,91.755L17.938,90.027L19.603,95.665L21.268,101.551L22.772,88.602L24.437,89.196L26.048,91.27L27.713,86.836L29.324,87.363L30.989,81.722L32.654,81.255L34.265,83.149L35.93,78.97L37.541,79.922L39.206,83.965L40.871,86.412L42.375,85.693L44.04,78.107L45.651,79.938L47.316,74.96L48.927,72.538L50.592,70.585L52.257,69.976L53.868,72.549L55.533,67.196L57.144,68.93L58.809,71.505L60.474,83.56L62.031,71.879L63.696,66.608L65.307,65.641L66.972,65.08L68.584,56.889L70.249,57.864L71.913,57.019L73.525,61.405L75.19,68.621L76.801,70.692L78.466,81.891L80.131,95.716L81.634,81.979L83.299,81.09L84.91,82.808L86.575,79.155L88.187,73.795L89.852,74.722L91.516,68.106L93.128,70.906L94.793,69.342L96.404,60.108L98.069,71.602L99.734,79.69L101.237,70.176L102.902,65.952L104.513,59.549L106.178,56.5L107.79,52.105L109.455,55.468L111.119,52.394L112.731,57.265L114.396,47.883L116.007,47.438L117.672,49.285L119.337,78.493L120.84,48.492L122.505,46.607L124.116,45.81L125.781,43.201L127.393,36.09L129.057,37.07L130.722,39.041L132.334,45.63L133.999,36.449L135.61,36.312L137.275,49.715L138.94,68.9L140.497,41.212L142.162,42.514L143.773,32.837L145.438,33.344L147.049,35.11L148.714,34.551L150.379,30.02L151.99,35.85L153.655,33.789L155.266,23.053L156.931,29.47L158.596,55.433L160.1,32.27L161.765,29.635L163.376,31.958L165.041,36.529L166.652,30.214L168.317,27.716L169.982,30.401L171.593,30.531L173.258,21.444L174.869,18.448L176.534,18.779L178.199,69.104L179.703,38.805L181.368,28.835L182.979,25.085L184.644,29.783L186.255,15.663L187.92,18.057L189.585,15.233L191.196,18.922L192.861,16.329L194.472,7.755L196.137,22.497L197.802,39.301L199.306,52.62L200.971,35.439L202.582,28.014L204.247,26.977L205.858,25.289L207.523,24.33L209.188,19.632L210.799,26.75L212.464,24.549L214.075,9.826L215.74,34.977L217.405,62.585L218.963,43.833L220.628,37.372L222.239,32.882L223.904,33.355L225.515,32.025L227.18,27.725L228.845,31.022L230.456,34.608L232.121,26.127L233.732,17.604L235.397,31.966L237.062,65.866" stroke-width="2" fill="none" stroke="#76acb8"/><path d="M1.665,109.227L3.169,100.995L4.834,99.683L6.445,104.076L8.11,100.375L9.721,101.047L11.386,99.55L13.051,96.945L14.662,100.486L16.327,97.451L17.938,95.986L19.603,100.798L21.268,102.862L22.772,94.655L24.437,94.853L26.048,98.304L27.713,94.681L29.324,95.273L30.989,91.889L32.654,89.524L34.265,96.039L35.93,91.372L37.541,91.279L39.206,92.555L40.871,99.262L42.375,89.41L44.04,87.219L45.651,92.094L47.316,89.515L48.927,85.713L50.592,84.094L52.257,82.911L53.868,87.181L55.533,81.412L57.144,81.201L58.809,82.042L60.474,88.188L62.031,79.131L63.696,75.63L65.307,76.572L66.972,76.629L68.584,70.563L70.249,73.386L71.913,72.906L73.525,80.466L75.19,90.305L76.801,91.777L78.466,103.046L80.131,98.335L81.634,92.019L83.299,88.195L84.91,90.05L86.575,83.664L88.187,79.545L89.852,83.221L91.516,75.101L93.128,83.881L94.793,79.67L96.404,70.077L98.069,79.266L99.734,83.808L101.237,66.262L102.902,66.861L104.513,70.113L106.178,67.33L107.79,67.646L109.455,66.306L111.119,61.522L112.731,71.949L114.396,60.264L116.007,54.513L117.672,52.779L119.337,74.541L120.84,48.567L122.505,52.785L124.116,52.868L125.781,55.249L127.393,53.12L129.057,46.676L130.722,46.891L132.334,54.843L133.999,44.307L135.61,45.248L137.275,64.47L138.94,51.87L140.497,44.105L142.162,52.481L143.773,42.952L145.438,50.503L147.049,48.712L148.714,48.972L150.379,44.986L151.99,53.185L153.655,44.409L155.266,40.156L156.931,45.236L158.596,63.669L160.1,31.825L161.765,39.459L163.376,43.006L165.041,51.201L166.652,39.852L168.317,43.142L169.982,38.627L171.593,47.357L173.258,39.727L174.869,32.318L176.534,36.017L178.199,56.669L179.703,42.972L181.368,38.816L182.979,44.515L184.644,46.856L186.255,41.249L187.92,45.014L189.585,31.981L191.196,43.482L192.861,45.795L194.472,34.59L196.137,54.969L197.802,72.091L199.306,54.286L200.971,53.903L202.582,59.856L204.247,52.15L205.858,48.561L207.523,56.915L209.188,52.271L210.799,60.093L212.464,53.62L214.075,41.95L215.74,69.209L217.405,80.215L218.963,59.983L220.628,62.014L222.239,59.914L223.904,59.269L225.515,59.194L227.18,55.879L228.845,53.728L230.456,60.985L232.121,50.051L233.732,39.623L235.397,59.738L237.062,60.918" stroke-width="2" fill="none" stroke="#af516c"/></g></g></svg>