<?xml-stylesheet type="text/css" href="https://ig.ft.com/graphics/bloomberg-economics/chart-style.css" ?><svg xmlns="http://www.w3.org/2000/svg" viewBox="0 0 304 270"><text class="chart-title" fill="#43423e" font-size="20" y="22">中国经济活动指标</text><text class="chart-subtitle" fill="#43423e" font-size="15" y="42">年化月率%</text><text class="chart-source" font-size="10" fill-opacity="0.4" y="265">来源：CEIC，2017/01/20</text><g transform="translate(1,100)"><g transform="translate(0,120)" class="x axis"><g class="tick" style="" transform="translate(0,0)"><line y2="6" x2="0" fill="none" stroke="#000" stroke-opacity="0.2"/><text dy="0" style="" y="20" x="0" font-family="MetricWeb,sans-serif" fill-opacity="0.6" font-size="12" text-anchor="start">2013</text></g><g class="tick" style="" transform="translate(63.706365503080086,0)"><line y2="6" x2="0" fill="none" stroke="#000" stroke-opacity="0.2"/><text dy="0" style="" y="20" x="0" font-family="MetricWeb,sans-serif" fill-opacity="0.6" font-size="12" text-anchor="start">2014</text></g><g class="tick" style="" transform="translate(127.41273100616017,0)"><line y2="6" x2="0" fill="none" stroke="#000" stroke-opacity="0.2"/><text dy="0" style="" y="20" x="0" font-family="MetricWeb,sans-serif" fill-opacity="0.6" font-size="12" text-anchor="start">2015</text></g><g class="tick" style="" transform="translate(191.11909650924022,0)"><line y2="6" x2="0" fill="none" stroke="#000" stroke-opacity="0.2"/><text dy="0" style="" y="20" x="0" font-family="MetricWeb,sans-serif" fill-opacity="0.6" font-size="12" text-anchor="start">2016</text></g><g class="tick" style="" transform="translate(255,0)"><line y2="6" x2="0" fill="none" stroke="#000" stroke-opacity="0.2"/><text dy="0" style="" y="20" x="0" font-family="MetricWeb,sans-serif" fill-opacity="0.6" font-size="12" text-anchor="start">2017</text></g><path class="domain" d="M0,0V0H255V0" fill="none" stroke="#74736c"/></g><g transform="translate(255,0)" class="y axis"><g class="tick" style="" transform="translate(0,113.38888888888889)"><line x2="-255" y2="0" fill="none" stroke="#000" stroke-opacity="0.2"/><text dy="0" style="text-anchor: start;" x="3" y="0" font-family="MetricWeb,sans-serif" fill-opacity="0.6" font-size="12">5</text></g><g class="tick" style="" transform="translate(0,80.33333333333334)"><line x2="-255" y2="0" fill="none" stroke="#000" stroke-opacity="0.2"/><text dy="0" style="text-anchor: start;" x="3" y="0" font-family="MetricWeb,sans-serif" fill-opacity="0.6" font-size="12">10</text></g><g class="tick" style="" transform="translate(0,47.27777777777777)"><line x2="-255" y2="0" fill="none" stroke="#000" stroke-opacity="0.2"/><text dy="0" style="text-anchor: start;" x="3" y="0" font-family="MetricWeb,sans-serif" fill-opacity="0.6" font-size="12">15</text></g><g class="tick" style="" transform="translate(0,14.222222222222229)"><line x2="-255" y2="0" fill="none" stroke="#000" stroke-opacity="0.2"/><text dy="0" style="text-anchor: start;" x="3" y="0" font-family="MetricWeb,sans-serif" fill-opacity="0.6" font-size="12">20</text></g><path class="domain" d="M-255,1H0V120H-255" fill="none" stroke="#000" stroke-opacity="0"/></g><g class="chart-key" transform="translate(0,-35)"><g class="key-element" transform="translate(0,0)"><text x="28" font-size="12" fill="#43423e">固定资产投资 (ytd)</text><line x1="0" x2="25" y1="-5" y2="-5" stroke-width="2" fill="none" stroke="#af516c"/></g><g class="key-element" transform="translate(0,20)"><text x="28" font-size="12" fill="#43423e">零售总额</text><line x1="0" x2="25" y1="-5" y2="-5" stroke-width="2" fill="none" stroke="#76acb8"/></g><g class="key-element" transform="translate(0,40)"><text x="28" font-size="12" fill="#43423e">工业生产</text><line x1="0" x2="25" y1="-5" y2="-5" stroke-width="2" fill="none" stroke="#ecafaf"/></g></g><g><path d="M10.298,87.606L15.708,84.961L20.945,85.622L26.355,87.606L31.591,82.317L37.002,77.689L42.413,79.011L47.649,78.35L53.06,80.333L58.296,82.317M74.004,88.267L79.415,88.928L84.651,88.267L90.062,85.622L95.298,86.944L100.708,100.828L106.119,93.556L111.355,95.539L116.766,98.844L122.002,94.217M137.71,109.422L143.121,107.439L148.357,106.117L153.768,101.489L159.004,106.778L164.415,106.117L169.825,108.761L175.062,109.422L180.472,105.456L185.708,107.439M201.591,101.489L207.002,106.778L212.238,106.778L217.649,105.456L222.885,106.778L228.296,104.794L233.706,106.117L238.943,106.117L244.353,105.456L249.589,106.778" stroke-width="2" fill="none" stroke="#ecafaf"/><path d="M10.298,63.144L15.708,61.822L20.945,61.161L26.355,58.517L31.591,59.178L37.002,57.856L42.413,58.517L47.649,58.517L53.06,55.872L58.296,56.533M74.004,65.789L79.415,67.772L84.651,63.806L90.062,64.467L95.298,65.789L100.708,67.772L106.119,69.756L111.355,70.417L116.766,69.094L122.002,67.772M137.71,79.011L143.121,80.333L148.357,79.672L153.768,76.367L159.004,77.028L164.415,75.044L169.825,74.383L175.062,73.722L180.472,72.4L185.708,73.061M201.591,77.028L207.002,79.672L212.238,80.333L217.649,76.367L222.885,79.011L228.296,76.367L233.706,75.706L238.943,80.333L244.353,75.044L249.589,74.383" stroke-width="2" fill="none" stroke="#76acb8"/><path d="M0,6.289L5.411,6.289L10.298,8.272L15.708,10.256L20.945,11.578L26.355,13.561L31.591,13.561L37.002,12.239L42.413,12.9L47.649,13.561L53.06,14.883L58.296,16.867L63.706,28.106L69.117,28.106L74.004,30.089L79.415,32.072L84.651,32.733L90.062,32.072L95.298,34.056L100.708,37.361L106.119,40.006L111.355,41.328L116.766,41.989L122.002,42.65L127.413,54.55L132.823,54.55L137.71,57.194L143.121,67.111L148.357,71.078L153.768,71.078L159.004,72.4L164.415,74.383L169.825,78.35L175.062,79.011L180.472,79.011L185.708,80.333L191.119,79.011L196.53,79.011L201.591,75.706L207.002,77.028L212.238,82.978L217.649,86.944L222.885,92.894L228.296,92.894L233.706,92.233L238.943,91.572L244.353,91.572L249.589,92.894" stroke-width="2" fill="none" stroke="#af516c"/></g></g></svg>