<?xml-stylesheet type="text/css" href="https://ig.ft.com/graphics/bloomberg-economics/chart-style.css" ?><svg xmlns="http://www.w3.org/2000/svg" viewBox="0 0 304 270"><text class="chart-title" fill="#43423e" font-size="20" y="22">中国通胀</text><text class="chart-subtitle" fill="#43423e" font-size="15" y="42">年同比变化％</text><text class="chart-source" font-size="10" fill-opacity="0.4" y="265">来源：CEIC，2016/11/09</text><g transform="translate(1,100)"><g transform="translate(0,120)" class="x axis"><g class="tick" style="" transform="translate(21.235455167693363,0)"><line y2="6" x2="0" fill="none" stroke="#000" stroke-opacity="0.2"/><text dy="0" style="" y="20" x="0" font-family="MetricWeb,sans-serif" fill-opacity="0.6" font-size="12" text-anchor="start">2006</text></g><g class="tick" style="" transform="translate(63.706365503080086,0)"><line y2="6" x2="0" fill="none" stroke="#000" stroke-opacity="0.2"/><text dy="0" style="" y="20" x="0" font-family="MetricWeb,sans-serif" fill-opacity="0.6" font-size="12" text-anchor="start">2008</text></g><g class="tick" style="" transform="translate(106.23545516769336,0)"><line y2="6" x2="0" fill="none" stroke="#000" stroke-opacity="0.2"/><text dy="0" style="" y="20" x="0" font-family="MetricWeb,sans-serif" fill-opacity="0.6" font-size="12" text-anchor="start">2010</text></g><g class="tick" style="" transform="translate(148.70636550308006,0)"><line y2="6" x2="0" fill="none" stroke="#000" stroke-opacity="0.2"/><text dy="0" style="" y="20" x="0" font-family="MetricWeb,sans-serif" fill-opacity="0.6" font-size="12" text-anchor="start">2012</text></g><g class="tick" style="" transform="translate(191.23545516769335,0)"><line y2="6" x2="0" fill="none" stroke="#000" stroke-opacity="0.2"/><text dy="0" style="" y="20" x="0" font-family="MetricWeb,sans-serif" fill-opacity="0.6" font-size="12" text-anchor="start">2014</text></g><g class="tick" style="" transform="translate(233.7063655030801,0)"><line y2="6" x2="0" fill="none" stroke="#000" stroke-opacity="0.2"/><text dy="0" style="" y="20" x="0" font-family="MetricWeb,sans-serif" fill-opacity="0.6" font-size="12" text-anchor="start">2016</text></g><path class="domain" d="M0,0V0H255V0" fill="none" stroke="#74736c"/></g><g transform="translate(255,0)" class="y axis"><g class="tick" style="" transform="translate(0,120)"><line x2="-255" y2="0" fill="none" stroke="#000" stroke-opacity="0.2"/><text dy="0" style="text-anchor: start;" x="3" y="0" font-family="MetricWeb,sans-serif" fill-opacity="0.6" font-size="12">-2</text></g><g class="tick" style="" transform="translate(0,98.36363636363636)"><line x2="-255" y2="0" fill="none" stroke="#000" stroke-opacity="0.2"/><text dy="0" style="text-anchor: start;" x="3" y="0" font-family="MetricWeb,sans-serif" fill-opacity="0.6" font-size="12">0</text></g><g class="tick" style="" transform="translate(0,76.72727272727272)"><line x2="-255" y2="0" fill="none" stroke="#000" stroke-opacity="0.2"/><text dy="0" style="text-anchor: start;" x="3" y="0" font-family="MetricWeb,sans-serif" fill-opacity="0.6" font-size="12">2</text></g><g class="tick" style="" transform="translate(0,55.09090909090909)"><line x2="-255" y2="0" fill="none" stroke="#000" stroke-opacity="0.2"/><text dy="0" style="text-anchor: start;" x="3" y="0" font-family="MetricWeb,sans-serif" fill-opacity="0.6" font-size="12">4</text></g><g class="tick" style="" transform="translate(0,33.45454545454545)"><line x2="-255" y2="0" fill="none" stroke="#000" stroke-opacity="0.2"/><text dy="0" style="text-anchor: start;" x="3" y="0" font-family="MetricWeb,sans-serif" fill-opacity="0.6" font-size="12">6</text></g><g class="tick" style="" transform="translate(0,11.818181818181822)"><line x2="-255" y2="0" fill="none" stroke="#000" stroke-opacity="0.2"/><text dy="0" style="text-anchor: start;" x="3" y="0" font-family="MetricWeb,sans-serif" fill-opacity="0.6" font-size="12">8</text></g><path class="domain" d="M-255,1H0V120H-255" fill="none" stroke="#000" stroke-opacity="0"/><line class="highlight-line" x1="0" x2="-255" y1="98.36363636363636" y2="98.36363636363636" fill="none" stroke="#74736c"/></g><g><path d="M1.804,56.173L3.433,69.155L5.236,78.891L6.982,78.891L8.785,81.055L10.53,78.891L12.334,84.3L14.138,88.627L15.883,85.382L17.687,84.3L19.432,81.055L21.235,77.809L23.039,88.627L24.668,89.709L26.472,85.382L28.217,83.218L30.021,82.136L31.766,87.545L33.569,84.3L35.373,82.136L37.118,83.218L38.922,77.809L40.667,68.073L42.471,74.564L44.274,69.155L45.903,62.664L47.707,65.909L49.452,61.582L51.256,50.764L53.001,37.782L54.805,28.045L56.608,31.291L58.354,28.045L60.157,23.718L61.903,28.045L63.706,21.555L65.51,4.245L67.197,8.573L69.001,6.409L70.746,15.064L72.55,21.555L74.295,30.209L76.099,45.355L77.902,48.6L79.648,55.091L81.451,72.4L83.196,85.382L85,87.545L86.804,115.673L88.433,111.345L90.236,114.591L91.982,113.509L93.785,116.755L95.53,117.836L97.334,111.345L99.138,107.018L100.883,103.773L102.687,91.873L104.432,77.809L106.235,82.136L108.039,69.155L109.668,72.4L111.472,68.073L113.217,64.827L115.021,66.991L116.766,62.664L118.569,60.5L120.373,59.418L122.118,50.764L123.922,43.191L125.667,48.6L127.471,45.355L129.274,45.355L130.903,39.945L132.707,41.027L134.452,38.864L136.256,29.127L138.001,28.045L139.805,31.291L141.608,32.373L143.354,38.864L145.157,52.927L146.903,54.009L148.706,49.682L150.51,63.745L152.197,59.418L154.001,61.582L155.746,65.909L157.55,74.564L159.295,78.891L161.099,76.727L162.902,77.809L164.648,79.973L166.451,76.727L168.196,71.318L170,76.727L171.804,63.745L173.433,75.645L175.236,72.4L176.982,75.645L178.785,69.155L180.53,69.155L182.334,70.236L184.138,64.827L185.883,63.745L187.687,65.909L189.432,71.318L191.235,71.318L193.039,76.727L194.668,72.4L196.472,78.891L198.217,71.318L200.021,73.482L201.766,73.482L203.569,76.727L205.373,81.055L207.118,81.055L208.922,83.218L210.667,82.136L212.471,89.709L214.274,83.218L215.903,83.218L217.707,82.136L219.452,85.382L221.256,83.218L223.001,81.055L224.805,76.727L226.608,81.055L228.354,84.3L230.157,82.136L231.903,81.055L233.706,78.891L235.51,73.482L237.197,73.482L239.001,73.482L240.746,76.727L242.55,77.809L244.295,78.891L246.099,84.3L247.902,77.809L249.648,75.645" stroke-width="2" fill="none" stroke="#af516c"/></g></g></svg>