<?xml-stylesheet type="text/css" href="https://ig.ft.com/graphics/bloomberg-economics/chart-style.css" ?><svg xmlns="http://www.w3.org/2000/svg" viewBox="0 0 304 270"><text class="chart-title" fill="#43423e" font-size="20" y="22">中国经济活动指标</text><text class="chart-subtitle" fill="#43423e" font-size="15" y="42">年化月率%</text><text class="chart-source" font-size="10" fill-opacity="0.4" y="265">来源：CEIC，2017/01/20</text><g transform="translate(1,100)"><g transform="translate(0,120)" class="x axis"><g class="tick" style="" transform="translate(0,0)"><line y2="6" x2="0" fill="none" stroke="#000" stroke-opacity="0.2"/><text dy="0" style="" y="20" x="0" font-family="MetricWeb,sans-serif" fill-opacity="0.6" font-size="12" text-anchor="start">2013</text></g><g class="tick" style="" transform="translate(60.009671179883945,0)"><line y2="6" x2="0" fill="none" stroke="#000" stroke-opacity="0.2"/><text dy="0" style="" y="20" x="0" font-family="MetricWeb,sans-serif" fill-opacity="0.6" font-size="12" text-anchor="start">2014</text></g><g class="tick" style="" transform="translate(120.01934235976789,0)"><line y2="6" x2="0" fill="none" stroke="#000" stroke-opacity="0.2"/><text dy="0" style="" y="20" x="0" font-family="MetricWeb,sans-serif" fill-opacity="0.6" font-size="12" text-anchor="start">2015</text></g><g class="tick" style="" transform="translate(180.02901353965183,0)"><line y2="6" x2="0" fill="none" stroke="#000" stroke-opacity="0.2"/><text dy="0" style="" y="20" x="0" font-family="MetricWeb,sans-serif" fill-opacity="0.6" font-size="12" text-anchor="start">2016</text></g><g class="tick" style="" transform="translate(240.20309477756288,0)"><line y2="6" x2="0" fill="none" stroke="#000" stroke-opacity="0.2"/><text dy="0" style="" y="20" x="0" font-family="MetricWeb,sans-serif" fill-opacity="0.6" font-size="12" text-anchor="start">2017</text></g><path class="domain" d="M0,0V0H255V0" fill="none" stroke="#74736c"/></g><g transform="translate(255,0)" class="y axis"><g class="tick" style="" transform="translate(0,113.38888888888889)"><line x2="-255" y2="0" fill="none" stroke="#000" stroke-opacity="0.2"/><text dy="0" style="text-anchor: start;" x="3" y="0" font-family="MetricWeb,sans-serif" fill-opacity="0.6" font-size="12">5</text></g><g class="tick" style="" transform="translate(0,80.33333333333334)"><line x2="-255" y2="0" fill="none" stroke="#000" stroke-opacity="0.2"/><text dy="0" style="text-anchor: start;" x="3" y="0" font-family="MetricWeb,sans-serif" fill-opacity="0.6" font-size="12">10</text></g><g class="tick" style="" transform="translate(0,47.27777777777777)"><line x2="-255" y2="0" fill="none" stroke="#000" stroke-opacity="0.2"/><text dy="0" style="text-anchor: start;" x="3" y="0" font-family="MetricWeb,sans-serif" fill-opacity="0.6" font-size="12">15</text></g><g class="tick" style="" transform="translate(0,14.222222222222229)"><line x2="-255" y2="0" fill="none" stroke="#000" stroke-opacity="0.2"/><text dy="0" style="text-anchor: start;" x="3" y="0" font-family="MetricWeb,sans-serif" fill-opacity="0.6" font-size="12">20</text></g><path class="domain" d="M-255,1H0V120H-255" fill="none" stroke="#000" stroke-opacity="0"/></g><g class="chart-key" transform="translate(0,-35)"><g class="key-element" transform="translate(0,0)"><text x="28" font-size="12" fill="#43423e">固定资产投资 (ytd)</text><line x1="0" x2="25" y1="-5" y2="-5" stroke-width="2" fill="none" stroke="#af516c"/></g><g class="key-element" transform="translate(0,20)"><text x="28" font-size="12" fill="#43423e">零售总额</text><line x1="0" x2="25" y1="-5" y2="-5" stroke-width="2" fill="none" stroke="#76acb8"/></g><g class="key-element" transform="translate(0,40)"><text x="28" font-size="12" fill="#43423e">工业生产</text><line x1="0" x2="25" y1="-5" y2="-5" stroke-width="2" fill="none" stroke="#ecafaf"/></g></g><g><path d="M9.7,87.606L14.797,84.961L19.729,85.622L24.826,87.606L29.758,82.317L34.855,77.689L39.952,79.011L44.884,78.35L49.981,80.333L54.913,82.317M69.71,88.267L74.807,88.928L79.739,88.267L84.836,85.622L89.768,86.944L94.865,100.828L99.961,93.556L104.894,95.539L109.99,98.844L114.923,94.217M129.72,109.422L134.816,107.439L139.749,106.117L144.845,101.489L149.778,106.778L154.874,106.117L159.971,108.761L164.903,109.422L170,105.456L174.932,107.439M189.894,101.489L194.99,106.778L199.923,106.778L205.019,105.456L209.952,106.778L215.048,104.794L220.145,106.117L225.077,106.117L230.174,105.456L235.106,106.778" stroke-width="2" fill="none" stroke="#ecafaf"/><path d="M9.7,63.144L14.797,61.822L19.729,61.161L24.826,58.517L29.758,59.178L34.855,57.856L39.952,58.517L44.884,58.517L49.981,55.872L54.913,56.533M69.71,65.789L74.807,67.772L79.739,63.806L84.836,64.467L89.768,65.789L94.865,67.772L99.961,69.756L104.894,70.417L109.99,69.094L114.923,67.772M129.72,79.011L134.816,80.333L139.749,79.672L144.845,76.367L149.778,77.028L154.874,75.044L159.971,74.383L164.903,73.722L170,72.4L174.932,73.061M189.894,77.028L194.99,79.672L199.923,80.333L205.019,76.367L209.952,79.011L215.048,76.367L220.145,75.706L225.077,80.333L230.174,75.044L235.106,74.383" stroke-width="2" fill="none" stroke="#76acb8"/><path d="M0,6.289L5.097,6.289L9.7,8.272L14.797,10.256L19.729,11.578L24.826,13.561L29.758,13.561L34.855,12.239L39.952,12.9L44.884,13.561L49.981,14.883L54.913,16.867L60.01,28.106L65.106,28.106L69.71,30.089L74.807,32.072L79.739,32.733L84.836,32.072L89.768,34.056L94.865,37.361L99.961,40.006L104.894,41.328L109.99,41.989L114.923,42.65L120.019,54.55L125.116,54.55L129.72,57.194L134.816,67.111L139.749,71.078L144.845,71.078L149.778,72.4L154.874,74.383L159.971,78.35L164.903,79.011L170,79.011L174.932,80.333L180.029,79.011L185.126,79.011L189.894,75.706L194.99,77.028L199.923,82.978L205.019,86.944L209.952,92.894L215.048,92.894L220.145,92.233L225.077,91.572L230.174,91.572L235.106,92.894L240.203,87.606L245.3,87.606" stroke-width="2" fill="none" stroke="#af516c"/></g></g></svg>