<?xml-stylesheet type="text/css" href="https://ig.ft.com/graphics/bloomberg-economics/chart-style.css" ?><svg xmlns="http://www.w3.org/2000/svg" viewBox="0 0 304 270"><text class="chart-title" fill="#43423e" font-size="20" y="22">中国平均年薪</text><text class="chart-subtitle" fill="#43423e" font-size="15" y="42">年同比变化％</text><text class="chart-source" font-size="10" fill-opacity="0.4" y="265">来源：CEIC、中国国家统计局，2017/03/13</text><g transform="translate(1,100)"><g transform="translate(0,120)" class="x axis"><g class="tick" style="" transform="translate(28.329885616938427,0)"><line y2="6" x2="0" fill="none" stroke="#000" stroke-opacity="0.2"/><text dy="0" style="" y="20" x="0" font-family="MetricWeb,sans-serif" fill-opacity="0.6" font-size="12" text-anchor="start">1980</text></g><g class="tick" style="" transform="translate(85.00517157459235,0)"><line y2="6" x2="0" fill="none" stroke="#000" stroke-opacity="0.2"/><text dy="0" style="" y="20" x="0" font-family="MetricWeb,sans-serif" fill-opacity="0.6" font-size="12" text-anchor="start">1990</text></g><g class="tick" style="" transform="translate(141.66494280846922,0)"><line y2="6" x2="0" fill="none" stroke="#000" stroke-opacity="0.2"/><text dy="0" style="" y="20" x="0" font-family="MetricWeb,sans-serif" fill-opacity="0.6" font-size="12" text-anchor="start">2000</text></g><g class="tick" style="" transform="translate(198.34022876612315,0)"><line y2="6" x2="0" fill="none" stroke="#000" stroke-opacity="0.2"/><text dy="0" style="" y="20" x="0" font-family="MetricWeb,sans-serif" fill-opacity="0.6" font-size="12" text-anchor="start">2010</text></g><g class="tick" style="" transform="translate(255,0)"><line y2="6" x2="0" fill="none" stroke="#000" stroke-opacity="0.2"/><text dy="0" style="" y="20" x="0" font-family="MetricWeb,sans-serif" fill-opacity="0.6" font-size="12" text-anchor="start">2020</text></g><path class="domain" d="M0,0V0H255V0" fill="none" stroke="#74736c"/></g><g transform="translate(255,0)" class="y axis"><g class="tick" style="" transform="translate(0,120)"><line x2="-255" y2="0" fill="none" stroke="#000" stroke-opacity="0.2"/><text dy="0" style="text-anchor: start;" x="3" y="0" font-family="MetricWeb,sans-serif" fill-opacity="0.6" font-size="12">0</text></g><g class="tick" style="" transform="translate(0,86.00000000000001)"><line x2="-255" y2="0" fill="none" stroke="#000" stroke-opacity="0.2"/><text dy="0" style="text-anchor: start;" x="3" y="0" font-family="MetricWeb,sans-serif" fill-opacity="0.6" font-size="12">10</text></g><g class="tick" style="" transform="translate(0,52)"><line x2="-255" y2="0" fill="none" stroke="#000" stroke-opacity="0.2"/><text dy="0" style="text-anchor: start;" x="3" y="0" font-family="MetricWeb,sans-serif" fill-opacity="0.6" font-size="12">20</text></g><g class="tick" style="" transform="translate(0,18.000000000000007)"><line x2="-255" y2="0" fill="none" stroke="#000" stroke-opacity="0.2"/><text dy="0" style="text-anchor: start;" x="3" y="0" font-family="MetricWeb,sans-serif" fill-opacity="0.6" font-size="12">30</text></g><path class="domain" d="M-255,1H0V120H-255" fill="none" stroke="#000" stroke-opacity="0"/><line class="highlight-line" x1="0" x2="-255" y1="120" y2="120" fill="none" stroke="#74736c"/></g><g><path d="M27.849,90.699L33.527,72.156L39.19,115.538L44.853,108.549L50.516,108.07L56.194,59.08L61.857,59.261L67.52,66.394L73.183,86.742L78.861,52.886L84.524,83.412L90.187,83.979L95.85,88.224L101.528,66.094L107.191,37.226L112.854,2.296L118.517,59.312L124.195,79.82L129.858,93.619L135.521,67.132L141.184,80.137L146.862,78.558L152.525,65.319L158.188,71.702L163.851,76.143L169.529,72.513L175.192,71.307L180.855,70.382L186.518,56.992L192.196,62.552L197.859,80.633L203.522,74.711L209.185,71.055L214.863,79.573L220.526,85.73L226.189,87.792L231.852,85.801" stroke-width="2" fill="none" stroke="#af516c"/></g></g></svg>