<?xml-stylesheet type="text/css" href="https://ig.ft.com/graphics/bloomberg-economics/chart-style.css" ?><svg xmlns="http://www.w3.org/2000/svg" viewBox="0 0 304 270"><text class="chart-title" fill="#43423e" font-size="20" y="22">中国经常账目余额</text><text class="chart-subtitle" fill="#43423e" font-size="15" y="42">占GDP的比例％</text><text class="chart-source" font-size="10" fill-opacity="0.4" y="265">来源：CEIC，2017/01/09</text><g transform="translate(1,100)"><g transform="translate(0,120)" class="x axis"><g class="tick" style="" transform="translate(21.235455167693363,0)"><line y2="6" x2="0" fill="none" stroke="#000" stroke-opacity="0.2"/><text dy="0" style="" y="20" x="0" font-family="MetricWeb,sans-serif" fill-opacity="0.6" font-size="12" text-anchor="start">2006</text></g><g class="tick" style="" transform="translate(63.706365503080086,0)"><line y2="6" x2="0" fill="none" stroke="#000" stroke-opacity="0.2"/><text dy="0" style="" y="20" x="0" font-family="MetricWeb,sans-serif" fill-opacity="0.6" font-size="12" text-anchor="start">2008</text></g><g class="tick" style="" transform="translate(106.23545516769336,0)"><line y2="6" x2="0" fill="none" stroke="#000" stroke-opacity="0.2"/><text dy="0" style="" y="20" x="0" font-family="MetricWeb,sans-serif" fill-opacity="0.6" font-size="12" text-anchor="start">2010</text></g><g class="tick" style="" transform="translate(148.70636550308006,0)"><line y2="6" x2="0" fill="none" stroke="#000" stroke-opacity="0.2"/><text dy="0" style="" y="20" x="0" font-family="MetricWeb,sans-serif" fill-opacity="0.6" font-size="12" text-anchor="start">2012</text></g><g class="tick" style="" transform="translate(191.23545516769335,0)"><line y2="6" x2="0" fill="none" stroke="#000" stroke-opacity="0.2"/><text dy="0" style="" y="20" x="0" font-family="MetricWeb,sans-serif" fill-opacity="0.6" font-size="12" text-anchor="start">2014</text></g><g class="tick" style="" transform="translate(233.7063655030801,0)"><line y2="6" x2="0" fill="none" stroke="#000" stroke-opacity="0.2"/><text dy="0" style="" y="20" x="0" font-family="MetricWeb,sans-serif" fill-opacity="0.6" font-size="12" text-anchor="start">2016</text></g><path class="domain" d="M0,0V0H255V0" fill="none" stroke="#74736c"/></g><g transform="translate(255,0)" class="y axis"><g class="tick" style="" transform="translate(0,120)"><line x2="-255" y2="0" fill="none" stroke="#000" stroke-opacity="0.2"/><text dy="0" style="text-anchor: start;" x="3" y="0" font-family="MetricWeb,sans-serif" fill-opacity="0.6" font-size="12">0</text></g><g class="tick" style="" transform="translate(0,70.41666666666666)"><line x2="-255" y2="0" fill="none" stroke="#000" stroke-opacity="0.2"/><text dy="0" style="text-anchor: start;" x="3" y="0" font-family="MetricWeb,sans-serif" fill-opacity="0.6" font-size="12">5</text></g><g class="tick" style="" transform="translate(0,20.83333333333333)"><line x2="-255" y2="0" fill="none" stroke="#000" stroke-opacity="0.2"/><text dy="0" style="text-anchor: start;" x="3" y="0" font-family="MetricWeb,sans-serif" fill-opacity="0.6" font-size="12">10</text></g><path class="domain" d="M-255,1H0V120H-255" fill="none" stroke="#000" stroke-opacity="0"/><line class="highlight-line" x1="0" x2="-255" y1="120" y2="120" fill="none" stroke="#74736c"/></g><g><path d="M3.433,71.639L8.785,66.089L14.138,63.729L19.432,52.305L24.668,62.417L30.021,48.509L35.373,34.714L40.667,9.776L45.903,30.352L51.256,18.312L56.608,13.854L61.903,24.967L67.197,35.921L72.55,36.378L77.902,29.799L83.196,18.347L88.433,58.362L93.785,87.992L99.138,85.874L104.432,59.1L109.668,100.686L115.021,90.246L120.373,67.8L125.667,72.316L130.903,119.063L136.256,96.352L141.608,98.737L146.903,97.95L152.197,104.799L157.55,91.87L162.902,85.386L168.196,99.038L173.433,100.509L178.785,101.912L184.138,107.055L189.432,108.551L194.668,112.47L200.021,86.012L205.373,89.109L210.667,89.682L215.903,84.85L221.256,87.717L226.608,96.686L231.903,90.273L237.197,104.118L242.55,96.912L247.902,95.826" stroke-width="2" fill="none" stroke="#af516c"/></g></g></svg>