<?xml-stylesheet type="text/css" href="https://ig.ft.com/graphics/bloomberg-economics/chart-style.css" ?><svg xmlns="http://www.w3.org/2000/svg" viewBox="0 0 304 270"><text class="chart-title" fill="#43423e" font-size="20" y="22">中国通胀</text><text class="chart-subtitle" fill="#43423e" font-size="15" y="42">年同比变化％</text><text class="chart-source" font-size="10" fill-opacity="0.4" y="265">来源：CEIC，2017/03/09</text><g transform="translate(1,100)"><g transform="translate(0,120)" class="x axis"><g class="tick" style="" transform="translate(19.602990732940185,0)"><line y2="6" x2="0" fill="none" stroke="#000" stroke-opacity="0.2"/><text dy="0" style="" y="20" x="0" font-family="MetricWeb,sans-serif" fill-opacity="0.6" font-size="12" text-anchor="start">2006</text></g><g class="tick" style="" transform="translate(58.808972198820555,0)"><line y2="6" x2="0" fill="none" stroke="#000" stroke-opacity="0.2"/><text dy="0" style="" y="20" x="0" font-family="MetricWeb,sans-serif" fill-opacity="0.6" font-size="12" text-anchor="start">2008</text></g><g class="tick" style="" transform="translate(98.06866048862679,0)"><line y2="6" x2="0" fill="none" stroke="#000" stroke-opacity="0.2"/><text dy="0" style="" y="20" x="0" font-family="MetricWeb,sans-serif" fill-opacity="0.6" font-size="12" text-anchor="start">2010</text></g><g class="tick" style="" transform="translate(137.27464195450716,0)"><line y2="6" x2="0" fill="none" stroke="#000" stroke-opacity="0.2"/><text dy="0" style="" y="20" x="0" font-family="MetricWeb,sans-serif" fill-opacity="0.6" font-size="12" text-anchor="start">2012</text></g><g class="tick" style="" transform="translate(176.5343302443134,0)"><line y2="6" x2="0" fill="none" stroke="#000" stroke-opacity="0.2"/><text dy="0" style="" y="20" x="0" font-family="MetricWeb,sans-serif" fill-opacity="0.6" font-size="12" text-anchor="start">2014</text></g><g class="tick" style="" transform="translate(215.74031171019377,0)"><line y2="6" x2="0" fill="none" stroke="#000" stroke-opacity="0.2"/><text dy="0" style="" y="20" x="0" font-family="MetricWeb,sans-serif" fill-opacity="0.6" font-size="12" text-anchor="start">2016</text></g><g class="tick" style="" transform="translate(255,0)"><line y2="6" x2="0" fill="none" stroke="#000" stroke-opacity="0.2"/><text dy="0" style="" y="20" x="0" font-family="MetricWeb,sans-serif" fill-opacity="0.6" font-size="12" text-anchor="start">2018</text></g><path class="domain" d="M0,0V0H255V0" fill="none" stroke="#74736c"/></g><g transform="translate(255,0)" class="y axis"><g class="tick" style="" transform="translate(0,120)"><line x2="-255" y2="0" fill="none" stroke="#000" stroke-opacity="0.2"/><text dy="0" style="text-anchor: start;" x="3" y="0" font-family="MetricWeb,sans-serif" fill-opacity="0.6" font-size="12">-2</text></g><g class="tick" style="" transform="translate(0,98.36363636363636)"><line x2="-255" y2="0" fill="none" stroke="#000" stroke-opacity="0.2"/><text dy="0" style="text-anchor: start;" x="3" y="0" font-family="MetricWeb,sans-serif" fill-opacity="0.6" font-size="12">0</text></g><g class="tick" style="" transform="translate(0,76.72727272727272)"><line x2="-255" y2="0" fill="none" stroke="#000" stroke-opacity="0.2"/><text dy="0" style="text-anchor: start;" x="3" y="0" font-family="MetricWeb,sans-serif" fill-opacity="0.6" font-size="12">2</text></g><g class="tick" style="" transform="translate(0,55.09090909090909)"><line x2="-255" y2="0" fill="none" stroke="#000" stroke-opacity="0.2"/><text dy="0" style="text-anchor: start;" x="3" y="0" font-family="MetricWeb,sans-serif" fill-opacity="0.6" font-size="12">4</text></g><g class="tick" style="" transform="translate(0,33.45454545454545)"><line x2="-255" y2="0" fill="none" stroke="#000" stroke-opacity="0.2"/><text dy="0" style="text-anchor: start;" x="3" y="0" font-family="MetricWeb,sans-serif" fill-opacity="0.6" font-size="12">6</text></g><g class="tick" style="" transform="translate(0,11.818181818181822)"><line x2="-255" y2="0" fill="none" stroke="#000" stroke-opacity="0.2"/><text dy="0" style="text-anchor: start;" x="3" y="0" font-family="MetricWeb,sans-serif" fill-opacity="0.6" font-size="12">8</text></g><path class="domain" d="M-255,1H0V120H-255" fill="none" stroke="#000" stroke-opacity="0"/><line class="highlight-line" x1="0" x2="-255" y1="98.36363636363636" y2="98.36363636363636" fill="none" stroke="#74736c"/></g><g><path d="M1.665,56.173L3.169,69.155L4.834,78.891L6.445,78.891L8.11,81.055L9.721,78.891L11.386,84.3L13.051,88.627L14.662,85.382L16.327,84.3L17.938,81.055L19.603,77.809L21.268,88.627L22.772,89.709L24.437,85.382L26.048,83.218L27.713,82.136L29.324,87.545L30.989,84.3L32.654,82.136L34.265,83.218L35.93,77.809L37.541,68.073L39.206,74.564L40.871,69.155L42.375,62.664L44.04,65.909L45.651,61.582L47.316,50.764L48.927,37.782L50.592,28.045L52.257,31.291L53.868,28.045L55.533,23.718L57.144,28.045L58.809,21.555L60.474,4.245L62.031,8.573L63.696,6.409L65.307,15.064L66.972,21.555L68.584,30.209L70.249,45.355L71.913,48.6L73.525,55.091L75.19,72.4L76.801,85.382L78.466,87.545L80.131,115.673L81.634,111.345L83.299,114.591L84.91,113.509L86.575,116.755L88.187,117.836L89.852,111.345L91.516,107.018L93.128,103.773L94.793,91.873L96.404,77.809L98.069,82.136L99.734,69.155L101.237,72.4L102.902,68.073L104.513,64.827L106.178,66.991L107.79,62.664L109.455,60.5L111.119,59.418L112.731,50.764L114.396,43.191L116.007,48.6L117.672,45.355L119.337,45.355L120.84,39.945L122.505,41.027L124.116,38.864L125.781,29.127L127.393,28.045L129.057,31.291L130.722,32.373L132.334,38.864L133.999,52.927L135.61,54.009L137.275,49.682L138.94,63.745L140.497,59.418L142.162,61.582L143.773,65.909L145.438,74.564L147.049,78.891L148.714,76.727L150.379,77.809L151.99,79.973L153.655,76.727L155.266,71.318L156.931,76.727L158.596,63.745L160.1,75.645L161.765,72.4L163.376,75.645L165.041,69.155L166.652,69.155L168.317,70.236L169.982,64.827L171.593,63.745L173.258,65.909L174.869,71.318L176.534,71.318L178.199,76.727L179.703,72.4L181.368,78.891L182.979,71.318L184.644,73.482L186.255,73.482L187.92,76.727L189.585,81.055L191.196,81.055L192.861,83.218L194.472,82.136L196.137,89.709L197.802,83.218L199.306,83.218L200.971,82.136L202.582,85.382L204.247,83.218L205.858,81.055L207.523,76.727L209.188,81.055L210.799,84.3L212.464,82.136L214.075,81.055L215.74,78.891L217.405,73.482L218.963,73.482L220.628,73.482L222.239,76.727L223.904,77.809L225.515,78.891L227.18,84.3L228.845,77.809L230.456,75.645L232.121,73.482L233.732,75.645L235.397,71.318L237.062,89.709" stroke-width="2" fill="none" stroke="#af516c"/></g></g></svg>