<?xml-stylesheet type="text/css" href="https://ig.ft.com/graphics/bloomberg-economics/chart-style.css" ?><svg xmlns="http://www.w3.org/2000/svg" viewBox="0 0 304 270"><text class="chart-title" fill="#43423e" font-size="20" y="22">中国官方采购经理指数(PMI)</text><text class="chart-subtitle" fill="#43423e" font-size="15" y="42"></text><text class="chart-source" font-size="10" fill-opacity="0.4" y="265">来源：CEIC，2016/12/01</text><g transform="translate(1,100)"><g transform="translate(0,120)" class="x axis"><g class="tick" style="" transform="translate(21.235455167693363,0)"><line y2="6" x2="0" fill="none" stroke="#000" stroke-opacity="0.2"/><text dy="0" style="" y="20" x="0" font-family="MetricWeb,sans-serif" fill-opacity="0.6" font-size="12" text-anchor="start">2006</text></g><g class="tick" style="" transform="translate(63.706365503080086,0)"><line y2="6" x2="0" fill="none" stroke="#000" stroke-opacity="0.2"/><text dy="0" style="" y="20" x="0" font-family="MetricWeb,sans-serif" fill-opacity="0.6" font-size="12" text-anchor="start">2008</text></g><g class="tick" style="" transform="translate(106.23545516769336,0)"><line y2="6" x2="0" fill="none" stroke="#000" stroke-opacity="0.2"/><text dy="0" style="" y="20" x="0" font-family="MetricWeb,sans-serif" fill-opacity="0.6" font-size="12" text-anchor="start">2010</text></g><g class="tick" style="" transform="translate(148.70636550308006,0)"><line y2="6" x2="0" fill="none" stroke="#000" stroke-opacity="0.2"/><text dy="0" style="" y="20" x="0" font-family="MetricWeb,sans-serif" fill-opacity="0.6" font-size="12" text-anchor="start">2012</text></g><g class="tick" style="" transform="translate(191.23545516769335,0)"><line y2="6" x2="0" fill="none" stroke="#000" stroke-opacity="0.2"/><text dy="0" style="" y="20" x="0" font-family="MetricWeb,sans-serif" fill-opacity="0.6" font-size="12" text-anchor="start">2014</text></g><g class="tick" style="" transform="translate(233.7063655030801,0)"><line y2="6" x2="0" fill="none" stroke="#000" stroke-opacity="0.2"/><text dy="0" style="" y="20" x="0" font-family="MetricWeb,sans-serif" fill-opacity="0.6" font-size="12" text-anchor="start">2016</text></g><path class="domain" d="M0,0V0H255V0" fill="none" stroke="#74736c"/></g><g transform="translate(255,0)" class="y axis"><g class="tick" style="" transform="translate(0,110.84615384615385)"><line x2="-255" y2="0" fill="none" stroke="#000" stroke-opacity="0.2"/><text dy="0" style="text-anchor: start;" x="3" y="0" font-family="MetricWeb,sans-serif" fill-opacity="0.6" font-size="12">40</text></g><g class="tick" style="" transform="translate(0,87.96153846153848)"><line x2="-255" y2="0" fill="none" stroke="#000" stroke-opacity="0.2"/><text dy="0" style="text-anchor: start;" x="3" y="0" font-family="MetricWeb,sans-serif" fill-opacity="0.6" font-size="12">45</text></g><g class="tick" style="" transform="translate(0,65.07692307692308)"><line x2="-255" y2="0" fill="none" stroke="#000" stroke-opacity="0.2"/><text dy="0" style="text-anchor: start;" x="3" y="0" font-family="MetricWeb,sans-serif" fill-opacity="0.6" font-size="12">50</text></g><g class="tick" style="" transform="translate(0,42.19230769230769)"><line x2="-255" y2="0" fill="none" stroke="#000" stroke-opacity="0.2"/><text dy="0" style="text-anchor: start;" x="3" y="0" font-family="MetricWeb,sans-serif" fill-opacity="0.6" font-size="12">55</text></g><g class="tick" style="" transform="translate(0,19.30769230769231)"><line x2="-255" y2="0" fill="none" stroke="#000" stroke-opacity="0.2"/><text dy="0" style="text-anchor: start;" x="3" y="0" font-family="MetricWeb,sans-serif" fill-opacity="0.6" font-size="12">60</text></g><path class="domain" d="M-255,1H0V120H-255" fill="none" stroke="#000" stroke-opacity="0"/></g><g class="chart-key" transform="translate(0,-35)"><g class="key-element" transform="translate(0,0)"><text x="28" font-size="12" fill="#43423e">制造业</text><line x1="0" x2="25" y1="-5" y2="-5" stroke-width="2" fill="none" stroke="#af516c"/></g><g class="key-element" transform="translate(0,20)"><text x="28" font-size="12" fill="#43423e">非制造业</text><line x1="0" x2="25" y1="-5" y2="-5" stroke-width="2" fill="none" stroke="#76acb8"/></g></g><g><path d="M42.471,17.477L44.274,16.562L45.903,27.546L47.707,17.477L49.452,9.238L51.256,19.308L53.001,22.054L54.805,11.527L56.608,10.612L58.354,12.9L60.157,16.562L61.903,18.392L63.706,18.392L65.51,22.512L67.197,24.342L69.001,26.631L70.746,31.208L72.55,31.208L74.295,38.988L76.099,51.804L77.902,42.192L79.648,50.888L81.451,59.585L83.196,61.415L85,48.142L86.804,41.735L88.433,44.938L90.236,49.058L91.982,42.65L93.785,40.362L95.53,31.665L97.334,31.665L99.138,28.919L100.883,21.596L102.687,26.631L104.432,24.8L106.235,28.004L108.039,33.038L109.668,31.665L111.472,29.377L113.217,28.004L115.021,24.8L116.766,32.581L118.569,28.462L120.373,28.919L122.118,31.208L123.922,24.342L125.667,24.8L127.471,32.123L129.274,33.038L130.903,22.969L132.707,27.546L134.452,25.258L136.256,34.869L138.001,31.665L139.805,32.581L141.608,38.531L143.354,39.904L145.157,38.073L146.903,36.242L148.706,38.988L150.51,31.665L152.197,28.462L154.001,37.158L155.746,41.277L157.55,34.412L159.295,39.446L161.099,36.242L162.902,48.142L164.648,39.904L166.451,39.446L168.196,37.158L170,36.7L171.804,44.481L173.433,39.446L175.236,44.481L176.982,45.396L178.785,47.227L180.53,46.312L182.334,47.227L184.138,40.362L185.883,36.242L187.687,37.615L189.432,44.023L191.235,49.515L193.039,42.192L194.668,44.481L196.472,43.108L198.217,39.904L200.021,42.192L201.766,45.854L203.569,44.938L205.373,46.769L207.118,47.685L208.922,47.227L210.667,46.312L212.471,48.142L214.274,47.227L215.903,48.142L217.707,49.515L219.452,50.431L221.256,47.685L223.001,47.227L224.805,49.515L226.608,49.515L228.354,50.888L230.157,48.6L231.903,44.938L233.706,49.058L235.51,52.719L237.197,47.685L239.001,49.058L240.746,50.888L242.55,48.142L244.295,47.227L246.099,49.058L247.902,48.142L249.648,46.769L251.451,43.565" stroke-width="2" fill="none" stroke="#76acb8"/><path d="M1.804,44.481L3.433,28.919L5.236,34.412L6.982,51.804L8.785,57.296L10.53,60.042L12.334,53.177L14.138,41.735L15.883,46.312L17.687,46.312L19.432,45.396L21.235,55.465L23.039,55.465L24.668,40.819L26.472,28.004L28.217,43.108L30.021,46.312L31.766,54.092L33.569,50.888L35.373,33.038L37.118,43.565L38.922,40.819L40.667,43.108L42.471,41.735L44.274,50.888L45.903,37.158L47.707,25.715L49.452,38.988L51.256,44.481L53.001,49.973L54.805,46.769L56.608,37.158L58.354,50.431L60.157,40.362L61.903,40.819L63.706,51.346L65.51,49.515L67.197,26.631L69.001,22.969L70.746,49.973L72.55,55.923L74.295,72.4L76.099,72.4L77.902,59.585L79.648,89.792L81.451,116.338L83.196,105.354L85,86.588L86.804,69.654L88.433,54.092L90.236,49.058L91.982,50.888L93.785,50.431L95.53,49.973L97.334,46.769L99.138,45.396L100.883,41.277L102.687,41.277L104.432,34.869L106.235,38.531L108.039,55.923L109.668,41.735L111.472,38.988L113.217,47.227L115.021,55.465L116.766,59.585L118.569,57.296L120.373,47.685L122.118,43.565L123.922,41.277L125.667,47.227L127.471,51.804L129.274,55.008L130.903,49.515L132.707,51.804L134.452,55.923L136.256,60.958L138.001,61.873L139.805,60.958L141.608,59.585L143.354,63.246L145.157,69.654L146.903,63.704L148.706,62.788L150.51,60.5L152.197,50.888L154.001,49.973L155.746,63.246L157.55,64.162L159.295,64.619L161.099,68.738L162.902,65.992L164.648,64.162L166.451,62.331L168.196,62.331L170,63.246L171.804,64.619L173.433,60.958L175.236,62.331L176.982,61.415L178.785,64.619L180.53,63.704L182.334,60.5L184.138,60.042L185.883,58.669L187.687,58.669L189.432,60.5L191.235,62.788L193.039,64.162L194.668,63.704L196.472,63.246L198.217,61.415L200.021,60.5L201.766,57.296L203.569,60.042L205.373,60.042L207.118,61.415L208.922,63.704L210.667,64.619L212.471,65.992L214.274,65.535L215.903,64.619L217.707,64.619L219.452,64.162L221.256,64.162L223.001,65.077L224.805,66.45L226.608,65.992L228.354,65.992L230.157,66.908L231.903,66.45L233.706,67.823L235.51,69.654L237.197,64.162L239.001,64.619L240.746,64.619L242.55,65.077L244.295,65.535L246.099,63.246L247.902,63.246L249.648,59.585L251.451,57.296" stroke-width="2" fill="none" stroke="#af516c"/></g></g></svg>