<?xml-stylesheet type="text/css" href="https://ig.ft.com/graphics/bloomberg-economics/chart-style.css" ?><svg xmlns="http://www.w3.org/2000/svg" viewBox="0 0 304 270"><text class="chart-title" fill="#43423e" font-size="20" y="22">中国官方采购经理指数(PMI)</text><text class="chart-subtitle" fill="#43423e" font-size="15" y="42"></text><text class="chart-source" font-size="10" fill-opacity="0.4" y="265">来源：CEIC，2017/03/31</text><g transform="translate(1,100)"><g transform="translate(0,120)" class="x axis"><g class="tick" style="" transform="translate(19.602990732940185,0)"><line y2="6" x2="0" fill="none" stroke="#000" stroke-opacity="0.2"/><text dy="0" style="" y="20" x="0" font-family="MetricWeb,sans-serif" fill-opacity="0.6" font-size="12" text-anchor="start">2006</text></g><g class="tick" style="" transform="translate(58.808972198820555,0)"><line y2="6" x2="0" fill="none" stroke="#000" stroke-opacity="0.2"/><text dy="0" style="" y="20" x="0" font-family="MetricWeb,sans-serif" fill-opacity="0.6" font-size="12" text-anchor="start">2008</text></g><g class="tick" style="" transform="translate(98.06866048862679,0)"><line y2="6" x2="0" fill="none" stroke="#000" stroke-opacity="0.2"/><text dy="0" style="" y="20" x="0" font-family="MetricWeb,sans-serif" fill-opacity="0.6" font-size="12" text-anchor="start">2010</text></g><g class="tick" style="" transform="translate(137.27464195450716,0)"><line y2="6" x2="0" fill="none" stroke="#000" stroke-opacity="0.2"/><text dy="0" style="" y="20" x="0" font-family="MetricWeb,sans-serif" fill-opacity="0.6" font-size="12" text-anchor="start">2012</text></g><g class="tick" style="" transform="translate(176.5343302443134,0)"><line y2="6" x2="0" fill="none" stroke="#000" stroke-opacity="0.2"/><text dy="0" style="" y="20" x="0" font-family="MetricWeb,sans-serif" fill-opacity="0.6" font-size="12" text-anchor="start">2014</text></g><g class="tick" style="" transform="translate(215.74031171019377,0)"><line y2="6" x2="0" fill="none" stroke="#000" stroke-opacity="0.2"/><text dy="0" style="" y="20" x="0" font-family="MetricWeb,sans-serif" fill-opacity="0.6" font-size="12" text-anchor="start">2016</text></g><g class="tick" style="" transform="translate(255,0)"><line y2="6" x2="0" fill="none" stroke="#000" stroke-opacity="0.2"/><text dy="0" style="" y="20" x="0" font-family="MetricWeb,sans-serif" fill-opacity="0.6" font-size="12" text-anchor="start">2018</text></g><path class="domain" d="M0,0V0H255V0" fill="none" stroke="#74736c"/></g><g transform="translate(255,0)" class="y axis"><g class="tick" style="" transform="translate(0,110.84615384615385)"><line x2="-255" y2="0" fill="none" stroke="#000" stroke-opacity="0.2"/><text dy="0" style="text-anchor: start;" x="3" y="0" font-family="MetricWeb,sans-serif" fill-opacity="0.6" font-size="12">40</text></g><g class="tick" style="" transform="translate(0,87.96153846153848)"><line x2="-255" y2="0" fill="none" stroke="#000" stroke-opacity="0.2"/><text dy="0" style="text-anchor: start;" x="3" y="0" font-family="MetricWeb,sans-serif" fill-opacity="0.6" font-size="12">45</text></g><g class="tick" style="" transform="translate(0,65.07692307692308)"><line x2="-255" y2="0" fill="none" stroke="#000" stroke-opacity="0.2"/><text dy="0" style="text-anchor: start;" x="3" y="0" font-family="MetricWeb,sans-serif" fill-opacity="0.6" font-size="12">50</text></g><g class="tick" style="" transform="translate(0,42.19230769230769)"><line x2="-255" y2="0" fill="none" stroke="#000" stroke-opacity="0.2"/><text dy="0" style="text-anchor: start;" x="3" y="0" font-family="MetricWeb,sans-serif" fill-opacity="0.6" font-size="12">55</text></g><g class="tick" style="" transform="translate(0,19.30769230769231)"><line x2="-255" y2="0" fill="none" stroke="#000" stroke-opacity="0.2"/><text dy="0" style="text-anchor: start;" x="3" y="0" font-family="MetricWeb,sans-serif" fill-opacity="0.6" font-size="12">60</text></g><path class="domain" d="M-255,1H0V120H-255" fill="none" stroke="#000" stroke-opacity="0"/></g><g class="chart-key" transform="translate(0,-35)"><g class="key-element" transform="translate(0,0)"><text x="28" font-size="12" fill="#43423e">制造业</text><line x1="0" x2="25" y1="-5" y2="-5" stroke-width="2" fill="none" stroke="#af516c"/></g><g class="key-element" transform="translate(0,20)"><text x="28" font-size="12" fill="#43423e">非制造业</text><line x1="0" x2="25" y1="-5" y2="-5" stroke-width="2" fill="none" stroke="#76acb8"/></g></g><g><path d="M39.206,17.477L40.871,16.562L42.375,27.546L44.04,17.477L45.651,9.238L47.316,19.308L48.927,22.054L50.592,11.527L52.257,10.612L53.868,12.9L55.533,16.562L57.144,18.392L58.809,18.392L60.474,22.512L62.031,24.342L63.696,26.631L65.307,31.208L66.972,31.208L68.584,38.988L70.249,51.804L71.913,42.192L73.525,50.888L75.19,59.585L76.801,61.415L78.466,48.142L80.131,41.735L81.634,44.938L83.299,49.058L84.91,42.65L86.575,40.362L88.187,31.665L89.852,31.665L91.516,28.919L93.128,21.596L94.793,26.631L96.404,24.8L98.069,28.004L99.734,33.038L101.237,31.665L102.902,29.377L104.513,28.004L106.178,24.8L107.79,32.581L109.455,28.462L111.119,28.919L112.731,31.208L114.396,24.342L116.007,24.8L117.672,32.123L119.337,33.038L120.84,22.969L122.505,27.546L124.116,25.258L125.781,34.869L127.393,31.665L129.057,32.581L130.722,38.531L132.334,39.904L133.999,38.073L135.61,36.242L137.275,38.988L138.94,31.665L140.497,28.462L142.162,37.158L143.773,41.277L145.438,34.412L147.049,39.446L148.714,36.242L150.379,48.142L151.99,39.904L153.655,39.446L155.266,37.158L156.931,36.7L158.596,44.481L160.1,39.446L161.765,44.481L163.376,45.396L165.041,47.227L166.652,46.312L168.317,47.227L169.982,40.362L171.593,36.242L173.258,37.615L174.869,44.023L176.534,49.515L178.199,42.192L179.703,44.481L181.368,43.108L182.979,39.904L184.644,42.192L186.255,45.854L187.92,44.938L189.585,46.769L191.196,47.685L192.861,47.227L194.472,46.312L196.137,48.142L197.802,47.227L199.306,48.142L200.971,49.515L202.582,50.431L204.247,47.685L205.858,47.227L207.523,49.515L209.188,49.515L210.799,50.888L212.464,48.6L214.075,44.938L215.74,49.058L217.405,52.719L218.963,47.685L220.628,49.058L222.239,50.888L223.904,48.142L225.515,47.227L227.18,49.058L228.845,48.142L230.456,46.769L232.121,43.565L233.732,44.481L235.397,44.023L237.062,45.854L238.566,41.735" stroke-width="2" fill="none" stroke="#76acb8"/><path d="M1.665,44.481L3.169,28.919L4.834,34.412L6.445,51.804L8.11,57.296L9.721,60.042L11.386,53.177L13.051,41.735L14.662,46.312L16.327,46.312L17.938,45.396L19.603,55.465L21.268,55.465L22.772,40.819L24.437,28.004L26.048,43.108L27.713,46.312L29.324,54.092L30.989,50.888L32.654,33.038L34.265,43.565L35.93,40.819L37.541,43.108L39.206,41.735L40.871,50.888L42.375,37.158L44.04,25.715L45.651,38.988L47.316,44.481L48.927,49.973L50.592,46.769L52.257,37.158L53.868,50.431L55.533,40.362L57.144,40.819L58.809,51.346L60.474,49.515L62.031,26.631L63.696,22.969L65.307,49.973L66.972,55.923L68.584,72.4L70.249,72.4L71.913,59.585L73.525,89.792L75.19,116.338L76.801,105.354L78.466,86.588L80.131,69.654L81.634,54.092L83.299,49.058L84.91,50.888L86.575,50.431L88.187,49.973L89.852,46.769L91.516,45.396L93.128,41.277L94.793,41.277L96.404,34.869L98.069,38.531L99.734,55.923L101.237,41.735L102.902,38.988L104.513,47.227L106.178,55.465L107.79,59.585L109.455,57.296L111.119,47.685L112.731,43.565L114.396,41.277L116.007,47.227L117.672,51.804L119.337,55.008L120.84,49.515L122.505,51.804L124.116,55.923L125.781,60.958L127.393,61.873L129.057,60.958L130.722,59.585L132.334,63.246L133.999,69.654L135.61,63.704L137.275,62.788L138.94,60.5L140.497,50.888L142.162,49.973L143.773,63.246L145.438,64.162L147.049,64.619L148.714,68.738L150.379,65.992L151.99,64.162L153.655,62.331L155.266,62.331L156.931,63.246L158.596,64.619L160.1,60.958L161.765,62.331L163.376,61.415L165.041,64.619L166.652,63.704L168.317,60.5L169.982,60.042L171.593,58.669L173.258,58.669L174.869,60.5L176.534,62.788L178.199,64.162L179.703,63.704L181.368,63.246L182.979,61.415L184.644,60.5L186.255,57.296L187.92,60.042L189.585,60.042L191.196,61.415L192.861,63.704L194.472,64.619L196.137,65.992L197.802,65.535L199.306,64.619L200.971,64.619L202.582,64.162L204.247,64.162L205.858,65.077L207.523,66.45L209.188,65.992L210.799,65.992L212.464,66.908L214.075,66.45L215.74,67.823L217.405,69.654L218.963,64.162L220.628,64.619L222.239,64.619L223.904,65.077L225.515,65.535L227.18,63.246L228.845,63.246L230.456,59.585L232.121,57.296L233.732,58.669L235.397,59.127L237.062,57.754L238.566,56.838" stroke-width="2" fill="none" stroke="#af516c"/></g></g></svg>