<?xml-stylesheet type="text/css" href="https://ig.ft.com/graphics/bloomberg-economics/chart-style.css" ?><svg xmlns="http://www.w3.org/2000/svg" viewBox="0 0 304 270"><text class="chart-title" fill="#43423e" font-size="20" y="22">中国经济活动指标</text><text class="chart-subtitle" fill="#43423e" font-size="15" y="42">年化月率%</text><text class="chart-source" font-size="10" fill-opacity="0.4" y="265">来源：CEIC 15 Apr 2016</text><g transform="translate(1,100)"><g transform="translate(0,120)" class="x axis"><g class="tick" style="" transform="translate(0,0)"><line y2="6" x2="0" fill="none" stroke="#000" stroke-opacity="0.2"/><text dy="0" style="" y="20" x="0" font-family="MetricWeb,sans-serif" fill-opacity="0.6" font-size="12" text-anchor="start">2013</text></g><g class="tick" style="" transform="translate(78.47807757166947,0)"><line y2="6" x2="0" fill="none" stroke="#000" stroke-opacity="0.2"/><text dy="0" style="" y="20" x="0" font-family="MetricWeb,sans-serif" fill-opacity="0.6" font-size="12" text-anchor="start">2014</text></g><g class="tick" style="" transform="translate(156.95615514333895,0)"><line y2="6" x2="0" fill="none" stroke="#000" stroke-opacity="0.2"/><text dy="0" style="" y="20" x="0" font-family="MetricWeb,sans-serif" fill-opacity="0.6" font-size="12" text-anchor="start">2015</text></g><g class="tick" style="" transform="translate(235.43423271500845,0)"><line y2="6" x2="0" fill="none" stroke="#000" stroke-opacity="0.2"/><text dy="0" style="" y="20" x="0" font-family="MetricWeb,sans-serif" fill-opacity="0.6" font-size="12" text-anchor="start">2016</text></g><path class="domain" d="M0,0V0H255V0" fill="none" stroke="#74736c"/></g><g transform="translate(255,0)" class="y axis"><g class="tick" style="" transform="translate(0,113.38888888888889)"><line x2="-255" y2="0" fill="none" stroke="#000" stroke-opacity="0.2"/><text dy="0" style="text-anchor: start;" x="3" y="0" font-family="MetricWeb,sans-serif" fill-opacity="0.6" font-size="12">5</text></g><g class="tick" style="" transform="translate(0,80.33333333333334)"><line x2="-255" y2="0" fill="none" stroke="#000" stroke-opacity="0.2"/><text dy="0" style="text-anchor: start;" x="3" y="0" font-family="MetricWeb,sans-serif" fill-opacity="0.6" font-size="12">10</text></g><g class="tick" style="" transform="translate(0,47.27777777777777)"><line x2="-255" y2="0" fill="none" stroke="#000" stroke-opacity="0.2"/><text dy="0" style="text-anchor: start;" x="3" y="0" font-family="MetricWeb,sans-serif" fill-opacity="0.6" font-size="12">15</text></g><g class="tick" style="" transform="translate(0,14.222222222222229)"><line x2="-255" y2="0" fill="none" stroke="#000" stroke-opacity="0.2"/><text dy="0" style="text-anchor: start;" x="3" y="0" font-family="MetricWeb,sans-serif" fill-opacity="0.6" font-size="12">20</text></g><path class="domain" d="M-255,1H0V120H-255" fill="none" stroke="#000" stroke-opacity="0"/></g><g class="chart-key" transform="translate(0,-35)"><g class="key-element" transform="translate(0,0)"><text x="28" font-size="12" fill="#43423e">固定资产投资 (ytd)</text><line x1="0" x2="25" y1="-5" y2="-5" stroke-width="2" fill="none" stroke="#af516c"/></g><g class="key-element" transform="translate(0,20)"><text x="28" font-size="12" fill="#43423e">零售总额</text><line x1="0" x2="25" y1="-5" y2="-5" stroke-width="2" fill="none" stroke="#76acb8"/></g><g class="key-element" transform="translate(0,40)"><text x="28" font-size="12" fill="#43423e">工业生产</text><line x1="0" x2="25" y1="-5" y2="-5" stroke-width="2" fill="none" stroke="#ecafaf"/></g></g><g><path d="M12.685,87.606L19.351,84.961L25.801,85.622L32.466,87.606L38.917,82.317L45.582,77.689L52.247,79.011L58.697,78.35L65.363,80.333L71.813,82.317M91.164,88.267L97.829,88.928L104.279,88.267L110.944,85.622L117.395,86.944L124.06,100.828L130.725,93.556L137.175,95.539L143.841,98.844L150.291,94.217M169.642,109.422L176.307,107.439L182.757,106.117L189.422,101.489L195.873,106.778L202.538,106.117L209.203,108.761L215.653,109.422L222.319,105.456L228.769,107.439M248.335,101.489Z" stroke-width="2" fill="none" stroke="#ecafaf"/><path d="M12.685,63.144L19.351,61.822L25.801,61.161L32.466,58.517L38.917,59.178L45.582,57.856L52.247,58.517L58.697,58.517L65.363,55.872L71.813,56.533M91.164,65.789L97.829,67.772L104.279,63.806L110.944,64.467L117.395,65.789L124.06,67.772L130.725,69.756L137.175,70.417L143.841,69.094L150.291,67.772M169.642,79.011L176.307,80.333L182.757,79.672L189.422,76.367L195.873,77.028L202.538,75.044L209.203,74.383L215.653,73.722L222.319,72.4L228.769,73.061M248.335,77.028Z" stroke-width="2" fill="none" stroke="#76acb8"/><path d="M0,6.289L6.665,6.289L12.685,8.272L19.351,10.256L25.801,11.578L32.466,13.561L38.917,13.561L45.582,12.239L52.247,12.9L58.697,13.561L65.363,14.883L71.813,16.867L78.478,28.106L85.143,28.106L91.164,30.089L97.829,32.072L104.279,32.733L110.944,32.072L117.395,34.056L124.06,37.361L130.725,40.006L137.175,41.328L143.841,41.989L150.291,42.65L156.956,54.55L163.621,54.55L169.642,57.194L176.307,67.111L182.757,71.078L189.422,71.078L195.873,72.4L202.538,74.383L209.203,78.35L215.653,79.011L222.319,79.011L228.769,80.333L235.434,79.011L242.099,79.011L248.335,75.706" stroke-width="2" fill="none" stroke="#af516c"/></g></g></svg>