<?xml-stylesheet type="text/css" href="https://ig.ft.com/graphics/bloomberg-economics/chart-style.css" ?><svg xmlns="http://www.w3.org/2000/svg" viewBox="0 0 304 270"><text class="chart-title" fill="#43423e" font-size="20" y="22">债券</text><text class="chart-subtitle" fill="#43423e" font-size="15" y="42">中国债券收益率与收益率差%</text><text class="chart-source" font-size="10" fill-opacity="0.4" y="265">来源：CEIC/中央国债登记结算，2016/5/11更新</text><g transform="translate(1,100)"><g transform="translate(0,120)" class="x axis"><g class="tick" style="" transform="translate(0,0)"><line y2="6" x2="0" fill="none" stroke="#000" stroke-opacity="0.2"/><text dy="0" style="" y="20" x="0" font-family="MetricWeb,sans-serif" fill-opacity="0.6" font-size="12" text-anchor="start">2006</text></g><g class="tick" style="" transform="translate(46.329019412643106,0)"><line y2="6" x2="0" fill="none" stroke="#000" stroke-opacity="0.2"/><text dy="0" style="" y="20" x="0" font-family="MetricWeb,sans-serif" fill-opacity="0.6" font-size="12" text-anchor="start">2008</text></g><g class="tick" style="" transform="translate(92.72150323544051,0)"><line y2="6" x2="0" fill="none" stroke="#000" stroke-opacity="0.2"/><text dy="0" style="" y="20" x="0" font-family="MetricWeb,sans-serif" fill-opacity="0.6" font-size="12" text-anchor="start">2010</text></g><g class="tick" style="" transform="translate(139.05052264808361,0)"><line y2="6" x2="0" fill="none" stroke="#000" stroke-opacity="0.2"/><text dy="0" style="" y="20" x="0" font-family="MetricWeb,sans-serif" fill-opacity="0.6" font-size="12" text-anchor="start">2012</text></g><g class="tick" style="" transform="translate(185.44300647088102,0)"><line y2="6" x2="0" fill="none" stroke="#000" stroke-opacity="0.2"/><text dy="0" style="" y="20" x="0" font-family="MetricWeb,sans-serif" fill-opacity="0.6" font-size="12" text-anchor="start">2014</text></g><g class="tick" style="" transform="translate(231.77202588352415,0)"><line y2="6" x2="0" fill="none" stroke="#000" stroke-opacity="0.2"/><text dy="0" style="" y="20" x="0" font-family="MetricWeb,sans-serif" fill-opacity="0.6" font-size="12" text-anchor="start">2016</text></g><path class="domain" d="M0,0V0H255V0" fill="none" stroke="#74736c"/></g><g transform="translate(255,0)" class="y axis"><g class="tick" style="" transform="translate(0,106.77777777777777)"><line x2="-255" y2="0" fill="none" stroke="#000" stroke-opacity="0.2"/><text dy="0" style="text-anchor: start;" x="3" y="0" font-family="MetricWeb,sans-serif" fill-opacity="0.6" font-size="12">2</text></g><g class="tick" style="" transform="translate(0,80.33333333333334)"><line x2="-255" y2="0" fill="none" stroke="#000" stroke-opacity="0.2"/><text dy="0" style="text-anchor: start;" x="3" y="0" font-family="MetricWeb,sans-serif" fill-opacity="0.6" font-size="12">4</text></g><g class="tick" style="" transform="translate(0,53.888888888888886)"><line x2="-255" y2="0" fill="none" stroke="#000" stroke-opacity="0.2"/><text dy="0" style="text-anchor: start;" x="3" y="0" font-family="MetricWeb,sans-serif" fill-opacity="0.6" font-size="12">6</text></g><g class="tick" style="" transform="translate(0,27.444444444444443)"><line x2="-255" y2="0" fill="none" stroke="#000" stroke-opacity="0.2"/><text dy="0" style="text-anchor: start;" x="3" y="0" font-family="MetricWeb,sans-serif" fill-opacity="0.6" font-size="12">8</text></g><g class="tick" style="" transform="translate(0,1)"><line x2="-255" y2="0" fill="none" stroke="#000" stroke-opacity="0.2"/><text dy="0" style="text-anchor: start;" x="3" y="0" font-family="MetricWeb,sans-serif" fill-opacity="0.6" font-size="12">10</text></g><path class="domain" d="M-255,1H0V120H-255" fill="none" stroke="#000" stroke-opacity="0"/></g><g class="chart-key" transform="translate(0,-35)"><g class="key-element" transform="translate(0,0)"><text x="28" font-size="12" fill="#43423e">5-yr treasury</text><line x1="0" x2="25" y1="-5" y2="-5" stroke-width="2" fill="none" stroke="#af516c"/></g><g class="key-element" transform="translate(0,20)"><text x="28" font-size="12" fill="#43423e">AA- rated</text><line x1="0" x2="25" y1="-5" y2="-5" stroke-width="2" fill="none" stroke="#76acb8"/></g></g><g><path d="M126.231,45.606L126.294,45.476L126.358,45.313L126.421,45.13L126.485,44.836L126.675,44.719L126.738,45.107L126.802,47.038L126.865,47.267L126.929,47.008L127.119,47.467L127.183,48.291L127.246,49.511L127.31,48.987L127.373,49.195L127.563,50.286L127.627,50.386L127.69,50.139L127.754,49.553L127.817,50.192L128.008,50.173L128.071,49.757L128.135,48.826L128.198,48.659L128.262,48.628L128.452,49.846L128.515,49.904L128.579,48.288L128.642,46.83L128.706,46.311L128.896,44.918L128.96,40.697L129.023,40.497L129.087,40.697L129.15,39.233L129.34,40.557L129.404,40.582L129.467,40.917L129.531,41.04L129.594,41.205L129.785,40.275L129.848,39.49L129.912,41.268L129.975,41.17L130.039,40.808L130.229,41.461L130.292,41.521L130.356,41.469L130.419,41.412L130.483,39.403L130.673,38.412L130.737,37.161L130.8,39.816L130.864,39.606L130.927,39.068L131.117,36.49L131.181,36.003L131.244,36.344L131.308,36.073L131.371,35.995L131.562,36.754L131.625,36.384L131.689,35.357L131.752,36.449L131.816,36.486L132.069,35.838L132.133,34.179L132.196,34.19L132.26,33.771L132.45,33.31L132.514,32.7L132.577,33.866L132.641,32.665L132.704,33.388L132.894,33.229L132.958,33.252L133.021,33.163L133.085,33.319L133.148,33.11L133.656,33.253L133.72,33.375L133.783,33.264L133.846,32.987L133.91,33.063L133.973,33.414L134.037,33.425L134.227,33.885L134.291,33.003L134.354,33.859L134.418,33.544L134.481,34.463L134.671,34.147L134.735,34.598L134.798,34.719L134.862,33.901L134.925,33.988L135.116,33.228L135.179,33.241L135.243,33.708L135.306,33.553L135.37,33.825L135.56,33.685L135.623,33.914L135.687,34.283L135.75,35.535L135.814,36.506L136.004,36.331L136.068,35.491L136.131,33.603L136.195,32.322L136.258,32.715L136.448,33.601L136.512,33.43L136.575,33.342L136.639,32.003L136.702,32.403L136.893,31.78L136.956,31.567L137.02,30.636L137.083,32.326L137.147,33.644L137.337,34.387L137.4,34.075L137.464,33.88L137.527,33.814L137.591,33.733L137.781,33.257L137.845,33.63L137.908,32.907L137.972,31.527L138.035,33.043L138.225,32.846L138.289,32.949L138.352,32.708L138.416,32.199L138.479,32.19L138.67,32.146L138.733,31.484L138.797,31.456L138.86,31.635L138.924,32.046L138.987,32.025L139.241,31.51L139.304,31.822L139.368,32.39L139.558,32.47L139.622,33.18L139.685,32.206L139.749,32.207L139.812,31.841L140.002,32.256L140.066,32.293L140.129,32.29L140.193,32.445L140.256,32.573L140.32,32.115L140.828,32.577L140.891,32.51L140.954,32.84L141.018,32.457L141.081,32.341L141.145,32.101L141.335,32.592L141.399,32.275L141.462,31.84L141.526,31.455L141.589,30.32L141.779,31.042L141.843,31.435L141.906,31.036L141.97,31.058L142.033,30.163L142.224,29.317L142.287,29.3L142.351,29.36L142.414,29.428L142.478,29.378L142.668,29.85L142.731,29.691L142.795,29.408L142.858,29.344L142.922,29.183L143.112,28.797L143.176,29.711L143.239,29.698L143.303,30.616L143.366,30.345L143.556,30.151L143.62,30.263L143.683,31.583L143.747,31.334L143.81,31.325L144.001,31.225L144.064,30.616L144.128,31.583L144.191,32.46L144.255,32.944L144.445,33.406L144.508,33.619L144.572,33.433L144.635,33.983L144.699,34.037L144.762,34.02L144.826,34.05L145.08,33.874L145.143,33.956L145.333,34.008L145.397,34.081L145.46,33.069L145.524,33.098L145.587,33.156L145.778,32.963L145.841,32.981L145.905,33.16L145.968,33.49L146.032,33.343L146.222,34.846L146.285,35.852L146.349,35.801L146.412,35.826L146.476,36.982L146.539,37.36L146.793,37.366L146.857,38.021L146.92,38.106L147.111,38.691L147.174,39.486L147.237,39.604L147.301,40.373L147.364,41.319L147.555,41.542L147.618,43.539L147.682,43.948L147.745,44.111L147.809,44.214L147.999,44.204L148.062,44.373L148.126,44.551L148.189,44.784L148.253,45.47L148.443,46.695L148.507,46.445L148.57,46.491L148.634,46.474L148.697,46.484L148.888,46.557L148.951,46.745L149.014,46.748L149.078,46.737L149.141,47.718L149.332,47.583L149.395,48.087L149.459,47.569L149.522,47.622L149.586,47.637L149.776,47.682L149.839,47.021L149.903,46.204L149.966,45.651L150.22,45.755L150.284,46.311L150.347,45.786L150.411,46.602L150.474,46.79L150.665,46.742L150.728,46.7L150.791,46.666L150.855,46.437L150.918,46.631L151.109,46.625L151.172,46.664L151.236,46.354L151.299,46.313L151.363,46.36L151.553,46.303L151.616,46.309L151.68,46.315L151.743,46.295L151.807,46.313L151.997,46.358L152.061,46.339L152.124,46.336L152.188,46.339L152.251,46.324L152.442,46.313L152.505,46.376L152.568,46.322L152.632,46.389L152.695,46.377L152.886,46.433L152.949,46.491L153.013,46.443L153.076,46.455L153.14,46.524L153.33,46.533L153.393,46.528L153.457,46.511L153.52,46.503L153.584,46.483L153.774,46.507L153.838,46.484L153.901,46.547L153.965,46.551L154.028,46.507L154.219,41.787L154.282,42.679L154.345,43.016L154.409,43.396L154.472,42.848L154.663,43.392L154.726,43.981L154.79,43.959L154.853,43.636L154.917,43.963L155.107,44.657L155.17,45.465L155.234,46.213L155.297,45.92L155.361,44.485L155.551,45.347L155.615,45.569L155.678,45.986L155.742,45.507L155.805,45.203L155.996,45.211L156.059,44.96L156.122,44.789L156.186,43.918L156.249,43.741L156.313,43.196L156.884,42.988L156.947,42.832L157.011,42.85L157.074,42.814L157.138,43.297L157.328,43.578L157.392,43.648L157.455,42.758L157.519,42.789L157.582,42.846L157.773,42.694L157.836,42.784L157.899,42.899L157.963,42.198L158.026,42.191L158.217,42.544L158.28,41.982L158.344,43.041L158.407,41.978L158.471,42.003L158.661,41.949L158.724,42.081L158.788,42.187L158.851,42.461L158.915,42.466L159.105,41.883L159.169,41.994L159.232,42.036L159.296,42.066L159.359,42.13L159.55,42.408L159.613,42.658L159.676,42.936L159.74,43.295L159.803,43.872L159.994,43.16L160.057,42.674L160.121,43.127L160.184,42.813L160.248,42.933L160.438,43.073L160.501,43.463L160.565,43.166L160.628,43.318L160.692,43.488L160.882,43.702L160.946,43.585L161.009,43.766L161.073,43.939L161.136,43.658L161.327,43.265L161.39,43.564L161.453,43.426L161.517,43.434L161.58,43.36L161.771,43.191L161.834,42.879L161.898,42.826L161.961,43.166L162.025,43.583L162.215,43.983L162.469,43.818L162.532,43.628L162.596,43.749L162.659,43.897L162.723,44.171L162.786,44.415L162.85,44.69L162.913,45.018L163.104,45.206L163.167,45.322L163.23,45.185L163.294,45.45L163.357,45.741L163.548,46.351L163.611,46.514L163.675,46.114L163.738,46.276L163.802,45.811L163.992,45.856L164.056,45.669L164.119,45.466L164.182,45.334L164.246,45.584L164.436,45.564L164.5,45.552L164.563,45.562L164.627,45.659L164.69,45.905L165.198,46.224L165.261,46.335L165.325,46.412L165.388,46.556L165.452,46.865L165.515,46.796L165.579,47.062L165.769,46.878L165.833,46.68L165.896,46.767L165.959,46.327L166.023,45.686L166.213,45.618L166.277,45.562L166.34,45.556L166.404,46.422L166.467,46.38L166.658,47.196L166.721,47.007L166.784,46.906L166.848,46.894L166.911,46.577L167.102,46.283L167.165,46.334L167.229,46.494L167.292,46.64L167.356,46.599L167.546,46.363L167.61,46.031L167.673,45.863L167.736,46.023L167.8,46.155L167.99,46.405L168.054,46.519L168.117,47.801L168.371,48.002L168.435,48.136L168.498,49.303L168.561,48.145L168.625,48.433L168.688,48.459L168.879,48.757L168.942,49.114L169.006,49.531L169.069,50.655L169.133,50.512L169.323,50.401L169.387,50.269L169.45,49.704L169.513,49.765L169.577,49.777L169.64,50.533L169.704,50.541L169.958,50.709L170.021,51.112L170.212,51.152L170.275,51.675L170.338,51.365L170.402,51.358L170.465,51.562L170.656,51.923L170.719,52.077L170.783,52.4L170.846,52.518L170.91,52.502L171.1,52.372L171.164,52.251L171.227,52.408L171.29,52.404L171.354,52.466L171.544,52.247L171.608,51.966L171.671,52.107L171.735,52.195L171.798,52.355L171.989,52.362L172.052,52.194L172.115,51.968L172.179,51.822L172.242,51.571L172.306,51.605L172.369,51.419L172.623,51.473L172.687,50.976L172.877,50.299L172.941,49.947L173.004,49.254L173.067,42.553L173.131,47.673L173.321,48.051L173.385,46.135L173.448,46.168L173.512,47.6L173.575,47.935L173.766,48.243L173.829,48.646L173.892,49.805L173.956,50.48L174.019,50.41L174.21,50.407L174.273,50.261L174.337,49.905L174.4,49.753L174.464,49.106L174.654,48.978L174.718,48.604L174.781,48.601L174.844,48.683L174.908,48.329L175.098,47.62L175.162,46.664L175.225,45.342L175.289,44.978L175.352,45.117L175.543,45.747L175.606,45.589L175.669,45.772L175.733,46.754L175.796,46.962L175.987,47.218L176.05,47.214L176.114,46.971L176.177,46.395L176.241,45.855L176.431,45.485L176.495,44.747L176.558,44.345L176.621,43.113L176.685,43.045L176.875,42.538L176.939,42.47L177.002,42.461L177.066,43.269L177.129,43.315L177.32,44.025L177.383,43.9L177.446,43.844L177.51,43.743L177.573,43.697L177.764,43.49L177.827,43.781L177.891,43.864L177.954,43.483L178.018,43.336L178.208,42.795L178.272,42.023L178.335,41.949L178.398,40.831L178.462,40.675L178.652,40.548L178.716,40.166L178.779,40.084L179.033,40.131L179.097,39.951L179.16,40.521L179.223,40.409L179.287,39.805L179.35,40.553L179.477,40.505L179.541,40.583L180.049,40.434L180.112,40.452L180.175,40.384L180.239,40.614L180.302,40.894L180.429,40.902L180.493,40.553L180.556,40.316L180.62,40.277L180.683,40.472L180.874,40.138L180.937,39.742L181,39.888L181.064,39.149L181.127,38.874L181.318,37.55L181.381,37.496L181.445,37.119L181.508,36.42L181.572,36.112L181.762,35.995L181.826,37.459L181.889,37.311L181.952,36.88L182.016,36.797L182.206,35.513L182.27,34.768L182.333,34.505L182.397,33.295L182.46,33.052L182.651,31.55L182.714,31.181L182.778,29.851L182.841,29.166L182.904,29.441L183.095,29.576L183.158,29.616L183.222,29.326L183.285,29.338L183.349,29.055L183.539,29.679L183.603,29.753L183.666,28.361L183.729,28.484L183.793,28.735L183.983,28.674L184.047,28.677L184.11,28.509L184.174,28.436L184.237,28.234L184.428,28.603L184.491,28.592L184.555,28.367L184.618,28.448L184.681,28.038L184.872,28.154L184.935,27.637L184.999,26.923L185.062,26.925L185.126,26.372L185.316,26.06L185.38,26.071L185.506,26.059L185.57,27L185.76,27.217L185.824,27.099L185.887,26.816L185.951,27.052L186.014,27.066L186.205,27.357L186.268,27.77L186.332,28.37L186.395,28.526L186.458,28.537L186.649,28.542L186.712,28.029L186.776,28.247L186.839,28.433L186.903,28.976L187.03,29.362L187.093,29.356L187.157,29.346L187.22,29.335L187.283,29.457L187.791,29.6L187.855,29.884L187.982,30.25L188.045,30.758L188.109,30.979L188.172,31.364L188.235,31.71L188.426,32.034L188.489,32.153L188.553,31.96L188.616,32.866L188.68,33.195L188.87,33.528L188.934,34.198L188.997,36.335L189.06,36.802L189.124,36.937L189.314,37.033L189.378,36.65L189.441,36.607L189.505,36.607L189.568,36.629L189.759,30.973L189.822,31.02L189.886,29.374L189.949,29.363L190.012,29.413L190.203,29.355L190.266,29.42L190.33,29.359L190.393,29.248L190.457,29.054L190.647,29.375L190.711,29.456L190.774,29.076L190.837,28.671L190.901,27.928L191.091,28.374L191.155,28.596L191.218,25.761L191.282,25.879L191.345,24.849L191.599,24.366L191.663,24.759L191.726,24.391L191.789,24.608L191.98,25.053L192.043,25.235L192.107,25.905L192.17,27.136L192.234,27.106L192.424,26.916L192.488,24.71L192.551,22.03L192.614,16.249L192.678,12.228L192.868,26.458L192.932,27.188L192.995,27.389L193.249,27.641L193.313,27.614L193.376,27.483L193.44,27.636L193.503,27.77L193.566,27.989L193.757,28.522L193.82,28.476L193.884,28.457L193.947,28.742L194.011,28.939L194.201,29.188L194.265,29.929L194.328,30.01L194.391,30.512L194.455,31.017L194.645,30.799L194.709,30.554L194.772,30.29L194.836,30.003L194.899,29.691L195.153,29.395L195.217,29.397L195.28,29.4L195.343,29.378L195.534,29.364L195.597,29.604L195.661,29.594L195.724,29.112L195.788,28.909L195.978,29.017L196.042,28.148L196.105,28.028L196.168,27.48L196.232,27.216L196.422,27.495L196.486,27.475L196.549,26.863L196.613,27.15L196.676,27.283L196.867,27.39L196.93,27.048L196.994,26.758L197.057,26.667L197.12,26.839L197.311,26.897L197.374,27.485L197.438,27.191L197.501,26.716L197.565,27.291L197.755,27.565L197.819,27.561L197.882,27.652L197.945,27.217L198.009,26.726L198.199,25.915L198.263,26.17L198.326,26.391L198.39,26.41L198.453,26.716L198.644,26.726L198.707,27.019L198.771,26.962L198.834,26.935L198.897,27.199L199.088,27.081L199.151,26.774L199.215,26.861L199.278,26.838L199.342,26.983L199.532,27.407L199.596,27.179L199.659,27.57L199.722,27.952L199.786,28.664L199.976,27.536L200.04,27.225L200.103,27.372L200.167,27.064L200.23,26.916L200.421,26.906L200.484,27.202L200.548,27.09L200.611,27.249L200.674,27.637L200.865,27.608L200.928,27.356L200.992,27.344L201.055,27.522L201.119,27.496L201.373,27.447L201.436,27.419L201.5,27.261L201.563,27.488L201.753,27.429L201.817,27.216L201.88,27.545L201.944,27.879L202.007,28.013L202.198,28.586L202.261,28.069L202.325,28.066L202.388,28.229L202.451,28.094L202.578,28.247L202.642,28.059L202.705,28.102L203.213,28.279L203.277,28.32L203.34,28.329L203.403,28.113L203.53,28.124L203.594,28.226L203.657,28.484L203.721,28.822L203.784,29.187L203.975,29.437L204.038,30.816L204.102,31.263L204.165,31.227L204.228,32.554L204.419,32.637L204.482,32.614L204.546,32.46L204.609,33.241L204.673,32.914L204.863,33.584L204.927,34.284L204.99,35.113L205.054,35.61L205.117,35.517L205.307,36.269L205.371,37.957L205.434,37.898L205.498,38.235L205.561,38.222L205.752,37.681L205.815,37.451L205.879,37.574L205.942,37.349L206.005,36.586L206.196,36.347L206.259,38.677L206.323,38.739L206.386,38.102L206.45,37.924L206.64,37.614L206.704,38.244L206.767,37.657L206.831,36.2L206.894,35.017L207.084,34.095L207.148,32.573L207.211,30.208L207.275,29.7L207.338,30.422L207.529,30.45L207.592,30.205L207.656,29.789L207.719,29.761L207.782,29.671L207.973,30.069L208.036,30.371L208.1,30.521L208.163,31.904L208.227,32.637L208.417,32.949L208.481,33.307L208.544,33.252L208.798,33.349L208.861,33.814L208.925,34.025L208.988,34.677L209.052,35.037L209.115,35.138L209.306,35.252L209.369,35.662L209.433,36.252L209.496,37.475L209.559,38.18L209.75,39.011L209.813,38.969L209.877,39.207L209.94,39.323L210.004,39.297L210.194,39.58L210.258,39.29L210.321,39.305L210.385,39.002L210.448,39.567L210.638,38.969L210.702,38.895L210.765,38.842L210.829,39.342L210.892,38.764L211.083,38.363L211.146,39.233L211.21,39.585L211.273,39.982L211.336,40.753L211.463,41.984L211.527,41.679L211.59,41.795L212.098,42.856L212.162,42.379L212.225,42.056L212.288,41.765L212.415,41.435L212.479,40.889L212.542,40.962L212.606,40.722L212.669,40.082L212.86,38.667L212.923,39.889L212.987,39.925L213.05,39.954L213.113,39.323L213.304,39.828L213.367,39.824L213.431,40.119L213.494,39.75L213.558,39.772L213.748,40.164L213.812,39.629L213.875,39.019L213.939,38.882L214.002,38.177L214.192,37.159L214.256,36.659L214.319,36.154L214.383,36.014L214.446,36.524L214.7,37.353L214.764,37.645L214.827,37.315L214.89,36.995L215.081,37.481L215.144,38.119L215.208,38.942L215.271,39.634L215.335,39.173L215.525,39.892L215.589,41.57L215.652,42.583L215.716,42.638L215.779,41.492L215.969,41.649L216.033,41.666L216.096,41.221L216.16,41.632L216.414,41.615L216.477,42.322L216.541,42.992L216.604,42.039L216.667,42.449L216.858,43.474L216.921,43.718L216.985,44.903L217.048,45.199L217.112,45.55L217.302,45.875L217.366,46.289L217.429,45.257L217.493,44.944L217.556,44.312L217.746,43.829L217.81,43.431L217.873,43.747L217.937,43.644L218,44.243L218.191,42.37L218.254,41.752L218.318,42.072L218.381,42.594L218.444,42.901L218.635,42.756L218.698,42.576L218.762,41.977L218.825,42.035L218.889,41.752L219.079,41.625L219.143,41.226L219.206,41.256L219.27,41.426L219.333,41.341L219.587,41.564L219.65,41.26L219.714,40.958L219.777,41.223L219.968,41.648L220.031,41.09L220.095,40.958L220.158,40.969L220.222,41.181L220.412,41.494L220.475,42.047L220.539,43.291L220.602,44.608L220.666,43.886L220.856,43.557L220.92,42.858L220.983,43.311L221.047,43.049L221.11,43.129L221.3,43.036L221.364,42.891L221.427,43.246L221.491,43.583L221.554,44.038L221.745,44.855L221.808,44.448L221.872,44.777L221.935,44.156L221.999,44.132L222.189,44.169L222.252,44.021L222.316,43.782L222.379,43.77L222.443,44.212L222.633,44.35L222.697,44.504L222.76,43.849L222.824,44.013L222.887,44.086L223.077,43.476L223.141,43.552L223.204,43.525L223.268,43.322L223.331,43.622L223.522,43.919L223.585,44.323L223.649,44.213L223.712,43.624L223.776,43.831L223.966,43.269L224.029,44.049L224.093,44.535L224.347,44.963L224.41,44.684L224.474,45.008L224.537,44.989L224.601,44.718L224.664,44.312L224.854,44.025L224.918,43.771L224.981,43.844L225.045,44.1L225.108,44.038L225.299,44.342L225.362,44.933L225.426,44.906L225.489,44.92L225.553,45.107L225.743,45.152L225.806,44.959L225.87,44.939L226.378,44.877L226.441,45.084L226.504,45.228L226.631,45.609L226.695,46.123L226.758,46.409L226.822,47.46L226.885,47.582L227.076,47.004L227.139,46.552L227.203,46.74L227.266,47.32L227.33,47.023L227.52,47.411L227.583,48.226L227.647,48.899L227.71,49.297L227.774,50.456L227.964,50.491L228.028,50.478L228.091,50.039L228.155,49.765L228.218,49.622L228.408,49.913L228.472,49.027L228.535,48.299L228.599,47.718L228.662,47.73L228.853,47.746L228.916,48.075L228.98,47.406L229.043,47.466L229.107,47.698L229.297,48.123L229.36,48.383L229.424,48.435L229.487,48.439L229.551,49.026L229.741,49.311L229.805,49.656L229.868,49.422L229.932,49.458L229.995,49.643L230.185,49.982L230.249,50.249L230.312,50.474L230.376,50.319L230.439,50.138L230.63,50.225L230.693,50.267L230.757,50.007L230.82,49.873L230.884,49.827L231.074,49.592L231.137,50.427L231.201,51.554L231.264,51.8L231.328,52.278L231.518,52.101L231.582,52.407L231.645,52.658L231.709,52.645L231.962,52.326L232.026,52.333L232.089,51.92L232.153,52.411L232.216,52.969L232.407,53.509L232.47,53.499L232.534,54.272L232.597,54.649L232.661,55.198L232.851,54.727L232.914,54.304L232.978,53.819L233.041,53.989L233.105,53.754L233.295,53.989L233.359,53.433L233.422,53.439L233.486,53.052L233.549,52.81L233.739,53.134L233.803,53.57L233.866,53.393L233.93,53.085L233.993,53.064L234.057,53.018L234.564,53.019L234.628,53.323L234.691,53.696L234.755,53.412L234.818,53.425L234.882,53.393L235.072,53.733L235.136,53.926L235.199,53.926L235.263,53.911L235.326,54.07L235.516,53.762L235.58,53.49L235.643,53.975L235.707,53.352L235.77,54.126L235.961,53.907L236.024,53.889L236.088,53.905L236.151,54.274L236.215,54.491L236.405,54.964L236.468,54.963L236.532,54.899L236.595,54.797L236.659,55.009L236.849,55.145L236.913,55.39L236.976,54.747L237.04,55.154L237.103,55.391L237.293,54.891L237.357,54.697L237.42,54.465L237.484,54.521L237.547,54.803L237.801,54.867L237.865,54.44L237.928,53.984L237.992,53.536L238.182,53.564L238.245,52.994L238.309,52.519L238.372,52.022L238.436,51.223L238.626,51.34L238.69,51.33L238.753,51.09L238.817,50.689L238.88,50.23L239.07,49.15L239.134,47.228L239.197,47.269L239.261,47.313L239.324,47.366L239.578,47.731L239.642,47.837L239.705,48.008L239.769,48.156L239.959,48.289L240.022,48.587L240.086,49.129" stroke-width="2" fill="none" stroke="#76acb8"/><path d="M3.744,101.447L3.808,100.651L3.871,100.865L4.062,100.46L4.125,100.817L4.189,101.123L4.252,101.261L4.316,101.112L4.506,100.919L4.569,100.976L4.633,100.955L4.696,101.064L4.76,101.283L4.95,101.149L5.014,101.252L5.141,99.786L5.204,99.867L5.458,98.94L5.521,98.982L5.585,100.078L5.648,98.945L5.839,99.975L5.902,99.777L5.966,99.614L6.029,99.754L6.093,99.88L6.283,98.911L6.346,98.633L6.41,98.568L6.473,98.481L6.537,98.293L6.727,97.892L6.791,97.927L6.854,97.82L6.918,98.152L6.981,98.091L7.171,98.043L7.235,97.726L7.298,97.81L7.362,98.28L7.425,98.797L7.489,98.937L7.552,99.133L8.06,99.16L8.123,99.453L8.187,99.283L8.25,99.433L8.314,99.068L8.504,98.85L8.568,99.872L8.631,100.419L8.695,100.397L8.758,100.399L8.948,100.411L9.012,100.332L9.075,100.446L9.139,100.413L9.202,100.353L9.393,100.218L9.456,100.348L9.52,100.343L9.583,100.132L9.647,99.761L9.837,99.192L9.9,98.621L9.964,98.428L10.027,98.764L10.091,98.807L10.281,98.913L10.345,97.887L10.408,97.375L10.472,97.591L10.535,97.793L10.725,96.979L10.789,97.256L10.852,96.944L10.916,96.701L10.979,96.521L11.17,96.628L11.233,96.722L11.297,96.852L11.36,97.751L11.424,96.786L11.614,96.872L11.677,97.119L11.741,96.72L11.804,96.647L11.868,96.812L12.058,97.201L12.122,97.603L12.185,97.394L12.249,96.967L12.312,95.899L12.502,96.172L12.566,95.945L12.629,96.528L12.693,96.546L12.756,96.246L12.947,94.814L13.01,95.255L13.074,95.178L13.137,95.478L13.201,95.495L13.391,95.711L13.454,95.721L13.518,95.519L13.581,95.653L13.645,95.122L13.835,95.079L13.899,95.467L13.962,95.522L14.026,95.67L14.089,95.743L14.279,96.021L14.343,96.148L14.406,96.43L14.47,96.466L14.533,96.708L14.724,95.789L14.787,95.975L14.851,96.109L14.914,96.191L14.978,96.257L15.168,96.282L15.231,96.274L15.295,96.402L15.358,96.422L15.422,96.472L15.612,96.535L15.676,96.606L15.739,96.681L15.803,96.775L15.866,96.746L16.056,96.726L16.12,96.833L16.183,96.738L16.247,96.876L16.31,97.16L16.501,97.164L16.564,97.598L16.628,97.728L16.691,97.807L16.755,98.051L16.945,97.899L17.008,97.66L17.072,97.623L17.135,97.625L17.199,97.648L17.262,97.878L17.77,97.98L17.833,98.023L17.897,97.797L17.96,97.691L18.024,97.771L18.087,98.612L18.278,98.596L18.341,98.651L18.405,98.662L18.468,98.65L18.532,99.394L18.722,99.606L18.785,99.708L18.849,99.708L18.912,99.063L18.976,99.617L19.166,99.638L19.23,99.597L19.293,99.58L19.357,99.531L19.42,99.54L19.611,98.936L19.674,99.265L19.737,99.26L19.801,99.429L19.864,99.543L20.055,99.487L20.118,99.474L20.182,99.462L20.245,99.465L20.309,99.459L20.499,99.035L20.562,99.031L20.626,98.408L20.689,98.045L20.753,98.017L20.943,98.542L21.007,98.51L21.07,98.491L21.134,99.138L21.197,99.372L21.388,99.283L21.451,99.285L21.514,99.283L21.578,99.207L21.641,98.581L21.832,98.718L21.895,98.667L21.959,98.612L22.022,98.805L22.086,98.901L22.276,98.62L22.339,98.904L22.403,98.917L22.466,98.895L22.53,98.532L22.72,98.386L22.784,98.334L22.847,98.335L22.911,98.526L22.974,98.632L23.038,98.599L23.101,98.608L23.355,98.572L23.418,98.743L23.609,98.764L23.672,98.761L23.736,98.842L23.799,98.983L23.863,98.917L24.053,98.33L24.116,98.518L24.18,98.58L24.243,98.637L24.307,98.55L24.497,98.394L24.561,98.087L24.624,98.056L24.688,98.034L24.751,98.011L24.942,98.133L25.005,97.34L25.068,97.192L25.132,97.276L25.195,97.287L25.386,96.905L25.449,96.716L25.513,96.709L25.576,96.732L25.64,96.722L25.83,96.412L25.893,96.336L25.957,96.293L26.02,95.994L26.084,96.041L26.147,96.295L26.655,96.628L26.719,96.256L26.782,96.1L26.845,96.368L26.909,96.164L26.972,96.175L27.163,96.174L27.226,96.213L27.29,96.146L27.353,96.193L27.417,96.138L27.607,96.156L27.67,96.016L27.734,95.999L27.797,95.803L27.861,94.92L28.051,95.015L28.115,95.058L28.178,95.019L28.242,94.867L28.305,94.838L28.496,95.019L28.559,94.957L28.622,94.837L28.686,94.884L28.749,94.891L28.94,94.952L29.003,94.833L29.067,94.933L29.13,95.019L29.194,94.657L29.384,94.202L29.447,93.634L29.511,93.372L29.574,93.205L29.638,93.234L29.828,93.181L29.892,92.44L29.955,91.232L30.019,90.52L30.082,90.237L30.273,90.114L30.336,90.132L30.399,90.452L30.463,90.83L30.526,90.821L30.59,91.046L30.653,91.166L30.717,90.743L31.224,90.487L31.288,90.411L31.351,90.142L31.415,89.826L31.605,89.582L31.669,89.215L31.732,89.302L31.796,88.531L31.859,88.538L32.05,86.271L32.113,86.16L32.176,86.52L32.24,86.787L32.303,86.361L32.494,85.999L32.557,85.921L32.621,86.008L32.684,86.178L32.748,85.945L32.938,85.782L33.001,85.434L33.065,85.655L33.128,85.473L33.192,84.781L33.382,84.363L33.446,83.724L33.509,83.62L33.573,83.475L33.636,82.815L33.827,82.634L33.89,81.726L33.953,81.763L34.017,79.685L34.08,79.656L34.271,79.57L34.334,79.515L34.398,79.643L34.461,79.59L34.525,79.586L34.715,79.586L34.778,79.793L34.842,79.783L34.905,80.09L34.969,79.802L35.159,79.836L35.223,80.241L35.286,80.091L35.35,80.14L35.413,79.922L35.604,80.093L35.667,80.109L35.73,80.228L35.794,80.267L35.857,80.123L36.048,79.63L36.111,79.319L36.175,80.566L36.238,81.326L36.302,81.952L36.492,81.953L36.556,81.727L36.619,81.867L36.682,82.195L36.746,81.966L36.936,82.623L37,81.662L37.063,81.752L37.127,81.425L37.19,81.728L37.381,81.398L37.444,81.378L37.507,81.455L37.571,81.47L37.634,81.293L37.825,81.533L37.888,82.388L37.952,82.537L38.015,83.274L38.079,83.434L38.269,83.24L38.333,83.311L38.396,82.937L38.459,82.953L38.523,82.894L38.713,82.723L38.777,83.303L38.84,82.863L38.904,82.953L38.967,81.116L39.158,81.936L39.221,80.71L39.284,80.235L39.348,80.454L39.411,78.127L39.602,76.253L39.665,76.404L39.729,76.98L39.792,77.041L39.856,77.621L40.046,77.578L40.11,78.458L40.173,78.8L40.236,78.971L40.3,79.356L40.363,80.365L40.427,80.168L40.935,77.894L40.998,78.218L41.061,78.49L41.125,78.871L41.188,78.436L41.379,78.878L41.442,78.538L41.506,78.322L41.569,77.795L41.633,77.739L41.823,77.249L41.887,76.578L41.95,76.725L42.013,76.582L42.077,76.361L42.267,76.692L42.331,76.922L42.394,76.832L42.458,76.621L42.521,76.279L42.712,76.052L42.775,75.781L42.838,75.658L42.902,74.935L42.965,74.685L43.156,74.464L43.219,74.453L43.283,74.227L43.346,74.082L43.41,74.166L43.6,73.874L43.664,73.975L43.727,74.326L43.79,74.383L43.854,74.962L44.044,75.345L44.108,75.479L44.171,75.823L44.235,75.286L44.298,75.211L44.489,75.01L44.552,74.691L44.615,74.919L44.679,75.138L44.742,75.296L44.933,75.269L44.996,75.301L45.06,75.387L45.123,74.92L45.187,74.9L45.377,74.599L45.441,74.625L45.504,74.765L45.567,75.111L45.631,74.506L45.821,74.744L45.885,74.62L45.948,75.162L46.012,75.621L46.075,75.666L46.139,76.258L46.392,75.692L46.456,75.784L46.519,75.692L46.71,75.62L46.773,75.789L46.837,75.703L46.9,75.798L46.964,75.965L47.154,76.055L47.218,76.189L47.281,76.187L47.344,76.048L47.408,76.149L47.598,75.951L47.662,76.211L47.725,76.733L47.789,77.36L47.852,77.274L48.043,78.125L48.106,78.477L48.169,78.778L48.233,79.332L48.296,80.841L48.36,82.073L48.423,81.296L48.487,80.648L48.55,81.098L49.058,80.943L49.121,80.924L49.185,80.778L49.375,80.467L49.439,80.251L49.502,79.802L49.566,80.288L49.629,80.421L49.82,80.471L49.883,80.328L49.946,80.432L50.01,80.209L50.073,79.942L50.264,79.8L50.327,79.775L50.391,79.458L50.454,79.406L50.518,79.355L50.708,79.426L50.772,79.42L50.835,79.568L50.898,79.626L50.962,79.633L51.152,79.629L51.216,79.674L51.279,79.869L51.343,80.251L51.406,80.439L51.597,80.764L51.66,81.895L51.723,81.932L51.787,82.162L51.85,82.052L52.041,81.952L52.104,81.81L52.168,81.884L52.231,82.013L52.485,81.995L52.549,81.901L52.612,81.908L52.675,81.949L52.739,82.024L52.929,82.174L52.993,82.174L53.056,82.044L53.12,82.243L53.183,82.573L53.374,82.289L53.437,82.449L53.5,82.403L53.564,81.99L53.627,82.216L53.818,82.235L53.881,82.051L53.945,81.755L54.199,82.902L54.262,81.98L54.326,81.845L54.389,80.935L54.452,80.891L54.516,80.916L54.706,80.827L54.77,80.894L54.833,80.883L54.897,80.849L54.96,80.879L55.151,80.807L55.214,80.817L55.278,80.805L55.341,80.942L55.404,80.877L55.595,80.713L55.658,80.652L55.722,80.472L55.785,80.466L55.849,80.516L56.039,80.484L56.103,80.631L56.166,80.611L56.229,80.553L56.293,80.447L56.547,80.07L56.61,79.065L56.674,78.62L56.737,78.789L56.928,78.493L56.991,78.722L57.055,78.825L57.118,78.626L57.181,78.119L57.372,78.004L57.435,77.735L57.499,77.464L57.562,76.689L57.626,76.143L57.816,75.786L57.88,75.207L57.943,75.526L58.006,75.29L58.07,75.276L58.26,75.655L58.324,76.07L58.387,76.339L58.451,76.784L58.514,76.849L58.705,76.525L58.768,76.746L58.832,76.716L58.895,76.36L58.958,76.056L59.149,75.946L59.212,75.822L59.276,75.807L59.339,76.139L59.403,76.164L59.593,75.69L59.657,75.68L59.72,75.987L59.783,76.081L59.847,75.597L60.037,75.589L60.101,75.654L60.164,75.676L60.228,75.932L60.291,75.916L60.482,75.649L60.545,75.661L60.609,76.014L60.672,76.363L60.735,76.832L60.926,77.303L60.989,77.811L61.053,77.98L61.116,78.027L61.18,78.125L61.37,78.554L61.434,78.609L61.497,78.855L61.56,78.983L61.624,79.597L61.814,79.741L61.878,79.808L61.941,79.585L62.005,79.47L62.068,79.265L62.259,79.335L62.322,80.126L62.386,80.766L62.449,80.795L62.512,82.282L62.766,85.084L62.83,86.376L62.893,85.904L62.957,85.522L63.147,84.784L63.211,84.041L63.274,85.524L63.337,85.204L63.401,85.519L63.464,85.967L63.528,85.957L64.036,85.625L64.099,87.124L64.163,89.662L64.226,93.39L64.289,94.08L64.48,94.124L64.543,92.187L64.607,93.278L64.67,93.216L64.734,92.585L64.924,92.233L64.988,92.454L65.051,92.531L65.114,92.385L65.178,92.75L65.368,92.655L65.432,94.143L65.495,94.978L65.559,95.153L65.622,95.289L65.813,95.272L65.876,94.813L65.94,95.372L66.003,95.684L66.066,96.638L66.257,97.883L66.32,97.993L66.384,98.446L66.447,100.037L66.511,98.946L66.701,97.674L66.765,98.337L66.828,97.008L66.891,97.773L66.955,97.321L67.145,97.998L67.209,97.822L67.272,98.725L67.336,100.337L67.399,99.647L67.59,99.843L67.653,100.487L67.717,100.481L67.78,101.205L67.843,103.767L68.034,103.528L68.097,103.077L68.161,103.842L68.224,103.837L68.288,104.936L68.478,105.1L68.542,105.856L68.605,107.328L68.668,107.262L68.732,107.489L68.922,107.418L68.986,107.35L69.049,107.648L69.113,107.686L69.176,107.702L69.367,107.814L69.43,107.916L69.494,107.631L69.747,108.829L69.811,107.751L69.874,107.771L69.938,107.91L70.001,107.998L70.065,108.674L70.255,108.14L70.319,107.645L70.382,106.862L70.445,104.326L70.509,103.115L70.699,102.66L70.763,100.007L70.826,100.282L70.89,101.662L70.953,102.076L71.017,102.658L71.524,102.169L71.588,101.099L71.651,99.088L71.715,97.452L71.778,96.106L71.842,97.062L72.032,97.436L72.096,97.767L72.159,99.114L72.222,100.064L72.286,100.064L72.476,99.667L72.54,99.334L72.603,100.27L72.667,100.231L72.73,100.401L72.921,100.25L72.984,100.672L73.048,100.85L73.111,100.912L73.174,100.295L73.365,100.036L73.428,99.926L73.492,99.289L73.555,99.339L73.619,99.254L73.809,99.228L73.873,99.42L73.936,99.818L74,99.837L74.063,100.004L74.253,100.053L74.317,100.237L74.38,100.263L74.444,100.354L74.507,99.693L74.698,99.279L74.761,99.04L74.825,99.081L74.888,98.989L74.951,98.874L75.142,99.077L75.205,99.245L75.269,100.5L75.332,100.509L75.396,100.025L75.65,99.945L75.713,99.313L75.777,99.205L75.84,99.122L76.03,99.17L76.094,99.212L76.157,98.6L76.221,98.564L76.284,99.227L76.475,99.129L76.538,99.406L76.602,99.29L76.665,99.19L76.728,99.082L76.919,98.909L76.982,98.826L77.046,98.954L77.109,98.784L77.363,99.167L77.427,99.584L77.49,99.213L77.554,99.387L77.617,99.513L77.807,99.49L77.871,99.639L77.934,99.775L77.998,99.856L78.061,99.991L78.252,100.106L78.315,100.271L78.379,100.327L78.442,100.311L78.505,100.131L78.696,100.004L78.759,100.139L78.823,100.143L79.077,101.113L79.14,100.071L79.204,99.888L79.267,100.365L79.331,100.175L79.394,99.676L79.584,99.525L79.648,99.511L79.711,99.528L79.775,99.282L79.838,99.332L80.029,99.307L80.092,99.238L80.156,99.146L80.219,99.168L80.282,99.373L80.473,99.209L80.536,99.149L80.6,98.776L80.663,98.949L80.727,98.785L80.917,98.961L80.981,98.86L81.044,98.531L81.108,98.306L81.171,97.693L81.361,97.338L81.425,97.389L81.488,97.181L81.552,96.729L81.615,96.26L81.806,96.209L81.869,95.4L81.933,94.534L81.996,93.706L82.059,92.646L82.25,92.366L82.313,92.342L82.377,93.144L82.44,93.668L82.504,93.241L82.694,93.446L82.758,93.624L82.821,93.265L82.885,93.131L82.948,92.836L83.138,92.366L83.202,92.079L83.265,92.249L83.329,92.375L83.392,92.777L83.583,91.831L83.646,91.724L83.71,92.034L83.773,91.931L83.836,91.875L84.027,91.734L84.09,91.633L84.154,91.909L84.217,92.046L84.281,92.526L84.471,92.662L84.535,92.876L84.598,92.97L84.662,93.031L84.725,93.127L84.915,93.225L84.979,93.357L85.042,93.693L85.106,94.173L85.169,94.11L85.36,94.095L85.423,93.999L85.487,94.139L85.55,93.881L85.613,93.556L85.804,93.599L85.867,93.891L85.931,94.03L85.994,94.07L86.058,94.173L86.248,94.021L86.312,93.173L86.375,93.307L86.439,93.333L86.502,93.348L86.629,93.472L86.692,93.373L86.756,93.363L86.819,93.283L87.39,93.389L87.454,93.39L87.581,92.887L87.644,92.358L87.708,92.036L87.771,91.236L87.835,91.288L88.025,91.181L88.089,91.547L88.152,91.56L88.216,91.355L88.279,91.202L88.469,91.342L88.533,91.123L88.596,90.957L88.66,90.939L88.723,91.213L88.914,91.014L88.977,91.045L89.041,91.012L89.104,90.628L89.167,90.612L89.358,90.545L89.421,90.41L89.485,90.922L89.548,91.043L89.612,91.107L89.802,91.029L89.866,91.033L89.929,90.953L89.993,91.178L90.056,91.297L90.246,91.243L90.31,91.452L90.373,91.629L90.437,91.674L90.5,92.547L90.691,92.785L90.754,92.73L90.818,93.401L90.881,93.314L90.944,93.144L91.135,92.165L91.198,92.557L91.262,92.965L91.325,92.958L91.389,92.783L91.579,93.106L91.643,92.934L91.706,93.062L91.77,93.191L91.833,93.132L92.023,93.019L92.087,92.958L92.15,92.946L92.214,92.941L92.277,92.536L92.468,92.506L92.531,92.67L92.595,92.975L92.658,92.965L92.912,92.926L92.975,92.512L93.039,92.536L93.102,92.4L93.166,92.026L93.356,92.252L93.42,92.261L93.483,91.862L93.547,92.166L93.61,92.282L93.8,92.411L93.864,92.358L93.927,92.479L93.991,92.21L94.054,92.266L94.245,92.019L94.308,92.437L94.372,92.713L94.435,92.479L94.499,92.47L94.689,93.085L94.752,93.266L94.816,93.254L94.879,93.361L94.943,93.398L95.133,93.285L95.197,93.271L95.26,93.259L95.324,93.292L95.387,93.185L95.895,93.05L95.958,93.222L96.022,93.086L96.085,92.922L96.149,93.47L96.212,93.918L96.276,94.474L96.466,95.192L96.529,95.419L96.593,95.885L96.656,96.139L96.72,96.696L96.91,96.833L96.974,96.877L97.037,96.899L97.101,96.778L97.164,96.742L97.354,96.829L97.418,96.745L97.481,97.108L97.545,96.946L97.608,96.946L97.799,96.976L97.862,96.583L97.926,96.357L97.989,96.348L98.053,96.338L98.243,95.609L98.306,95.467L98.37,95.576L98.433,95.765L98.497,95.794L98.751,96.338L98.814,95.651L98.878,94.999L98.941,94.804L99.131,94.883L99.195,94.669L99.258,95.183L99.322,95.073L99.385,95.062L99.576,95.542L99.639,96.061L99.703,96.187L99.766,96.24L99.83,96.628L100.02,96.585L100.083,96.668L100.147,97.334L100.21,97.574L100.274,97.643L100.528,97.365L100.591,97.516L100.655,97.613L100.718,98.252L100.908,97.957L100.972,97.9L101.035,98.476L101.099,98.555L101.162,98.469L101.353,99.551L101.416,100.025L101.48,100.824L101.543,100.086L101.607,99.792L101.797,99.783L101.86,99.713L101.924,99.757L101.987,99.644L102.051,99.755L102.241,99.758L102.305,98.97L102.368,98.788L102.432,98.942L102.495,99.098L102.685,99.241L102.749,99.188L102.812,98.727L102.876,98.208L102.939,98.052L103.003,98.099L103.066,98.1L103.32,97.963L103.384,96.204L103.574,96.049L103.637,96.314L103.701,95.765L103.764,95.9L103.828,96.2L104.018,96.939L104.082,97.736L104.145,97.914L104.209,97.98L104.272,98.125L104.462,98.257L104.526,98.776L104.589,98.835L104.653,98.731L104.716,98.817L104.907,98.798L104.97,99.064L105.034,99.116L105.097,99.122L105.161,99.201L105.351,99.18L105.414,99.037L105.478,98.753L105.541,98.909L105.605,98.294L105.795,97.879L105.859,97.648L105.922,97.664L105.986,97.639L106.049,97.502L106.239,97.317L106.303,97.118L106.366,97.657L106.43,97.777L106.493,97.955L106.684,97.961L106.747,98.119L106.811,98.138L106.874,98.214L106.938,98.23L107.128,98.347L107.191,98.343L107.255,98.195L107.318,98.21L107.382,98.231L107.572,98.183L107.636,98.109L107.699,98.095L107.763,98.011L107.826,97.99L108.016,97.973L108.08,97.912L108.143,97.908L108.207,97.964L108.27,97.894L108.461,97.845L108.524,97.443L108.588,97.317L108.651,97.258L108.715,97.18L108.905,97.03L108.968,96.804L109.032,96.738L109.095,96.591L109.159,96.532L109.286,96.4L109.349,96.356L109.413,96.394L109.667,96.345L109.73,96.351L109.793,96.375L109.857,96.211L109.92,96.159L109.984,96.332L110.492,96.062L110.555,96.213L110.682,95.815L110.745,95.743L110.809,95.65L110.872,95.737L110.936,96.01L111.126,95.79L111.19,95.865L111.253,92.972L111.317,91.699L111.38,91.87L111.57,91.6L111.634,91.091L111.697,90.637L111.761,90.493L111.824,90.723L112.015,90.333L112.078,89.471L112.142,87.879L112.205,86.97L112.269,86.597L112.459,86.365L112.522,85.933L112.586,84.508L112.649,83.466L112.713,83.451L112.903,83.554L112.967,84.094L113.03,84.933L113.094,85.887L113.157,85.236L113.347,84.547L113.411,84.166L113.474,83.827L113.538,83.344L113.601,83.062L113.792,83.184L113.855,83.213L113.919,84.118L113.982,84.206L114.046,84.558L114.236,84.976L114.299,85.367L114.363,84.99L114.426,84.795L114.49,84.804L114.68,85.395L114.744,85.356L114.807,85.801L114.871,85.806L114.934,85.954L115.124,86.285L115.188,86.078L115.251,86.066L115.315,85.985L115.378,85.834L115.569,85.117L115.632,85.029L115.696,85.167L115.759,85.576L115.823,85.622L116.076,86.172L116.14,87.106L116.203,86.968L116.267,87.349L116.457,87.385L116.521,87.103L116.584,87.353L116.648,86.884L116.711,86.484L116.901,85.658L116.965,84.763L117.028,84.451L117.092,84.369L117.155,84.363L117.346,84.472L117.409,84.6L117.473,84.557L117.536,84.538L117.6,84.521L117.726,84.687L117.79,84.65L117.853,84.53L118.361,83.236L118.425,83.171L118.488,83.248L118.552,83.21L118.678,83.713L118.742,83.886L118.805,84.363L118.869,84.471L118.932,84.342L119.123,83.491L119.186,83.776L119.25,84.281L119.313,84.673L119.377,84.304L119.567,84.997L119.63,85.072L119.694,85.281L119.757,85.323L119.821,85.023L120.011,85.005L120.075,85.669L120.138,85.945L120.202,85.429L120.265,85.505L120.455,85.351L120.519,85.969L120.582,85.991L120.646,86.164L120.709,86.155L120.9,85.776L120.963,85.717L121.027,85.684L121.09,86.039L121.154,86.151L121.344,86.154L121.407,86.143L121.471,85.876L121.534,85.996L121.598,85.991L121.661,86.09L121.915,85.637L121.979,85.663L122.042,85.633L122.232,85.944L122.296,86.609L122.359,87.026L122.423,87.018L122.486,87.007L122.677,86.591L122.74,86.586L122.804,86.655L122.867,86.661L122.931,86.569L123.121,86.569L123.184,86.494L123.248,86.48L123.311,86.899L123.375,87.041L123.629,87.152L123.692,87.136L123.756,87.05L123.819,87.111L124.009,87.182L124.073,87.041L124.136,87.164L124.2,87.197L124.263,86.794L124.454,86.77L124.517,86.765L124.581,86.803L124.644,86.812L124.708,86.933L124.898,87.134L124.961,87.112L125.025,87.575L125.088,87.734L125.152,87.58L125.342,87.651L125.406,87.291L125.469,87.206L125.533,87.208L125.596,87.194L125.85,87.052L125.913,86.281L125.977,85.967L126.04,85.852L126.231,85.842L126.294,85.236L126.358,84.594L126.421,84.65L126.485,84.519L126.675,85.153L126.738,85.485L126.802,84.72L126.865,84.707L126.929,85.171L127.119,85.889L127.183,85.635L127.246,85.528L127.31,85.502L127.373,85.773L127.563,86.023L127.627,85.862L127.69,85.638L127.754,85.518L127.817,85.555L128.008,85.284L128.071,85.366L128.135,85.341L128.198,85.099L128.262,84.97L128.452,84.312L128.515,83.782L128.579,82.772L128.642,82.069L128.706,82.348L128.896,82.266L128.96,82.027L129.023,82.088L129.087,82.117L129.15,82.392L129.34,82.303L129.404,82.221L129.467,80.894L129.531,80.072L129.594,80.849L129.785,81.381L129.848,81.816L129.912,81.779L129.975,82.541L130.039,82.125L130.229,82.061L130.292,81.719L130.356,81.913L130.419,81.781L130.483,82.356L130.673,82.285L130.737,82.073L130.8,82.077L130.864,81.905L130.927,81.437L131.117,79.72L131.181,79.061L131.244,79.406L131.308,79.976L131.371,80.195L131.562,80.821L131.625,81.268L131.689,80.735L131.752,80.427L131.816,80.905L132.069,81.23L132.133,81.033L132.196,80.669L132.26,80.362L132.45,80.32L132.514,80.45L132.577,80.235L132.641,80.788L132.704,82.092L132.894,82.929L132.958,82.404L133.021,82.543L133.085,83.004L133.148,83.406L133.656,83.363L133.72,84.32L133.783,85.296L133.846,85.498L133.91,84.902L133.973,84.033L134.037,84.592L134.227,84.217L134.291,85.108L134.354,84.898L134.418,85.148L134.481,84.919L134.671,84.787L134.735,84.406L134.798,84.514L134.862,84.238L134.925,84.523L135.116,85.23L135.179,85.63L135.243,86.023L135.306,86.126L135.37,86.322L135.56,86.241L135.623,86.713L135.687,87.834L135.75,89.035L135.814,88.88L136.004,88.925L136.068,88.326L136.131,88.161L136.195,87.543L136.258,87.997L136.448,87.606L136.512,87.447L136.575,88.523L136.639,88.883L136.702,88.813L136.893,88.454L136.956,88.314L137.02,88.917L137.083,91.362L137.147,92.367L137.337,92.559L137.4,91.956L137.464,91.505L137.527,91.786L137.591,92.36L137.781,92.19L137.845,91.616L137.908,91.601L137.972,91.562L138.035,91.903L138.225,91.748L138.289,91.866L138.352,91.913L138.416,91.913L138.479,91.83L138.67,91.822L138.733,91.868L138.797,91.851L138.86,92.028L138.924,92.533L138.987,92.523L139.241,92.405L139.304,92.01L139.368,92.74L139.558,92.779L139.622,92.717L139.685,92.713L139.749,92.6L139.812,92.604L140.002,92.33L140.066,92.367L140.129,92.224L140.193,92.646L140.256,92.7L140.32,92.658L140.828,92.7L140.891,92.331L140.954,92.422L141.018,91.538L141.081,91.625L141.145,91.57L141.335,91.165L141.399,91.226L141.462,90.84L141.526,90.799L141.589,90.975L141.779,91.395L141.843,91.264L141.906,90.965L141.97,90.833L142.033,90.46L142.224,91.123L142.287,91.165L142.351,90.774L142.414,90.768L142.478,90.661L142.668,90.313L142.731,90.037L142.795,90.372L142.858,90.381L142.922,90.089L143.112,90.011L143.176,90.217L143.239,90.557L143.303,90.57L143.366,90.8L143.556,91.096L143.62,90.977L143.683,90.735L143.747,90.536L143.81,90.554L144.001,90.635L144.064,90.325L144.128,90.165L144.191,90.583L144.255,90.945L144.445,90.825L144.508,90.812L144.572,91.046L144.635,91.154L144.699,91.423L144.762,91.456L144.826,91.18L145.08,91.255L145.143,91.19L145.333,91.182L145.397,91.322L145.46,91.419L145.524,91.145L145.587,91.043L145.778,91.017L145.841,91.009L145.905,90.905L145.968,90.725L146.032,90.902L146.222,90.841L146.285,90.899L146.349,90.951L146.412,91.002L146.476,91.013L146.539,91.1L146.793,90.947L146.857,90.927L146.92,90.873L147.111,90.893L147.174,90.948L147.237,90.938L147.301,91.4L147.364,91.846L147.555,92.674L147.618,95.249L147.682,95.643L147.745,94.492L147.809,95.487L147.999,95.252L148.062,95.138L148.126,95.2L148.189,96.63L148.253,97.854L148.443,97.264L148.507,96.626L148.57,95.992L148.634,95.72L148.697,95.356L148.888,95.248L148.951,94.746L149.014,94.205L149.078,94.243L149.141,95.039L149.332,93.927L149.395,93.901L149.459,93.197L149.522,92.963L149.586,93.049L149.776,91.964L149.839,92.054L149.903,92.083L149.966,92.449L150.22,92.938L150.284,93.389L150.347,93.989L150.411,94.283L150.474,94.045L150.665,93.696L150.728,94.016L150.791,93.963L150.855,94.196L150.918,94.923L151.109,95.252L151.172,95.536L151.236,95.834L151.299,96.09L151.363,96.031L151.553,95.784L151.616,95.478L151.68,95.378L151.743,95.434L151.807,95.555L151.997,95.45L152.061,95.473L152.124,95.465L152.188,95.498L152.251,95.216L152.442,95.076L152.505,94.825L152.568,94.775L152.632,94.919L152.695,94.812L152.886,94.418L152.949,94.103L153.013,93.523L153.076,93.638L153.14,93.66L153.33,93.262L153.393,92.926L153.457,92.334L153.52,92.202L153.584,91.994L153.774,91.903L153.838,91.703L153.901,90.655L153.965,91.394L154.028,92.253L154.219,92.12L154.282,91.99L154.345,92.005L154.409,91.786L154.472,91.652L154.663,91.796L154.726,92.091L154.79,92.056L154.853,92.067L154.917,91.394L155.107,90.61L155.17,90.335L155.234,89.52L155.297,89.475L155.361,88.958L155.551,88.343L155.615,89.1L155.678,88.953L155.742,89.307L155.805,89.317L155.996,89.2L156.059,89.811L156.122,90.735L156.186,91.109L156.249,90.791L156.313,90.804L156.884,90.364L156.947,90.34L157.011,90.187L157.074,90.308L157.138,90.622L157.328,90.809L157.392,90.562L157.455,90.425L157.519,90.421L157.582,90.218L157.773,90.255L157.836,90.234L157.899,90.075L157.963,90.032L158.026,89.904L158.217,90.122L158.28,90.282L158.344,90.213L158.407,89.947L158.471,90.218L158.661,90.372L158.724,90.452L158.788,90.458L158.851,90.517L158.915,90.66L159.105,90.566L159.169,90.763L159.232,90.833L159.296,90.866L159.359,91.127L159.55,91.428L159.613,91.388L159.676,91.152L159.74,90.682L159.803,90.663L159.994,90.602L160.057,90.325L160.121,89.945L160.184,89.722L160.248,89.504L160.438,89.495L160.501,89.295L160.565,89.143L160.628,89.163L160.692,89.016L160.882,88.928L160.946,89.028L161.009,89.139L161.073,89.215L161.136,89.168L161.327,89.036L161.39,89.199L161.453,89.178L161.517,89.08L161.58,89.108L161.771,89.071L161.834,89.01L161.898,89.302L161.961,89.72L162.025,89.954L162.215,90.107L162.469,89.424L162.532,89.652L162.596,89.852L162.659,89.844L162.723,90.146L162.786,90.2L162.85,89.861L162.913,89.574L163.104,89.646L163.167,89.741L163.23,89.733L163.294,89.935L163.357,90.235L163.548,90.343L163.611,90.3L163.675,90.023L163.738,89.851L163.802,89.968L163.992,89.672L164.056,89.551L164.119,89.469L164.182,89.517L164.246,89.544L164.436,89.469L164.5,89.406L164.563,89.396L164.627,89.492L164.69,89.49L165.198,89.469L165.261,89.451L165.325,89.438L165.388,89.317L165.452,89.491L165.515,89.293L165.579,89.282L165.769,89.076L165.833,89.015L165.896,89.133L165.959,89.071L166.023,88.971L166.213,89.808L166.277,89.785L166.34,89.995L166.404,89.722L166.467,89.692L166.658,89.439L166.721,89.569L166.784,89.691L166.848,89.629L166.911,89.414L167.102,89.424L167.165,89.462L167.229,89.49L167.292,89.328L167.356,89.315L167.546,89.356L167.61,89.355L167.673,89.355L167.736,89.387L167.8,89.424L167.99,89.734L168.054,90.143L168.117,90.316L168.371,90.536L168.435,90.204L168.498,90.374L168.561,90.64L168.625,90.504L168.688,90.624L168.879,90.793L168.942,91.295L169.006,90.873L169.069,90.639L169.133,90.466L169.323,90.288L169.387,90.758L169.45,90.786L169.513,90.817L169.577,91.44L169.64,91.564L169.704,91.666L169.958,91.466L170.021,91.644L170.212,91.489L170.275,92.188L170.338,91.755L170.402,91.826L170.465,92.147L170.656,92.184L170.719,92.137L170.783,91.634L170.846,91.555L170.91,91.556L171.1,91.57L171.164,91.574L171.227,91.558L171.29,91.777L171.354,91.772L171.544,91.938L171.608,92.198L171.671,91.554L171.735,91.521L171.798,91.384L171.989,91.211L172.052,91.131L172.115,90.953L172.179,90.686L172.242,90.455L172.306,90.374L172.369,90.55L172.623,90.061L172.687,89.84L172.877,89.761L172.941,89.51L173.004,88.473L173.067,85.309L173.131,85.885L173.321,86.439L173.385,86.795L173.448,88.789L173.512,89.249L173.575,89.674L173.766,89.676L173.829,89.629L173.892,89.857L173.956,90.016L174.019,90.007L174.21,89.603L174.273,89.151L174.337,88.878L174.4,88.487L174.464,88.078L174.654,87.898L174.718,87.69L174.781,87.327L174.844,87.163L174.908,86.901L175.098,86.265L175.162,85.635L175.225,84.148L175.289,84.235L175.352,84.633L175.543,84.588L175.606,84.59L175.669,84.791L175.733,85.356L175.796,85.268L175.987,85.157L176.05,85.1L176.114,84.377L176.177,83.743L176.241,83.569L176.431,83.15L176.495,82.29L176.558,81.695L176.621,81.657L176.685,81.928L176.875,81.638L176.939,80.378L177.002,81.001L177.066,81.141L177.129,81.961L177.32,82.269L177.383,82.221L177.446,81.612L177.51,81.452L177.573,81.306L177.764,81.305L177.827,81.28L177.891,80.566L177.954,80.829L178.018,80.836L178.208,80.76L178.272,80.266L178.335,79.908L178.398,79.938L178.462,79.988L178.652,80.023L178.716,80.402L178.779,80.349L179.033,81.285L179.097,81.074L179.16,81.275L179.223,81.484L179.287,82.12L179.35,81.789L179.477,81.742L179.541,81.864L180.049,81.785L180.112,81.759L180.175,81.73L180.239,81.722L180.302,81.8L180.429,81.399L180.493,81.482L180.556,81.125L180.62,81.042L180.683,80.915L180.874,80.685L180.937,80.674L181,80.749L181.064,80.329L181.127,79.964L181.318,79.309L181.381,78.882L181.445,78.703L181.508,79.399L181.572,79.541L181.762,79.462L181.826,79.215L181.889,77.981L181.952,77.625L182.016,77.042L182.206,75.277L182.27,75.743L182.333,75.013L182.397,74.97L182.46,74.055L182.651,73.644L182.714,73.491L182.778,73.488L182.841,73.698L182.904,74.227L183.095,74.169L183.158,74.25L183.222,75.349L183.285,75.868L183.349,76.825L183.539,75.635L183.603,75.61L183.666,75.717L183.729,75.343L183.793,75.177L183.983,74.408L184.047,73.412L184.11,73.884L184.174,74.572L184.237,75.107L184.428,74.476L184.491,74.484L184.555,74.288L184.618,74.037L184.681,73.895L184.872,73.884L184.935,74.238L184.999,74.227L185.062,74.414L185.126,74.333L185.316,74.457L185.38,74.205L185.506,73.521L185.57,73.376L185.76,73.197L185.824,73.394L185.887,73.984L185.951,74.259L186.014,74.398L186.205,74.423L186.268,74.728L186.332,75.401L186.395,75.308L186.458,75.265L186.649,75.145L186.712,75.531L186.776,76.334L186.839,75.822L186.903,75.945L187.03,76.408L187.093,77.046L187.157,77.243L187.22,77.085L187.283,77.208L187.791,77.577L187.855,77.586L187.982,77.258L188.045,77.287L188.109,77.528L188.172,77.563L188.235,77.458L188.426,77.198L188.489,76.713L188.553,76.681L188.616,76.913L188.68,77.395L188.87,77.911L188.934,78.591L188.997,78.019L189.06,79.155L189.124,78.752L189.314,78.279L189.378,77.328L189.441,77.157L189.505,77.216L189.568,77.517L189.759,77.635L189.822,77.718L189.886,77.923L189.949,77.922L190.012,78.341L190.203,78.568L190.266,78.009L190.33,77.763L190.393,77.813L190.457,78.182L190.647,77.992L190.711,77.961L190.774,77.982L190.837,77.951L190.901,77.557L191.091,77.812L191.155,77.795L191.218,77.756L191.282,77.344L191.345,77.188L191.599,77.475L191.663,77.438L191.726,77.52L191.789,77.882L191.98,78.005L192.043,77.976L192.107,78.201L192.17,79.289L192.234,79.018L192.424,79.018L192.488,79.265L192.551,79.361L192.614,79.815L192.678,79.949L192.868,80.152L192.932,80.175L192.995,79.741L193.249,79.075L193.313,78.867L193.376,79.145L193.44,79.287L193.503,79.765L193.566,80.286L193.757,80.308L193.82,80.188L193.884,79.581L193.947,79.736L194.011,79.597L194.201,79.506L194.265,79.588L194.328,79.592L194.391,79.892L194.455,80.038L194.645,80.176L194.709,80.144L194.772,80.689L194.836,80.91L194.899,81.061L195.153,82.005L195.217,82.095L195.28,81.944L195.343,81.657L195.534,81.636L195.597,82.199L195.661,82.436L195.724,82.338L195.788,81.923L195.978,82.237L196.042,82.354L196.105,82.232L196.168,82.182L196.232,82.356L196.422,82.138L196.486,82.429L196.549,82.496L196.613,82.351L196.676,82.346L196.867,82.269L196.93,82.167L196.994,81.502L197.057,81.104L197.12,80.805L197.311,80.964L197.374,80.766L197.438,80.871L197.501,80.809L197.565,80.739L197.755,80.686L197.819,80.476L197.882,80.009L197.945,79.322L198.009,79.219L198.199,79.474L198.263,79.47L198.326,79.823L198.39,79.742L198.453,79.934L198.644,80.001L198.707,79.893L198.771,79.845L198.834,80.22L198.897,80.299L199.088,80.43L199.151,80.571L199.215,80.483L199.278,80.557L199.342,80.487L199.532,80.501L199.596,80.639L199.659,80.735L199.722,81.112L199.786,80.76L199.976,80.996L200.04,80.336L200.103,80.079L200.167,80.176L200.23,80.185L200.421,80.046L200.484,80.048L200.548,80.273L200.611,80.571L200.674,80.677L200.865,80.655L200.928,80.647L200.992,80.422L201.055,80.518L201.119,80.511L201.373,80.513L201.436,79.867L201.5,79.742L201.563,79.933L201.753,80.265L201.817,80.052L201.88,80.385L201.944,80.868L202.007,81.517L202.198,81.333L202.261,81.585L202.325,81.103L202.388,81.283L202.451,81.28L202.578,81.131L202.642,81.296L202.705,81.433L203.213,81.44L203.277,81.371L203.34,81.367L203.403,81.715L203.53,81.808L203.594,83.34L203.657,84.041L203.721,84.363L203.784,85.419L203.975,85.731L204.038,86.213L204.102,86.204L204.165,86.031L204.228,85.875L204.419,85.735L204.482,86.201L204.546,86.199L204.609,86.096L204.673,86.08L204.863,86.692L204.927,86.942L204.99,87.402L205.054,87.268L205.117,88.136L205.307,88.811L205.371,89.22L205.434,88.506L205.498,87.829L205.561,87.268L205.752,86.88L205.815,87.287L205.879,87.758L205.942,87.05L206.005,86.635L206.196,88.536L206.259,88.413L206.323,88.129L206.386,87.944L206.45,88.092L206.64,88.205L206.704,87.229L206.767,86.252L206.831,85.774L206.894,84.664L207.084,83.919L207.148,83.995L207.211,85.337L207.275,84.475L207.338,84.531L207.529,84.348L207.592,84.689L207.656,85.341L207.719,85.371L207.782,85.707L207.973,85.637L208.036,85.832L208.1,86.831L208.163,86.474L208.227,86.367L208.417,86.394L208.481,86.507L208.544,86.642L208.798,86.516L208.861,86.515L208.925,86.476L208.988,86.782L209.052,86.498L209.115,86.49L209.306,86.47L209.369,87.382L209.433,87.611L209.496,87.328L209.559,88.115L209.75,88.111L209.813,88.138L209.877,88.374L209.94,88.603L210.004,88.789L210.194,89.098L210.258,89.171L210.321,88.359L210.385,87.976L210.448,87.951L210.638,88.448L210.702,88.407L210.765,88.518L210.829,88.907L210.892,88.768L211.083,89.081L211.146,89.086L211.21,89.667L211.273,90.138L211.336,90.596L211.463,90.655L211.527,90.861L211.59,90.866L212.098,91.068L212.162,90.907L212.225,90.66L212.288,90.622L212.415,90.395L212.479,90.094L212.542,90.292L212.606,89.655L212.669,89.503L212.86,89.073L212.923,89.163L212.987,89.544L213.05,89.74L213.113,89.09L213.304,88.963L213.367,89.232L213.431,88.954L213.494,89.015L213.558,89.589L213.748,89.487L213.812,89.408L213.875,89.17L213.939,88.408L214.002,87.756L214.192,87.416L214.256,87.303L214.319,87.435L214.383,87.988L214.446,88.128L214.7,87.385L214.764,87.12L214.827,87.205L214.89,87.164L215.081,87.213L215.144,87.054L215.208,87.846L215.271,87.8L215.335,88.154L215.525,89.239L215.589,89.638L215.652,89.606L215.716,89.576L215.779,89.385L215.969,89.812L216.033,89.971L216.096,90.027L216.16,90.069L216.414,89.893L216.477,89.976L216.541,89.709L216.604,89.636L216.667,90.095L216.858,90.508L216.921,91.152L216.985,92.557L217.048,93.569L217.112,92.629L217.302,92.224L217.366,92.018L217.429,91.723L217.493,91.784L217.556,91.224L217.746,90.969L217.81,90.565L217.873,91.099L217.937,88.897L218,86.316L218.191,88.55L218.254,89.41L218.318,89.63L218.381,89.806L218.444,89.931L218.635,89.867L218.698,89.861L218.762,89.758L218.825,89.482L218.889,89.781L219.079,89.346L219.143,89.457L219.206,89.499L219.27,90.469L219.333,90.721L219.587,90.614L219.65,90.332L219.714,90.329L219.777,90.324L219.968,90.123L220.031,90.409L220.095,90.976L220.158,90.771L220.222,91.105L220.412,91.72L220.475,91.465L220.539,91.621L220.602,91.871L220.666,91.656L220.856,91.366L220.92,91.002L220.983,90.996L221.047,91.201L221.11,91.211L221.3,91.199L221.364,90.91L221.427,91.173L221.491,91.054L221.554,91.17L221.745,91.135L221.808,91.28L221.872,91.178L221.935,91.116L221.999,90.866L222.189,90.532L222.252,90.622L222.316,90.546L222.379,91.08L222.443,91.098L222.633,90.864L222.697,89.906L222.76,89.716L222.824,89.715L222.887,89.831L223.077,89.882L223.141,89.737L223.204,89.621L223.268,89.593L223.331,89.955L223.522,90.06L223.585,90.594L223.649,90.718L223.712,91.05L223.776,91.127L223.966,91.534L224.029,91.772L224.093,91.428L224.347,91.379L224.41,90.743L224.474,90.976L224.537,90.87L224.601,90.791L224.664,90.756L224.854,91.043L224.918,91.264L224.981,91.474L225.045,91.124L225.108,91.402L225.299,91.477L225.362,90.948L225.426,91.366L225.489,91.619L225.553,91.745L225.743,92.157L225.806,92.645L225.87,92.695L226.378,92.823L226.441,93.763L226.504,94.034L226.631,93.898L226.695,94.449L226.758,95.141L226.822,94.669L226.885,93.864L227.076,93.829L227.139,94.681L227.203,94.637L227.266,94.808L227.33,94.943L227.52,95.348L227.583,95.947L227.647,95.81L227.71,94.83L227.774,94.566L227.964,94.672L228.028,94.337L228.091,93.731L228.155,93.831L228.218,93.854L228.408,92.736L228.472,92.679L228.535,93.138L228.599,93.315L228.662,93.634L228.853,93.7L228.916,93.484L228.98,93.246L229.043,93.398L229.107,93.718L229.297,93.574L229.36,93.917L229.424,94.244L229.487,94.682L229.551,94.793L229.741,95.015L229.805,94.94L229.868,94.772L229.932,95.214L229.995,95.2L230.185,95.222L230.249,95.569L230.312,95.799L230.376,95.729L230.439,95.862L230.63,95.518L230.693,95.758L230.757,95.835L230.82,96.557L230.884,96.987L231.074,97.428L231.137,97.928L231.201,97.699L231.264,97.919L231.328,98.01L231.518,97.97L231.582,97.937L231.645,97.375L231.709,97.377L231.962,96.738L232.026,96.232L232.089,96.619L232.153,96.691L232.216,96.946L232.407,97.517L232.47,97.931L232.534,98.769L232.597,98.651L232.661,98.398L232.851,98.19L232.914,97.903L232.978,97.518L233.041,97.82L233.105,97.882L233.295,96.726L233.359,96.557L233.422,96.06L233.486,96.314L233.549,96.751" stroke-width="2" fill="none" stroke="#af516c"/></g></g></svg>