<?xml-stylesheet type="text/css" href="https://ig.ft.com/graphics/bloomberg-economics/chart-style.css" ?><svg xmlns="http://www.w3.org/2000/svg" viewBox="0 0 304 270"><text class="chart-title" fill="#43423e" font-size="20" y="22">中国经济活动指标</text><text class="chart-subtitle" fill="#43423e" font-size="15" y="42">年化月率%</text><text class="chart-source" font-size="10" fill-opacity="0.4" y="265">来源：CEIC，2016/11/14</text><g transform="translate(1,100)"><g transform="translate(0,120)" class="x axis"><g class="tick" style="" transform="translate(0,0)"><line y2="6" x2="0" fill="none" stroke="#000" stroke-opacity="0.2"/><text dy="0" style="" y="20" x="0" font-family="MetricWeb,sans-serif" fill-opacity="0.6" font-size="12" text-anchor="start">2013</text></g><g class="tick" style="" transform="translate(67.98758217677135,0)"><line y2="6" x2="0" fill="none" stroke="#000" stroke-opacity="0.2"/><text dy="0" style="" y="20" x="0" font-family="MetricWeb,sans-serif" fill-opacity="0.6" font-size="12" text-anchor="start">2014</text></g><g class="tick" style="" transform="translate(135.9751643535427,0)"><line y2="6" x2="0" fill="none" stroke="#000" stroke-opacity="0.2"/><text dy="0" style="" y="20" x="0" font-family="MetricWeb,sans-serif" fill-opacity="0.6" font-size="12" text-anchor="start">2015</text></g><g class="tick" style="" transform="translate(203.9627465303141,0)"><line y2="6" x2="0" fill="none" stroke="#000" stroke-opacity="0.2"/><text dy="0" style="" y="20" x="0" font-family="MetricWeb,sans-serif" fill-opacity="0.6" font-size="12" text-anchor="start">2016</text></g><path class="domain" d="M0,0V0H255V0" fill="none" stroke="#74736c"/></g><g transform="translate(255,0)" class="y axis"><g class="tick" style="" transform="translate(0,113.38888888888889)"><line x2="-255" y2="0" fill="none" stroke="#000" stroke-opacity="0.2"/><text dy="0" style="text-anchor: start;" x="3" y="0" font-family="MetricWeb,sans-serif" fill-opacity="0.6" font-size="12">5</text></g><g class="tick" style="" transform="translate(0,80.33333333333334)"><line x2="-255" y2="0" fill="none" stroke="#000" stroke-opacity="0.2"/><text dy="0" style="text-anchor: start;" x="3" y="0" font-family="MetricWeb,sans-serif" fill-opacity="0.6" font-size="12">10</text></g><g class="tick" style="" transform="translate(0,47.27777777777777)"><line x2="-255" y2="0" fill="none" stroke="#000" stroke-opacity="0.2"/><text dy="0" style="text-anchor: start;" x="3" y="0" font-family="MetricWeb,sans-serif" fill-opacity="0.6" font-size="12">15</text></g><g class="tick" style="" transform="translate(0,14.222222222222229)"><line x2="-255" y2="0" fill="none" stroke="#000" stroke-opacity="0.2"/><text dy="0" style="text-anchor: start;" x="3" y="0" font-family="MetricWeb,sans-serif" fill-opacity="0.6" font-size="12">20</text></g><path class="domain" d="M-255,1H0V120H-255" fill="none" stroke="#000" stroke-opacity="0"/></g><g class="chart-key" transform="translate(0,-35)"><g class="key-element" transform="translate(0,0)"><text x="28" font-size="12" fill="#43423e">固定资产投资 (ytd)</text><line x1="0" x2="25" y1="-5" y2="-5" stroke-width="2" fill="none" stroke="#af516c"/></g><g class="key-element" transform="translate(0,20)"><text x="28" font-size="12" fill="#43423e">零售总额</text><line x1="0" x2="25" y1="-5" y2="-5" stroke-width="2" fill="none" stroke="#76acb8"/></g><g class="key-element" transform="translate(0,40)"><text x="28" font-size="12" fill="#43423e">工业生产</text><line x1="0" x2="25" y1="-5" y2="-5" stroke-width="2" fill="none" stroke="#ecafaf"/></g></g><g><path d="M10.99,87.606L16.764,84.961L22.352,85.622L28.126,87.606L33.714,82.317L39.489,77.689L45.263,79.011L50.851,78.35L56.625,80.333L62.213,82.317M78.977,88.267L84.752,88.928L90.34,88.267L96.114,85.622L101.702,86.944L107.476,100.828L113.251,93.556L118.839,95.539L124.613,98.844L130.201,94.217M146.965,109.422L152.739,107.439L158.327,106.117L164.102,101.489L169.69,106.778L175.464,106.117L181.238,108.761L186.826,109.422L192.6,105.456L198.188,107.439M215.139,101.489L220.913,106.778L226.501,106.778L232.275,105.456L237.863,106.778L243.638,104.794L249.412,106.117L255,106.117" stroke-width="2" fill="none" stroke="#ecafaf"/><path d="M10.99,63.144L16.764,61.822L22.352,61.161L28.126,58.517L33.714,59.178L39.489,57.856L45.263,58.517L50.851,58.517L56.625,55.872L62.213,56.533M78.977,65.789L84.752,67.772L90.34,63.806L96.114,64.467L101.702,65.789L107.476,67.772L113.251,69.756L118.839,70.417L124.613,69.094L130.201,67.772M146.965,79.011L152.739,80.333L158.327,79.672L164.102,76.367L169.69,77.028L175.464,75.044L181.238,74.383L186.826,73.722L192.6,72.4L198.188,73.061M215.139,77.028L220.913,79.672L226.501,80.333L232.275,76.367L237.863,79.011L243.638,76.367L249.412,75.706L255,80.333" stroke-width="2" fill="none" stroke="#76acb8"/><path d="M0,6.289L5.774,6.289L10.99,8.272L16.764,10.256L22.352,11.578L28.126,13.561L33.714,13.561L39.489,12.239L45.263,12.9L50.851,13.561L56.625,14.883L62.213,16.867L67.988,28.106L73.762,28.106L78.977,30.089L84.752,32.072L90.34,32.733L96.114,32.072L101.702,34.056L107.476,37.361L113.251,40.006L118.839,41.328L124.613,41.989L130.201,42.65L135.975,54.55L141.749,54.55L146.965,57.194L152.739,67.111L158.327,71.078L164.102,71.078L169.69,72.4L175.464,74.383L181.238,78.35L186.826,79.011L192.6,79.011L198.188,80.333L203.963,79.011L209.737,79.011L215.139,75.706L220.913,77.028L226.501,82.978L232.275,86.944L237.863,92.894L243.638,92.894L249.412,92.233L255,91.572" stroke-width="2" fill="none" stroke="#af516c"/></g></g></svg>