<?xml-stylesheet type="text/css" href="https://ig.ft.com/graphics/bloomberg-economics/chart-style.css" ?><svg xmlns="http://www.w3.org/2000/svg" viewBox="0 0 304 270"><text class="chart-title" fill="#43423e" font-size="20" y="22">7天回购利率</text><text class="chart-subtitle" fill="#43423e" font-size="15" y="42">%</text><text class="chart-source" font-size="10" fill-opacity="0.4" y="265">来源：CEIC，2016/01/17</text><g transform="translate(1,100)"><g transform="translate(0,120)" class="x axis"><g class="tick" style="" transform="translate(19.602990732940185,0)"><line y2="6" x2="0" fill="none" stroke="#000" stroke-opacity="0.2"/><text dy="0" style="" y="20" x="0" font-family="MetricWeb,sans-serif" fill-opacity="0.6" font-size="12" text-anchor="start">2006</text></g><g class="tick" style="" transform="translate(58.808972198820555,0)"><line y2="6" x2="0" fill="none" stroke="#000" stroke-opacity="0.2"/><text dy="0" style="" y="20" x="0" font-family="MetricWeb,sans-serif" fill-opacity="0.6" font-size="12" text-anchor="start">2008</text></g><g class="tick" style="" transform="translate(98.06866048862679,0)"><line y2="6" x2="0" fill="none" stroke="#000" stroke-opacity="0.2"/><text dy="0" style="" y="20" x="0" font-family="MetricWeb,sans-serif" fill-opacity="0.6" font-size="12" text-anchor="start">2010</text></g><g class="tick" style="" transform="translate(137.27464195450716,0)"><line y2="6" x2="0" fill="none" stroke="#000" stroke-opacity="0.2"/><text dy="0" style="" y="20" x="0" font-family="MetricWeb,sans-serif" fill-opacity="0.6" font-size="12" text-anchor="start">2012</text></g><g class="tick" style="" transform="translate(176.5343302443134,0)"><line y2="6" x2="0" fill="none" stroke="#000" stroke-opacity="0.2"/><text dy="0" style="" y="20" x="0" font-family="MetricWeb,sans-serif" fill-opacity="0.6" font-size="12" text-anchor="start">2014</text></g><g class="tick" style="" transform="translate(215.74031171019377,0)"><line y2="6" x2="0" fill="none" stroke="#000" stroke-opacity="0.2"/><text dy="0" style="" y="20" x="0" font-family="MetricWeb,sans-serif" fill-opacity="0.6" font-size="12" text-anchor="start">2016</text></g><g class="tick" style="" transform="translate(255,0)"><line y2="6" x2="0" fill="none" stroke="#000" stroke-opacity="0.2"/><text dy="0" style="" y="20" x="0" font-family="MetricWeb,sans-serif" fill-opacity="0.6" font-size="12" text-anchor="start">2018</text></g><path class="domain" d="M0,0V0H255V0" fill="none" stroke="#74736c"/></g><g transform="translate(255,0)" class="y axis"><g class="tick" style="" transform="translate(0,120)"><line x2="-255" y2="0" fill="none" stroke="#000" stroke-opacity="0.2"/><text dy="0" style="text-anchor: start;" x="3" y="0" font-family="MetricWeb,sans-serif" fill-opacity="0.6" font-size="12">0</text></g><g class="tick" style="" transform="translate(0,74.23076923076924)"><line x2="-255" y2="0" fill="none" stroke="#000" stroke-opacity="0.2"/><text dy="0" style="text-anchor: start;" x="3" y="0" font-family="MetricWeb,sans-serif" fill-opacity="0.6" font-size="12">5</text></g><g class="tick" style="" transform="translate(0,28.461538461538456)"><line x2="-255" y2="0" fill="none" stroke="#000" stroke-opacity="0.2"/><text dy="0" style="text-anchor: start;" x="3" y="0" font-family="MetricWeb,sans-serif" fill-opacity="0.6" font-size="12">10</text></g><path class="domain" d="M-255,1H0V120H-255" fill="none" stroke="#000" stroke-opacity="0"/><line class="highlight-line" x1="0" x2="-255" y1="120" y2="120" fill="none" stroke="#74736c"/></g><g><path d="M0.322,100.857L0.483,100.06L0.537,102.239L0.591,101.897L0.644,100.501L0.698,101.179L0.859,101.905L0.913,101.517L0.967,102.358L1.02,100.133L1.074,98.956L1.235,101.665L1.289,101.534L1.343,100.295L1.396,100.915L1.45,101.193L1.611,101.493L1.665,101.614L1.719,101.88L1.772,97.938L1.826,96.051L1.88,93.885L1.933,96.566L1.987,95.824L2.041,96.078L2.471,98.326L2.524,100.022L2.578,100.154L2.739,100.703L2.793,100.816L2.846,100.403L2.9,99.599L2.954,99.118L3.115,101.492L3.169,101.723L3.222,101.575L3.276,101.078L3.33,101.294L3.491,101.594L3.545,101.238L3.598,101.588L3.652,100.563L3.706,102.201L3.867,101.019L3.921,101.537L3.974,101.146L4.028,101.235L4.082,102.468L4.243,102.859L4.297,102.56L4.35,103.05L4.404,102.724L4.458,104.252L4.619,103.564L4.672,101.092L4.726,101.626L4.78,102.728L4.834,104.189L4.995,102.101L5.048,103.175L5.102,102.43L5.156,102.45L5.21,103.005L5.371,104.461L5.424,103.246L5.478,102.864L5.532,102.499L5.586,104.341L5.747,103.511L5.8,104.803L5.854,103.462L5.908,103.724L5.961,103.029L6.123,105.566L6.176,103.737L6.23,102.689L6.284,104.4L6.337,104.675L6.391,102.34L6.821,102.772L6.874,104.265L6.928,106.16L6.982,104.497L7.036,107.308L7.089,103.854L7.25,103.897L7.304,103.443L7.358,103.682L7.412,103.195L7.465,105.091L7.626,105.674L7.68,103.052L7.734,108.311L7.787,105.376L7.841,104.215L8.002,106.978L8.056,105.904L8.11,106.496L8.163,102.033L8.217,104.497L8.378,106.919L8.432,105.545L8.486,105.588L8.539,104.673L8.593,104.088L8.754,105.438L8.808,107.066L8.862,104.946L8.915,105.26L8.969,106.596L9.13,107.265L9.184,107.034L9.238,105.143L9.291,105.827L9.345,106.169L9.506,105.985L9.56,104.49L9.614,106.469L9.667,103.921L9.721,106.209L9.882,108.042L9.936,106.465L9.989,107.243L10.043,104.077L10.097,106.775L10.258,104.685L10.312,105.531L10.365,104.643L10.419,105.149L10.473,104.541L10.634,106.41L10.688,105.075L10.741,107.193L10.795,104.911L10.849,104.443L11.01,104.716L11.064,106.162L11.117,105.956L11.171,105.318L11.225,104.957L11.386,104.669L11.44,105.21L11.493,106.081L11.547,104.956L11.601,106.484L11.762,102.647L11.816,106.465L11.869,107.549L11.923,105.225L11.977,105.894L12.138,105.634L12.191,104.944L12.245,106.182L12.299,104.41L12.353,106.234L12.514,103.044L12.567,107.959L12.621,105.876L12.675,106.044L12.729,106.918L12.89,106.685L12.943,102.995L12.997,104.532L13.051,106.174L13.104,105.36L13.266,106.504L13.319,105.175L13.373,103.841L13.427,106.811L13.48,105.623L13.642,106.681L13.695,105.124L13.749,103.802L13.803,106.396L13.856,106.143L14.017,106.83L14.071,105.415L14.125,103.093L14.179,107.01L14.232,105.954L14.393,106.583L14.447,106.582L14.501,104.466L14.555,104.373L14.608,105.513L15.038,104.272L15.092,107.395L15.145,104.984L15.199,107.302L15.253,106.694L15.306,104.341L15.36,106.172L15.521,106.429L15.575,106.375L15.629,104.849L15.682,103.232L15.736,107.245L15.897,106.431L15.951,108.829L16.005,108.719L16.058,106.645L16.112,103.93L16.273,104.69L16.327,106.53L16.381,104.459L16.434,106.14L16.488,104.906L16.649,107.468L16.703,103.832L16.757,106.296L16.81,105.44L16.864,106.764L17.025,103.611L17.079,104.629L17.132,107.068L17.186,106.222L17.24,105.375L17.401,105.598L17.455,106.015L17.508,104.261L17.562,103.606L17.616,103.971L17.777,104.473L17.831,104.036L17.884,103.886L17.938,103.105L17.992,101.228L18.153,103.091L18.207,104.5L18.26,104.779L18.314,102.86L18.368,102.581L18.529,103.897L18.583,102.121L18.636,105.159L18.69,102.915L18.744,104.132L18.905,102.749L18.959,103.006L19.012,104.531L19.066,104.015L19.12,102.376L19.281,103.914L19.334,105.087L19.388,102.174L19.442,102.013L19.496,105.82L19.549,105.836L19.764,105.049L19.818,102.561L19.872,103.011L20.033,103.991L20.086,102.932L20.14,103.845L20.194,104.69L20.247,104.814L20.409,103.92L20.462,104.683L20.516,105.695L20.57,103.94L20.623,102.25L20.785,102.87L20.838,98.877L20.892,98.235L20.946,97.838L20.999,96.752L21.053,98.513L21.483,103.271L21.536,103.493L21.59,106.004L21.644,104.964L21.698,104.403L21.751,103.505L21.912,103.829L21.966,105.142L22.02,104.271L22.074,104.547L22.127,105.337L22.288,103.877L22.342,104.917L22.396,106.875L22.449,104.152L22.503,105.693L22.664,105.282L22.718,103.661L22.772,104.512L22.825,105.315L22.879,104.19L23.04,104.681L23.094,104.491L23.148,104.678L23.201,104.072L23.255,103.621L23.416,104.33L23.47,103.8L23.524,105.204L23.577,103.865L23.631,103.893L23.792,103.756L23.846,103.985L23.9,103.814L23.953,103.024L24.007,103.508L24.168,103.104L24.222,103.067L24.275,103.409L24.329,103.137L24.383,104.465L24.544,101.933L24.598,103.943L24.651,103.574L24.705,103.433L24.759,103.945L24.92,103.449L24.974,103.737L25.027,103.377L25.081,105.019L25.135,105.211L25.296,103.034L25.35,102.638L25.403,102.806L25.457,103.25L25.511,102.268L25.672,100.825L25.726,100.268L25.779,100.554L25.833,98.527L25.887,98.385L25.94,98.78L25.994,101.235L26.424,101.499L26.477,102.9L26.531,102.327L26.585,102.602L26.639,102.244L26.8,102.267L26.853,102.876L26.907,103.54L26.961,102.74L27.015,103.301L27.176,103.234L27.229,102.844L27.283,104.164L27.337,103.935L27.39,102.707L27.552,102.945L27.605,103.103L27.659,102.94L27.713,102.248L27.766,102.124L27.928,100.836L27.981,101.236L28.035,102.394L28.089,101.937L28.142,102.137L28.303,99.538L28.357,100.681L28.411,100.781L28.465,100.974L28.518,100.961L28.679,98.856L28.733,97.055L28.787,99.535L28.841,98.431L28.894,96.742L29.055,97.908L29.109,99.888L29.163,100.491L29.217,99.793L29.27,100.809L29.431,99L29.485,99.753L29.539,100.301L29.592,100.335L29.646,99.412L29.807,98.851L29.861,100.676L29.915,100.733L29.968,99.522L30.022,100.33L30.183,99.442L30.237,99.931L30.291,96.657L30.344,96.297L30.398,95.407L30.559,95.469L30.613,95.268L30.667,94.881L30.72,95.44L30.774,94.28L30.935,94.161L30.989,95.119L31.043,95.37L31.096,94.65L31.15,93.811L31.311,95.318L31.365,97.672L31.418,93.66L31.472,95.307L31.526,94.841L31.687,96.505L31.741,98.752L31.794,98.599L31.848,97.262L31.902,97.825L32.063,97.406L32.117,98.652L32.17,96.662L32.224,97.283L32.278,97.6L32.439,98.598L32.493,100.081L32.546,98.101L32.6,98.835L32.654,98.819L32.815,97.606L32.869,98.903L32.922,98.104L32.976,96.441L33.03,97.359L33.191,99.656L33.245,98.44L33.298,99.074L33.352,98.466L33.406,99.838L33.567,99.115L33.62,98.23L33.674,98.59L33.728,100.75L33.782,96.34L33.943,97.097L33.996,97.031L34.05,96.772L34.104,95.814L34.158,94.797L34.211,96.961L34.641,96.447L34.695,95.161L34.748,97.027L34.802,98.071L34.856,97.563L34.909,98.733L35.071,97.319L35.124,96.175L35.178,95.552L35.232,94.6L35.285,97.178L35.447,97.039L35.5,95.459L35.554,96.586L35.608,96.962L35.661,96.411L35.822,95.887L35.876,97.053L35.93,96.665L35.984,94.88L36.037,94.505L36.198,94.894L36.252,94.791L36.306,94.134L36.36,93.589L36.413,92.379L36.574,92.441L36.628,88.241L36.682,87.396L36.735,87.762L36.789,86.422L36.95,86.105L37.004,87.162L37.058,87.286L37.111,86.459L37.165,86.944L37.326,89.814L37.38,89.271L37.434,96.495L37.487,96.779L37.541,95.596L37.702,96.601L37.756,96.07L37.81,97.147L37.863,96.487L37.917,98.026L38.078,98.023L38.132,95.976L38.186,96.576L38.239,98.662L38.293,99.222L38.454,99.014L38.508,100.389L38.561,99.461L38.615,100.845L38.669,100.055L38.83,96.636L38.884,97.107L38.937,97.64L38.991,100.55L39.045,101.41L39.099,100.71L39.152,93.666L39.367,102.89L39.421,104.944L39.582,104.93L39.636,99.294L39.689,101.642L39.743,99.795L39.797,102.427L39.958,103.743L40.012,106.689L40.065,102.794L40.119,105.067L40.173,103.734L40.334,99.442L40.388,100.717L40.441,101.002L40.495,97.853L40.549,98.08L40.71,99.457L40.763,96.353L40.817,100.537L40.871,98.858L40.925,99.018L41.086,97.925L41.139,97.769L41.193,97.421L41.247,91.211L41.301,83.799L41.462,81.782L41.515,88.472L41.569,86.733L41.623,89.485L41.676,93.727L41.73,105.045L42.16,97.508L42.214,96.421L42.267,92.735L42.321,99.423L42.375,102.031L42.428,99.252L42.59,101.353L42.643,102.988L42.697,105.596L42.751,103.825L42.804,103.207L42.965,102.994L43.019,100.874L43.073,104.5L43.127,102.013L43.18,101.834L43.341,102.664L43.395,102.65L43.449,102.053L43.503,100.338L43.556,98.167L43.717,100.747L43.771,101.926L43.825,101.048L43.878,100.976L43.932,101.712L44.093,100.983L44.147,101.677L44.201,101.431L44.254,98.999L44.308,97.633L44.469,98.412L44.523,96.893L44.577,97.784L44.63,97.144L44.684,95.133L44.845,94.345L44.899,93.02L44.953,88.033L45.006,83.36L45.06,82.583L45.221,78.814L45.275,75.82L45.329,75.976L45.382,80.875L45.436,86.946L45.49,101.735L45.543,99.608L45.597,103.226L46.027,103.451L46.08,102.497L46.134,101.054L46.188,92.499L46.349,90.721L46.403,91.913L46.456,92.546L46.51,93.075L46.564,95.291L46.725,96.537L46.779,97.046L46.832,96.036L46.886,98.261L46.94,98.03L47.101,96.352L47.155,98.798L47.208,97.618L47.262,95.598L47.316,94.884L47.477,94.761L47.531,94.361L47.584,94.775L47.638,96.595L47.692,96.405L47.853,101.307L47.906,97.787L47.96,98.883L48.014,90.134L48.068,79.713L48.229,80.227L48.282,83.074L48.336,88.438L48.39,96.546L48.444,99.791L48.605,101.005L48.658,98.012L48.712,101.118L48.766,101.322L48.82,94.153L48.981,85.672L49.034,84.717L49.088,94.722L49.142,96.901L49.195,95.296L49.357,93.134L49.41,83.461L49.464,81.495L49.518,84.359L49.571,88.988L49.733,93.388L49.786,96.692L49.84,93.338L49.894,99.54L49.947,99.868L50.108,95.893L50.162,96.052L50.216,99.814L50.27,99.156L50.323,99.283L50.484,97.242L50.538,94.345L50.592,93.281L50.646,98.219L50.699,98.486L50.86,99.549L50.914,94.874L50.968,99.565L51.021,98.868L51.075,99.164L51.236,99.044L51.29,100.516L51.344,98.591L51.397,100.99L51.451,101.904L51.612,102.231L51.666,102.067L51.72,98.951L51.773,96.56L51.827,94.285L51.988,97.936L52.042,96.332L52.096,96.358L52.149,95.057L52.203,96.936L52.364,95.598L52.418,97.993L52.472,94.423L52.525,97.356L52.579,93.552L52.74,85.06L52.794,84.257L52.848,83.516L52.901,81.585L52.955,67.998L53.116,66.682L53.17,65.594L53.223,57.305L53.277,58.031L53.331,64.276L53.492,56.077L53.546,53.477L53.599,62.505L53.653,86.97L53.707,101.515L53.761,102.378L53.814,96.2L54.244,101.186L54.298,101.337L54.351,100.641L54.405,100.297L54.459,98.907L54.62,97.492L54.674,99.001L54.727,97.393L54.781,94.43L54.835,96.799L54.996,88.965L55.049,68.739L55.103,49.049L55.157,42.256L55.211,31.079L55.372,92.542L55.425,92.842L55.479,86.063L55.533,91.081L55.587,90.108L55.748,92.712L55.801,90.98L55.855,95.413L55.909,94.371L55.963,93.344L56.124,98.154L56.177,97.252L56.231,99.873L56.285,92.97L56.338,98.272L56.5,93.003L56.553,78.73L56.607,76.37L56.661,98.7L56.714,93.944L56.876,90.812L56.929,94.178L56.983,101.023L57.037,92.455L57.09,85.816L57.251,84.738L57.305,80.275L57.359,73.056L57.413,82.477L57.466,85.24L57.627,95.496L57.681,78.241L57.735,72.487L57.789,64.598L57.842,60.3L58.003,90.614L58.057,94.529L58.111,87.498L58.164,95.63L58.218,98.696L58.379,72.766L58.433,97.517L58.487,98.153L58.54,98.203L58.594,97.204L58.648,96.451L58.863,94.153L58.916,87.952L58.97,91.22L59.131,94.609L59.185,98.218L59.239,94.773L59.292,95.449L59.346,89.385L59.507,101.31L59.561,96.939L59.615,93.375L59.668,91.782L59.722,95.338L59.883,90.986L59.937,82.687L59.991,75.358L60.044,64.061L60.098,69.118L60.259,90.158L60.313,92.17L60.366,88.445L60.42,80.072L60.474,92.863L60.528,97.089L60.635,94.132L60.689,97.05L61.118,95.405L61.172,91.043L61.226,91.827L61.387,96.55L61.441,90.284L61.494,91.812L61.548,87.002L61.602,85.417L61.763,73.408L61.817,67.594L61.87,87.146L61.924,93.926L61.978,94.048L62.139,92.335L62.193,92.943L62.246,91.746L62.3,94.889L62.354,97.82L62.515,98.626L62.568,97.063L62.622,95.478L62.676,96.507L62.73,96.495L62.891,96.874L62.944,97.244L62.998,97.21L63.052,97.621L63.106,97.071L63.267,97.947L63.32,97.014L63.374,97.295L63.428,97.017L63.481,98.291L63.643,93.508L63.696,91.445L63.75,91.14L63.804,94.983L64.019,90.254L64.072,85.401L64.126,77.87L64.18,82.023L64.233,93.101L64.394,94.16L64.448,88.031L64.502,80.916L64.556,86.237L64.609,93.449L64.77,93.685L64.824,90.471L64.878,94.22L64.932,94.462L64.985,92.861L65.146,93.541L65.2,92.986L65.254,94.39L65.469,94.149L65.522,92.939L65.576,89.344L65.63,91.288L65.683,91.987L65.737,92.076L65.898,90.683L65.952,88.484L66.006,87.571L66.059,87.089L66.113,84.457L66.274,83.709L66.328,83.503L66.382,85.46L66.435,84.574L66.489,87.749L66.65,87.945L66.704,88.33L66.758,91.76L66.811,90.289L66.865,91.159L67.026,91.179L67.08,90.876L67.134,89.906L67.187,89.543L67.241,89.42L67.456,74.075L67.509,82.205L67.563,87.234L67.617,88.467L67.778,89.178L67.832,90.278L67.885,90.602L67.939,88.837L67.993,89.481L68.154,91.817L68.208,91.431L68.261,90.622L68.315,89.492L68.369,88.587L68.53,89.798L68.584,92.991L68.637,91.167L68.691,92.849L68.745,93.589L68.906,93.229L68.96,90.694L69.013,90.958L69.067,92.755L69.121,94.771L69.282,92.509L69.336,91.941L69.389,93.356L69.443,92.141L69.497,91.032L69.658,91.797L69.711,91.307L69.765,92.634L69.819,91.548L69.873,91.226L70.034,90.212L70.087,88.857L70.141,91.478L70.195,85.087L70.249,85.157L70.41,84.276L70.463,83.198L70.517,85.032L70.571,89.606L70.624,91.014L70.786,90.9L70.839,90.891L70.893,91.16L70.947,90.189L71,93.794L71.162,89.631L71.215,91.382L71.269,91.228L71.323,92.247L71.376,91.63L71.537,92.048L71.591,91.076L71.645,92.131L71.699,90.564L71.752,91.81L71.913,91.465L71.967,91.091L72.021,92.018L72.075,91.176L72.128,91.921L72.289,93.099L72.343,91.381L72.397,92.269L72.451,92.246L72.504,92.291L72.719,92.435L72.773,91.487L72.826,90.68L72.88,89.334L73.041,87.967L73.095,87.855L73.149,87.616L73.202,88.641L73.256,88.378L73.31,88.309L73.364,90.039L73.793,86.87L73.847,85.771L73.901,88.713L73.954,89.316L74.008,88.572L74.169,89.224L74.223,90.448L74.277,89.871L74.33,89.873L74.384,92.161L74.545,92.396L74.599,92.583L74.652,92.883L74.706,92.409L74.76,92.658L74.921,93.146L74.975,93.404L75.028,93.068L75.082,93.1L75.136,94.061L75.297,93.544L75.351,92.857L75.404,93.594L75.458,93.827L75.512,94.379L75.673,94.258L75.727,94.281L75.78,94.491L75.834,95.249L75.888,95.051L76.049,95.364L76.103,95.72L76.156,95.864L76.21,96.016L76.264,96.935L76.425,96.133L76.479,96.321L76.532,96.359L76.586,102.323L76.64,100.726L76.801,101.991L76.854,101.842L76.908,101.93L76.962,101.363L77.016,102.585L77.177,103.356L77.23,104.064L77.284,105.401L77.338,105.345L77.392,106.32L77.553,105.888L77.606,106.007L77.66,106.67L77.714,106.998L77.767,106.886L77.929,107.057L77.982,107.499L78.036,108.474L78.09,108.701L78.143,108.945L78.305,108.452L78.358,109.791L78.412,109.76L78.627,109.519L78.68,109.09L78.734,110.373L78.788,110.539L78.842,110.591L78.895,110.28L79.056,110.904L79.11,109.937L79.164,110.872L79.218,111.616L79.271,111.535L79.432,110.923L79.486,111.205L79.54,109.819L79.594,110.471L79.647,110.499L79.701,111.894L80.131,110.949L80.184,111.452L80.238,110.767L80.292,111.094L80.345,109.791L80.399,111.211L80.56,110.937L80.614,111.038L80.668,110.986L80.721,111.078L80.775,108.614L80.936,111.013L80.99,110.628L81.044,110.927L81.097,110.994L81.151,110.937L81.312,110.617L81.366,110.757L81.42,110.909L81.473,110.882L81.527,111.105L81.688,110.991L81.742,111.34L81.795,110.725L81.849,110.703L81.903,111.208L82.064,110.626L82.118,111.463L82.171,111.27L82.225,111.167L82.279,110.989L82.44,110.939L82.494,110.756L82.547,111.086L82.601,110.611L82.655,110.167L82.816,110.628L82.87,110.554L82.923,111.186L82.977,110.129L83.031,110.655L83.192,111.065L83.246,110.657L83.299,109.844L83.353,110.784L83.407,110.784L83.622,110.667L83.675,111.189L83.729,111.076L83.783,111.194L83.944,110.512L83.997,111.346L84.051,111.038L84.105,111.397L84.159,111.221L84.32,111.368L84.373,110.875L84.427,110.892L84.481,111.032L84.535,110.909L84.696,110.284L84.749,110.359L84.803,111.054L84.857,110.729L85.072,110.34L85.125,110.951L85.179,110.664L85.233,110.61L85.286,111.01L85.448,111.205L85.501,111.578L85.555,110.056L85.609,110.836L85.662,110.95L85.824,111.198L85.877,110.328L85.931,110.949L85.985,110.111L86.038,110.879L86.199,111.01L86.253,110.984L86.307,111.215L86.522,111.249L86.575,111.145L86.629,110.266L86.683,111.179L86.737,110.463L86.79,110.676L86.951,111.115L87.005,110.805L87.059,111.05L87.112,111.037L87.166,110.56L87.327,111.118L87.381,111.112L87.435,111.249L87.488,111.014L87.542,110.29L87.703,109.887L87.757,109.673L87.811,108.961L87.864,109.42L87.918,109.382L88.079,108.809L88.133,108.611L88.187,109.091L88.24,108.056L88.294,108.433L88.455,108.616L88.509,108.506L88.563,108.335L88.616,108.608L88.67,108.837L88.831,108.165L88.885,107.076L88.939,106.374L88.992,105.739L89.046,105.487L89.207,103.422L89.261,100.562L89.314,101.52L89.368,102.282L89.422,104.462L89.583,104.969L89.637,105.549L89.69,105.988L89.744,105.226L89.798,102.225L89.959,100.406L90.013,105.641L90.066,103.673L90.12,105.758L90.174,104.937L90.335,105.112L90.389,105.526L90.442,106.24L90.496,106.782L90.55,106.84L90.711,107.145L90.765,107.952L90.818,108.061L90.872,107.827L90.926,108.071L91.087,108.206L91.14,107.411L91.194,107.058L91.248,106.835L91.302,107.214L91.463,106.346L91.516,107.866L91.57,105.103L91.624,104.664L91.678,104.665L91.839,103.991L91.892,104.095L91.946,104.557L92,105.148L92.053,107.056L92.215,106.487L92.268,106.713L92.322,106.295L92.376,106.417L92.429,106.274L92.591,105.091L92.644,105.315L92.698,105.075L92.752,104.312L92.805,105.394L92.913,105.29L92.967,105.767L93.02,104.892L93.074,103.296L93.557,104.146L93.611,104.59L93.718,105.514L93.772,105.585L93.826,104.972L93.88,105.552L93.933,105.944L94.094,105.822L94.148,106.054L94.202,105.963L94.255,105.888L94.309,106.251L94.47,106.31L94.524,106.451L94.578,106.535L94.631,106.993L94.685,107.243L94.846,107.1L94.9,106.342L94.954,106.856L95.007,106.939L95.061,106.584L95.222,106.267L95.276,106.141L95.33,106.791L95.383,105.502L95.437,107.034L95.598,107.188L95.652,106.769L95.706,106.962L95.759,107.181L95.813,106.632L95.974,106.536L96.028,106.645L96.082,106.786L96.135,105.285L96.189,106.151L96.35,106.406L96.404,106.395L96.457,106.409L96.511,106.005L96.565,106.249L96.726,106.144L96.78,106.367L96.833,106.223L96.887,106.512L96.941,106.31L97.102,106.25L97.156,106.623L97.209,106.154L97.263,106.433L97.317,106.44L97.478,106.536L97.532,106.642L97.585,107.032L97.639,107.091L97.693,106.53L97.854,105.716L97.908,105.253L97.961,105.362L98.015,102.937L98.23,106.239L98.283,106.603L98.337,106.651L98.391,106.765L98.445,107.121L98.606,106.932L98.659,106.267L98.713,106.84L98.767,106.514L98.821,106.755L98.982,106.765L99.035,106.861L99.089,106.199L99.143,106.587L99.197,105.986L99.358,106.98L99.411,105.705L99.465,105.772L99.519,102.9L99.572,102.767L99.734,102.975L99.787,103.764L99.841,103.519L99.895,103.268L99.948,104.148L100.11,102.831L100.163,102.177L100.217,102.703L100.271,96.034L100.324,95.265L100.754,100.139L100.808,106.156L100.861,106.062L100.915,105.316L100.969,104.802L101.023,104.37L101.076,104.681L101.237,104.67L101.291,103.829L101.345,103.81L101.398,104.521L101.452,104.397L101.613,104.381L101.667,104.471L101.721,104.16L101.774,104.191L101.828,104.283L101.989,104.543L102.043,104.854L102.097,104.723L102.15,104.474L102.204,104.973L102.365,105.293L102.419,105.218L102.473,105.335L102.526,105.442L102.58,105.505L102.741,105.272L102.795,104.578L102.849,104.378L102.902,105.151L102.956,105.401L103.171,105.231L103.225,104.384L103.278,104.064L103.332,104.422L103.493,104.496L103.547,104.453L103.6,104.838L103.654,104.403L103.708,104.706L103.869,105.184L103.923,104.894L103.976,104.408L104.03,105.034L104.084,104.375L104.245,104.509L104.299,104.852L104.352,105.094L104.406,105.231L104.46,104.79L104.675,104.748L104.728,104.806L104.782,104.452L104.836,104.126L104.997,104.257L105.051,104.081L105.104,104.258L105.158,103.737L105.212,103.881L105.373,103.87L105.426,103.806L105.48,103.604L105.534,103.446L105.588,102.977L105.749,102.644L105.802,100.176L105.856,98.384L105.91,97.871L105.964,98.553L106.125,97.582L106.178,90.692L106.232,90.08L106.286,90.662L106.34,99.686L106.501,102.362L106.554,99.964L106.608,99.521L106.662,97.273L106.715,94.785L106.769,94.799L106.823,95.397L107.038,96.337L107.091,95.195L107.253,95.484L107.306,94.034L107.36,95.107L107.414,93.134L107.467,91.166L107.628,93.257L107.682,92.96L107.736,95.531L107.79,95.617L107.843,95.972L108.004,96.249L108.058,95.317L108.112,97.464L108.166,97.194L108.219,99.47L108.38,100.995L108.434,101.479L108.488,103.164L108.541,102.74L108.595,102.779L108.756,102.891L108.81,102.261L108.864,102.851L108.917,104.166L108.971,103.51L109.132,104.033L109.186,103.858L109.24,104.067L109.293,104.405L109.347,104.168L109.508,104.646L109.562,104.453L109.616,104.795L109.669,104.412L109.723,104.289L109.884,104.286L109.938,104.012L109.992,104.217L110.045,104.134L110.099,103.952L110.26,103.418L110.314,103.497L110.368,103.647L110.421,103.98L110.475,103.775L110.636,103.557L110.69,103.89L110.743,103.729L110.797,102.929L110.851,99.72L111.012,98.091L111.066,92.507L111.119,92.43L111.173,97.233L111.227,98.582L111.388,99.418L111.442,99.144L111.495,99.293L111.549,98.979L111.603,99.027L111.764,97.799L111.818,98.121L111.871,98.74L111.925,96.809L111.979,101.604L112.086,102.126L112.14,99.372L112.194,98.369L112.408,98.834L112.462,94.909L112.516,91.867L112.57,95.762L112.623,94.413L112.677,91.511L113.107,95.884L113.16,102.587L113.268,102.083L113.321,102.409L113.375,102.474L113.429,102.155L113.483,102.091L113.644,101.355L113.697,101.243L113.751,101.641L113.805,102.143L113.858,101.977L114.02,101.014L114.073,101.679L114.127,101.182L114.181,101.212L114.234,100.617L114.396,101.495L114.449,102.577L114.503,103.097L114.557,103.201L114.61,105.175L114.771,105.008L114.825,104.522L114.879,104.628L114.933,104.576L114.986,104.3L115.147,103.443L115.201,103.669L115.255,102.532L115.309,101.745L115.362,100.653L115.523,100.34L115.577,99.301L115.631,98.391L115.684,96.765L115.738,95.11L115.899,96.117L115.953,89.166L116.007,89.165L116.06,89.273L116.114,89.408L116.275,92.001L116.329,94.372L116.383,97.056L116.436,95.78L116.49,97.364L116.651,96.483L116.705,89.79L116.759,86.683L116.812,89.033L116.866,86.024L117.027,88.188L117.081,82.163L117.135,81.608L117.188,68.165L117.242,71.821L117.403,70.86L117.457,66.556L117.511,64.155L117.564,62.731L117.618,60.507L117.833,79.959L117.886,89.915L117.94,90.307L117.994,94.111L118.155,98.319L118.209,97.369L118.262,96.981L118.316,98.162L118.37,96.921L118.531,95.355L118.585,94.077L118.638,79.26L118.692,63.415L118.746,51.336L118.907,64.587L118.961,50.56L119.014,48.006L119.068,41.959L119.122,46.271L119.229,42.051L119.283,44.451L119.337,89.379L119.766,82.199L119.82,83.648L119.874,85.058L119.927,96.076L120.035,95.072L120.088,95.907L120.142,96.172L120.196,92.924L120.25,94.061L120.411,64.038L120.464,61.067L120.518,62.762L120.572,88.468L120.626,91.371L120.787,92.359L120.84,92.037L120.894,90.816L120.948,97.647L121.001,99.099L121.163,99.726L121.216,99.325L121.27,99.628L121.324,99.051L121.377,100.403L121.539,100.591L121.592,101.369L121.646,101.601L121.7,101.572L121.753,100.882L121.914,91.943L121.968,93.971L122.022,94.865L122.076,94.953L122.129,98.978L122.29,98.882L122.344,100.547L122.398,95.963L122.452,93.2L122.505,94.828L122.559,99.093L122.774,97.969L122.828,100.793L122.881,97.408L123.042,101.593L123.096,101.763L123.15,101.796L123.203,97.28L123.257,96.001L123.418,95.242L123.472,92.735L123.526,93.441L123.579,83.62L123.633,88.657L123.794,81.89L123.848,79.869L123.902,84.373L123.955,91.982L124.009,92.766L124.224,92.837L124.278,92.343L124.331,92.103L124.385,94.574L124.546,94.731L124.6,93.376L124.654,94.096L124.707,91.643L124.761,86.356L124.922,76.795L124.976,77.22L125.029,89.67L125.083,86.832L125.137,82L125.298,75.909L125.352,76.124L125.405,70.325L125.459,72.603L125.513,79.701L125.674,89.643L125.728,86.385L125.781,83.966L125.835,87.72L125.889,87.705L126.104,90.361L126.157,83.876L126.211,82.069L126.265,78.115L126.426,78.518L126.48,81.839L126.533,62.938L126.587,60.048L126.641,58.731L126.802,51.278L126.856,45.396L126.909,39.684L126.963,37.231L127.017,41.188L127.178,51.054L127.231,59.104L127.285,60.907L127.339,59.211L127.393,65.39L127.554,75.959L127.607,58.271L127.661,51.281L127.715,67.927L127.769,62.283L127.93,68.907L127.983,75.045L128.037,85.339L128.091,73.98L128.144,82.077L128.306,78.389L128.359,76.318L128.413,70.986L128.467,66.396L128.52,68.62L128.682,71.414L128.735,74.051L128.789,74.374L128.843,73.557L128.896,73.173L129.057,73.141L129.111,73.526L129.165,80.969L129.219,89.943L129.272,92.496L129.433,92.178L129.487,91.53L129.541,91.115L129.595,91.553L129.648,91.819L129.809,90.32L129.863,90.556L129.917,90.366L129.971,84.799L130.024,78.034L130.185,74.189L130.239,72.441L130.293,79.229L130.346,78.947L130.4,82.897L130.561,79.177L130.615,74.603L130.669,74.081L130.722,76.149L130.776,81.643L130.937,75.25L130.991,78.664L131.045,79.519L131.098,82.864L131.152,86.625L131.367,89.711L131.421,89.662L131.474,89.092L131.528,89.441L131.689,87.337L131.743,83.031L131.797,82.313L131.85,83.943L131.904,81.601L132.065,83.896L132.119,76.582L132.172,75.048L132.226,72.9L132.28,72.965L132.71,74.11L132.763,76.073L132.817,79.178L132.871,81.208L132.924,89.658L132.978,91.034L133.032,91.1L133.193,89.086L133.247,87.773L133.3,89.267L133.354,88.128L133.408,88.421L133.569,88.688L133.623,83.379L133.676,82.687L133.73,77.906L133.784,74.278L133.945,74.512L133.999,80.017L134.052,85.992L134.106,88.657L134.16,87.899L134.321,86.909L134.374,87.356L134.428,87.667L134.482,87.789L134.536,88.086L134.697,89.571L134.75,89.549L134.804,89.296L134.858,87.419L134.912,85.899L135.073,81.47L135.126,79.518L135.18,80.065L135.234,82.107L135.287,82.816L135.449,83.477L135.502,86.537L135.556,83.188L135.61,83.588L135.663,86.254L135.825,89.78L135.878,88.764L135.932,88.478L135.986,88.008L136.039,87.78L136.201,87.55L136.254,87.998L136.308,90.333L136.362,88.426L136.415,91.747L136.576,92.311L136.63,90.372L136.684,86.709L136.738,85.192L136.791,85.573L136.952,79.501L137.006,79.015L137.06,75.921L137.114,69.781L137.167,68.802L137.221,61.793L137.436,82.779L137.489,78.432L137.543,80.035L137.704,78.681L137.758,82.165L137.812,83.049L137.865,81.627L137.919,75.028L138.08,66.488L138.134,46.027L138.188,42.134L138.241,62.988L138.295,73.938L138.349,87.519L138.778,80.765L138.832,79.683L138.886,80.223L138.94,79.815L138.993,80.15L139.047,89.163L139.208,88.224L139.262,87.859L139.316,85.971L139.369,86.053L139.423,86.482L139.584,86.35L139.638,85.038L139.691,83.784L139.745,79.623L139.799,69.726L139.96,70.52L140.014,71.789L140.067,72.799L140.121,69.648L140.175,78.374L140.336,86.063L140.39,85.879L140.443,87.601L140.497,89.931L140.551,89.384L140.712,90.697L140.766,91.16L140.819,91.442L140.873,92.979L140.927,92.708L141.088,93.914L141.142,92.589L141.195,92.482L141.249,93.635L141.303,93.437L141.464,93.216L141.517,92.043L141.571,91.547L141.625,90.945L141.679,92.607L141.84,89.415L141.893,89.233L141.947,85.147L142.001,87.649L142.055,85.719L142.108,87.699L142.162,88.413L142.377,83.306L142.43,81.13L142.592,85.578L142.645,85.978L142.699,85.054L142.753,85.052L142.806,85.001L142.968,85.019L143.021,85.521L143.075,85.665L143.129,84.991L143.182,83.53L143.344,86.055L143.397,85.062L143.451,84.011L143.505,83.24L143.558,83.948L143.612,84.96L143.827,84.991L143.881,84.221L143.934,86.361L144.095,85.503L144.149,85.842L144.203,89.523L144.257,90.473L144.31,90.856L144.471,90.792L144.525,93.773L144.579,94.258L144.632,95.503L144.686,94.582L144.847,95.215L144.901,95.464L144.955,97.641L145.008,99.427L145.062,97.586L145.223,96.668L145.277,96.303L145.331,98.235L145.384,100.228L145.438,97.981L145.599,96.018L145.653,95.947L145.707,96.026L145.76,95.216L145.814,97.316L145.975,97.762L146.029,96.611L146.083,94.806L146.136,94.928L146.19,94.875L146.351,96.011L146.405,92.849L146.459,87.809L146.512,79.659L146.727,80.021L146.781,80.033L146.834,81.477L146.888,83.352L146.942,81.963L147.103,81.784L147.157,81.772L147.21,83.91L147.264,83.259L147.318,87.719L147.479,89.298L147.533,89.475L147.586,89.685L147.64,90.471L147.694,89.555L147.855,89.736L147.909,89.588L147.962,88.016L148.016,87.376L148.07,86.372L148.231,87.423L148.285,88.861L148.338,88.893L148.392,88.677L148.446,90.807L148.607,91.005L148.66,88.958L148.714,87.972L148.768,87.593L148.822,88.013L148.983,87.691L149.036,90.241L149.09,90L149.144,89.424L149.198,89.405L149.359,88.586L149.412,88.841L149.466,88.633L149.52,87.468L149.574,83.766L149.735,85.786L149.788,85.692L149.842,84.981L149.896,84.776L149.949,86.783L150.111,88.264L150.164,91.499L150.218,87.334L150.272,86.677L150.325,87.973L150.487,88.718L150.54,96.865L150.594,88.346L150.648,88.337L150.701,88.697L150.862,92.131L150.916,92.381L150.97,87.994L151.024,88.373L151.077,89.182L151.238,89.954L151.292,90.782L151.346,88.906L151.4,83.873L151.453,79.228L151.614,78.29L151.668,76.621L151.722,84.222L151.775,84.519L151.829,92.186L151.883,88.339L152.366,84.312L152.42,85.485L152.474,90.903L152.527,90.926L152.581,90.789L152.742,93.088L152.796,93.459L152.85,93.659L152.903,95.161L152.957,95.257L153.118,95.162L153.172,93.255L153.226,91.001L153.279,86.303L153.333,84.665L153.494,80.761L153.548,89.615L153.602,90.197L153.655,88.301L153.709,88.756L153.87,89.067L153.924,90.444L153.977,91.241L154.031,89.671L154.085,90.877L154.246,91.696L154.3,89.883L154.353,89.19L154.407,88.857L154.461,93.186L154.622,90.641L154.676,89.048L154.729,89.76L154.783,89.908L154.837,93.651L154.998,93.212L155.052,93.294L155.105,88.362L155.159,89.205L155.213,87.539L155.374,88.643L155.428,92.702L155.481,93.583L155.535,93.336L155.589,91.067L155.75,92.979L155.803,91.52L155.857,91.303L155.911,94.629L155.965,91.75L156.126,91.993L156.179,92.33L156.233,90.912L156.287,87.814L156.341,88.495L156.502,90.051L156.555,83.603L156.609,83.494L156.663,80.803L156.717,82.065L156.878,78.001L157.092,82.586L157.146,84.827L157.2,87.013L157.254,89.719L157.307,90.533L157.361,92.046L157.415,92.671L157.468,94.299L157.63,93.394L157.683,92.835L157.737,93.696L157.791,91.99L157.844,92.982L158.005,91.911L158.059,91.134L158.113,92.377L158.167,93.416L158.22,94.899L158.381,92.085L158.435,91.4L158.489,89.725L158.543,89.676L158.596,88.361L158.757,87.077L158.811,86.09L158.865,84.338L158.918,81.681L158.972,87.59L159.402,93.284L159.456,92.011L159.509,92.724L159.563,92.605L159.617,92.225L159.67,92.631L159.724,91.554L159.885,89.595L159.939,84.511L159.993,80.552L160.046,79.749L160.1,79.643L160.261,79.863L160.315,90.302L160.369,92.365L160.422,96.595L160.476,96.664L160.637,91.845L160.691,91.377L160.745,92.096L160.798,90.848L160.852,87.564L161.013,91.152L161.067,92.589L161.12,89.732L161.174,91.683L161.228,91.84L161.389,92.45L161.443,91.629L161.496,92.856L161.55,90.518L161.604,87.29L161.765,88.461L161.819,87.8L161.872,89.907L162.087,89.505L162.141,89.654L162.195,89.55L162.248,90.577L162.302,91.687L162.356,91.349L162.517,91.986L162.571,90.905L162.624,92.296L162.678,92.234L162.732,91.501L162.893,90.901L162.947,85.643L163,74.777L163.054,73.894L163.108,86.89L163.161,87.757L163.215,91.694L163.43,92.452L163.484,89.769L163.645,90.358L163.698,90.51L163.752,90.27L163.806,89.635L163.86,91.989L164.021,92.595L164.074,93.927L164.128,93.155L164.182,90.1L164.235,86.284L164.397,80.497L164.45,79.426L164.504,82.165L164.558,79.904L164.611,81.738L164.773,82.088L164.826,87.486L164.88,85.821L164.934,80.706L164.987,75.29L165.148,76.854L165.202,75.989L165.256,75.197L165.31,68.612L165.363,55.983L165.417,49.806L165.471,60.717L165.686,57.379L165.739,55.933L165.9,56.929L165.954,58.244L166.008,45.02L166.061,7.846L166.115,35.319L166.276,47.908L166.33,48.977L166.384,53.427L166.437,56.891L166.491,60.836L166.652,69.789L166.706,77.176L166.76,80.45L166.813,83.793L166.867,84.687L167.028,86.209L167.082,86.985L167.136,86.276L167.189,84.543L167.243,84.825L167.404,84.83L167.458,85.868L167.512,86.696L167.565,85.753L167.619,84.094L167.78,83.55L167.834,83.143L167.888,82.414L167.941,81.165L167.995,76.417L168.156,72.719L168.21,74.111L168.263,73.937L168.317,77.544L168.371,79.39L168.532,79.295L168.586,81.674L168.639,84.349L168.693,85.255L168.747,86.413L168.908,86.372L168.962,85.426L169.015,83.375L169.069,83.017L169.123,84.843L169.284,82.138L169.338,78.868L169.391,80.585L169.445,81.622L169.499,81.394L169.66,82.36L169.714,80.492L169.767,80.495L169.821,79.743L169.875,85.012L170.036,85.195L170.09,85.273L170.143,87.204L170.197,87.826L170.251,87.67L170.412,86.895L170.465,86.265L170.519,86.908L170.573,86.819L170.627,86.159L170.788,87.089L170.841,86.01L170.895,84.894L171.11,83.674L171.164,80.207L171.217,77.009L171.271,77.02L171.325,80.431L171.378,81.527L171.486,84.397L171.54,79.763L171.969,78.667L172.023,78.709L172.077,78.126L172.13,81.023L172.184,81.423L172.291,83.346L172.345,82.63L172.399,89.184L172.453,88.726L172.506,86.117L172.667,86.672L172.721,85.913L172.775,82.234L172.829,75.594L172.882,72.204L173.043,73.705L173.097,72.436L173.151,68.063L173.205,73.385L173.258,77.207L173.419,78.706L173.473,80.141L173.527,84.244L173.58,83.959L173.634,83.059L173.795,84.96L173.849,85.399L173.903,85.398L173.956,81.322L174.01,70.587L174.171,69.924L174.225,74.621L174.279,75.256L174.332,76.335L174.386,75.097L174.547,75.464L174.601,74.374L174.655,76.522L174.708,75.12L174.762,76.559L174.923,77.116L174.977,76.995L175.031,77.483L175.084,77.589L175.138,77.66L175.299,78.147L175.353,78.344L175.406,79.95L175.46,80.354L175.514,80.006L175.675,78.883L175.729,77.496L175.782,64.14L175.836,58.17L175.89,49.081L176.051,39.039L176.105,57.717L176.158,68.105L176.212,70.394L176.266,72.948L176.427,74.921L176.481,71.352L176.588,74.079L176.642,76.261L176.803,76.9L176.857,79.879L176.91,81.377L176.964,82.832L177.018,81.568L177.179,81.142L177.233,82.672L177.286,82.308L177.34,79.709L177.394,74.623L177.555,59.234L177.608,68.592L177.662,71.209L177.716,71.133L177.77,78.242L177.877,75.824L177.931,70.538L177.984,65.356L178.038,66.846L178.092,71.59L178.521,69.637L178.575,71.8L178.683,71.07L178.736,71.892L178.79,72.373L178.844,73.527L178.897,77.543L179.059,83.317L179.112,83.714L179.166,84.997L179.22,84.814L179.273,87.264L179.434,88.674L179.488,88.778L179.542,91.086L179.596,87.865L179.649,86.335L179.81,91.492L179.864,87.406L179.918,84.71L179.972,95.621L180.025,96.217L180.186,97.302L180.24,98.123L180.294,98.548L180.348,94.576L180.401,95.472L180.562,95.08L180.616,92.935L180.67,87.693L180.723,87.648L180.777,86.888L180.938,86.259L180.992,84.76L181.046,83.278L181.099,75.299L181.153,80.646L181.314,80.627L181.368,81.318L181.422,81.056L181.475,80.906L181.529,90.937L181.744,86.653L181.798,85.979L181.851,85.43L181.905,85.225L182.066,86.735L182.12,87.541L182.174,94.453L182.227,92.815L182.281,93.483L182.442,93.537L182.496,90.234L182.549,91.043L182.603,86.799L182.657,87.592L182.818,82.227L182.872,81.299L182.925,83.616L183.14,86.172L183.194,90.674L183.248,90.956L183.301,90.777L183.355,90.092L183.409,90.213L183.57,89.597L183.624,89.736L183.677,89.845L183.731,90.876L183.785,90.972L183.946,90.783L184,88.103L184.053,88.709L184.107,88.074L184.161,86.825L184.322,89.197L184.376,90.107L184.429,90.305L184.483,89.862L184.537,89.092L184.751,89.979L184.805,90.721L184.859,90.867L184.913,90.034L185.074,90.837L185.127,90.09L185.181,90.138L185.235,90.352L185.289,91.599L185.45,90.692L185.503,90.314L185.557,89.575L185.611,87.931L185.664,86.941L185.826,86.868L185.879,85.561L185.933,83.45L185.987,85.594L186.04,84.149L186.202,83.463L186.255,79.067L186.309,82.423L186.363,87.792L186.416,87.994L186.578,87.291L186.631,86.469L186.685,84.422L186.739,84.371L186.792,85.176L186.953,84.317L187.007,85.609L187.061,86.03L187.115,84.613L187.168,84.79L187.329,82.38L187.383,81.623L187.437,78.455L187.491,79.912L187.544,80.958L187.705,81.584L187.759,83.363L187.813,83.469L187.866,82.8L187.92,83.508L188.081,83.805L188.135,85.297L188.189,87.076L188.242,86.466L188.296,87.42L188.457,87.582L188.511,88.679L188.565,88.305L188.618,88.359L188.672,88.49L188.833,88.438L188.887,88.588L188.941,88.579L188.994,87.984L189.048,87.085L189.209,85.622L189.263,87.104L189.317,86.88L189.37,85.161L189.424,85.123L189.585,86.489L189.639,86.458L189.693,87.783L189.746,88.396L189.8,89.191L190.015,89.827L190.068,90.158L190.122,89.243L190.176,89.221L190.337,88.75L190.391,88.016L190.444,88.417L190.498,88.532L190.552,87.649L190.713,88.601L190.767,90.012L190.82,85.707L190.874,88.331L190.928,88.224L191.035,90.716L191.089,90.825L191.143,94.293L191.572,91.116L191.626,91.59L191.68,91.821L191.733,91.186L191.841,89.913L191.894,90.64L191.948,90.313L192.002,91.261L192.056,91.491L192.217,91.353L192.27,90.206L192.324,91.278L192.378,91.223L192.432,90.336L192.593,91.061L192.646,90.669L192.7,89.069L192.754,90.192L192.807,89.931L192.969,89.141L193.022,89.973L193.076,89.85L193.13,90.291L193.183,90.171L193.345,88.018L193.398,91.283L193.452,89.446L193.506,91.226L193.559,91.887L193.721,90.493L193.774,88.662L193.828,89.495L193.882,88.112L193.935,86.14L194.096,85.069L194.15,88.219L194.204,88.708L194.258,88.239L194.311,87.579L194.472,86.661L194.526,86.86L194.58,87.75L194.634,87.037L194.687,88.385L194.848,86.686L194.902,84.137L194.956,84.199L195.009,83.349L195.063,83.981L195.224,85.69L195.278,82.464L195.332,75.961L195.385,68.249L195.439,63.783L195.6,62.691L195.654,67.319L195.708,71.963L195.761,73.343L195.815,75.42L195.976,74.524L196.03,75.77L196.084,75.212L196.298,75.809L196.352,76.748L196.406,80.531L196.46,83.885L196.513,83.816L196.567,81.969L196.728,82.925L196.782,83.726L196.836,83.646L196.889,83.341L196.943,83.396L197.104,83.505L197.158,85.47L197.211,78.718L197.265,81.915L197.319,81.986L197.48,83.353L197.534,83.919L197.587,81.469L197.641,80.047L197.695,81.086L197.856,77.749L197.91,79.88L197.963,77.971L198.017,77.634L198.071,78.307L198.232,77.903L198.286,76.895L198.339,78.339L198.393,75.461L198.447,75.782L198.554,75.623L198.608,74.285L198.662,76.397L199.091,75.398L199.145,73.46L199.199,72.722L199.252,75.409L199.36,74.537L199.413,74.516L199.467,75.007L199.521,75.143L199.575,72.812L199.736,72.367L199.789,73.612L199.843,72.679L199.897,74.11L199.951,72.622L200.112,74.451L200.165,75.666L200.219,74.907L200.273,77.539L200.326,78.494L200.488,79.58L200.541,81.287L200.595,82.47L200.649,82.85L200.702,82.209L200.864,82.699L200.917,83.126L200.971,84.793L201.025,85.505L201.078,86.124L201.293,87.86L201.347,88.82L201.401,88.598L201.454,89.273L201.615,87.754L201.669,89.491L201.723,90.583L201.777,91.468L201.83,91.705L201.991,90.445L202.045,93.712L202.099,93.299L202.152,95.026L202.206,94.875L202.367,96.102L202.421,96.155L202.475,95.659L202.528,96.705L202.743,94.637L202.797,95.642L202.851,97.257L202.904,97.159L202.958,96.286L203.119,97.444L203.173,98.283L203.227,98.982L203.28,98.998L203.334,98.369L203.495,100.179L203.549,100.547L203.603,100.823L203.656,100.271L203.71,100.273L203.871,100.074L203.925,99.554L203.979,98.701L204.032,98.657L204.086,100.753L204.247,99.357L204.301,99.223L204.354,98.178L204.408,98.733L204.462,98.834L204.623,99.049L204.677,99.617L204.73,100.094L204.784,98.339L204.838,96.995L204.999,99.073L205.053,97.072L205.106,94.209L205.16,94.315L205.214,91.018L205.429,89.324L205.482,93.263L205.536,91.29L205.59,91.659L205.751,92.707L205.805,95.507L205.858,93.691L205.912,92.69L205.966,92.857L206.127,94.358L206.18,95.252L206.234,95.267L206.288,90.019L206.342,95.639L206.503,95.763L206.556,95.251L206.61,94.909L206.664,96.723L206.718,96.815L206.879,97.557L206.932,96.605L206.986,95.868L207.04,95.751L207.094,94.42L207.255,96.437L207.308,95.617L207.362,96.178L207.416,96.754L207.469,95.939L207.631,96.789L207.684,95.368L207.738,97.314L207.792,97.173L207.845,97.08L208.007,97.596L208.06,96.849L208.114,96.733L208.168,96.395L208.221,96.878L208.382,96.768L208.436,96.122L208.49,96.109L208.544,95.125L208.597,95.144L208.758,95.75L208.812,94.726L208.866,96.099L208.92,96.983L208.973,97.131L209.134,96.97L209.188,97.462L209.242,97.46L209.457,96.749L209.51,97.536L209.564,96.168L209.618,97.444L209.671,96.95L209.725,96.266L209.886,97.407L209.94,97.314L209.994,97.24L210.047,97.061L210.101,97.29L210.262,97.087L210.316,97.048L210.37,97.01L210.423,93.562L210.477,95.053L210.638,94.206L210.692,95.031L210.746,97.064L211.175,97.229L211.229,97.338L211.283,97.21L211.39,97.593L211.444,97.049L211.497,96.728L211.551,96.436L211.605,96.054L211.766,96.157L211.82,97.184L211.873,97.426L211.927,97.795L211.981,97.109L212.142,97.739L212.196,98.13L212.249,97.72L212.303,97.417L212.357,97.345L212.518,98.459L212.572,96.779L212.625,96.705L212.679,97.53L212.733,97.965L212.894,97.93L212.948,97.651L213.001,96.736L213.055,97.65L213.109,97.32L213.27,97.873L213.324,97.839L213.377,97.16L213.431,97.875L213.485,97.745L213.646,98.312L213.699,98.098L213.753,98.606L213.807,97.8L213.861,96.987L214.022,97.837L214.075,96.857L214.129,97.148L214.183,96.984L214.237,97.714L214.398,97.857L214.451,97.401L214.505,96.007L214.559,96.643L214.612,96.298L214.774,96.917L214.827,97.291L214.881,96.975L214.935,96.4L214.988,96.353L215.15,96.622L215.203,94.583L215.257,96.483L215.311,97.301L215.364,96.523L215.525,97.249L215.579,96.914L215.633,96.698L215.687,97.612L215.901,96.481L215.955,96.498L216.009,96.634L216.063,97.401L216.116,96.649L216.277,96.995L216.331,96.58L216.385,97.057L216.439,97.233L216.492,97.386L216.653,97.723L216.707,95.475L216.761,95.607L216.814,94.524L216.868,95.974L217.029,96.578L217.083,97.166L217.137,97.174L217.19,96.733L217.244,96.622L217.405,94.888L217.459,94.41L217.513,95.71L217.566,95.06L217.62,97.357L217.674,97.344L218.103,97.452L218.157,97.532L218.211,97.808L218.265,97.792L218.318,97.168L218.372,97.868L218.533,97.399L218.587,97.662L218.64,97.728L218.694,97.53L218.748,97.593L218.909,96.324L218.963,97.017L219.016,97.344L219.07,97.903L219.124,97.915L219.285,96.912L219.339,97.278L219.392,97.691L219.446,98.01L219.5,97.641L219.661,97.321L219.715,97.669L219.768,97.669L219.822,97.645L219.876,97.683L220.037,95.809L220.091,96.774L220.144,97.755L220.198,98.049L220.252,98.534L220.413,97.233L220.467,97.506L220.52,97.871L220.574,96.428L220.628,97.645L220.842,97.298L220.896,97.772L220.95,98.159L221.004,97.359L221.165,97.026L221.218,97.266L221.272,96.917L221.326,97.016L221.38,97.487L221.541,96.819L221.594,97.705L221.648,96.362L221.702,96.868L221.755,95.943L221.917,95.802L221.97,95.854L222.024,96.205L222.078,95.837L222.131,97.07L222.346,96.7L222.4,96.687L222.454,97.194L222.507,98.165L222.668,96.918L222.722,97.471L222.776,97.338L222.83,97.446L222.883,98.045L223.044,97.343L223.098,96.967L223.152,97.802L223.206,97.7L223.259,98.283L223.42,96.406L223.474,96.755L223.528,97.394L223.582,97.371L223.635,96.659L223.796,96.984L223.85,96.713L223.904,98.083L223.957,98.109L224.011,96.671L224.172,96.599L224.226,96.742L224.28,97.747L224.495,98.153L224.548,97.311L224.602,96.959L224.656,97.94L224.709,97.633L224.763,97.13L224.924,96.861L224.978,97.809L225.032,97.063L225.085,97.872L225.139,96.702L225.3,97.119L225.354,96.662L225.408,97.207L225.461,97.134L225.515,97.949L225.676,97.882L225.73,97.716L225.783,97.28L225.837,97.974L225.891,98.23L226.052,97.71L226.106,97.896L226.159,97.857L226.213,97.742L226.267,98.115L226.428,97.662L226.482,97.276L226.535,97.529L226.589,97.858L226.643,97.417L226.804,96.793L226.858,95.395L226.911,96.215L226.965,96.908L227.019,97.077L227.18,98.016L227.234,97.623L227.287,97.478L227.341,97.382L227.395,97.871L227.556,97.952L227.61,97.348L227.663,97.631L227.717,96.405L227.771,97.106L227.932,97.658L227.985,97.294L228.039,97.512L228.093,97.331L228.147,97.413L228.308,97.854L228.361,97.039L228.415,96.415L228.469,96.605L228.523,96.968L228.684,97.368L228.737,97.087L228.791,97.46L228.845,97.831L228.898,97.063L229.06,96.998L229.113,96.746L229.167,96.903L229.221,97.633L229.274,96.85L229.436,96.721L229.489,97.115L229.543,96.472L229.758,96.584L229.811,97.028L229.865,95.626L229.919,95.663L229.973,97.476L230.026,97.825L230.187,96.713L230.241,96.226L230.295,95.221L230.349,96.508L230.402,96.82L230.832,96.305L230.886,96.814L230.939,96.923L230.993,98.064L231.047,97.502L231.1,97.931L231.154,97.779L231.315,96.866L231.369,96.047L231.423,95.735L231.476,96.487L231.53,95.839L231.691,95.971L231.745,94.9L231.799,95.179L231.852,93.404L231.906,95.504L232.067,94.28L232.121,95.019L232.175,96.109L232.228,95.904L232.282,96.176L232.443,96.292L232.497,96.154L232.551,96.573L232.604,96.595L232.658,96.445L232.819,95.92L232.873,96.238L232.926,94.999L232.98,94.566L233.034,96.631L233.195,95.093L233.249,96.119L233.302,96.029L233.356,94.926L233.41,96.218L233.571,95.383L233.625,93.91L233.678,93.507L233.732,93.062L233.786,96.165L233.947,95.448L234.001,96.214L234.054,95.49L234.108,95.869L234.162,96.093L234.323,95.885L234.377,95.481L234.43,94.02L234.484,95.834L234.538,93.097L234.699,94.379L234.753,92.815L234.806,93.776L234.86,92.211L234.914,94.843L235.075,93.487L235.128,93.523L235.182,93.844L235.236,89.278L235.343,95.003L235.504,95.547L235.558,95.839L235.612,97.129L235.666,95.672L235.827,97.125L235.88,96.061L235.934,95.812L235.988,96.634L236.041,96.746L236.203,96.013" stroke-width="2" fill="none" stroke="#af516c"/></g></g></svg>