<?xml-stylesheet type="text/css" href="https://ig.ft.com/graphics/bloomberg-economics/chart-style.css" ?><svg xmlns="http://www.w3.org/2000/svg" viewBox="0 0 304 270"><text class="chart-title" fill="#43423e" font-size="20" y="22">中国经济活动指标</text><text class="chart-subtitle" fill="#43423e" font-size="15" y="42">年化月率%</text><text class="chart-source" font-size="10" fill-opacity="0.4" y="265">来源：CEIC，2016/07/15</text><g transform="translate(1,100)"><g transform="translate(0,120)" class="x axis"><g class="tick" style="" transform="translate(0,0)"><line y2="6" x2="0" fill="none" stroke="#000" stroke-opacity="0.2"/><text dy="0" style="" y="20" x="0" font-family="MetricWeb,sans-serif" fill-opacity="0.6" font-size="12" text-anchor="start">2013</text></g><g class="tick" style="" transform="translate(72.88566953797964,0)"><line y2="6" x2="0" fill="none" stroke="#000" stroke-opacity="0.2"/><text dy="0" style="" y="20" x="0" font-family="MetricWeb,sans-serif" fill-opacity="0.6" font-size="12" text-anchor="start">2014</text></g><g class="tick" style="" transform="translate(145.77133907595928,0)"><line y2="6" x2="0" fill="none" stroke="#000" stroke-opacity="0.2"/><text dy="0" style="" y="20" x="0" font-family="MetricWeb,sans-serif" fill-opacity="0.6" font-size="12" text-anchor="start">2015</text></g><g class="tick" style="" transform="translate(218.65700861393893,0)"><line y2="6" x2="0" fill="none" stroke="#000" stroke-opacity="0.2"/><text dy="0" style="" y="20" x="0" font-family="MetricWeb,sans-serif" fill-opacity="0.6" font-size="12" text-anchor="start">2016</text></g><path class="domain" d="M0,0V0H255V0" fill="none" stroke="#74736c"/></g><g transform="translate(255,0)" class="y axis"><g class="tick" style="" transform="translate(0,113.38888888888889)"><line x2="-255" y2="0" fill="none" stroke="#000" stroke-opacity="0.2"/><text dy="0" style="text-anchor: start;" x="3" y="0" font-family="MetricWeb,sans-serif" fill-opacity="0.6" font-size="12">5</text></g><g class="tick" style="" transform="translate(0,80.33333333333334)"><line x2="-255" y2="0" fill="none" stroke="#000" stroke-opacity="0.2"/><text dy="0" style="text-anchor: start;" x="3" y="0" font-family="MetricWeb,sans-serif" fill-opacity="0.6" font-size="12">10</text></g><g class="tick" style="" transform="translate(0,47.27777777777777)"><line x2="-255" y2="0" fill="none" stroke="#000" stroke-opacity="0.2"/><text dy="0" style="text-anchor: start;" x="3" y="0" font-family="MetricWeb,sans-serif" fill-opacity="0.6" font-size="12">15</text></g><g class="tick" style="" transform="translate(0,14.222222222222229)"><line x2="-255" y2="0" fill="none" stroke="#000" stroke-opacity="0.2"/><text dy="0" style="text-anchor: start;" x="3" y="0" font-family="MetricWeb,sans-serif" fill-opacity="0.6" font-size="12">20</text></g><path class="domain" d="M-255,1H0V120H-255" fill="none" stroke="#000" stroke-opacity="0"/></g><g class="chart-key" transform="translate(0,-35)"><g class="key-element" transform="translate(0,0)"><text x="28" font-size="12" fill="#43423e">固定资产投资 (ytd)</text><line x1="0" x2="25" y1="-5" y2="-5" stroke-width="2" fill="none" stroke="#af516c"/></g><g class="key-element" transform="translate(0,20)"><text x="28" font-size="12" fill="#43423e">零售总额</text><line x1="0" x2="25" y1="-5" y2="-5" stroke-width="2" fill="none" stroke="#76acb8"/></g><g class="key-element" transform="translate(0,40)"><text x="28" font-size="12" fill="#43423e">工业生产</text><line x1="0" x2="25" y1="-5" y2="-5" stroke-width="2" fill="none" stroke="#ecafaf"/></g></g><g><path d="M11.782,87.606L17.972,84.961L23.962,85.622L30.153,87.606L36.143,82.317L42.334,77.689L48.524,79.011L54.514,78.35L60.705,80.333L66.695,82.317M84.667,88.267L90.857,88.928L96.848,88.267L103.038,85.622L109.029,86.944L115.219,100.828L121.41,93.556L127.4,95.539L133.59,98.844L139.581,94.217M157.553,109.422L163.743,107.439L169.734,106.117L175.924,101.489L181.915,106.778L188.105,106.117L194.295,108.761L200.286,109.422L206.476,105.456L212.467,107.439M230.638,101.489L236.829,106.778L242.819,106.778L249.009,105.456" stroke-width="2" fill="none" stroke="#ecafaf"/><path d="M11.782,63.144L17.972,61.822L23.962,61.161L30.153,58.517L36.143,59.178L42.334,57.856L48.524,58.517L54.514,58.517L60.705,55.872L66.695,56.533M84.667,65.789L90.857,67.772L96.848,63.806L103.038,64.467L109.029,65.789L115.219,67.772L121.41,69.756L127.4,70.417L133.59,69.094L139.581,67.772M157.553,79.011L163.743,80.333L169.734,79.672L175.924,76.367L181.915,77.028L188.105,75.044L194.295,74.383L200.286,73.722L206.476,72.4L212.467,73.061M230.638,77.028L236.829,79.672L242.819,80.333L249.009,76.367" stroke-width="2" fill="none" stroke="#76acb8"/><path d="M0,6.289L6.19,6.289L11.782,8.272L17.972,10.256L23.962,11.578L30.153,13.561L36.143,13.561L42.334,12.239L48.524,12.9L54.514,13.561L60.705,14.883L66.695,16.867L72.886,28.106L79.076,28.106L84.667,30.089L90.857,32.072L96.848,32.733L103.038,32.072L109.029,34.056L115.219,37.361L121.41,40.006L127.4,41.328L133.59,41.989L139.581,42.65L145.771,54.55L151.962,54.55L157.553,57.194L163.743,67.111L169.734,71.078L175.924,71.078L181.915,72.4L188.105,74.383L194.295,78.35L200.286,79.011L206.476,79.011L212.467,80.333L218.657,79.011L224.847,79.011L230.638,75.706L236.829,77.028L242.819,82.978L249.009,86.944" stroke-width="2" fill="none" stroke="#af516c"/></g></g></svg>