<?xml-stylesheet type="text/css" href="https://ig.ft.com/graphics/bloomberg-economics/chart-style.css" ?><svg xmlns="http://www.w3.org/2000/svg" viewBox="0 0 304 270"><text class="chart-title" fill="#43423e" font-size="20" y="22">债券</text><text class="chart-subtitle" fill="#43423e" font-size="15" y="42">中国债券收益率与收益率差%</text><text class="chart-source" font-size="10" fill-opacity="0.4" y="265">来源：CEIC/中央国债登记结算，2017/03/08</text><g transform="translate(1,100)"><g transform="translate(0,120)" class="x axis"><g class="tick" style="" transform="translate(0,0)"><line y2="6" x2="0" fill="none" stroke="#000" stroke-opacity="0.2"/><text dy="0" style="" y="20" x="0" font-family="MetricWeb,sans-serif" fill-opacity="0.6" font-size="12" text-anchor="start">2006</text></g><g class="tick" style="" transform="translate(42.470910335386726,0)"><line y2="6" x2="0" fill="none" stroke="#000" stroke-opacity="0.2"/><text dy="0" style="" y="20" x="0" font-family="MetricWeb,sans-serif" fill-opacity="0.6" font-size="12" text-anchor="start">2008</text></g><g class="tick" style="" transform="translate(85,0)"><line y2="6" x2="0" fill="none" stroke="#000" stroke-opacity="0.2"/><text dy="0" style="" y="20" x="0" font-family="MetricWeb,sans-serif" fill-opacity="0.6" font-size="12" text-anchor="start">2010</text></g><g class="tick" style="" transform="translate(127.47091033538673,0)"><line y2="6" x2="0" fill="none" stroke="#000" stroke-opacity="0.2"/><text dy="0" style="" y="20" x="0" font-family="MetricWeb,sans-serif" fill-opacity="0.6" font-size="12" text-anchor="start">2012</text></g><g class="tick" style="" transform="translate(170,0)"><line y2="6" x2="0" fill="none" stroke="#000" stroke-opacity="0.2"/><text dy="0" style="" y="20" x="0" font-family="MetricWeb,sans-serif" fill-opacity="0.6" font-size="12" text-anchor="start">2014</text></g><g class="tick" style="" transform="translate(212.47091033538672,0)"><line y2="6" x2="0" fill="none" stroke="#000" stroke-opacity="0.2"/><text dy="0" style="" y="20" x="0" font-family="MetricWeb,sans-serif" fill-opacity="0.6" font-size="12" text-anchor="start">2016</text></g><g class="tick" style="" transform="translate(255,0)"><line y2="6" x2="0" fill="none" stroke="#000" stroke-opacity="0.2"/><text dy="0" style="" y="20" x="0" font-family="MetricWeb,sans-serif" fill-opacity="0.6" font-size="12" text-anchor="start">2018</text></g><path class="domain" d="M0,0V0H255V0" fill="none" stroke="#74736c"/></g><g transform="translate(255,0)" class="y axis"><g class="tick" style="" transform="translate(0,106.77777777777777)"><line x2="-255" y2="0" fill="none" stroke="#000" stroke-opacity="0.2"/><text dy="0" style="text-anchor: start;" x="3" y="0" font-family="MetricWeb,sans-serif" fill-opacity="0.6" font-size="12">2</text></g><g class="tick" style="" transform="translate(0,80.33333333333334)"><line x2="-255" y2="0" fill="none" stroke="#000" stroke-opacity="0.2"/><text dy="0" style="text-anchor: start;" x="3" y="0" font-family="MetricWeb,sans-serif" fill-opacity="0.6" font-size="12">4</text></g><g class="tick" style="" transform="translate(0,53.888888888888886)"><line x2="-255" y2="0" fill="none" stroke="#000" stroke-opacity="0.2"/><text dy="0" style="text-anchor: start;" x="3" y="0" font-family="MetricWeb,sans-serif" fill-opacity="0.6" font-size="12">6</text></g><g class="tick" style="" transform="translate(0,27.444444444444443)"><line x2="-255" y2="0" fill="none" stroke="#000" stroke-opacity="0.2"/><text dy="0" style="text-anchor: start;" x="3" y="0" font-family="MetricWeb,sans-serif" fill-opacity="0.6" font-size="12">8</text></g><g class="tick" style="" transform="translate(0,1)"><line x2="-255" y2="0" fill="none" stroke="#000" stroke-opacity="0.2"/><text dy="0" style="text-anchor: start;" x="3" y="0" font-family="MetricWeb,sans-serif" fill-opacity="0.6" font-size="12">10</text></g><path class="domain" d="M-255,1H0V120H-255" fill="none" stroke="#000" stroke-opacity="0"/></g><g class="chart-key" transform="translate(0,-35)"><g class="key-element" transform="translate(0,0)"><text x="28" font-size="12" fill="#43423e">5年债券</text><line x1="0" x2="25" y1="-5" y2="-5" stroke-width="2" fill="none" stroke="#af516c"/></g><g class="key-element" transform="translate(0,20)"><text x="28" font-size="12" fill="#43423e">AA级</text><line x1="0" x2="25" y1="-5" y2="-5" stroke-width="2" fill="none" stroke="#76acb8"/></g></g><g><path d="M115.719,45.606L115.777,45.476L115.835,45.313L115.893,45.13L115.951,44.836L116.126,44.719L116.184,45.107L116.242,47.038L116.3,47.267L116.359,47.008L116.533,47.467L116.591,48.291L116.65,49.511L116.708,48.987L116.766,49.195L116.94,50.286L116.999,50.386L117.057,50.139L117.115,49.553L117.173,50.192L117.348,50.173L117.406,49.757L117.464,48.826L117.522,48.659L117.58,48.628L117.755,49.846L117.813,49.904L117.871,48.288L117.93,46.83L117.988,46.311L118.162,44.918L118.22,40.697L118.279,40.497L118.337,40.697L118.395,39.233L118.569,40.557L118.628,40.582L118.686,40.917L118.744,41.04L118.802,41.205L118.977,40.275L119.035,39.49L119.093,41.268L119.151,41.17L119.209,40.808L119.384,41.461L119.442,41.521L119.5,41.469L119.559,41.412L119.617,39.403L119.791,38.412L119.849,37.161L119.908,39.816L119.966,39.606L120.024,39.068L120.198,36.49L120.257,36.003L120.315,36.344L120.373,36.073L120.431,35.995L120.606,36.754L120.664,36.384L120.722,35.357L120.78,36.449L120.838,36.486L121.071,35.838L121.129,34.179L121.188,34.19L121.246,33.771L121.42,33.31L121.478,32.7L121.537,33.866L121.595,32.665L121.653,33.388L121.828,33.229L121.886,33.252L121.944,33.163L122.002,33.319L122.06,33.11L122.526,33.253L122.584,33.375L122.642,33.264L122.7,32.987L122.758,33.063L122.817,33.414L122.875,33.425L123.049,33.885L123.107,33.003L123.166,33.859L123.224,33.544L123.282,34.463L123.457,34.147L123.515,34.598L123.573,34.719L123.631,33.901L123.689,33.988L123.864,33.228L123.922,33.241L123.98,33.708L124.038,33.553L124.097,33.825L124.271,33.685L124.329,33.914L124.387,34.283L124.446,35.535L124.504,36.506L124.678,36.331L124.736,35.491L124.795,33.603L124.853,32.322L124.911,32.715L125.086,33.601L125.144,33.43L125.202,33.342L125.26,32.003L125.318,32.403L125.493,31.78L125.551,31.567L125.609,30.636L125.667,32.326L125.726,33.644L125.9,34.387L125.958,34.075L126.016,33.88L126.075,33.814L126.133,33.733L126.307,33.257L126.366,33.63L126.424,32.907L126.482,31.527L126.54,33.043L126.715,32.846L126.773,32.949L126.831,32.708L126.889,32.199L126.947,32.19L127.122,32.146L127.18,31.484L127.238,31.456L127.296,31.635L127.355,32.046L127.413,32.025L127.645,31.51L127.704,31.822L127.762,32.39L127.936,32.47L127.995,33.18L128.053,32.206L128.111,32.207L128.169,31.841L128.344,32.256L128.402,32.293L128.46,32.29L128.518,32.445L128.576,32.573L128.634,32.115L129.1,32.577L129.158,32.51L129.216,32.84L129.274,32.457L129.333,32.341L129.391,32.101L129.565,32.592L129.624,32.275L129.682,31.84L129.74,31.455L129.798,30.32L129.973,31.042L130.031,31.435L130.089,31.036L130.147,31.058L130.205,30.163L130.38,29.317L130.438,29.3L130.496,29.36L130.554,29.428L130.613,29.378L130.787,29.85L130.845,29.691L130.903,29.408L130.962,29.344L131.02,29.183L131.194,28.797L131.253,29.711L131.311,29.698L131.369,30.616L131.427,30.345L131.602,30.151L131.66,30.263L131.718,31.583L131.776,31.334L131.834,31.325L132.009,31.225L132.067,30.616L132.125,31.583L132.183,32.46L132.242,32.944L132.416,33.406L132.474,33.619L132.533,33.433L132.591,33.983L132.649,34.037L132.707,34.02L132.765,34.05L132.998,33.874L133.056,33.956L133.231,34.008L133.289,34.081L133.347,33.069L133.405,33.098L133.463,33.156L133.638,32.963L133.696,32.981L133.754,33.16L133.812,33.49L133.871,33.343L134.045,34.846L134.103,35.852L134.162,35.801L134.22,35.826L134.278,36.982L134.336,37.36L134.569,37.366L134.627,38.021L134.685,38.106L134.86,38.691L134.918,39.486L134.976,39.604L135.034,40.373L135.092,41.319L135.267,41.542L135.325,43.539L135.383,43.948L135.441,44.111L135.5,44.214L135.674,44.204L135.732,44.373L135.791,44.551L135.849,44.784L135.907,45.47L136.081,46.695L136.14,46.445L136.198,46.491L136.256,46.474L136.314,46.484L136.489,46.557L136.547,46.745L136.605,46.748L136.663,46.737L136.721,47.718L136.896,47.583L136.954,48.087L137.012,47.569L137.07,47.622L137.129,47.637L137.303,47.682L137.361,47.021L137.42,46.204L137.478,45.651L137.71,45.755L137.769,46.311L137.827,45.786L137.885,46.602L137.943,46.79L138.118,46.742L138.176,46.7L138.234,46.666L138.292,46.437L138.35,46.631L138.525,46.625L138.583,46.664L138.641,46.354L138.7,46.313L138.758,46.36L138.932,46.303L138.99,46.309L139.049,46.315L139.107,46.295L139.165,46.313L139.339,46.358L139.398,46.339L139.456,46.336L139.514,46.339L139.572,46.324L139.747,46.313L139.805,46.376L139.863,46.322L139.921,46.389L139.979,46.377L140.154,46.433L140.212,46.491L140.27,46.443L140.329,46.455L140.387,46.524L140.561,46.533L140.619,46.528L140.678,46.511L140.736,46.503L140.794,46.483L140.969,46.507L141.027,46.484L141.085,46.547L141.143,46.551L141.201,46.507L141.376,41.787L141.434,42.679L141.492,43.016L141.55,43.396L141.608,42.848L141.783,43.392L141.841,43.981L141.899,43.959L141.958,43.636L142.016,43.963L142.19,44.657L142.248,45.465L142.307,46.213L142.365,45.92L142.423,44.485L142.598,45.347L142.656,45.569L142.714,45.986L142.772,45.507L142.83,45.203L143.005,45.211L143.063,44.96L143.121,44.789L143.179,43.918L143.238,43.741L143.296,43.196L143.819,42.988L143.877,42.832L143.936,42.85L143.994,42.814L144.052,43.297L144.227,43.578L144.285,43.648L144.343,42.758L144.401,42.789L144.459,42.846L144.634,42.694L144.692,42.784L144.75,42.899L144.808,42.198L144.867,42.191L145.041,42.544L145.099,41.982L145.157,43.041L145.216,41.978L145.274,42.003L145.448,41.949L145.507,42.081L145.565,42.187L145.623,42.461L145.681,42.466L145.856,41.883L145.914,41.994L145.972,42.036L146.03,42.066L146.088,42.13L146.263,42.408L146.321,42.658L146.379,42.936L146.437,43.295L146.496,43.872L146.67,43.16L146.728,42.674L146.786,43.127L146.845,42.813L146.903,42.933L147.077,43.073L147.136,43.463L147.194,43.166L147.252,43.318L147.31,43.488L147.485,43.702L147.543,43.585L147.601,43.766L147.659,43.939L147.717,43.658L147.892,43.265L147.95,43.564L148.008,43.426L148.066,43.434L148.125,43.36L148.299,43.191L148.357,42.879L148.415,42.826L148.474,43.166L148.532,43.583L148.706,43.983L148.939,43.818L148.997,43.628L149.055,43.749L149.114,43.897L149.172,44.171L149.23,44.415L149.288,44.69L149.346,45.018L149.521,45.206L149.579,45.322L149.637,45.185L149.695,45.45L149.754,45.741L149.928,46.351L149.986,46.514L150.044,46.114L150.103,46.276L150.161,45.811L150.335,45.856L150.394,45.669L150.452,45.466L150.51,45.334L150.568,45.584L150.743,45.564L150.801,45.552L150.859,45.562L150.917,45.659L150.975,45.905L151.441,46.224L151.499,46.335L151.557,46.412L151.615,46.556L151.674,46.865L151.732,46.796L151.79,47.062L151.964,46.878L152.023,46.68L152.081,46.767L152.139,46.327L152.197,45.686L152.372,45.618L152.43,45.562L152.488,45.556L152.546,46.422L152.604,46.38L152.779,47.196L152.837,47.007L152.895,46.906L152.953,46.894L153.012,46.577L153.186,46.283L153.244,46.334L153.303,46.494L153.361,46.64L153.419,46.599L153.593,46.363L153.652,46.031L153.71,45.863L153.768,46.023L153.826,46.155L154.001,46.405L154.059,46.519L154.117,47.801L154.35,48.002L154.408,48.136L154.466,49.303L154.524,48.145L154.582,48.433L154.641,48.459L154.815,48.757L154.873,49.114L154.932,49.531L154.99,50.655L155.048,50.512L155.222,50.401L155.281,50.269L155.339,49.704L155.397,49.765L155.455,49.777L155.513,50.533L155.572,50.541L155.804,50.709L155.862,51.112L156.037,51.152L156.095,51.675L156.153,51.365L156.211,51.358L156.27,51.562L156.444,51.923L156.502,52.077L156.561,52.4L156.619,52.518L156.677,52.502L156.851,52.372L156.91,52.251L156.968,52.408L157.026,52.404L157.084,52.466L157.259,52.247L157.317,51.966L157.375,52.107L157.433,52.195L157.491,52.355L157.666,52.362L157.724,52.194L157.782,51.968L157.841,51.822L157.899,51.571L157.957,51.605L158.015,51.419L158.248,51.473L158.306,50.976L158.48,50.299L158.539,49.947L158.597,49.254L158.655,42.553L158.713,47.673L158.888,48.051L158.946,46.135L159.004,46.168L159.062,47.6L159.12,47.935L159.295,48.243L159.353,48.646L159.411,49.805L159.47,50.48L159.528,50.41L159.702,50.407L159.76,50.261L159.819,49.905L159.877,49.753L159.935,49.106L160.11,48.978L160.168,48.604L160.226,48.601L160.284,48.683L160.342,48.329L160.517,47.62L160.575,46.664L160.633,45.342L160.691,44.978L160.749,45.117L160.924,45.747L160.982,45.589L161.04,45.772L161.099,46.754L161.157,46.962L161.331,47.218L161.389,47.214L161.448,46.971L161.506,46.395L161.564,45.855L161.739,45.485L161.797,44.747L161.855,44.345L161.913,43.113L161.971,43.045L162.146,42.538L162.204,42.47L162.262,42.461L162.32,43.269L162.379,43.315L162.553,44.025L162.611,43.9L162.669,43.844L162.728,43.743L162.786,43.697L162.96,43.49L163.018,43.781L163.077,43.864L163.135,43.483L163.193,43.336L163.368,42.795L163.426,42.023L163.484,41.949L163.542,40.831L163.6,40.675L163.775,40.548L163.833,40.166L163.891,40.084L164.124,40.131L164.182,39.951L164.24,40.521L164.298,40.409L164.357,39.805L164.415,40.553L164.531,40.505L164.589,40.583L165.055,40.434L165.113,40.452L165.171,40.384L165.229,40.614L165.287,40.894L165.404,40.902L165.462,40.553L165.52,40.316L165.578,40.277L165.637,40.472L165.811,40.138L165.869,39.742L165.927,39.888L165.986,39.149L166.044,38.874L166.218,37.55L166.277,37.496L166.335,37.119L166.393,36.42L166.451,36.112L166.626,35.995L166.684,37.459L166.742,37.311L166.8,36.88L166.858,36.797L167.033,35.513L167.091,34.768L167.149,34.505L167.207,33.295L167.266,33.052L167.44,31.55L167.498,31.181L167.556,29.851L167.615,29.166L167.673,29.441L167.847,29.576L167.906,29.616L167.964,29.326L168.022,29.338L168.08,29.055L168.255,29.679L168.313,29.753L168.371,28.361L168.429,28.484L168.487,28.735L168.662,28.674L168.72,28.677L168.778,28.509L168.836,28.436L168.895,28.234L169.069,28.603L169.127,28.592L169.185,28.367L169.244,28.448L169.302,28.038L169.476,28.154L169.535,27.637L169.593,26.923L169.651,26.925L169.709,26.372L169.884,26.06L169.942,26.071L170.058,26.059L170.116,27L170.291,27.217L170.349,27.099L170.407,26.816L170.465,27.052L170.524,27.066L170.698,27.357L170.756,27.77L170.815,28.37L170.873,28.526L170.931,28.537L171.105,28.542L171.164,28.029L171.222,28.247L171.28,28.433L171.338,28.976L171.454,29.362L171.513,29.356L171.571,29.346L171.629,29.335L171.687,29.457L172.153,29.6L172.211,29.884L172.327,30.25L172.385,30.758L172.444,30.979L172.502,31.364L172.56,31.71L172.734,32.034L172.793,32.153L172.851,31.96L172.909,32.866L172.967,33.195L173.142,33.528L173.2,34.198L173.258,36.335L173.316,36.802L173.374,36.937L173.549,37.033L173.607,36.65L173.665,36.607L173.723,36.607L173.782,36.629L173.956,30.973L174.014,31.02L174.073,29.374L174.131,29.363L174.189,29.413L174.363,29.355L174.422,29.42L174.48,29.359L174.538,29.248L174.596,29.054L174.771,29.375L174.829,29.456L174.887,29.076L174.945,28.671L175.003,27.928L175.178,28.374L175.236,28.596L175.294,25.761L175.352,25.879L175.411,24.849L175.643,24.366L175.702,24.759L175.76,24.391L175.818,24.608L175.992,25.053L176.051,25.235L176.109,25.905L176.167,27.136L176.225,27.106L176.4,26.916L176.458,24.71L176.516,22.03L176.574,16.249L176.632,12.228L176.807,26.458L176.865,27.188L176.923,27.389L177.156,27.641L177.214,27.614L177.272,27.483L177.331,27.636L177.389,27.77L177.447,27.989L177.621,28.522L177.68,28.476L177.738,28.457L177.796,28.742L177.854,28.939L178.029,29.188L178.087,29.929L178.145,30.01L178.203,30.512L178.261,31.017L178.436,30.799L178.494,30.554L178.552,30.29L178.611,30.003L178.669,29.691L178.901,29.395L178.96,29.397L179.018,29.4L179.076,29.378L179.251,29.364L179.309,29.604L179.367,29.594L179.425,29.112L179.483,28.909L179.658,29.017L179.716,28.148L179.774,28.028L179.832,27.48L179.89,27.216L180.065,27.495L180.123,27.475L180.181,26.863L180.24,27.15L180.298,27.283L180.472,27.39L180.53,27.048L180.589,26.758L180.647,26.667L180.705,26.839L180.88,26.897L180.938,27.485L180.996,27.191L181.054,26.716L181.112,27.291L181.287,27.565L181.345,27.561L181.403,27.652L181.461,27.217L181.52,26.726L181.694,25.915L181.752,26.17L181.81,26.391L181.869,26.41L181.927,26.716L182.101,26.726L182.159,27.019L182.218,26.962L182.276,26.935L182.334,27.199L182.509,27.081L182.567,26.774L182.625,26.861L182.683,26.838L182.741,26.983L182.916,27.407L182.974,27.179L183.032,27.57L183.09,27.952L183.149,28.664L183.323,27.536L183.381,27.225L183.439,27.372L183.498,27.064L183.556,26.916L183.73,26.906L183.789,27.202L183.847,27.09L183.905,27.249L183.963,27.637L184.138,27.608L184.196,27.356L184.254,27.344L184.312,27.522L184.37,27.496L184.603,27.447L184.661,27.419L184.719,27.261L184.778,27.488L184.952,27.429L185.01,27.216L185.068,27.545L185.127,27.879L185.185,28.013L185.359,28.586L185.418,28.069L185.476,28.066L185.534,28.229L185.592,28.094L185.708,28.247L185.767,28.059L185.825,28.102L186.29,28.279L186.348,28.32L186.407,28.329L186.465,28.113L186.581,28.124L186.639,28.226L186.697,28.484L186.756,28.822L186.814,29.187L186.988,29.437L187.047,30.816L187.105,31.263L187.163,31.227L187.221,32.554L187.396,32.637L187.454,32.614L187.512,32.46L187.57,33.241L187.628,32.914L187.803,33.584L187.861,34.284L187.919,35.113L187.977,35.61L188.036,35.517L188.21,36.269L188.268,37.957L188.326,37.898L188.385,38.235L188.443,38.222L188.617,37.681L188.676,37.451L188.734,37.574L188.792,37.349L188.85,36.586L189.025,36.347L189.083,38.677L189.141,38.739L189.199,38.102L189.257,37.924L189.432,37.614L189.49,38.244L189.548,37.657L189.606,36.2L189.665,35.017L189.839,34.095L189.897,32.573L189.956,30.208L190.014,29.7L190.072,30.422L190.246,30.45L190.305,30.205L190.363,29.789L190.421,29.761L190.479,29.671L190.654,30.069L190.712,30.371L190.77,30.521L190.828,31.904L190.886,32.637L191.061,32.949L191.119,33.307L191.177,33.252L191.41,33.349L191.468,33.814L191.526,34.025L191.585,34.677L191.643,35.037L191.701,35.138L191.875,35.252L191.934,35.662L191.992,36.252L192.05,37.475L192.108,38.18L192.283,39.011L192.341,38.969L192.399,39.207L192.457,39.323L192.515,39.297L192.69,39.58L192.748,39.29L192.806,39.305L192.864,39.002L192.923,39.567L193.097,38.969L193.155,38.895L193.214,38.842L193.272,39.342L193.33,38.764L193.504,38.363L193.563,39.233L193.621,39.585L193.679,39.982L193.737,40.753L193.854,41.984L193.912,41.679L193.97,41.795L194.435,42.856L194.493,42.379L194.552,42.056L194.61,41.765L194.726,41.435L194.784,40.889L194.843,40.962L194.901,40.722L194.959,40.082L195.133,38.667L195.192,39.889L195.25,39.925L195.308,39.954L195.366,39.323L195.541,39.828L195.599,39.824L195.657,40.119L195.715,39.75L195.773,39.772L195.948,40.164L196.006,39.629L196.064,39.019L196.123,38.882L196.181,38.177L196.355,37.159L196.413,36.659L196.472,36.154L196.53,36.014L196.588,36.524L196.821,37.353L196.879,37.645L196.937,37.315L196.995,36.995L197.17,37.481L197.228,38.119L197.286,38.942L197.344,39.634L197.402,39.173L197.577,39.892L197.635,41.57L197.693,42.583L197.752,42.638L197.81,41.492L197.984,41.649L198.042,41.666L198.101,41.221L198.159,41.632L198.392,41.615L198.45,42.322L198.508,42.992L198.566,42.039L198.624,42.449L198.799,43.474L198.857,43.718L198.915,44.903L198.973,45.199L199.031,45.55L199.206,45.875L199.264,46.289L199.322,45.257L199.381,44.944L199.439,44.312L199.613,43.829L199.671,43.431L199.73,43.747L199.788,43.644L199.846,44.243L200.021,42.37L200.079,41.752L200.137,42.072L200.195,42.594L200.253,42.901L200.428,42.756L200.486,42.576L200.544,41.977L200.602,42.035L200.661,41.752L200.835,41.625L200.893,41.226L200.951,41.256L201.01,41.426L201.068,41.341L201.3,41.564L201.359,41.26L201.417,40.958L201.475,41.223L201.65,41.648L201.708,41.09L201.766,40.958L201.824,40.969L201.882,41.181L202.057,41.494L202.115,42.047L202.173,43.291L202.231,44.608L202.29,43.886L202.464,43.557L202.522,42.858L202.58,43.311L202.639,43.049L202.697,43.129L202.871,43.036L202.93,42.891L202.988,43.246L203.046,43.583L203.104,44.038L203.279,44.855L203.337,44.448L203.395,44.777L203.453,44.156L203.511,44.132L203.686,44.169L203.744,44.021L203.802,43.782L203.86,43.77L203.919,44.212L204.093,44.35L204.151,44.504L204.209,43.849L204.268,44.013L204.326,44.086L204.5,43.476L204.559,43.552L204.617,43.525L204.675,43.322L204.733,43.622L204.908,43.919L204.966,44.323L205.024,44.213L205.082,43.624L205.14,43.831L205.315,43.269L205.373,44.049L205.431,44.535L205.664,44.963L205.722,44.684L205.78,45.008L205.838,44.989L205.897,44.718L205.955,44.312L206.129,44.025L206.188,43.771L206.246,43.844L206.304,44.1L206.362,44.038L206.537,44.342L206.595,44.933L206.653,44.906L206.711,44.92L206.769,45.107L206.944,45.152L207.002,44.959L207.06,44.939L207.526,44.877L207.584,45.084L207.642,45.228L207.758,45.609L207.817,46.123L207.875,46.409L207.933,47.46L207.991,47.582L208.166,47.004L208.224,46.552L208.282,46.74L208.34,47.32L208.398,47.023L208.573,47.411L208.631,48.226L208.689,48.899L208.747,49.297L208.806,50.456L208.98,50.491L209.038,50.478L209.097,50.039L209.155,49.765L209.213,49.622L209.387,49.913L209.446,49.027L209.504,48.299L209.562,47.718L209.62,47.73L209.795,47.746L209.853,48.075L209.911,47.406L209.969,47.466L210.027,47.698L210.202,48.123L210.26,48.383L210.318,48.435L210.376,48.439L210.435,49.026L210.609,49.311L210.667,49.656L210.726,49.422L210.784,49.458L210.842,49.643L211.016,49.982L211.075,50.249L211.133,50.474L211.191,50.319L211.249,50.138L211.424,50.225L211.482,50.267L211.54,50.007L211.598,49.873L211.656,49.827L211.831,49.592L211.889,50.427L211.947,51.554L212.005,51.8L212.064,52.278L212.238,52.101L212.296,52.407L212.355,52.658L212.413,52.645L212.645,52.326L212.704,52.333L212.762,51.92L212.82,52.411L212.878,52.969L213.053,53.509L213.111,53.499L213.169,54.272L213.227,54.649L213.285,55.198L213.46,54.727L213.518,54.304L213.576,53.819L213.634,53.989L213.693,53.754L213.867,53.989L213.925,53.433L213.984,53.439L214.042,53.052L214.1,52.81L214.274,53.134L214.333,53.57L214.391,53.393L214.449,53.085L214.507,53.064L214.565,53.018L215.031,53.019L215.089,53.323L215.147,53.696L215.205,53.412L215.264,53.425L215.322,53.393L215.496,53.733L215.554,53.926L215.613,53.926L215.671,53.911L215.729,54.07L215.903,53.762L215.962,53.49L216.02,53.975L216.078,53.352L216.136,54.126L216.311,53.907L216.369,53.889L216.427,53.905L216.485,54.274L216.543,54.491L216.718,54.964L216.776,54.963L216.834,54.899L216.893,54.797L216.951,55.009L217.125,55.145L217.183,55.39L217.242,54.747L217.3,55.154L217.358,55.391L217.533,54.891L217.591,54.697L217.649,54.465L217.707,54.521L217.765,54.803L217.998,54.867L218.056,54.44L218.114,53.984L218.172,53.536L218.347,53.564L218.405,52.994L218.463,52.519L218.522,52.022L218.58,51.223L218.754,51.34L218.812,51.33L218.871,51.09L218.929,50.689L218.987,50.23L219.162,49.15L219.22,47.228L219.278,47.269L219.336,47.313L219.394,47.366L219.627,47.731L219.685,47.837L219.743,48.008L219.802,48.156L219.976,48.289L220.034,48.587L220.092,49.129L220.151,49.548L220.209,49.852L220.383,49.774L220.441,49.995L220.5,50.255L220.558,50.265L220.616,50.273L220.791,50.283L220.849,50.438L220.907,50.612L220.965,50.578L221.023,50.466L221.198,50.622L221.256,50.575L221.314,50.189L221.372,49.749L221.431,50.093L221.605,49.758L221.663,49.454L221.721,49.45L221.954,49.432L222.012,49.141L222.07,49.44L222.129,49.802L222.187,49.716L222.245,49.832L222.42,49.76L222.478,49.86L222.536,50.035L222.594,50.047L222.652,50.382L222.827,50.466L222.885,51.136L222.943,50.902L223.001,51.157L223.06,51.395L223.234,51.533L223.292,52.079L223.35,52.424L223.409,52.252L223.467,52.768L223.641,53.179L223.7,53.089L223.758,53.301L223.816,53.168L223.874,53.101L224.049,52.918L224.107,53.197L224.165,53.656L224.223,54.256L224.281,54.959L224.456,55.189L224.514,54.739L224.572,54.596L224.63,54.994L224.689,55.318L224.863,55.79L224.921,56.322L224.979,56.586L225.038,56.701L225.096,57.157L225.27,57.118L225.329,57.37L225.387,57.262L225.445,57.932L225.503,57.967L225.678,58.396L225.736,59.186L225.794,59.153L225.852,58.985L225.91,59.392L226.085,59.087L226.143,58.659L226.201,59.089L226.259,58.544L226.318,59.229L226.492,59.52L226.55,59.506L226.608,58.771L226.667,59.05L226.725,59.615L226.899,59.666L226.958,59.331L227.016,59.638L227.074,59.765L227.132,60.159L227.307,60.858L227.365,60.989L227.423,61.262L227.656,61.645L227.714,62.226L227.772,62.629L227.83,62.904L227.888,63.445L227.947,63.878L228.121,64.723L228.179,64.71L228.238,64.71L228.296,64.707L228.354,64.699L228.819,64.699L228.877,64.685L228.936,64.67L228.994,65.374L229.052,65.509L229.11,65.54L229.168,65.489L229.343,65.769L229.401,65.871L229.459,66.047L229.517,66.479L229.576,66.751L229.75,66.145L229.808,66.372L229.867,66.376L229.925,65.883L229.983,65.49L230.157,66.016L230.216,66.01L230.274,65.71L230.332,65.978L230.39,66.66L230.565,66.73L230.623,66.622L230.681,66.264L230.739,65.877L230.797,65.942L230.972,65.769L231.03,65.068L231.088,64.434L231.146,64.167L231.205,63.712L231.379,63.429L231.437,63.057L231.496,63.025L231.554,63.166L231.612,62.811L231.786,62.555L231.845,62.56L231.903,61.857L231.961,61.23L232.019,59.553L232.194,59.016L232.252,58.662L232.31,57.139L232.368,56.951L232.426,57.343L232.601,57.504L232.659,56.86L232.717,55.398L232.775,54.042L232.834,50.817L233.008,51.148L233.066,49.225L233.125,49.294L233.183,50.407L233.241,52.59L233.415,55.162L233.474,53.447L233.532,53.049L233.59,53.04L233.648,54.011L233.881,54.525L233.939,54.516L233.997,54.504L234.055,54.465L234.23,54.444L234.288,54.398L234.346,54.739L234.405,54.279L234.463,54.279L234.637,56.2L234.695,55.395L234.754,54.595L234.812,54.141L234.87,53.564L234.986,53.782L235.044,54.594L235.103,54.147L235.161,53.886L235.219,53.627L235.684,53.077L235.743,52.274L235.859,51.952L235.917,50.817L235.975,48.962L236.034,49.204L236.092,49.432L236.266,48.217L236.324,48.603L236.383,48.695L236.441,48.259L236.499,48.7L236.674,49.001L236.732,48.72L236.79,48.109L236.848,48.199L236.906,49.249L237.081,49.816L237.139,49.564L237.197,49.875L237.255,49.552L237.313,50.036L237.488,49.74L237.546,49.612L237.604,48.961" stroke-width="2" fill="none" stroke="#76acb8"/><path d="M3.433,101.447L3.491,100.651L3.549,100.865L3.723,100.46L3.782,100.817L3.84,101.123L3.898,101.261L3.956,101.112L4.131,100.919L4.189,100.976L4.247,100.955L4.305,101.064L4.363,101.283L4.538,101.149L4.596,101.252L4.713,99.786L4.771,99.867L5.003,98.94L5.062,98.982L5.12,100.078L5.178,98.945L5.352,99.975L5.411,99.777L5.469,99.614L5.527,99.754L5.585,99.88L5.76,98.911L5.818,98.633L5.876,98.568L5.934,98.481L5.992,98.293L6.167,97.892L6.225,97.927L6.283,97.82L6.342,98.152L6.4,98.091L6.574,98.043L6.632,97.726L6.691,97.81L6.749,98.28L6.807,98.797L6.865,98.937L6.923,99.133L7.389,99.16L7.447,99.453L7.505,99.283L7.563,99.433L7.621,99.068L7.796,98.85L7.854,99.872L7.912,100.419L7.971,100.397L8.029,100.399L8.203,100.411L8.261,100.332L8.32,100.446L8.378,100.413L8.436,100.353L8.611,100.218L8.669,100.348L8.727,100.343L8.785,100.132L8.843,99.761L9.018,99.192L9.076,98.621L9.134,98.428L9.192,98.764L9.251,98.807L9.425,98.913L9.483,97.887L9.541,97.375L9.6,97.591L9.658,97.793L9.832,96.979L9.89,97.256L9.949,96.944L10.007,96.701L10.065,96.521L10.24,96.628L10.298,96.722L10.356,96.852L10.414,97.751L10.472,96.786L10.647,96.872L10.705,97.119L10.763,96.72L10.821,96.647L10.88,96.812L11.054,97.201L11.112,97.603L11.17,97.394L11.229,96.967L11.287,95.899L11.461,96.172L11.52,95.945L11.578,96.528L11.636,96.546L11.694,96.246L11.869,94.814L11.927,95.255L11.985,95.178L12.043,95.478L12.101,95.495L12.276,95.711L12.334,95.721L12.392,95.519L12.45,95.653L12.509,95.122L12.683,95.079L12.741,95.467L12.799,95.522L12.858,95.67L12.916,95.743L13.09,96.021L13.149,96.148L13.207,96.43L13.265,96.466L13.323,96.708L13.498,95.789L13.556,95.975L13.614,96.109L13.672,96.191L13.73,96.257L13.905,96.282L13.963,96.274L14.021,96.402L14.079,96.422L14.138,96.472L14.312,96.535L14.37,96.606L14.428,96.681L14.487,96.775L14.545,96.746L14.719,96.726L14.778,96.833L14.836,96.738L14.894,96.876L14.952,97.16L15.127,97.164L15.185,97.598L15.243,97.728L15.301,97.807L15.359,98.051L15.534,97.899L15.592,97.66L15.65,97.623L15.708,97.625L15.767,97.648L15.825,97.878L16.29,97.98L16.348,98.023L16.407,97.797L16.465,97.691L16.523,97.771L16.581,98.612L16.756,98.596L16.814,98.651L16.872,98.662L16.93,98.65L16.988,99.394L17.163,99.606L17.221,99.708L17.279,99.708L17.337,99.063L17.396,99.617L17.57,99.638L17.628,99.597L17.687,99.58L17.745,99.531L17.803,99.54L17.977,98.936L18.036,99.265L18.094,99.26L18.152,99.429L18.21,99.543L18.385,99.487L18.443,99.474L18.501,99.462L18.559,99.465L18.617,99.459L18.792,99.035L18.85,99.031L18.908,98.408L18.966,98.045L19.025,98.017L19.199,98.542L19.257,98.51L19.316,98.491L19.374,99.138L19.432,99.372L19.606,99.283L19.665,99.285L19.723,99.283L19.781,99.207L19.839,98.581L20.014,98.718L20.072,98.667L20.13,98.612L20.188,98.805L20.246,98.901L20.421,98.62L20.479,98.904L20.537,98.917L20.595,98.895L20.654,98.532L20.828,98.386L20.886,98.334L20.945,98.335L21.003,98.526L21.061,98.632L21.119,98.599L21.177,98.608L21.41,98.572L21.468,98.743L21.643,98.764L21.701,98.761L21.759,98.842L21.817,98.983L21.875,98.917L22.05,98.33L22.108,98.518L22.166,98.58L22.225,98.637L22.283,98.55L22.457,98.394L22.515,98.087L22.574,98.056L22.632,98.034L22.69,98.011L22.864,98.133L22.923,97.34L22.981,97.192L23.039,97.276L23.097,97.287L23.272,96.905L23.33,96.716L23.388,96.709L23.446,96.732L23.504,96.722L23.679,96.412L23.737,96.336L23.795,96.293L23.854,95.994L23.912,96.041L23.97,96.295L24.435,96.628L24.493,96.256L24.552,96.1L24.61,96.368L24.668,96.164L24.726,96.175L24.901,96.174L24.959,96.213L25.017,96.146L25.075,96.193L25.133,96.138L25.308,96.156L25.366,96.016L25.424,95.999L25.483,95.803L25.541,94.92L25.715,95.015L25.773,95.058L25.832,95.019L25.89,94.867L25.948,94.838L26.123,95.019L26.181,94.957L26.239,94.837L26.297,94.884L26.355,94.891L26.53,94.952L26.588,94.833L26.646,94.933L26.704,95.019L26.762,94.657L26.937,94.202L26.995,93.634L27.053,93.372L27.112,93.205L27.17,93.234L27.344,93.181L27.402,92.44L27.461,91.232L27.519,90.52L27.577,90.237L27.752,90.114L27.81,90.132L27.868,90.452L27.926,90.83L27.984,90.821L28.042,91.046L28.101,91.166L28.159,90.743L28.624,90.487L28.682,90.411L28.741,90.142L28.799,89.826L28.973,89.582L29.031,89.215L29.09,89.302L29.148,88.531L29.206,88.538L29.381,86.271L29.439,86.16L29.497,86.52L29.555,86.787L29.613,86.361L29.788,85.999L29.846,85.921L29.904,86.008L29.962,86.178L30.021,85.945L30.195,85.782L30.253,85.434L30.311,85.655L30.37,85.473L30.428,84.781L30.602,84.363L30.661,83.724L30.719,83.62L30.777,83.475L30.835,82.815L31.01,82.634L31.068,81.726L31.126,81.763L31.184,79.685L31.242,79.656L31.417,79.57L31.475,79.515L31.533,79.643L31.591,79.59L31.65,79.586L31.824,79.586L31.882,79.793L31.94,79.783L31.999,80.09L32.057,79.802L32.231,79.836L32.29,80.241L32.348,80.091L32.406,80.14L32.464,79.922L32.639,80.093L32.697,80.109L32.755,80.228L32.813,80.267L32.871,80.123L33.046,79.63L33.104,79.319L33.162,80.566L33.22,81.326L33.279,81.952L33.453,81.953L33.511,81.727L33.569,81.867L33.628,82.195L33.686,81.966L33.86,82.623L33.919,81.662L33.977,81.752L34.035,81.425L34.093,81.728L34.268,81.398L34.326,81.378L34.384,81.455L34.442,81.47L34.5,81.293L34.675,81.533L34.733,82.388L34.791,82.537L34.849,83.274L34.908,83.434L35.082,83.24L35.14,83.311L35.198,82.937L35.257,82.953L35.315,82.894L35.489,82.723L35.548,83.303L35.606,82.863L35.664,82.953L35.722,81.116L35.897,81.936L35.955,80.71L36.013,80.235L36.071,80.454L36.129,78.127L36.304,76.253L36.362,76.404L36.42,76.98L36.478,77.041L36.537,77.621L36.711,77.578L36.769,78.458L36.828,78.8L36.886,78.971L36.944,79.356L37.002,80.365L37.06,80.168L37.526,77.894L37.584,78.218L37.642,78.49L37.7,78.871L37.758,78.436L37.933,78.878L37.991,78.538L38.049,78.322L38.107,77.795L38.166,77.739L38.34,77.249L38.398,76.578L38.457,76.725L38.515,76.582L38.573,76.361L38.747,76.692L38.806,76.922L38.864,76.832L38.922,76.621L38.98,76.279L39.155,76.052L39.213,75.781L39.271,75.658L39.329,74.935L39.387,74.685L39.562,74.464L39.62,74.453L39.678,74.227L39.736,74.082L39.795,74.166L39.969,73.874L40.027,73.975L40.086,74.326L40.144,74.383L40.202,74.962L40.376,75.345L40.435,75.479L40.493,75.823L40.551,75.286L40.609,75.211L40.784,75.01L40.842,74.691L40.9,74.919L40.958,75.138L41.016,75.296L41.191,75.269L41.249,75.301L41.307,75.387L41.366,74.92L41.424,74.9L41.598,74.599L41.656,74.625L41.715,74.765L41.773,75.111L41.831,74.506L42.005,74.744L42.064,74.62L42.122,75.162L42.18,75.621L42.238,75.666L42.296,76.258L42.529,75.692L42.587,75.784L42.645,75.692L42.82,75.62L42.878,75.789L42.936,75.703L42.995,75.798L43.053,75.965L43.227,76.055L43.285,76.189L43.344,76.187L43.402,76.048L43.46,76.149L43.634,75.951L43.693,76.211L43.751,76.733L43.809,77.36L43.867,77.274L44.042,78.125L44.1,78.477L44.158,78.778L44.216,79.332L44.274,80.841L44.333,82.073L44.391,81.296L44.449,80.648L44.507,81.098L44.973,80.943L45.031,80.924L45.089,80.778L45.264,80.467L45.322,80.251L45.38,79.802L45.438,80.288L45.496,80.421L45.671,80.471L45.729,80.328L45.787,80.432L45.845,80.209L45.903,79.942L46.078,79.8L46.136,79.775L46.194,79.458L46.253,79.406L46.311,79.355L46.485,79.426L46.543,79.42L46.602,79.568L46.66,79.626L46.718,79.633L46.893,79.629L46.951,79.674L47.009,79.869L47.067,80.251L47.125,80.439L47.3,80.764L47.358,81.895L47.416,81.932L47.474,82.162L47.533,82.052L47.707,81.952L47.765,81.81L47.823,81.884L47.882,82.013L48.114,81.995L48.172,81.901L48.231,81.908L48.289,81.949L48.347,82.024L48.522,82.174L48.58,82.174L48.638,82.044L48.696,82.243L48.754,82.573L48.929,82.289L48.987,82.449L49.045,82.403L49.103,81.99L49.162,82.216L49.336,82.235L49.394,82.051L49.452,81.755L49.685,82.902L49.743,81.98L49.802,81.845L49.86,80.935L49.918,80.891L49.976,80.916L50.151,80.827L50.209,80.894L50.267,80.883L50.325,80.849L50.383,80.879L50.558,80.807L50.616,80.817L50.674,80.805L50.732,80.942L50.791,80.877L50.965,80.713L51.023,80.652L51.081,80.472L51.14,80.466L51.198,80.516L51.372,80.484L51.431,80.631L51.489,80.611L51.547,80.553L51.605,80.447L51.838,80.07L51.896,79.065L51.954,78.62L52.012,78.789L52.187,78.493L52.245,78.722L52.303,78.825L52.361,78.626L52.42,78.119L52.594,78.004L52.652,77.735L52.71,77.464L52.769,76.689L52.827,76.143L53.001,75.786L53.06,75.207L53.118,75.526L53.176,75.29L53.234,75.276L53.409,75.655L53.467,76.07L53.525,76.339L53.583,76.784L53.641,76.849L53.816,76.525L53.874,76.746L53.932,76.716L53.99,76.36L54.049,76.056L54.223,75.946L54.281,75.822L54.339,75.807L54.398,76.139L54.456,76.164L54.63,75.69L54.689,75.68L54.747,75.987L54.805,76.081L54.863,75.597L55.038,75.589L55.096,75.654L55.154,75.676L55.212,75.932L55.27,75.916L55.445,75.649L55.503,75.661L55.561,76.014L55.619,76.363L55.678,76.832L55.852,77.303L55.91,77.811L55.969,77.98L56.027,78.027L56.085,78.125L56.259,78.554L56.318,78.609L56.376,78.855L56.434,78.983L56.492,79.597L56.667,79.741L56.725,79.808L56.783,79.585L56.841,79.47L56.899,79.265L57.074,79.335L57.132,80.126L57.19,80.766L57.248,80.795L57.307,82.282L57.539,85.084L57.598,86.376L57.656,85.904L57.714,85.522L57.888,84.784L57.947,84.041L58.005,85.524L58.063,85.204L58.121,85.519L58.179,85.967L58.238,85.957L58.703,85.625L58.761,87.124L58.819,89.662L58.877,93.39L58.936,94.08L59.11,94.124L59.168,92.187L59.227,93.278L59.285,93.216L59.343,92.585L59.517,92.233L59.576,92.454L59.634,92.531L59.692,92.385L59.75,92.75L59.925,92.655L59.983,94.143L60.041,94.978L60.099,95.153L60.157,95.289L60.332,95.272L60.39,94.813L60.448,95.372L60.507,95.684L60.565,96.638L60.739,97.883L60.797,97.993L60.856,98.446L60.914,100.037L60.972,98.946L61.146,97.674L61.205,98.337L61.263,97.008L61.321,97.773L61.379,97.321L61.554,97.998L61.612,97.822L61.67,98.725L61.728,100.337L61.786,99.647L61.961,99.843L62.019,100.487L62.077,100.481L62.136,101.205L62.194,103.767L62.368,103.528L62.426,103.077L62.485,103.842L62.543,103.837L62.601,104.936L62.775,105.1L62.834,105.856L62.892,107.328L62.95,107.262L63.008,107.489L63.183,107.418L63.241,107.35L63.299,107.648L63.357,107.686L63.415,107.702L63.59,107.814L63.648,107.916L63.706,107.631L63.939,108.829L63.997,107.751L64.055,107.771L64.114,107.91L64.172,107.998L64.23,108.674L64.405,108.14L64.463,107.645L64.521,106.862L64.579,104.326L64.637,103.115L64.812,102.66L64.87,100.007L64.928,100.282L64.986,101.662L65.044,102.076L65.103,102.658L65.568,102.169L65.626,101.099L65.684,99.088L65.743,97.452L65.801,96.106L65.859,97.062L66.034,97.436L66.092,97.767L66.15,99.114L66.208,100.064L66.266,100.064L66.441,99.667L66.499,99.334L66.557,100.27L66.615,100.231L66.674,100.401L66.848,100.25L66.906,100.672L66.964,100.85L67.023,100.912L67.081,100.295L67.255,100.036L67.313,99.926L67.372,99.289L67.43,99.339L67.488,99.254L67.663,99.228L67.721,99.42L67.779,99.818L67.837,99.837L67.895,100.004L68.07,100.053L68.128,100.237L68.186,100.263L68.244,100.354L68.303,99.693L68.477,99.279L68.535,99.04L68.593,99.081L68.652,98.989L68.71,98.874L68.884,99.077L68.943,99.245L69.001,100.5L69.059,100.509L69.117,100.025L69.35,99.945L69.408,99.313L69.466,99.205L69.524,99.122L69.699,99.17L69.757,99.212L69.815,98.6L69.873,98.564L69.932,99.227L70.106,99.129L70.164,99.406L70.222,99.29L70.281,99.19L70.339,99.082L70.513,98.909L70.572,98.826L70.63,98.954L70.688,98.784L70.921,99.167L70.979,99.584L71.037,99.213L71.095,99.387L71.153,99.513L71.328,99.49L71.386,99.639L71.444,99.775L71.502,99.856L71.561,99.991L71.735,100.106L71.793,100.271L71.851,100.327L71.91,100.311L71.968,100.131L72.142,100.004L72.201,100.139L72.259,100.143L72.491,101.113L72.55,100.071L72.608,99.888L72.666,100.365L72.724,100.175L72.782,99.676L72.957,99.525L73.015,99.511L73.073,99.528L73.131,99.282L73.19,99.332L73.364,99.307L73.422,99.238L73.48,99.146L73.539,99.168L73.597,99.373L73.771,99.209L73.83,99.149L73.888,98.776L73.946,98.949L74.004,98.785L74.179,98.961L74.237,98.86L74.295,98.531L74.353,98.306L74.411,97.693L74.586,97.338L74.644,97.389L74.702,97.181L74.76,96.729L74.819,96.26L74.993,96.209L75.051,95.4L75.11,94.534L75.168,93.706L75.226,92.646L75.4,92.366L75.459,92.342L75.517,93.144L75.575,93.668L75.633,93.241L75.808,93.446L75.866,93.624L75.924,93.265L75.982,93.131L76.04,92.836L76.215,92.366L76.273,92.079L76.331,92.249L76.389,92.375L76.448,92.777L76.622,91.831L76.68,91.724L76.739,92.034L76.797,91.931L76.855,91.875L77.029,91.734L77.088,91.633L77.146,91.909L77.204,92.046L77.262,92.526L77.437,92.662L77.495,92.876L77.553,92.97L77.611,93.031L77.669,93.127L77.844,93.225L77.902,93.357L77.96,93.693L78.018,94.173L78.077,94.11L78.251,94.095L78.309,93.999L78.368,94.139L78.426,93.881L78.484,93.556L78.658,93.599L78.717,93.891L78.775,94.03L78.833,94.07L78.891,94.173L79.066,94.021L79.124,93.173L79.182,93.307L79.24,93.333L79.298,93.348L79.415,93.472L79.473,93.373L79.531,93.363L79.589,93.283L80.113,93.389L80.171,93.39L80.287,92.887L80.346,92.358L80.404,92.036L80.462,91.236L80.52,91.288L80.695,91.181L80.753,91.547L80.811,91.56L80.869,91.355L80.927,91.202L81.102,91.342L81.16,91.123L81.218,90.957L81.277,90.939L81.335,91.213L81.509,91.014L81.567,91.045L81.626,91.012L81.684,90.628L81.742,90.612L81.916,90.545L81.975,90.41L82.033,90.922L82.091,91.043L82.149,91.107L82.324,91.029L82.382,91.033L82.44,90.953L82.498,91.178L82.556,91.297L82.731,91.243L82.789,91.452L82.847,91.629L82.906,91.674L82.964,92.547L83.138,92.785L83.196,92.73L83.255,93.401L83.313,93.314L83.371,93.144L83.546,92.165L83.604,92.557L83.662,92.965L83.72,92.958L83.778,92.783L83.953,93.106L84.011,92.934L84.069,93.062L84.127,93.191L84.185,93.132L84.36,93.019L84.418,92.958L84.476,92.946L84.535,92.941L84.593,92.536L84.767,92.506L84.825,92.67L84.884,92.975L84.942,92.965L85.175,92.926L85.233,92.512L85.291,92.536L85.349,92.4L85.407,92.026L85.582,92.252L85.64,92.261L85.698,91.862L85.756,92.166L85.815,92.282L85.989,92.411L86.047,92.358L86.105,92.479L86.164,92.21L86.222,92.266L86.396,92.019L86.454,92.437L86.513,92.713L86.571,92.479L86.629,92.47L86.804,93.085L86.862,93.266L86.92,93.254L86.978,93.361L87.036,93.398L87.211,93.285L87.269,93.271L87.327,93.259L87.385,93.292L87.444,93.185L87.909,93.05L87.967,93.222L88.025,93.086L88.084,92.922L88.142,93.47L88.2,93.918L88.258,94.474L88.433,95.192L88.491,95.419L88.549,95.885L88.607,96.139L88.665,96.696L88.84,96.833L88.898,96.877L88.956,96.899L89.014,96.778L89.073,96.742L89.247,96.829L89.305,96.745L89.363,97.108L89.422,96.946L89.48,96.946L89.654,96.976L89.713,96.583L89.771,96.357L89.829,96.348L89.887,96.338L90.062,95.609L90.12,95.467L90.178,95.576L90.236,95.765L90.294,95.794L90.527,96.338L90.585,95.651L90.643,94.999L90.702,94.804L90.876,94.883L90.934,94.669L90.992,95.183L91.051,95.073L91.109,95.062L91.283,95.542L91.342,96.061L91.4,96.187L91.458,96.24L91.516,96.628L91.691,96.585L91.749,96.668L91.807,97.334L91.865,97.574L91.923,97.643L92.156,97.365L92.214,97.516L92.272,97.613L92.331,98.252L92.505,97.957L92.563,97.9L92.621,98.476L92.68,98.555L92.738,98.469L92.912,99.551L92.971,100.025L93.029,100.824L93.087,100.086L93.145,99.792L93.32,99.783L93.378,99.713L93.436,99.757L93.494,99.644L93.552,99.755L93.727,99.758L93.785,98.97L93.843,98.788L93.901,98.942L93.96,99.098L94.134,99.241L94.192,99.188L94.251,98.727L94.309,98.208L94.367,98.052L94.425,98.099L94.483,98.1L94.716,97.963L94.774,96.204L94.949,96.049L95.007,96.314L95.065,95.765L95.123,95.9L95.181,96.2L95.356,96.939L95.414,97.736L95.472,97.914L95.53,97.98L95.589,98.125L95.763,98.257L95.821,98.776L95.88,98.835L95.938,98.731L95.996,98.817L96.17,98.798L96.229,99.064L96.287,99.116L96.345,99.122L96.403,99.201L96.578,99.18L96.636,99.037L96.694,98.753L96.752,98.909L96.81,98.294L96.985,97.879L97.043,97.648L97.101,97.664L97.159,97.639L97.218,97.502L97.392,97.317L97.45,97.118L97.509,97.657L97.567,97.777L97.625,97.955L97.799,97.961L97.858,98.119L97.916,98.138L97.974,98.214L98.032,98.23L98.207,98.347L98.265,98.343L98.323,98.195L98.381,98.21L98.439,98.231L98.614,98.183L98.672,98.109L98.73,98.095L98.789,98.011L98.847,97.99L99.021,97.973L99.079,97.912L99.138,97.908L99.196,97.964L99.254,97.894L99.428,97.845L99.487,97.443L99.545,97.317L99.603,97.258L99.661,97.18L99.836,97.03L99.894,96.804L99.952,96.738L100.01,96.591L100.068,96.532L100.185,96.4L100.243,96.356L100.301,96.394L100.534,96.345L100.592,96.351L100.65,96.375L100.708,96.211L100.767,96.159L100.825,96.332L101.29,96.062L101.348,96.213L101.465,95.815L101.523,95.743L101.581,95.65L101.639,95.737L101.697,96.01L101.872,95.79L101.93,95.865L101.988,92.972L102.047,91.699L102.105,91.87L102.279,91.6L102.337,91.091L102.396,90.637L102.454,90.493L102.512,90.723L102.687,90.333L102.745,89.471L102.803,87.879L102.861,86.97L102.919,86.597L103.094,86.365L103.152,85.933L103.21,84.508L103.268,83.466L103.326,83.451L103.501,83.554L103.559,84.094L103.617,84.933L103.676,85.887L103.734,85.236L103.908,84.547L103.966,84.166L104.025,83.827L104.083,83.344L104.141,83.062L104.316,83.184L104.374,83.213L104.432,84.118L104.49,84.206L104.548,84.558L104.723,84.976L104.781,85.367L104.839,84.99L104.897,84.795L104.956,84.804L105.13,85.395L105.188,85.356L105.246,85.801L105.305,85.806L105.363,85.954L105.537,86.285L105.595,86.078L105.654,86.066L105.712,85.985L105.77,85.834L105.945,85.117L106.003,85.029L106.061,85.167L106.119,85.576L106.177,85.622L106.41,86.172L106.468,87.106L106.526,86.968L106.585,87.349L106.759,87.385L106.817,87.103L106.875,87.353L106.934,86.884L106.992,86.484L107.166,85.658L107.225,84.763L107.283,84.451L107.341,84.369L107.399,84.363L107.574,84.472L107.632,84.6L107.69,84.557L107.748,84.538L107.806,84.521L107.923,84.687L107.981,84.65L108.039,84.53L108.504,83.236L108.563,83.171L108.621,83.248L108.679,83.21L108.795,83.713L108.854,83.886L108.912,84.363L108.97,84.471L109.028,84.342L109.203,83.491L109.261,83.776L109.319,84.281L109.377,84.673L109.435,84.304L109.61,84.997L109.668,85.072L109.726,85.281L109.784,85.323L109.843,85.023L110.017,85.005L110.075,85.669L110.133,85.945L110.192,85.429L110.25,85.505L110.424,85.351L110.483,85.969L110.541,85.991L110.599,86.164L110.657,86.155L110.832,85.776L110.89,85.717L110.948,85.684L111.006,86.039L111.064,86.151L111.239,86.154L111.297,86.143L111.355,85.876L111.413,85.996L111.472,85.991L111.53,86.09L111.762,85.637L111.821,85.663L111.879,85.633L112.053,85.944L112.112,86.609L112.17,87.026L112.228,87.018L112.286,87.007L112.461,86.591L112.519,86.586L112.577,86.655L112.635,86.661L112.693,86.569L112.868,86.569L112.926,86.494L112.984,86.48L113.042,86.899L113.101,87.041L113.333,87.152L113.392,87.136L113.45,87.05L113.508,87.111L113.682,87.182L113.741,87.041L113.799,87.164L113.857,87.197L113.915,86.794L114.09,86.77L114.148,86.765L114.206,86.803L114.264,86.812L114.322,86.933L114.497,87.134L114.555,87.112L114.613,87.575L114.671,87.734L114.73,87.58L114.904,87.651L114.962,87.291L115.021,87.206L115.079,87.208L115.137,87.194L115.37,87.052L115.428,86.281L115.486,85.967L115.544,85.852L115.719,85.842L115.777,85.236L115.835,84.594L115.893,84.65L115.951,84.519L116.126,85.153L116.184,85.485L116.242,84.72L116.3,84.707L116.359,85.171L116.533,85.889L116.591,85.635L116.65,85.528L116.708,85.502L116.766,85.773L116.94,86.023L116.999,85.862L117.057,85.638L117.115,85.518L117.173,85.555L117.348,85.284L117.406,85.366L117.464,85.341L117.522,85.099L117.58,84.97L117.755,84.312L117.813,83.782L117.871,82.772L117.93,82.069L117.988,82.348L118.162,82.266L118.22,82.027L118.279,82.088L118.337,82.117L118.395,82.392L118.569,82.303L118.628,82.221L118.686,80.894L118.744,80.072L118.802,80.849L118.977,81.381L119.035,81.816L119.093,81.779L119.151,82.541L119.209,82.125L119.384,82.061L119.442,81.719L119.5,81.913L119.559,81.781L119.617,82.356L119.791,82.285L119.849,82.073L119.908,82.077L119.966,81.905L120.024,81.437L120.198,79.72L120.257,79.061L120.315,79.406L120.373,79.976L120.431,80.195L120.606,80.821L120.664,81.268L120.722,80.735L120.78,80.427L120.838,80.905L121.071,81.23L121.129,81.033L121.188,80.669L121.246,80.362L121.42,80.32L121.478,80.45L121.537,80.235L121.595,80.788L121.653,82.092L121.828,82.929L121.886,82.404L121.944,82.543L122.002,83.004L122.06,83.406L122.526,83.363L122.584,84.32L122.642,85.296L122.7,85.498L122.758,84.902L122.817,84.033L122.875,84.592L123.049,84.217L123.107,85.108L123.166,84.898L123.224,85.148L123.282,84.919L123.457,84.787L123.515,84.406L123.573,84.514L123.631,84.238L123.689,84.523L123.864,85.23L123.922,85.63L123.98,86.023L124.038,86.126L124.097,86.322L124.271,86.241L124.329,86.713L124.387,87.834L124.446,89.035L124.504,88.88L124.678,88.925L124.736,88.326L124.795,88.161L124.853,87.543L124.911,87.997L125.086,87.606L125.144,87.447L125.202,88.523L125.26,88.883L125.318,88.813L125.493,88.454L125.551,88.314L125.609,88.917L125.667,91.362L125.726,92.367L125.9,92.559L125.958,91.956L126.016,91.505L126.075,91.786L126.133,92.36L126.307,92.19L126.366,91.616L126.424,91.601L126.482,91.562L126.54,91.903L126.715,91.748L126.773,91.866L126.831,91.913L126.889,91.913L126.947,91.83L127.122,91.822L127.18,91.868L127.238,91.851L127.296,92.028L127.355,92.533L127.413,92.523L127.645,92.405L127.704,92.01L127.762,92.74L127.936,92.779L127.995,92.717L128.053,92.713L128.111,92.6L128.169,92.604L128.344,92.33L128.402,92.367L128.46,92.224L128.518,92.646L128.576,92.7L128.634,92.658L129.1,92.7L129.158,92.331L129.216,92.422L129.274,91.538L129.333,91.625L129.391,91.57L129.565,91.165L129.624,91.226L129.682,90.84L129.74,90.799L129.798,90.975L129.973,91.395L130.031,91.264L130.089,90.965L130.147,90.833L130.205,90.46L130.38,91.123L130.438,91.165L130.496,90.774L130.554,90.768L130.613,90.661L130.787,90.313L130.845,90.037L130.903,90.372L130.962,90.381L131.02,90.089L131.194,90.011L131.253,90.217L131.311,90.557L131.369,90.57L131.427,90.8L131.602,91.096L131.66,90.977L131.718,90.735L131.776,90.536L131.834,90.554L132.009,90.635L132.067,90.325L132.125,90.165L132.183,90.583L132.242,90.945L132.416,90.825L132.474,90.812L132.533,91.046L132.591,91.154L132.649,91.423L132.707,91.456L132.765,91.18L132.998,91.255L133.056,91.19L133.231,91.182L133.289,91.322L133.347,91.419L133.405,91.145L133.463,91.043L133.638,91.017L133.696,91.009L133.754,90.905L133.812,90.725L133.871,90.902L134.045,90.841L134.103,90.899L134.162,90.951L134.22,91.002L134.278,91.013L134.336,91.1L134.569,90.947L134.627,90.927L134.685,90.873L134.86,90.893L134.918,90.948L134.976,90.938L135.034,91.4L135.092,91.846L135.267,92.674L135.325,95.249L135.383,95.643L135.441,94.492L135.5,95.487L135.674,95.252L135.732,95.138L135.791,95.2L135.849,96.63L135.907,97.854L136.081,97.264L136.14,96.626L136.198,95.992L136.256,95.72L136.314,95.356L136.489,95.248L136.547,94.746L136.605,94.205L136.663,94.243L136.721,95.039L136.896,93.927L136.954,93.901L137.012,93.197L137.07,92.963L137.129,93.049L137.303,91.964L137.361,92.054L137.42,92.083L137.478,92.449L137.71,92.938L137.769,93.389L137.827,93.989L137.885,94.283L137.943,94.045L138.118,93.696L138.176,94.016L138.234,93.963L138.292,94.196L138.35,94.923L138.525,95.252L138.583,95.536L138.641,95.834L138.7,96.09L138.758,96.031L138.932,95.784L138.99,95.478L139.049,95.378L139.107,95.434L139.165,95.555L139.339,95.45L139.398,95.473L139.456,95.465L139.514,95.498L139.572,95.216L139.747,95.076L139.805,94.825L139.863,94.775L139.921,94.919L139.979,94.812L140.154,94.418L140.212,94.103L140.27,93.523L140.329,93.638L140.387,93.66L140.561,93.262L140.619,92.926L140.678,92.334L140.736,92.202L140.794,91.994L140.969,91.903L141.027,91.703L141.085,90.655L141.143,91.394L141.201,92.253L141.376,92.12L141.434,91.99L141.492,92.005L141.55,91.786L141.608,91.652L141.783,91.796L141.841,92.091L141.899,92.056L141.958,92.067L142.016,91.394L142.19,90.61L142.248,90.335L142.307,89.52L142.365,89.475L142.423,88.958L142.598,88.343L142.656,89.1L142.714,88.953L142.772,89.307L142.83,89.317L143.005,89.2L143.063,89.811L143.121,90.735L143.179,91.109L143.238,90.791L143.296,90.804L143.819,90.364L143.877,90.34L143.936,90.187L143.994,90.308L144.052,90.622L144.227,90.809L144.285,90.562L144.343,90.425L144.401,90.421L144.459,90.218L144.634,90.255L144.692,90.234L144.75,90.075L144.808,90.032L144.867,89.904L145.041,90.122L145.099,90.282L145.157,90.213L145.216,89.947L145.274,90.218L145.448,90.372L145.507,90.452L145.565,90.458L145.623,90.517L145.681,90.66L145.856,90.566L145.914,90.763L145.972,90.833L146.03,90.866L146.088,91.127L146.263,91.428L146.321,91.388L146.379,91.152L146.437,90.682L146.496,90.663L146.67,90.602L146.728,90.325L146.786,89.945L146.845,89.722L146.903,89.504L147.077,89.495L147.136,89.295L147.194,89.143L147.252,89.163L147.31,89.016L147.485,88.928L147.543,89.028L147.601,89.139L147.659,89.215L147.717,89.168L147.892,89.036L147.95,89.199L148.008,89.178L148.066,89.08L148.125,89.108L148.299,89.071L148.357,89.01L148.415,89.302L148.474,89.72L148.532,89.954L148.706,90.107L148.939,89.424L148.997,89.652L149.055,89.852L149.114,89.844L149.172,90.146L149.23,90.2L149.288,89.861L149.346,89.574L149.521,89.646L149.579,89.741L149.637,89.733L149.695,89.935L149.754,90.235L149.928,90.343L149.986,90.3L150.044,90.023L150.103,89.851L150.161,89.968L150.335,89.672L150.394,89.551L150.452,89.469L150.51,89.517L150.568,89.544L150.743,89.469L150.801,89.406L150.859,89.396L150.917,89.492L150.975,89.49L151.441,89.469L151.499,89.451L151.557,89.438L151.615,89.317L151.674,89.491L151.732,89.293L151.79,89.282L151.964,89.076L152.023,89.015L152.081,89.133L152.139,89.071L152.197,88.971L152.372,89.808L152.43,89.785L152.488,89.995L152.546,89.722L152.604,89.692L152.779,89.439L152.837,89.569L152.895,89.691L152.953,89.629L153.012,89.414L153.186,89.424L153.244,89.462L153.303,89.49L153.361,89.328L153.419,89.315L153.593,89.356L153.652,89.355L153.71,89.355L153.768,89.387L153.826,89.424L154.001,89.734L154.059,90.143L154.117,90.316L154.35,90.536L154.408,90.204L154.466,90.374L154.524,90.64L154.582,90.504L154.641,90.624L154.815,90.793L154.873,91.295L154.932,90.873L154.99,90.639L155.048,90.466L155.222,90.288L155.281,90.758L155.339,90.786L155.397,90.817L155.455,91.44L155.513,91.564L155.572,91.666L155.804,91.466L155.862,91.644L156.037,91.489L156.095,92.188L156.153,91.755L156.211,91.826L156.27,92.147L156.444,92.184L156.502,92.137L156.561,91.634L156.619,91.555L156.677,91.556L156.851,91.57L156.91,91.574L156.968,91.558L157.026,91.777L157.084,91.772L157.259,91.938L157.317,92.198L157.375,91.554L157.433,91.521L157.491,91.384L157.666,91.211L157.724,91.131L157.782,90.953L157.841,90.686L157.899,90.455L157.957,90.374L158.015,90.55L158.248,90.061L158.306,89.84L158.48,89.761L158.539,89.51L158.597,88.473L158.655,85.309L158.713,85.885L158.888,86.439L158.946,86.795L159.004,88.789L159.062,89.249L159.12,89.674L159.295,89.676L159.353,89.629L159.411,89.857L159.47,90.016L159.528,90.007L159.702,89.603L159.76,89.151L159.819,88.878L159.877,88.487L159.935,88.078L160.11,87.898L160.168,87.69L160.226,87.327L160.284,87.163L160.342,86.901L160.517,86.265L160.575,85.635L160.633,84.148L160.691,84.235L160.749,84.633L160.924,84.588L160.982,84.59L161.04,84.791L161.099,85.356L161.157,85.268L161.331,85.157L161.389,85.1L161.448,84.377L161.506,83.743L161.564,83.569L161.739,83.15L161.797,82.29L161.855,81.695L161.913,81.657L161.971,81.928L162.146,81.638L162.204,80.378L162.262,81.001L162.32,81.141L162.379,81.961L162.553,82.269L162.611,82.221L162.669,81.612L162.728,81.452L162.786,81.306L162.96,81.305L163.018,81.28L163.077,80.566L163.135,80.829L163.193,80.836L163.368,80.76L163.426,80.266L163.484,79.908L163.542,79.938L163.6,79.988L163.775,80.023L163.833,80.402L163.891,80.349L164.124,81.285L164.182,81.074L164.24,81.275L164.298,81.484L164.357,82.12L164.415,81.789L164.531,81.742L164.589,81.864L165.055,81.785L165.113,81.759L165.171,81.73L165.229,81.722L165.287,81.8L165.404,81.399L165.462,81.482L165.52,81.125L165.578,81.042L165.637,80.915L165.811,80.685L165.869,80.674L165.927,80.749L165.986,80.329L166.044,79.964L166.218,79.309L166.277,78.882L166.335,78.703L166.393,79.399L166.451,79.541L166.626,79.462L166.684,79.215L166.742,77.981L166.8,77.625L166.858,77.042L167.033,75.277L167.091,75.743L167.149,75.013L167.207,74.97L167.266,74.055L167.44,73.644L167.498,73.491L167.556,73.488L167.615,73.698L167.673,74.227L167.847,74.169L167.906,74.25L167.964,75.349L168.022,75.868L168.08,76.825L168.255,75.635L168.313,75.61L168.371,75.717L168.429,75.343L168.487,75.177L168.662,74.408L168.72,73.412L168.778,73.884L168.836,74.572L168.895,75.107L169.069,74.476L169.127,74.484L169.185,74.288L169.244,74.037L169.302,73.895L169.476,73.884L169.535,74.238L169.593,74.227L169.651,74.414L169.709,74.333L169.884,74.457L169.942,74.205L170.058,73.521L170.116,73.376L170.291,73.197L170.349,73.394L170.407,73.984L170.465,74.259L170.524,74.398L170.698,74.423L170.756,74.728L170.815,75.401L170.873,75.308L170.931,75.265L171.105,75.145L171.164,75.531L171.222,76.334L171.28,75.822L171.338,75.945L171.454,76.408L171.513,77.046L171.571,77.243L171.629,77.085L171.687,77.208L172.153,77.577L172.211,77.586L172.327,77.258L172.385,77.287L172.444,77.528L172.502,77.563L172.56,77.458L172.734,77.198L172.793,76.713L172.851,76.681L172.909,76.913L172.967,77.395L173.142,77.911L173.2,78.591L173.258,78.019L173.316,79.155L173.374,78.752L173.549,78.279L173.607,77.328L173.665,77.157L173.723,77.216L173.782,77.517L173.956,77.635L174.014,77.718L174.073,77.923L174.131,77.922L174.189,78.341L174.363,78.568L174.422,78.009L174.48,77.763L174.538,77.813L174.596,78.182L174.771,77.992L174.829,77.961L174.887,77.982L174.945,77.951L175.003,77.557L175.178,77.812L175.236,77.795L175.294,77.756L175.352,77.344L175.411,77.188L175.643,77.475L175.702,77.438L175.76,77.52L175.818,77.882L175.992,78.005L176.051,77.976L176.109,78.201L176.167,79.289L176.225,79.018L176.4,79.018L176.458,79.265L176.516,79.361L176.574,79.815L176.632,79.949L176.807,80.152L176.865,80.175L176.923,79.741L177.156,79.075L177.214,78.867L177.272,79.145L177.331,79.287L177.389,79.765L177.447,80.286L177.621,80.308L177.68,80.188L177.738,79.581L177.796,79.736L177.854,79.597L178.029,79.506L178.087,79.588L178.145,79.592L178.203,79.892L178.261,80.038L178.436,80.176L178.494,80.144L178.552,80.689L178.611,80.91L178.669,81.061L178.901,82.005L178.96,82.095L179.018,81.944L179.076,81.657L179.251,81.636L179.309,82.199L179.367,82.436L179.425,82.338L179.483,81.923L179.658,82.237L179.716,82.354L179.774,82.232L179.832,82.182L179.89,82.356L180.065,82.138L180.123,82.429L180.181,82.496L180.24,82.351L180.298,82.346L180.472,82.269L180.53,82.167L180.589,81.502L180.647,81.104L180.705,80.805L180.88,80.964L180.938,80.766L180.996,80.871L181.054,80.809L181.112,80.739L181.287,80.686L181.345,80.476L181.403,80.009L181.461,79.322L181.52,79.219L181.694,79.474L181.752,79.47L181.81,79.823L181.869,79.742L181.927,79.934L182.101,80.001L182.159,79.893L182.218,79.845L182.276,80.22L182.334,80.299L182.509,80.43L182.567,80.571L182.625,80.483L182.683,80.557L182.741,80.487L182.916,80.501L182.974,80.639L183.032,80.735L183.09,81.112L183.149,80.76L183.323,80.996L183.381,80.336L183.439,80.079L183.498,80.176L183.556,80.185L183.73,80.046L183.789,80.048L183.847,80.273L183.905,80.571L183.963,80.677L184.138,80.655L184.196,80.647L184.254,80.422L184.312,80.518L184.37,80.511L184.603,80.513L184.661,79.867L184.719,79.742L184.778,79.933L184.952,80.265L185.01,80.052L185.068,80.385L185.127,80.868L185.185,81.517L185.359,81.333L185.418,81.585L185.476,81.103L185.534,81.283L185.592,81.28L185.708,81.131L185.767,81.296L185.825,81.433L186.29,81.44L186.348,81.371L186.407,81.367L186.465,81.715L186.581,81.808L186.639,83.34L186.697,84.041L186.756,84.363L186.814,85.419L186.988,85.731L187.047,86.213L187.105,86.204L187.163,86.031L187.221,85.875L187.396,85.735L187.454,86.201L187.512,86.199L187.57,86.096L187.628,86.08L187.803,86.692L187.861,86.942L187.919,87.402L187.977,87.268L188.036,88.136L188.21,88.811L188.268,89.22L188.326,88.506L188.385,87.829L188.443,87.268L188.617,86.88L188.676,87.287L188.734,87.758L188.792,87.05L188.85,86.635L189.025,88.536L189.083,88.413L189.141,88.129L189.199,87.944L189.257,88.092L189.432,88.205L189.49,87.229L189.548,86.252L189.606,85.774L189.665,84.664L189.839,83.919L189.897,83.995L189.956,85.337L190.014,84.475L190.072,84.531L190.246,84.348L190.305,84.689L190.363,85.341L190.421,85.371L190.479,85.707L190.654,85.637L190.712,85.832L190.77,86.831L190.828,86.474L190.886,86.367L191.061,86.394L191.119,86.507L191.177,86.642L191.41,86.516L191.468,86.515L191.526,86.476L191.585,86.782L191.643,86.498L191.701,86.49L191.875,86.47L191.934,87.382L191.992,87.611L192.05,87.328L192.108,88.115L192.283,88.111L192.341,88.138L192.399,88.374L192.457,88.603L192.515,88.789L192.69,89.098L192.748,89.171L192.806,88.359L192.864,87.976L192.923,87.951L193.097,88.448L193.155,88.407L193.214,88.518L193.272,88.907L193.33,88.768L193.504,89.081L193.563,89.086L193.621,89.667L193.679,90.138L193.737,90.596L193.854,90.655L193.912,90.861L193.97,90.866L194.435,91.068L194.493,90.907L194.552,90.66L194.61,90.622L194.726,90.395L194.784,90.094L194.843,90.292L194.901,89.655L194.959,89.503L195.133,89.073L195.192,89.163L195.25,89.544L195.308,89.74L195.366,89.09L195.541,88.963L195.599,89.232L195.657,88.954L195.715,89.015L195.773,89.589L195.948,89.487L196.006,89.408L196.064,89.17L196.123,88.408L196.181,87.756L196.355,87.416L196.413,87.303L196.472,87.435L196.53,87.988L196.588,88.128L196.821,87.385L196.879,87.12L196.937,87.205L196.995,87.164L197.17,87.213L197.228,87.054L197.286,87.846L197.344,87.8L197.402,88.154L197.577,89.239L197.635,89.638L197.693,89.606L197.752,89.576L197.81,89.385L197.984,89.812L198.042,89.971L198.101,90.027L198.159,90.069L198.392,89.893L198.45,89.976L198.508,89.709L198.566,89.636L198.624,90.095L198.799,90.508L198.857,91.152L198.915,92.557L198.973,93.569L199.031,92.629L199.206,92.224L199.264,92.018L199.322,91.723L199.381,91.784L199.439,91.224L199.613,90.969L199.671,90.565L199.73,91.099L199.788,88.897L199.846,86.316L200.021,88.55L200.079,89.41L200.137,89.63L200.195,89.806L200.253,89.931L200.428,89.867L200.486,89.861L200.544,89.758L200.602,89.482L200.661,89.781L200.835,89.346L200.893,89.457L200.951,89.499L201.01,90.469L201.068,90.721L201.3,90.614L201.359,90.332L201.417,90.329L201.475,90.324L201.65,90.123L201.708,90.409L201.766,90.976L201.824,90.771L201.882,91.105L202.057,91.72L202.115,91.465L202.173,91.621L202.231,91.871L202.29,91.656L202.464,91.366L202.522,91.002L202.58,90.996L202.639,91.201L202.697,91.211L202.871,91.199L202.93,90.91L202.988,91.173L203.046,91.054L203.104,91.17L203.279,91.135L203.337,91.28L203.395,91.178L203.453,91.116L203.511,90.866L203.686,90.532L203.744,90.622L203.802,90.546L203.86,91.08L203.919,91.098L204.093,90.864L204.151,89.906L204.209,89.716L204.268,89.715L204.326,89.831L204.5,89.882L204.559,89.737L204.617,89.621L204.675,89.593L204.733,89.955L204.908,90.06L204.966,90.594L205.024,90.718L205.082,91.05L205.14,91.127L205.315,91.534L205.373,91.772L205.431,91.428L205.664,91.379L205.722,90.743L205.78,90.976L205.838,90.87L205.897,90.791L205.955,90.756L206.129,91.043L206.188,91.264L206.246,91.474L206.304,91.124L206.362,91.402L206.537,91.477L206.595,90.948L206.653,91.366L206.711,91.619L206.769,91.745L206.944,92.157L207.002,92.645L207.06,92.695L207.526,92.823L207.584,93.763L207.642,94.034L207.758,93.898L207.817,94.449L207.875,95.141L207.933,94.669L207.991,93.864L208.166,93.829L208.224,94.681L208.282,94.637L208.34,94.808L208.398,94.943L208.573,95.348L208.631,95.947L208.689,95.81L208.747,94.83L208.806,94.566L208.98,94.672L209.038,94.337L209.097,93.731L209.155,93.831L209.213,93.854L209.387,92.736L209.446,92.679L209.504,93.138L209.562,93.315L209.62,93.634L209.795,93.7L209.853,93.484L209.911,93.246L209.969,93.398L210.027,93.718L210.202,93.574L210.26,93.917L210.318,94.244L210.376,94.682L210.435,94.793L210.609,95.015L210.667,94.94L210.726,94.772L210.784,95.214L210.842,95.2L211.016,95.222L211.075,95.569L211.133,95.799L211.191,95.729L211.249,95.862L211.424,95.518L211.482,95.758L211.54,95.835L211.598,96.557L211.656,96.987L211.831,97.428L211.889,97.928L211.947,97.699L212.005,97.919L212.064,98.01L212.238,97.97L212.296,97.937L212.355,97.375L212.413,97.377L212.645,96.738L212.704,96.232L212.762,96.619L212.82,96.691L212.878,96.946L213.053,97.517L213.111,97.931L213.169,98.769L213.227,98.651L213.285,98.398L213.46,98.19L213.518,97.903L213.576,97.518L213.634,97.82L213.693,97.882L213.867,96.726L213.925,96.557L213.984,96.06L214.042,96.314L214.1,96.751" stroke-width="2" fill="none" stroke="#af516c"/></g></g></svg>