<?xml-stylesheet type="text/css" href="https://ig.ft.com/graphics/bloomberg-economics/chart-style.css" ?><svg xmlns="http://www.w3.org/2000/svg" viewBox="0 0 304 270"><text class="chart-title" fill="#43423e" font-size="20" y="22">中国实际GDP增长率</text><text class="chart-subtitle" fill="#43423e" font-size="15" y="42">每季同比增长率％</text><text class="chart-source" font-size="10" fill-opacity="0.4" y="265">来源：CEIC，2017/01/20</text><g transform="translate(1,100)"><g transform="translate(0,120)" class="x axis"><g class="tick" style="" transform="translate(21.235455167693363,0)"><line y2="6" x2="0" fill="none" stroke="#000" stroke-opacity="0.2"/><text dy="0" style="" y="20" x="0" font-family="MetricWeb,sans-serif" fill-opacity="0.6" font-size="12" text-anchor="start">2006</text></g><g class="tick" style="" transform="translate(63.706365503080086,0)"><line y2="6" x2="0" fill="none" stroke="#000" stroke-opacity="0.2"/><text dy="0" style="" y="20" x="0" font-family="MetricWeb,sans-serif" fill-opacity="0.6" font-size="12" text-anchor="start">2008</text></g><g class="tick" style="" transform="translate(106.23545516769336,0)"><line y2="6" x2="0" fill="none" stroke="#000" stroke-opacity="0.2"/><text dy="0" style="" y="20" x="0" font-family="MetricWeb,sans-serif" fill-opacity="0.6" font-size="12" text-anchor="start">2010</text></g><g class="tick" style="" transform="translate(148.70636550308006,0)"><line y2="6" x2="0" fill="none" stroke="#000" stroke-opacity="0.2"/><text dy="0" style="" y="20" x="0" font-family="MetricWeb,sans-serif" fill-opacity="0.6" font-size="12" text-anchor="start">2012</text></g><g class="tick" style="" transform="translate(191.23545516769335,0)"><line y2="6" x2="0" fill="none" stroke="#000" stroke-opacity="0.2"/><text dy="0" style="" y="20" x="0" font-family="MetricWeb,sans-serif" fill-opacity="0.6" font-size="12" text-anchor="start">2014</text></g><g class="tick" style="" transform="translate(233.7063655030801,0)"><line y2="6" x2="0" fill="none" stroke="#000" stroke-opacity="0.2"/><text dy="0" style="" y="20" x="0" font-family="MetricWeb,sans-serif" fill-opacity="0.6" font-size="12" text-anchor="start">2016</text></g><path class="domain" d="M0,0V0H255V0" fill="none" stroke="#74736c"/></g><g transform="translate(255,0)" class="y axis"><g class="tick" style="" transform="translate(0,120)"><line x2="-255" y2="0" fill="none" stroke="#000" stroke-opacity="0.2"/><text dy="0" style="text-anchor: start;" x="3" y="0" font-family="MetricWeb,sans-serif" fill-opacity="0.6" font-size="12">6</text></g><g class="tick" style="" transform="translate(0,93.55555555555556)"><line x2="-255" y2="0" fill="none" stroke="#000" stroke-opacity="0.2"/><text dy="0" style="text-anchor: start;" x="3" y="0" font-family="MetricWeb,sans-serif" fill-opacity="0.6" font-size="12">8</text></g><g class="tick" style="" transform="translate(0,67.11111111111111)"><line x2="-255" y2="0" fill="none" stroke="#000" stroke-opacity="0.2"/><text dy="0" style="text-anchor: start;" x="3" y="0" font-family="MetricWeb,sans-serif" fill-opacity="0.6" font-size="12">10</text></g><g class="tick" style="" transform="translate(0,40.66666666666667)"><line x2="-255" y2="0" fill="none" stroke="#000" stroke-opacity="0.2"/><text dy="0" style="text-anchor: start;" x="3" y="0" font-family="MetricWeb,sans-serif" fill-opacity="0.6" font-size="12">12</text></g><g class="tick" style="" transform="translate(0,14.222222222222229)"><line x2="-255" y2="0" fill="none" stroke="#000" stroke-opacity="0.2"/><text dy="0" style="text-anchor: start;" x="3" y="0" font-family="MetricWeb,sans-serif" fill-opacity="0.6" font-size="12">14</text></g><path class="domain" d="M-255,1H0V120H-255" fill="none" stroke="#000" stroke-opacity="0"/></g><g><path d="M3.433,52.567L8.785,52.567L14.138,56.533L19.432,35.378L24.668,34.056L30.021,18.189L35.373,38.022L40.667,34.056L45.903,16.867L51.256,1L56.608,10.256L61.903,15.544L67.197,47.278L72.55,55.211L77.902,73.722L83.196,105.456L88.433,114.711L93.785,90.911L99.138,59.178L104.432,41.989L109.668,38.022L115.021,56.533L120.373,68.433L125.667,68.433L130.903,64.467L136.256,67.111L141.608,75.044L146.903,82.978L152.197,92.233L157.55,98.844L162.902,100.167L168.196,92.233L173.433,94.878L178.785,98.844L184.138,94.878L189.432,97.522L194.668,101.489L200.021,100.167L205.373,105.456L210.667,104.133L215.903,106.778L221.256,106.778L226.608,108.1L231.903,109.422L237.197,110.744L242.55,110.744L247.902,110.744L253.196,109.422" stroke-width="2" fill="none" stroke="#af516c"/></g></g></svg>