<?xml-stylesheet type="text/css" href="https://ig.ft.com/graphics/bloomberg-economics/chart-style.css" ?><svg xmlns="http://www.w3.org/2000/svg" viewBox="0 0 304 270"><text class="chart-title" fill="#43423e" font-size="20" y="22">中国经常账目余额</text><text class="chart-subtitle" fill="#43423e" font-size="15" y="42">占GDP的比例％</text><text class="chart-source" font-size="10" fill-opacity="0.4" y="265">来源：CEIC 06 May 2016</text><g transform="translate(1,100)"><g transform="translate(0,120)" class="x axis"><g class="tick" style="" transform="translate(21.235455167693363,0)"><line y2="6" x2="0" fill="none" stroke="#000" stroke-opacity="0.2"/><text dy="0" style="" y="20" x="0" font-family="MetricWeb,sans-serif" fill-opacity="0.6" font-size="12" text-anchor="start">2006</text></g><g class="tick" style="" transform="translate(63.706365503080086,0)"><line y2="6" x2="0" fill="none" stroke="#000" stroke-opacity="0.2"/><text dy="0" style="" y="20" x="0" font-family="MetricWeb,sans-serif" fill-opacity="0.6" font-size="12" text-anchor="start">2008</text></g><g class="tick" style="" transform="translate(106.23545516769336,0)"><line y2="6" x2="0" fill="none" stroke="#000" stroke-opacity="0.2"/><text dy="0" style="" y="20" x="0" font-family="MetricWeb,sans-serif" fill-opacity="0.6" font-size="12" text-anchor="start">2010</text></g><g class="tick" style="" transform="translate(148.70636550308006,0)"><line y2="6" x2="0" fill="none" stroke="#000" stroke-opacity="0.2"/><text dy="0" style="" y="20" x="0" font-family="MetricWeb,sans-serif" fill-opacity="0.6" font-size="12" text-anchor="start">2012</text></g><g class="tick" style="" transform="translate(191.23545516769335,0)"><line y2="6" x2="0" fill="none" stroke="#000" stroke-opacity="0.2"/><text dy="0" style="" y="20" x="0" font-family="MetricWeb,sans-serif" fill-opacity="0.6" font-size="12" text-anchor="start">2014</text></g><g class="tick" style="" transform="translate(233.7063655030801,0)"><line y2="6" x2="0" fill="none" stroke="#000" stroke-opacity="0.2"/><text dy="0" style="" y="20" x="0" font-family="MetricWeb,sans-serif" fill-opacity="0.6" font-size="12" text-anchor="start">2016</text></g><path class="domain" d="M0,0V0H255V0" fill="none" stroke="#74736c"/></g><g transform="translate(255,0)" class="y axis"><g class="tick" style="" transform="translate(0,120)"><line x2="-255" y2="0" fill="none" stroke="#000" stroke-opacity="0.2"/><text dy="0" style="text-anchor: start;" x="3" y="0" font-family="MetricWeb,sans-serif" fill-opacity="0.6" font-size="12">0</text></g><g class="tick" style="" transform="translate(0,70.41666666666666)"><line x2="-255" y2="0" fill="none" stroke="#000" stroke-opacity="0.2"/><text dy="0" style="text-anchor: start;" x="3" y="0" font-family="MetricWeb,sans-serif" fill-opacity="0.6" font-size="12">5</text></g><g class="tick" style="" transform="translate(0,20.83333333333333)"><line x2="-255" y2="0" fill="none" stroke="#000" stroke-opacity="0.2"/><text dy="0" style="text-anchor: start;" x="3" y="0" font-family="MetricWeb,sans-serif" fill-opacity="0.6" font-size="12">10</text></g><path class="domain" d="M-255,1H0V120H-255" fill="none" stroke="#000" stroke-opacity="0"/><line class="highlight-line" x1="0" x2="-255" y1="120" y2="120" fill="none" stroke="#74736c"/></g><g><path d="M3.433,71.25L8.785,66.035L14.138,63.14L19.432,51.598L24.668,61.922L30.021,48.355L35.373,33.796L40.667,8.6L45.903,29.576L51.256,18.059L56.608,12.72L61.903,23.958L67.197,35.148L72.55,36.131L77.902,28.779L83.196,17.215L88.433,57.714L93.785,87.852L99.138,85.455L104.432,58.352L109.668,100.478L115.021,90.104L120.373,67.159L125.667,71.737L130.903,119.053L136.256,96.211L141.608,98.448L146.903,97.695L152.197,104.609L157.55,91.673L162.902,84.905L168.196,98.762L173.433,100.256L178.785,101.794L184.138,106.867L189.432,108.383L194.668,112.369L200.021,85.747L205.373,88.649L210.667,89.247L215.903,84.351L221.256,87.407L226.608,96.386L231.903,89.265L237.197,100.316" stroke-width="2" fill="none" stroke="#af516c"/></g></g></svg>