<?xml-stylesheet type="text/css" href="https://ig.ft.com/graphics/bloomberg-economics/chart-style.css" ?><svg xmlns="http://www.w3.org/2000/svg" viewBox="0 0 304 270"><text class="chart-title" fill="#43423e" font-size="20" y="22">房屋施工面积</text><text class="chart-subtitle" fill="#43423e" font-size="15" y="42">年同比变化％</text><text class="chart-source" font-size="10" fill-opacity="0.4" y="265">来源：CEIC，2016/10/24</text><g transform="translate(1,100)"><g transform="translate(0,120)" class="x axis"><g class="tick" style="" transform="translate(0,0)"><line y2="6" x2="0" fill="none" stroke="#000" stroke-opacity="0.2"/><text dy="0" style="" y="20" x="0" font-family="MetricWeb,sans-serif" fill-opacity="0.6" font-size="12" text-anchor="start">2004</text></g><g class="tick" style="" transform="translate(39.25142135186355,0)"><line y2="6" x2="0" fill="none" stroke="#000" stroke-opacity="0.2"/><text dy="0" style="" y="20" x="0" font-family="MetricWeb,sans-serif" fill-opacity="0.6" font-size="12" text-anchor="start">2006</text></g><g class="tick" style="" transform="translate(78.44914718888187,0)"><line y2="6" x2="0" fill="none" stroke="#000" stroke-opacity="0.2"/><text dy="0" style="" y="20" x="0" font-family="MetricWeb,sans-serif" fill-opacity="0.6" font-size="12" text-anchor="start">2008</text></g><g class="tick" style="" transform="translate(117.70056854074541,0)"><line y2="6" x2="0" fill="none" stroke="#000" stroke-opacity="0.2"/><text dy="0" style="" y="20" x="0" font-family="MetricWeb,sans-serif" fill-opacity="0.6" font-size="12" text-anchor="start">2010</text></g><g class="tick" style="" transform="translate(156.89829437776373,0)"><line y2="6" x2="0" fill="none" stroke="#000" stroke-opacity="0.2"/><text dy="0" style="" y="20" x="0" font-family="MetricWeb,sans-serif" fill-opacity="0.6" font-size="12" text-anchor="start">2012</text></g><g class="tick" style="" transform="translate(196.1497157296273,0)"><line y2="6" x2="0" fill="none" stroke="#000" stroke-opacity="0.2"/><text dy="0" style="" y="20" x="0" font-family="MetricWeb,sans-serif" fill-opacity="0.6" font-size="12" text-anchor="start">2014</text></g><g class="tick" style="" transform="translate(235.3474415666456,0)"><line y2="6" x2="0" fill="none" stroke="#000" stroke-opacity="0.2"/><text dy="0" style="" y="20" x="0" font-family="MetricWeb,sans-serif" fill-opacity="0.6" font-size="12" text-anchor="start">2016</text></g><path class="domain" d="M0,0V0H255V0" fill="none" stroke="#74736c"/></g><g transform="translate(255,0)" class="y axis"><g class="tick" style="" transform="translate(0,100.16666666666667)"><line x2="-255" y2="0" fill="none" stroke="#000" stroke-opacity="0.2"/><text dy="0" style="text-anchor: start;" x="3" y="0" font-family="MetricWeb,sans-serif" fill-opacity="0.6" font-size="12">0</text></g><g class="tick" style="" transform="translate(0,60.5)"><line x2="-255" y2="0" fill="none" stroke="#000" stroke-opacity="0.2"/><text dy="0" style="text-anchor: start;" x="3" y="0" font-family="MetricWeb,sans-serif" fill-opacity="0.6" font-size="12">20</text></g><g class="tick" style="" transform="translate(0,20.83333333333333)"><line x2="-255" y2="0" fill="none" stroke="#000" stroke-opacity="0.2"/><text dy="0" style="text-anchor: start;" x="3" y="0" font-family="MetricWeb,sans-serif" fill-opacity="0.6" font-size="12">40</text></g><path class="domain" d="M-255,1H0V120H-255" fill="none" stroke="#000" stroke-opacity="0"/><line class="highlight-line" x1="0" x2="-255" y1="100.16666666666667" y2="100.16666666666667" fill="none" stroke="#74736c"/></g><g><path d="M19.653,76.928L21.317,76.928L22.821,68.081L24.485,68.734L26.096,53.019L27.761,54.778L29.371,67.978L31.036,65.064L32.701,61.608L34.311,61.026L35.976,60.799L37.587,64.247L39.251,44.777L40.916,44.777L42.419,49.227L44.084,54.396L45.695,73.773L47.359,73.112L48.97,63.453L50.635,69.003L52.299,73.67L53.91,75.459L55.575,76.509L57.186,75.463L58.85,65.997L60.515,65.997L62.018,61.838L63.683,60.135L65.294,59.349L66.958,59.396L68.569,57.476L70.234,57.264L71.898,58.913L73.509,57.141L75.174,56.325L76.785,59.098L78.449,38.569L80.114,38.569L81.671,48.654L83.335,52.668L84.946,54.834L86.611,55.188L88.222,56.663L89.886,58.289L91.551,59.762L93.162,63.109L94.826,65.022L96.437,70.802L98.102,69.828L99.766,69.828L101.27,71.204L102.934,72.013L104.545,69.066L106.21,64.322L107.821,65.821L109.485,55.052L111.15,51.181L112.761,49.364L114.425,49.153L116.036,58.235L117.701,8.352L119.365,8.352L120.869,30.21L122.533,37.584L124.144,41.964L125.809,52.632L127.419,50.454L129.084,58.026L130.749,60.32L132.359,61.112L134.024,60.298L135.635,54.696L137.299,32.909L138.964,32.909L140.467,37.602L142.132,36.982L143.743,36.378L145.407,34.405L147.018,34.724L148.683,35.682L150.347,35.567L151.958,34.115L153.623,33.687L155.234,40.409L156.898,37.407L158.563,37.407L160.12,54.351L161.785,59.668L163.395,63.664L165.06,65.764L166.671,66.977L168.335,68.002L170,68.469L171.611,69.572L173.275,71.482L174.886,69.708L176.551,69.773L178.215,69.773L179.719,66.835L181.383,66.426L182.994,66.882L184.659,67.523L186.27,68.949L187.934,70.382L189.599,72.794L191.21,73.875L192.874,68.408L194.485,65.736L196.15,71.226L197.814,71.226L199.318,78.822L200.982,83.672L202.593,83.561L204.258,86.219L205.869,91.142L207.533,89.93L209.198,89.978L210.809,90.482L212.473,95.286L214.084,99.322L215.749,91.692L217.413,91.692L218.917,93.637L220.581,97.039L222.192,103.277L223.857,101.794L225.467,104.409L227.132,107.349L228.797,106.866L230.407,106.434L232.072,104.906L233.683,108.926L235.347,102.056L237.012,102.056L238.569,107.409L240.234,108.5L241.845,110.786L243.509,117.735L245.12,114.59L246.785,103.598L248.449,105.793" stroke-width="2" fill="none" stroke="#af516c"/></g></g></svg>