<?xml-stylesheet type="text/css" href="https://ig.ft.com/graphics/bloomberg-economics/chart-style.css" ?><svg xmlns="http://www.w3.org/2000/svg" viewBox="0 0 304 270"><text class="chart-title" fill="#43423e" font-size="20" y="22">房屋施工面积</text><text class="chart-subtitle" fill="#43423e" font-size="15" y="42">年同比变化％</text><text class="chart-source" font-size="10" fill-opacity="0.4" y="265">来源：CEIC，2017/03/16</text><g transform="translate(1,100)"><g transform="translate(0,120)" class="x axis"><g class="tick" style="" transform="translate(0,0)"><line y2="6" x2="0" fill="none" stroke="#000" stroke-opacity="0.2"/><text dy="0" style="" y="20" x="0" font-family="MetricWeb,sans-serif" fill-opacity="0.6" font-size="12" text-anchor="start">2004</text></g><g class="tick" style="" transform="translate(36.44994133750489,0)"><line y2="6" x2="0" fill="none" stroke="#000" stroke-opacity="0.2"/><text dy="0" style="" y="20" x="0" font-family="MetricWeb,sans-serif" fill-opacity="0.6" font-size="12" text-anchor="start">2006</text></g><g class="tick" style="" transform="translate(72.85001955416503,0)"><line y2="6" x2="0" fill="none" stroke="#000" stroke-opacity="0.2"/><text dy="0" style="" y="20" x="0" font-family="MetricWeb,sans-serif" fill-opacity="0.6" font-size="12" text-anchor="start">2008</text></g><g class="tick" style="" transform="translate(109.29996089166993,0)"><line y2="6" x2="0" fill="none" stroke="#000" stroke-opacity="0.2"/><text dy="0" style="" y="20" x="0" font-family="MetricWeb,sans-serif" fill-opacity="0.6" font-size="12" text-anchor="start">2010</text></g><g class="tick" style="" transform="translate(145.70003910833006,0)"><line y2="6" x2="0" fill="none" stroke="#000" stroke-opacity="0.2"/><text dy="0" style="" y="20" x="0" font-family="MetricWeb,sans-serif" fill-opacity="0.6" font-size="12" text-anchor="start">2012</text></g><g class="tick" style="" transform="translate(182.14998044583496,0)"><line y2="6" x2="0" fill="none" stroke="#000" stroke-opacity="0.2"/><text dy="0" style="" y="20" x="0" font-family="MetricWeb,sans-serif" fill-opacity="0.6" font-size="12" text-anchor="start">2014</text></g><g class="tick" style="" transform="translate(218.5500586624951,0)"><line y2="6" x2="0" fill="none" stroke="#000" stroke-opacity="0.2"/><text dy="0" style="" y="20" x="0" font-family="MetricWeb,sans-serif" fill-opacity="0.6" font-size="12" text-anchor="start">2016</text></g><g class="tick" style="" transform="translate(255,0)"><line y2="6" x2="0" fill="none" stroke="#000" stroke-opacity="0.2"/><text dy="0" style="" y="20" x="0" font-family="MetricWeb,sans-serif" fill-opacity="0.6" font-size="12" text-anchor="start">2018</text></g><path class="domain" d="M0,0V0H255V0" fill="none" stroke="#74736c"/></g><g transform="translate(255,0)" class="y axis"><g class="tick" style="" transform="translate(0,100.16666666666667)"><line x2="-255" y2="0" fill="none" stroke="#000" stroke-opacity="0.2"/><text dy="0" style="text-anchor: start;" x="3" y="0" font-family="MetricWeb,sans-serif" fill-opacity="0.6" font-size="12">0</text></g><g class="tick" style="" transform="translate(0,60.5)"><line x2="-255" y2="0" fill="none" stroke="#000" stroke-opacity="0.2"/><text dy="0" style="text-anchor: start;" x="3" y="0" font-family="MetricWeb,sans-serif" fill-opacity="0.6" font-size="12">20</text></g><g class="tick" style="" transform="translate(0,20.83333333333333)"><line x2="-255" y2="0" fill="none" stroke="#000" stroke-opacity="0.2"/><text dy="0" style="text-anchor: start;" x="3" y="0" font-family="MetricWeb,sans-serif" fill-opacity="0.6" font-size="12">40</text></g><path class="domain" d="M-255,1H0V120H-255" fill="none" stroke="#000" stroke-opacity="0"/><line class="highlight-line" x1="0" x2="-255" y1="100.16666666666667" y2="100.16666666666667" fill="none" stroke="#74736c"/></g><g><path d="M18.25,76.928L19.796,76.928L21.192,68.081L22.738,68.734L24.233,53.019L25.779,54.778L27.275,67.978L28.821,65.064L30.367,61.608L31.863,61.026L33.408,60.799L34.904,64.247L36.45,44.777L37.996,44.777L39.392,49.227L40.938,54.396L42.434,73.773L43.979,73.112L45.475,63.453L47.021,69.003L48.567,73.67L50.063,75.459L51.608,76.509L53.104,75.463L54.65,65.997L56.196,65.997L57.592,61.838L59.138,60.135L60.634,59.349L62.179,59.396L63.675,57.476L65.221,57.264L66.767,58.913L68.263,57.141L69.808,56.325L71.304,59.098L72.85,38.569L74.396,38.569L75.842,48.654L77.388,52.668L78.883,54.834L80.429,55.188L81.925,56.663L83.471,58.289L85.017,59.762L86.513,63.109L88.058,65.022L89.554,70.802L91.1,69.828L92.646,69.828L94.042,71.204L95.588,72.013L97.083,69.066L98.629,64.322L100.125,65.821L101.671,55.052L103.217,51.181L104.713,49.364L106.258,49.153L107.754,58.235L109.3,8.352L110.846,8.352L112.242,30.21L113.788,37.584L115.284,41.964L116.829,52.632L118.325,50.454L119.871,58.026L121.417,60.32L122.913,61.112L124.458,60.298L125.954,54.696L127.5,32.909L129.046,32.909L130.442,37.602L131.988,36.982L133.484,36.378L135.029,34.405L136.525,34.724L138.071,35.682L139.617,35.567L141.113,34.115L142.658,33.687L144.154,40.409L145.7,37.407L147.246,37.407L148.692,54.351L150.238,59.668L151.733,63.664L153.279,65.764L154.775,66.977L156.321,68.002L157.867,68.469L159.363,69.572L160.908,71.482L162.404,69.708L163.95,69.773L165.496,69.773L166.892,66.835L168.438,66.426L169.934,66.882L171.479,67.523L172.975,68.949L174.521,70.382L176.067,72.794L177.563,73.875L179.108,68.408L180.604,65.736L182.15,71.226L183.696,71.226L185.092,78.822L186.638,83.672L188.134,83.561L189.679,86.219L191.175,91.142L192.721,89.93L194.267,89.978L195.763,90.482L197.308,95.286L198.804,99.322L200.35,91.692L201.896,91.692L203.292,93.637L204.838,97.039L206.334,103.277L207.879,101.794L209.375,104.409L210.921,107.349L212.467,106.866L213.963,106.434L215.508,104.906L217.004,108.926L218.55,102.056L220.096,102.056L221.542,107.409L223.088,108.5L224.583,110.786L226.129,117.735L227.625,114.59L229.171,103.598L230.717,105.793L232.213,106.726L233.758,108.611L235.254,103.764L236.8,90.673L238.346,90.673" stroke-width="2" fill="none" stroke="#af516c"/></g></g></svg>