<?xml-stylesheet type="text/css" href="https://ig.ft.com/graphics/bloomberg-economics/chart-style.css" ?><svg xmlns="http://www.w3.org/2000/svg" viewBox="0 0 304 270"><text class="chart-title" font-family="MetricWeb,sans-serif" fill="#43423e" font-size="20" y="22">房屋施工面积</text><text class="chart-subtitle" font-family="MetricWeb,sans-serif" fill="#43423e" font-size="15" y="42">年同比变化％</text><text class="chart-source" font-family="MetricWeb,sans-serif" font-size="10" fill-opacity="0.4" y="265">来源：CEIC 4月 18日 2016</text><g transform="translate(1,100)"><g transform="translate(0,120)" class="x axis"><g class="tick" style="" transform="translate(0,0)"><line y2="6" x2="0" fill="none" stroke="#000" stroke-opacity="0.2"/><text dy="0" style="" y="20" x="0" font-family="MetricWeb,sans-serif" fill-opacity="0.6" font-size="12" text-anchor="start">2004</text></g><g class="tick" style="" transform="translate(39.25142135186355,0)"><line y2="6" x2="0" fill="none" stroke="#000" stroke-opacity="0.2"/><text dy="0" style="" y="20" x="0" font-family="MetricWeb,sans-serif" fill-opacity="0.6" font-size="12" text-anchor="start">2006</text></g><g class="tick" style="" transform="translate(78.44914718888187,0)"><line y2="6" x2="0" fill="none" stroke="#000" stroke-opacity="0.2"/><text dy="0" style="" y="20" x="0" font-family="MetricWeb,sans-serif" fill-opacity="0.6" font-size="12" text-anchor="start">2008</text></g><g class="tick" style="" transform="translate(117.70056854074541,0)"><line y2="6" x2="0" fill="none" stroke="#000" stroke-opacity="0.2"/><text dy="0" style="" y="20" x="0" font-family="MetricWeb,sans-serif" fill-opacity="0.6" font-size="12" text-anchor="start">2010</text></g><g class="tick" style="" transform="translate(156.89829437776373,0)"><line y2="6" x2="0" fill="none" stroke="#000" stroke-opacity="0.2"/><text dy="0" style="" y="20" x="0" font-family="MetricWeb,sans-serif" fill-opacity="0.6" font-size="12" text-anchor="start">2012</text></g><g class="tick" style="" transform="translate(196.1497157296273,0)"><line y2="6" x2="0" fill="none" stroke="#000" stroke-opacity="0.2"/><text dy="0" style="" y="20" x="0" font-family="MetricWeb,sans-serif" fill-opacity="0.6" font-size="12" text-anchor="start">2014</text></g><g class="tick" style="" transform="translate(235.3474415666456,0)"><line y2="6" x2="0" fill="none" stroke="#000" stroke-opacity="0.2"/><text dy="0" style="" y="20" x="0" font-family="MetricWeb,sans-serif" fill-opacity="0.6" font-size="12" text-anchor="start">2016</text></g><path class="domain" d="M0,0V0H255V0" fill="none" stroke="#74736c"/></g><g transform="translate(255,0)" class="y axis"><g class="tick" style="" transform="translate(0,109.18181818181819)"><line x2="-255" y2="0" fill="none" stroke="#000" stroke-opacity="0.2"/><text dy="0" style="text-anchor: start;" x="3" y="0" font-family="MetricWeb,sans-serif" fill-opacity="0.6" font-size="12">0</text></g><g class="tick" style="" transform="translate(0,65.9090909090909)"><line x2="-255" y2="0" fill="none" stroke="#000" stroke-opacity="0.2"/><text dy="0" style="text-anchor: start;" x="3" y="0" font-family="MetricWeb,sans-serif" fill-opacity="0.6" font-size="12">20</text></g><g class="tick" style="" transform="translate(0,22.63636363636363)"><line x2="-255" y2="0" fill="none" stroke="#000" stroke-opacity="0.2"/><text dy="0" style="text-anchor: start;" x="3" y="0" font-family="MetricWeb,sans-serif" fill-opacity="0.6" font-size="12">40</text></g><path class="domain" d="M-255,1H0V120H-255" fill="none" stroke="#000" stroke-opacity="0"/><line class="highlight-line" x1="0" x2="-255" y1="109.18181818181819" y2="109.18181818181819" fill="none" stroke="#74736c"/></g><g><path d="M19.653,83.83L21.317,83.83L22.821,74.179L24.485,74.892L26.096,57.748L27.761,59.666L29.371,74.067L31.036,70.888L32.701,67.118L34.311,66.482L35.976,66.235L37.587,69.997L39.251,48.757L40.916,48.757L42.419,53.611L44.084,59.251L45.695,80.389L47.359,79.667L48.97,69.131L50.635,75.185L52.299,80.276L53.91,82.228L55.575,83.374L57.186,82.232L58.85,71.906L60.515,71.906L62.018,67.369L63.683,65.511L65.294,64.653L66.958,64.704L68.569,62.61L70.234,62.379L71.898,64.178L73.509,62.245L75.174,61.354L76.785,64.38L78.449,41.984L80.114,41.984L81.671,52.986L83.335,57.365L84.946,59.728L86.611,60.115L88.222,61.724L89.886,63.497L91.551,65.104L93.162,68.755L94.826,70.842L96.437,77.148L98.102,76.085L99.766,76.085L101.27,77.587L102.934,78.468L104.545,75.254L106.21,70.078L107.821,71.714L109.485,59.965L111.15,55.743L112.761,53.761L114.425,53.531L116.036,63.438L117.701,9.02L119.365,9.02L120.869,32.865L122.533,40.91L124.144,45.688L125.809,57.326L127.419,54.95L129.084,63.21L130.749,65.713L132.359,66.576L134.024,65.689L135.635,59.577L137.299,35.81L138.964,35.81L140.467,40.93L142.132,40.253L143.743,39.595L145.407,37.442L147.018,37.789L148.683,38.835L150.347,38.71L151.958,37.125L153.623,36.658L155.234,43.992L156.898,40.716L158.563,40.716L160.12,59.201L161.785,65.002L163.395,69.36L165.06,71.651L166.671,72.975L168.335,74.093L170,74.602L171.611,75.806L173.275,77.89L174.886,75.954L176.551,76.026L178.215,76.026L179.719,72.82L181.383,72.374L182.994,72.871L184.659,73.57L186.27,75.126L187.934,76.69L189.599,79.321L191.21,80.5L192.874,74.536L194.485,71.621L196.15,77.611L197.814,77.611L199.318,85.897L200.982,91.187L202.593,91.067L204.258,93.967L205.869,99.337L207.533,98.014L209.198,98.067L210.809,98.616L212.473,103.858L214.084,108.26L215.749,99.937L217.413,99.937L218.917,102.059L220.581,105.77L222.192,112.575L223.857,110.957L225.467,113.81L227.132,117.018L228.797,116.49L230.407,116.018L232.072,114.352L233.683,118.738L235.347,111.243L237.012,111.243L238.569,117.083" stroke-width="2" fill="none" stroke="#af516c"/></g></g></svg>