<?xml-stylesheet type="text/css" href="https://ig.ft.com/graphics/bloomberg-economics/chart-style.css" ?><svg xmlns="http://www.w3.org/2000/svg" viewBox="0 0 304 270"><text class="chart-title" fill="#43423e" font-size="20" y="22">房屋销售面积</text><text class="chart-subtitle" fill="#43423e" font-size="15" y="42">年同比变化％</text><text class="chart-source" font-size="10" fill-opacity="0.4" y="265">来源：CEIC 4月 15日 2016</text><g transform="translate(1,100)"><g transform="translate(0,120)" class="x axis"><g class="tick" style="" transform="translate(21.235455167693363,0)"><line y2="6" x2="0" fill="none" stroke="#000" stroke-opacity="0.2"/><text dy="0" style="" y="20" x="0" font-family="MetricWeb,sans-serif" fill-opacity="0.6" font-size="12" text-anchor="start">2006</text></g><g class="tick" style="" transform="translate(63.706365503080086,0)"><line y2="6" x2="0" fill="none" stroke="#000" stroke-opacity="0.2"/><text dy="0" style="" y="20" x="0" font-family="MetricWeb,sans-serif" fill-opacity="0.6" font-size="12" text-anchor="start">2008</text></g><g class="tick" style="" transform="translate(106.23545516769336,0)"><line y2="6" x2="0" fill="none" stroke="#000" stroke-opacity="0.2"/><text dy="0" style="" y="20" x="0" font-family="MetricWeb,sans-serif" fill-opacity="0.6" font-size="12" text-anchor="start">2010</text></g><g class="tick" style="" transform="translate(148.70636550308006,0)"><line y2="6" x2="0" fill="none" stroke="#000" stroke-opacity="0.2"/><text dy="0" style="" y="20" x="0" font-family="MetricWeb,sans-serif" fill-opacity="0.6" font-size="12" text-anchor="start">2012</text></g><g class="tick" style="" transform="translate(191.23545516769335,0)"><line y2="6" x2="0" fill="none" stroke="#000" stroke-opacity="0.2"/><text dy="0" style="" y="20" x="0" font-family="MetricWeb,sans-serif" fill-opacity="0.6" font-size="12" text-anchor="start">2014</text></g><g class="tick" style="" transform="translate(233.7063655030801,0)"><line y2="6" x2="0" fill="none" stroke="#000" stroke-opacity="0.2"/><text dy="0" style="" y="20" x="0" font-family="MetricWeb,sans-serif" fill-opacity="0.6" font-size="12" text-anchor="start">2016</text></g><path class="domain" d="M0,0V0H255V0" fill="none" stroke="#74736c"/></g><g transform="translate(255,0)" class="y axis"><g class="tick" style="" transform="translate(0,101.6923076923077)"><line x2="-255" y2="0" fill="none" stroke="#000" stroke-opacity="0.2"/><text dy="0" style="text-anchor: start;" x="3" y="0" font-family="MetricWeb,sans-serif" fill-opacity="0.6" font-size="12">0</text></g><g class="tick" style="" transform="translate(0,55.92307692307693)"><line x2="-255" y2="0" fill="none" stroke="#000" stroke-opacity="0.2"/><text dy="0" style="text-anchor: start;" x="3" y="0" font-family="MetricWeb,sans-serif" fill-opacity="0.6" font-size="12">50</text></g><g class="tick" style="" transform="translate(0,10.153846153846148)"><line x2="-255" y2="0" fill="none" stroke="#000" stroke-opacity="0.2"/><text dy="0" style="text-anchor: start;" x="3" y="0" font-family="MetricWeb,sans-serif" fill-opacity="0.6" font-size="12">100</text></g><path class="domain" d="M-255,1H0V120H-255" fill="none" stroke="#000" stroke-opacity="0"/><line class="highlight-line" x1="0" x2="-255" y1="101.6923076923077" y2="101.6923076923077" fill="none" stroke="#74736c"/></g><g><path d="M1.804,86.243L3.433,82.371L5.236,86.028L6.982,88.752L8.785,89.001L10.53,80.555L12.334,10.092L14.138,18.592L15.883,19.055L17.687,25.829L19.432,59.702L21.235,4.831L23.039,4.831L24.668,25.844L26.472,22.29L28.217,18.19L30.021,25.459L31.766,41.979L33.569,101.158L35.373,98.64L37.118,98.369L38.922,95.942L40.667,93.717L42.471,101.22L44.274,101.22L45.903,90.64L47.707,86.813L49.452,86.495L51.256,82.061L53.001,78.8L54.805,74.893L56.608,72.391L58.354,72.996L60.157,73.816L61.903,78.192L63.706,105.566L65.51,105.566L67.197,102.998L69.001,106.169L70.746,108.248L72.55,108.291L74.295,111.569L76.099,115.185L77.902,115.314L79.648,116.803L81.451,118.444L83.196,118.637L85,101.922L86.804,101.922L88.433,94.166L90.236,85.628L91.982,78.329L93.785,72.646L95.53,67.724L97.334,62.466L99.138,60.714L100.883,57.388L102.687,53.166L104.432,53.532L106.235,65.586L108.039,65.586L109.668,68.892L111.472,71.639L113.217,81.096L115.021,87.619L116.766,92.784L118.569,95.601L120.373,94.197L122.118,93.334L123.922,92.76L125.667,92.424L127.471,89.055L129.274,89.055L130.903,88.094L132.707,95.883L134.452,93.378L136.256,89.906L138.001,89.269L139.805,89.275L141.608,89.895L143.354,92.562L145.157,93.871L146.903,96.783L148.706,114.494L150.51,114.494L152.197,114.163L154.001,113.958L155.746,113.031L157.55,110.873L159.295,107.75L161.099,105.423L162.902,105.348L164.648,102.738L166.451,99.535L168.196,100.562L170,56.382L171.804,56.382L173.433,67.701L175.236,66.885L176.982,69.123L178.785,75.423L180.53,78.07L182.334,80.285L184.138,80.37L185.883,81.711L187.687,82.625L189.432,85.863L191.235,101.741L193.039,101.741L194.668,105.139L196.472,108.002L198.217,108.826L200.021,107.153L201.766,108.661L203.569,109.257L205.373,109.559L207.118,108.789L208.922,109.202L210.667,108.635L212.471,116.577L214.274,116.577L215.903,110.143L217.707,106.068L219.452,101.878L221.256,98.099L223.001,96.125L224.805,95.09L226.608,94.837L228.354,95.068L230.157,94.91L231.903,95.739L233.706,75.886L235.51,75.886L237.197,71.38" stroke-width="2" fill="none" stroke="#af516c"/></g></g></svg>