<?xml-stylesheet type="text/css" href="https://ig.ft.com/graphics/bloomberg-economics/chart-style.css" ?><svg xmlns="http://www.w3.org/2000/svg" viewBox="0 0 304 270"><text class="chart-title" fill="#43423e" font-size="20" y="22">房屋销售面积</text><text class="chart-subtitle" fill="#43423e" font-size="15" y="42">年同比变化％</text><text class="chart-source" font-size="10" fill-opacity="0.4" y="265">来源：CEIC，2017/03/16</text><g transform="translate(1,100)"><g transform="translate(0,120)" class="x axis"><g class="tick" style="" transform="translate(19.602990732940185,0)"><line y2="6" x2="0" fill="none" stroke="#000" stroke-opacity="0.2"/><text dy="0" style="" y="20" x="0" font-family="MetricWeb,sans-serif" fill-opacity="0.6" font-size="12" text-anchor="start">2006</text></g><g class="tick" style="" transform="translate(58.808972198820555,0)"><line y2="6" x2="0" fill="none" stroke="#000" stroke-opacity="0.2"/><text dy="0" style="" y="20" x="0" font-family="MetricWeb,sans-serif" fill-opacity="0.6" font-size="12" text-anchor="start">2008</text></g><g class="tick" style="" transform="translate(98.06866048862679,0)"><line y2="6" x2="0" fill="none" stroke="#000" stroke-opacity="0.2"/><text dy="0" style="" y="20" x="0" font-family="MetricWeb,sans-serif" fill-opacity="0.6" font-size="12" text-anchor="start">2010</text></g><g class="tick" style="" transform="translate(137.27464195450716,0)"><line y2="6" x2="0" fill="none" stroke="#000" stroke-opacity="0.2"/><text dy="0" style="" y="20" x="0" font-family="MetricWeb,sans-serif" fill-opacity="0.6" font-size="12" text-anchor="start">2012</text></g><g class="tick" style="" transform="translate(176.5343302443134,0)"><line y2="6" x2="0" fill="none" stroke="#000" stroke-opacity="0.2"/><text dy="0" style="" y="20" x="0" font-family="MetricWeb,sans-serif" fill-opacity="0.6" font-size="12" text-anchor="start">2014</text></g><g class="tick" style="" transform="translate(215.74031171019377,0)"><line y2="6" x2="0" fill="none" stroke="#000" stroke-opacity="0.2"/><text dy="0" style="" y="20" x="0" font-family="MetricWeb,sans-serif" fill-opacity="0.6" font-size="12" text-anchor="start">2016</text></g><g class="tick" style="" transform="translate(255,0)"><line y2="6" x2="0" fill="none" stroke="#000" stroke-opacity="0.2"/><text dy="0" style="" y="20" x="0" font-family="MetricWeb,sans-serif" fill-opacity="0.6" font-size="12" text-anchor="start">2018</text></g><path class="domain" d="M0,0V0H255V0" fill="none" stroke="#74736c"/></g><g transform="translate(255,0)" class="y axis"><g class="tick" style="" transform="translate(0,101.6923076923077)"><line x2="-255" y2="0" fill="none" stroke="#000" stroke-opacity="0.2"/><text dy="0" style="text-anchor: start;" x="3" y="0" font-family="MetricWeb,sans-serif" fill-opacity="0.6" font-size="12">0</text></g><g class="tick" style="" transform="translate(0,55.92307692307693)"><line x2="-255" y2="0" fill="none" stroke="#000" stroke-opacity="0.2"/><text dy="0" style="text-anchor: start;" x="3" y="0" font-family="MetricWeb,sans-serif" fill-opacity="0.6" font-size="12">50</text></g><g class="tick" style="" transform="translate(0,10.153846153846148)"><line x2="-255" y2="0" fill="none" stroke="#000" stroke-opacity="0.2"/><text dy="0" style="text-anchor: start;" x="3" y="0" font-family="MetricWeb,sans-serif" fill-opacity="0.6" font-size="12">100</text></g><path class="domain" d="M-255,1H0V120H-255" fill="none" stroke="#000" stroke-opacity="0"/><line class="highlight-line" x1="0" x2="-255" y1="101.6923076923077" y2="101.6923076923077" fill="none" stroke="#74736c"/></g><g><path d="M1.665,86.243L3.169,82.371L4.834,86.028L6.445,88.752L8.11,89.001L9.721,80.555L11.386,10.092L13.051,18.592L14.662,19.055L16.327,25.829L17.938,59.702L19.603,4.831L21.268,4.831L22.772,25.844L24.437,22.29L26.048,18.19L27.713,25.459L29.324,41.979L30.989,101.158L32.654,98.64L34.265,98.369L35.93,95.942L37.541,93.717L39.206,101.22L40.871,101.22L42.375,90.64L44.04,86.813L45.651,86.495L47.316,82.061L48.927,78.8L50.592,74.893L52.257,72.391L53.868,72.996L55.533,73.816L57.144,78.192L58.809,105.566L60.474,105.566L62.031,102.998L63.696,106.169L65.307,108.248L66.972,108.291L68.584,111.569L70.249,115.185L71.913,115.314L73.525,116.803L75.19,118.444L76.801,118.637L78.466,101.922L80.131,101.922L81.634,94.166L83.299,85.628L84.91,78.329L86.575,72.646L88.187,67.724L89.852,62.466L91.516,60.714L93.128,57.388L94.793,53.166L96.404,53.532L98.069,65.586L99.734,65.586L101.237,68.892L102.902,71.639L104.513,81.096L106.178,87.619L107.79,92.784L109.455,95.601L111.119,94.197L112.731,93.334L114.396,92.76L116.007,92.424L117.672,89.055L119.337,89.055L120.84,88.094L122.505,95.883L124.116,93.378L125.781,89.906L127.393,89.269L129.057,89.275L130.722,89.895L132.334,92.562L133.999,93.871L135.61,96.783L137.275,114.494L138.94,114.494L140.497,114.163L142.162,113.958L143.773,113.031L145.438,110.873L147.049,107.75L148.714,105.423L150.379,105.348L151.99,102.738L153.655,99.535L155.266,100.562L156.931,56.382L158.596,56.382L160.1,67.701L161.765,66.885L163.376,69.123L165.041,75.423L166.652,78.07L168.317,80.285L169.982,80.37L171.593,81.711L173.258,82.625L174.869,85.863L176.534,101.741L178.199,101.741L179.703,105.139L181.368,108.002L182.979,108.826L184.644,107.153L186.255,108.661L187.92,109.257L189.585,109.559L191.196,108.789L192.861,109.202L194.472,108.635L196.137,116.577L197.802,116.577L199.306,110.143L200.971,106.068L202.582,101.878L204.247,98.099L205.858,96.125L207.523,95.09L209.188,94.837L210.799,95.068L212.464,94.91L214.075,95.739L215.74,75.886L217.405,75.886L218.963,71.38L220.628,68.29L222.239,71.284L223.904,76.125L225.515,77.483L227.18,78.339L228.845,77.097L230.456,77.153L232.121,79.425L233.732,81.137L235.397,78.717L237.062,78.717" stroke-width="2" fill="none" stroke="#af516c"/></g></g></svg>