<?xml-stylesheet type="text/css" href="https://ig.ft.com/graphics/bloomberg-economics/chart-style.css" ?><svg xmlns="http://www.w3.org/2000/svg" viewBox="0 0 304 270"><text class="chart-title" fill="#43423e" font-size="20" y="22">人均GDP</text><text class="chart-subtitle" fill="#43423e" font-size="15" y="42">美元</text><text class="chart-source" font-size="10" fill-opacity="0.4" y="265">来源：CEIC，2017/03/22</text><g transform="translate(1,100)"><g transform="translate(0,120)" class="x axis"><g class="tick" style="" transform="translate(0,0)"><line y2="6" x2="0" fill="none" stroke="#000" stroke-opacity="0.2"/><text dy="0" style="" y="20" x="0" font-family="MetricWeb,sans-serif" fill-opacity="0.6" font-size="12" text-anchor="start">1980</text></g><g class="tick" style="" transform="translate(63.75872689938398,0)"><line y2="6" x2="0" fill="none" stroke="#000" stroke-opacity="0.2"/><text dy="0" style="" y="20" x="0" font-family="MetricWeb,sans-serif" fill-opacity="0.6" font-size="12" text-anchor="start">1990</text></g><g class="tick" style="" transform="translate(127.5,0)"><line y2="6" x2="0" fill="none" stroke="#000" stroke-opacity="0.2"/><text dy="0" style="" y="20" x="0" font-family="MetricWeb,sans-serif" fill-opacity="0.6" font-size="12" text-anchor="start">2000</text></g><g class="tick" style="" transform="translate(191.258726899384,0)"><line y2="6" x2="0" fill="none" stroke="#000" stroke-opacity="0.2"/><text dy="0" style="" y="20" x="0" font-family="MetricWeb,sans-serif" fill-opacity="0.6" font-size="12" text-anchor="start">2010</text></g><g class="tick" style="" transform="translate(255,0)"><line y2="6" x2="0" fill="none" stroke="#000" stroke-opacity="0.2"/><text dy="0" style="" y="20" x="0" font-family="MetricWeb,sans-serif" fill-opacity="0.6" font-size="12" text-anchor="start">2020</text></g><path class="domain" d="M0,0V0H255V0" fill="none" stroke="#74736c"/></g><g transform="translate(255,0)" class="y axis"><g class="tick" style="" transform="translate(0,120)"><line x2="-255" y2="0" fill="none" stroke="#000" stroke-opacity="0.2"/><text dy="0" style="text-anchor: start;" x="3" y="0" font-family="MetricWeb,sans-serif" fill-opacity="0.6" font-size="12">0</text></g><g class="tick" style="" transform="translate(0,93.55555555555556)"><line x2="-255" y2="0" fill="none" stroke="#000" stroke-opacity="0.2"/><text dy="0" style="text-anchor: start;" x="3" y="0" font-family="MetricWeb,sans-serif" fill-opacity="0.6" font-size="12">2,000</text></g><g class="tick" style="" transform="translate(0,67.11111111111111)"><line x2="-255" y2="0" fill="none" stroke="#000" stroke-opacity="0.2"/><text dy="0" style="text-anchor: start;" x="3" y="0" font-family="MetricWeb,sans-serif" fill-opacity="0.6" font-size="12">4,000</text></g><g class="tick" style="" transform="translate(0,40.66666666666667)"><line x2="-255" y2="0" fill="none" stroke="#000" stroke-opacity="0.2"/><text dy="0" style="text-anchor: start;" x="3" y="0" font-family="MetricWeb,sans-serif" fill-opacity="0.6" font-size="12">6,000</text></g><g class="tick" style="" transform="translate(0,14.222222222222229)"><line x2="-255" y2="0" fill="none" stroke="#000" stroke-opacity="0.2"/><text dy="0" style="text-anchor: start;" x="3" y="0" font-family="MetricWeb,sans-serif" fill-opacity="0.6" font-size="12">8,000</text></g><path class="domain" d="M-255,1H0V120H-255" fill="none" stroke="#000" stroke-opacity="0"/><line class="highlight-line" x1="0" x2="-255" y1="120" y2="120" fill="none" stroke="#74736c"/></g><g><path d="M5.847,115.87L12.218,116.155L18.588,116.286L24.959,116.075L31.347,116.024L37.718,116.111L44.088,116.283L50.459,116.021L56.847,115.117L63.218,114.611L69.588,115.415L75.959,115.261L82.347,114.416L88.718,113.072L95.088,113.755L101.459,111.959L107.847,110.648L114.218,109.699L120.588,109.073L126.959,108.454L133.347,107.315L139.718,106.075L146.088,104.815L152.459,102.962L158.847,100.052L165.218,96.815L171.588,92.239L177.959,84.354L184.347,74.099L190.718,69.242L197.088,59.688L203.459,45.529L209.847,36.147L216.218,25.69L222.588,18.691L228.959,14.25L235.347,12.537" stroke-width="2" fill="none" stroke="#af516c"/></g></g></svg>