<?xml-stylesheet type="text/css" href="https://ig.ft.com/graphics/bloomberg-economics/chart-style.css" ?><svg xmlns="http://www.w3.org/2000/svg" viewBox="0 0 304 270"><text class="chart-title" fill="#43423e" font-size="20" y="22">李克强指数</text><text class="chart-subtitle" fill="#43423e" font-size="15" y="42">年度变化%</text><text class="chart-source" font-size="10" fill-opacity="0.4" y="265">来源：彭博，2016/09/02</text><g transform="translate(1,100)"><g transform="translate(0,120)" class="x axis"><g class="tick" style="" transform="translate(21.235455167693363,0)"><line y2="6" x2="0" fill="none" stroke="#000" stroke-opacity="0.2"/><text dy="0" style="" y="20" x="0" font-family="MetricWeb,sans-serif" fill-opacity="0.6" font-size="12" text-anchor="start">2006</text></g><g class="tick" style="" transform="translate(63.706365503080086,0)"><line y2="6" x2="0" fill="none" stroke="#000" stroke-opacity="0.2"/><text dy="0" style="" y="20" x="0" font-family="MetricWeb,sans-serif" fill-opacity="0.6" font-size="12" text-anchor="start">2008</text></g><g class="tick" style="" transform="translate(106.23545516769336,0)"><line y2="6" x2="0" fill="none" stroke="#000" stroke-opacity="0.2"/><text dy="0" style="" y="20" x="0" font-family="MetricWeb,sans-serif" fill-opacity="0.6" font-size="12" text-anchor="start">2010</text></g><g class="tick" style="" transform="translate(148.70636550308006,0)"><line y2="6" x2="0" fill="none" stroke="#000" stroke-opacity="0.2"/><text dy="0" style="" y="20" x="0" font-family="MetricWeb,sans-serif" fill-opacity="0.6" font-size="12" text-anchor="start">2012</text></g><g class="tick" style="" transform="translate(191.23545516769335,0)"><line y2="6" x2="0" fill="none" stroke="#000" stroke-opacity="0.2"/><text dy="0" style="" y="20" x="0" font-family="MetricWeb,sans-serif" fill-opacity="0.6" font-size="12" text-anchor="start">2014</text></g><g class="tick" style="" transform="translate(233.7063655030801,0)"><line y2="6" x2="0" fill="none" stroke="#000" stroke-opacity="0.2"/><text dy="0" style="" y="20" x="0" font-family="MetricWeb,sans-serif" fill-opacity="0.6" font-size="12" text-anchor="start">2016</text></g><path class="domain" d="M0,0V0H255V0" fill="none" stroke="#74736c"/></g><g transform="translate(255,0)" class="y axis"><g class="tick" style="" transform="translate(0,120)"><line x2="-255" y2="0" fill="none" stroke="#000" stroke-opacity="0.2"/><text dy="0" style="text-anchor: start;" x="3" y="0" font-family="MetricWeb,sans-serif" fill-opacity="0.6" font-size="12">0</text></g><g class="tick" style="" transform="translate(0,77.5)"><line x2="-255" y2="0" fill="none" stroke="#000" stroke-opacity="0.2"/><text dy="0" style="text-anchor: start;" x="3" y="0" font-family="MetricWeb,sans-serif" fill-opacity="0.6" font-size="12">10</text></g><g class="tick" style="" transform="translate(0,35)"><line x2="-255" y2="0" fill="none" stroke="#000" stroke-opacity="0.2"/><text dy="0" style="text-anchor: start;" x="3" y="0" font-family="MetricWeb,sans-serif" fill-opacity="0.6" font-size="12">20</text></g><path class="domain" d="M-255,1H0V120H-255" fill="none" stroke="#000" stroke-opacity="0"/><line class="highlight-line" x1="0" x2="-255" y1="120" y2="120" fill="none" stroke="#74736c"/></g><g><path d="M1.745,60.075L3.374,78.265L5.178,70.105L6.923,70.105L8.727,68.575L10.472,69.68L12.276,67.045L14.079,74.865L15.825,73.335L17.628,77.5L19.374,71.635L21.177,64.623L22.981,79.795L24.61,75.035L26.413,70.7L28.159,68.745L29.962,66.96L31.708,65.26L33.511,65.6L35.315,59.225L37.06,63.008L38.864,62.54L40.609,66.11L42.413,64.623L44.216,46.475L45.845,53.36L47.649,65.77L49.394,60.67L51.198,57.568L52.943,56.038L54.747,56.208L56.55,59.268L58.296,60.458L60.099,62.115L61.845,62.328L63.648,65.6L65.452,73.505L67.139,70.912L68.943,57.908L70.688,67.045L72.491,69.34L74.237,77.033L76.04,76.013L77.844,80.9L79.589,86.893L81.393,102.278L83.138,109.673L84.942,108.95L86.745,93.777L88.374,91.228L90.178,76.778L91.923,80.432L93.727,77.16L95.472,57.44L97.276,55.825L99.079,47.495L100.825,45.115L102.628,28.795L104.374,6.015L106.177,6.1L107.981,12.9L109.61,29.007L111.413,45.285L113.159,35.085L114.962,38.57L116.708,60.67L118.511,63.73L120.315,62.71L122.06,72.655L123.864,74.44L125.609,69.17L127.413,73.08L129.216,67.3L130.845,64.07L132.649,58.205L134.394,65.77L136.198,65.685L137.943,58.97L139.747,63.305L141.55,69.255L143.296,66.45L145.099,71.04L146.845,75.12L148.648,70.105L150.452,81.58L152.139,77.755L153.943,79.625L155.688,89.825L157.491,86.85L159.237,95.52L161.04,94.415L162.844,94.585L164.589,94.245L166.393,85.49L168.138,80.73L169.942,80.815L171.745,84.13L173.374,93.735L175.178,92.375L176.923,88.72L178.727,94.67L180.472,87.445L182.276,81.41L184.079,69.255L185.825,77.075L187.628,77.67L189.374,83.11L191.177,81.07L192.981,89.4L194.61,91.61L196.413,92.205L198.159,94.798L199.962,88.932L201.708,89.273L203.511,94.883L205.315,103.68L207.06,95.817L208.864,100.705L210.609,101.64L212.413,103.51L214.216,98.878L215.845,104.275L217.649,112.308L219.394,102.873L221.198,107.038L222.943,108.398L224.747,109.333L226.55,106.868L228.296,115.07L230.099,113.795L231.845,109.885L233.648,110.523L235.452,105.253L237.139,104.572L238.943,92.035L240.688,102.83L242.491,101.13L244.237,96.285L246.04,88.805" stroke-width="2" fill="none" stroke="#af516c"/></g></g></svg>