<?xml-stylesheet type="text/css" href="https://ig.ft.com/graphics/bloomberg-economics/chart-style.css" ?><svg xmlns="http://www.w3.org/2000/svg" viewBox="0 0 304 270"><text class="chart-title" fill="#43423e" font-size="20" y="22">李克强指数</text><text class="chart-subtitle" fill="#43423e" font-size="15" y="42">年度变化%</text><text class="chart-source" font-size="10" fill-opacity="0.4" y="265">来源：彭博，2017/03/27</text><g transform="translate(1,100)"><g transform="translate(0,120)" class="x axis"><g class="tick" style="" transform="translate(19.602990732940185,0)"><line y2="6" x2="0" fill="none" stroke="#000" stroke-opacity="0.2"/><text dy="0" style="" y="20" x="0" font-family="MetricWeb,sans-serif" fill-opacity="0.6" font-size="12" text-anchor="start">2006</text></g><g class="tick" style="" transform="translate(58.808972198820555,0)"><line y2="6" x2="0" fill="none" stroke="#000" stroke-opacity="0.2"/><text dy="0" style="" y="20" x="0" font-family="MetricWeb,sans-serif" fill-opacity="0.6" font-size="12" text-anchor="start">2008</text></g><g class="tick" style="" transform="translate(98.06866048862679,0)"><line y2="6" x2="0" fill="none" stroke="#000" stroke-opacity="0.2"/><text dy="0" style="" y="20" x="0" font-family="MetricWeb,sans-serif" fill-opacity="0.6" font-size="12" text-anchor="start">2010</text></g><g class="tick" style="" transform="translate(137.27464195450716,0)"><line y2="6" x2="0" fill="none" stroke="#000" stroke-opacity="0.2"/><text dy="0" style="" y="20" x="0" font-family="MetricWeb,sans-serif" fill-opacity="0.6" font-size="12" text-anchor="start">2012</text></g><g class="tick" style="" transform="translate(176.5343302443134,0)"><line y2="6" x2="0" fill="none" stroke="#000" stroke-opacity="0.2"/><text dy="0" style="" y="20" x="0" font-family="MetricWeb,sans-serif" fill-opacity="0.6" font-size="12" text-anchor="start">2014</text></g><g class="tick" style="" transform="translate(215.74031171019377,0)"><line y2="6" x2="0" fill="none" stroke="#000" stroke-opacity="0.2"/><text dy="0" style="" y="20" x="0" font-family="MetricWeb,sans-serif" fill-opacity="0.6" font-size="12" text-anchor="start">2016</text></g><g class="tick" style="" transform="translate(255,0)"><line y2="6" x2="0" fill="none" stroke="#000" stroke-opacity="0.2"/><text dy="0" style="" y="20" x="0" font-family="MetricWeb,sans-serif" fill-opacity="0.6" font-size="12" text-anchor="start">2018</text></g><path class="domain" d="M0,0V0H255V0" fill="none" stroke="#74736c"/></g><g transform="translate(255,0)" class="y axis"><g class="tick" style="" transform="translate(0,120)"><line x2="-255" y2="0" fill="none" stroke="#000" stroke-opacity="0.2"/><text dy="0" style="text-anchor: start;" x="3" y="0" font-family="MetricWeb,sans-serif" fill-opacity="0.6" font-size="12">0</text></g><g class="tick" style="" transform="translate(0,77.5)"><line x2="-255" y2="0" fill="none" stroke="#000" stroke-opacity="0.2"/><text dy="0" style="text-anchor: start;" x="3" y="0" font-family="MetricWeb,sans-serif" fill-opacity="0.6" font-size="12">10</text></g><g class="tick" style="" transform="translate(0,35)"><line x2="-255" y2="0" fill="none" stroke="#000" stroke-opacity="0.2"/><text dy="0" style="text-anchor: start;" x="3" y="0" font-family="MetricWeb,sans-serif" fill-opacity="0.6" font-size="12">20</text></g><path class="domain" d="M-255,1H0V120H-255" fill="none" stroke="#000" stroke-opacity="0"/><line class="highlight-line" x1="0" x2="-255" y1="120" y2="120" fill="none" stroke="#74736c"/></g><g><path d="M1.611,60.075L3.115,78.265L4.78,70.105L6.391,70.105L8.056,68.575L9.667,69.68L11.332,67.045L12.997,74.865L14.608,73.335L16.273,77.5L17.884,71.635L19.549,64.623L21.214,79.795L22.718,75.035L24.383,70.7L25.994,68.745L27.659,66.96L29.27,65.26L30.935,65.6L32.6,59.225L34.211,63.008L35.876,62.54L37.487,66.11L39.152,64.623L40.817,46.475L42.321,53.36L43.986,65.77L45.597,60.67L47.262,57.568L48.873,56.038L50.538,56.208L52.203,59.268L53.814,60.458L55.479,62.115L57.09,62.328L58.755,65.6L60.42,73.505L61.978,70.912L63.643,57.908L65.254,67.045L66.919,69.34L68.53,77.033L70.195,76.013L71.86,80.9L73.471,86.893L75.136,102.278L76.747,109.673L78.412,108.95L80.077,93.777L81.581,91.228L83.246,76.778L84.857,80.432L86.522,77.16L88.133,57.44L89.798,55.825L91.463,47.495L93.074,45.115L94.739,28.795L96.35,6.015L98.015,6.1L99.68,12.9L101.184,29.007L102.849,45.285L104.46,35.085L106.125,38.57L107.736,60.67L109.401,63.73L111.066,62.71L112.677,72.655L114.342,74.44L115.953,69.17L117.618,73.08L119.283,67.3L120.787,64.07L122.452,58.205L124.063,65.77L125.728,65.685L127.339,58.97L129.004,63.305L130.669,69.255L132.28,66.45L133.945,71.04L135.556,75.12L137.221,70.105L138.886,81.58L140.443,77.755L142.108,79.625L143.719,89.825L145.384,86.85L146.996,95.52L148.66,94.415L150.325,94.585L151.937,94.245L153.602,85.49L155.213,80.73L156.878,80.815L158.543,84.13L160.046,93.735L161.711,92.375L163.322,88.72L164.987,94.67L166.599,87.445L168.263,81.41L169.928,69.255L171.54,77.075L173.205,77.67L174.816,83.11L176.481,81.07L178.146,89.4L179.649,91.61L181.314,92.205L182.925,94.798L184.59,88.932L186.202,89.273L187.866,94.883L189.531,103.68L191.143,95.817L192.807,100.705L194.419,101.64L196.084,103.51L197.749,98.878L199.252,104.275L200.917,112.308L202.528,102.873L204.193,107.038L205.805,108.398L207.469,109.333L209.134,106.868L210.746,115.07L212.41,113.795L214.022,109.885L215.687,110.523L217.352,105.253L218.909,104.572L220.574,92.035L222.185,102.83L223.85,101.13L225.461,96.285L227.126,88.805L228.791,81.75L230.402,78.095L232.067,75.035L233.678,73.505L235.343,74.44L237.008,77.288L238.512,65.388" stroke-width="2" fill="none" stroke="#af516c"/></g></g></svg>