<?xml-stylesheet type="text/css" href="https://ig.ft.com/graphics/bloomberg-economics/chart-style.css" ?><svg xmlns="http://www.w3.org/2000/svg" viewBox="0 0 304 270"><text class="chart-title" fill="#43423e" font-size="20" y="22">人民币对美元</text><text class="chart-subtitle" fill="#43423e" font-size="15" y="42">1美元对人民币</text><text class="chart-source" font-size="10" fill-opacity="0.4" y="265">来源：彭博，2016/12/20</text><g transform="translate(1,100)"><g transform="translate(0,120)" class="x axis"><g class="tick" style="" transform="translate(21.235455167693363,0)"><line y2="6" x2="0" fill="none" stroke="#000" stroke-opacity="0.2"/><text dy="0" style="" y="20" x="0" font-family="MetricWeb,sans-serif" fill-opacity="0.6" font-size="12" text-anchor="start">2006</text></g><g class="tick" style="" transform="translate(63.706365503080086,0)"><line y2="6" x2="0" fill="none" stroke="#000" stroke-opacity="0.2"/><text dy="0" style="" y="20" x="0" font-family="MetricWeb,sans-serif" fill-opacity="0.6" font-size="12" text-anchor="start">2008</text></g><g class="tick" style="" transform="translate(106.23545516769336,0)"><line y2="6" x2="0" fill="none" stroke="#000" stroke-opacity="0.2"/><text dy="0" style="" y="20" x="0" font-family="MetricWeb,sans-serif" fill-opacity="0.6" font-size="12" text-anchor="start">2010</text></g><g class="tick" style="" transform="translate(148.70636550308006,0)"><line y2="6" x2="0" fill="none" stroke="#000" stroke-opacity="0.2"/><text dy="0" style="" y="20" x="0" font-family="MetricWeb,sans-serif" fill-opacity="0.6" font-size="12" text-anchor="start">2012</text></g><g class="tick" style="" transform="translate(191.23545516769335,0)"><line y2="6" x2="0" fill="none" stroke="#000" stroke-opacity="0.2"/><text dy="0" style="" y="20" x="0" font-family="MetricWeb,sans-serif" fill-opacity="0.6" font-size="12" text-anchor="start">2014</text></g><g class="tick" style="" transform="translate(233.7063655030801,0)"><line y2="6" x2="0" fill="none" stroke="#000" stroke-opacity="0.2"/><text dy="0" style="" y="20" x="0" font-family="MetricWeb,sans-serif" fill-opacity="0.6" font-size="12" text-anchor="start">2016</text></g><path class="domain" d="M0,0V0H255V0" fill="none" stroke="#74736c"/></g><g transform="translate(255,0)" class="y axis"><g class="tick" style="" transform="translate(0,120)"><line x2="-255" y2="0" fill="none" stroke="#000" stroke-opacity="0.2"/><text dy="0" style="text-anchor: start;" x="3" y="0" font-family="MetricWeb,sans-serif" fill-opacity="0.6" font-size="12">6</text></g><g class="tick" style="" transform="translate(0,80.33333333333334)"><line x2="-255" y2="0" fill="none" stroke="#000" stroke-opacity="0.2"/><text dy="0" style="text-anchor: start;" x="3" y="0" font-family="MetricWeb,sans-serif" fill-opacity="0.6" font-size="12">7</text></g><g class="tick" style="" transform="translate(0,40.66666666666667)"><line x2="-255" y2="0" fill="none" stroke="#000" stroke-opacity="0.2"/><text dy="0" style="text-anchor: start;" x="3" y="0" font-family="MetricWeb,sans-serif" fill-opacity="0.6" font-size="12">8</text></g><g class="tick" style="" transform="translate(0,1)"><line x2="-255" y2="0" fill="none" stroke="#000" stroke-opacity="0.2"/><text dy="0" style="text-anchor: start;" x="3" y="0" font-family="MetricWeb,sans-serif" fill-opacity="0.6" font-size="12">9</text></g><path class="domain" d="M-255,1H0V120H-255" fill="none" stroke="#000" stroke-opacity="0"/></g><g><path d="M0.116,29.699L0.175,29.699L0.233,29.703L0.291,29.699L0.349,29.699L0.524,29.703L0.582,29.699L0.64,29.699L0.698,29.703L0.756,29.699L0.931,29.703L0.989,29.707L1.047,29.703L1.105,29.699L1.164,29.703L1.338,29.703L1.396,29.699L1.454,29.699L1.513,29.699L1.571,29.699L1.745,29.703L1.804,29.699L1.862,29.699L1.92,29.699L1.978,29.699L2.153,29.699L2.211,29.699L2.269,29.699L2.327,29.699L2.385,29.699L2.56,29.699L2.618,29.699L2.676,29.699L2.734,29.699L2.793,29.699L2.967,29.699L3.025,29.699L3.084,29.699L3.142,29.699L3.2,29.699L3.374,29.699L3.433,29.699L3.491,29.699L3.549,29.699L3.607,29.699L3.782,29.699L3.84,29.699L3.898,29.699L3.956,29.699L4.014,29.699L4.189,29.699L4.247,29.699L4.305,29.703L4.363,29.699L4.422,29.703L4.596,29.699L4.654,29.699L4.713,29.699L4.771,29.699L4.829,29.699L5.003,29.703L5.062,29.695L5.12,29.699L5.178,29.703L5.236,29.699L5.411,29.695L5.469,29.699L5.527,29.703L5.585,29.703L5.643,29.703L5.818,29.699L5.876,29.699L5.934,29.699L5.992,29.703L6.051,29.699L6.225,29.703L6.283,29.703L6.342,29.699L6.4,29.703L6.458,29.703L6.632,29.699L6.691,29.699L6.749,29.703L6.807,29.699L6.865,29.703L7.04,29.699L7.098,29.699L7.156,29.699L7.214,29.699L7.272,29.699L7.447,29.699L7.505,29.703L7.563,29.699L7.621,29.703L7.68,29.699L7.854,29.703L7.912,29.699L7.971,29.699L8.029,29.703L8.087,29.703L8.261,29.703L8.32,29.699L8.378,29.699L8.436,29.699L8.494,29.703L8.669,29.707L8.727,29.691L8.785,29.699L8.843,29.703L8.901,29.703L9.076,29.699L9.134,29.703L9.192,29.703L9.251,29.703L9.309,29.699L9.483,29.703L9.541,29.703L9.6,29.699L9.658,29.699L9.716,29.699L9.89,29.699L9.949,29.699L10.007,29.699L10.065,29.703L10.123,29.699L10.298,29.699L10.356,29.699L10.414,29.699L10.472,29.703L10.53,29.703L10.705,29.703L10.763,29.703L10.821,29.699L10.88,29.699L10.938,29.699L11.112,29.699L11.17,29.699L11.229,29.703L11.287,29.699L11.345,29.707L11.52,29.699L11.578,29.699L11.636,29.699L11.694,36.303L11.752,36.26L11.927,36.315L11.985,36.307L12.043,36.192L12.101,36.383L12.159,36.478L12.334,36.518L12.392,36.573L12.45,36.498L12.509,36.593L12.567,36.553L12.741,36.343L12.799,36.422L12.858,36.454L12.916,36.692L12.974,36.779L13.149,36.815L13.207,36.692L13.265,36.712L13.323,36.672L13.381,36.514L13.556,36.478L13.614,36.652L13.672,36.68L13.73,36.692L13.789,36.839L13.963,36.882L14.021,36.807L14.079,36.708L14.138,36.902L14.196,36.958L14.37,37.033L14.428,37.045L14.487,36.998L14.545,36.918L14.603,36.875L14.778,37.001L14.836,36.938L14.894,37.049L14.952,37.148L15.01,37.212L15.185,37.073L15.243,37.136L15.301,37.136L15.359,37.172L15.418,37.057L15.592,36.982L15.65,37.017L15.708,36.942L15.767,36.978L15.825,37.017L15.999,37.017L16.057,37.017L16.116,37.017L16.174,37.017L16.232,37.017L16.407,37.239L16.465,37.18L16.523,37.117L16.581,37.156L16.639,37.113L16.814,37.188L16.872,37.057L16.93,37.057L16.988,37.077L17.047,37.156L17.221,37.033L17.279,37.093L17.337,37.228L17.396,37.247L17.454,37.335L17.628,37.315L17.687,37.255L17.745,37.291L17.803,37.331L17.861,37.271L18.036,37.188L18.094,37.228L18.152,37.267L18.21,37.307L18.268,37.271L18.443,37.37L18.501,37.315L18.559,37.354L18.617,37.315L18.676,37.366L18.85,37.362L18.908,37.339L18.966,37.43L19.025,37.473L19.083,37.434L19.257,37.394L19.316,37.509L19.374,37.477L19.432,37.501L19.49,37.47L19.665,37.462L19.723,37.573L19.781,37.608L19.839,37.573L19.897,37.632L20.072,37.612L20.13,37.688L20.188,37.708L20.246,37.731L20.305,37.751L20.479,37.771L20.537,37.731L20.595,37.632L20.654,37.592L20.712,37.644L20.886,37.672L20.945,37.731L21.003,37.791L21.061,37.854L21.119,37.882L21.294,37.882L21.352,37.882L21.41,37.985L21.468,38.061L21.526,38.017L21.701,38.124L21.759,38.061L21.817,37.961L21.875,38.053L21.934,37.957L22.108,38.049L22.166,38.029L22.225,37.949L22.283,37.997L22.341,38.283L22.515,38.1L22.574,38.231L22.632,38.211L22.69,38.207L22.748,38.223L22.923,38.255L22.981,38.255L23.039,38.255L23.097,38.255L23.155,38.223L23.33,38.465L23.388,38.422L23.446,38.505L23.504,38.537L23.563,38.664L23.737,38.85L23.795,38.743L23.854,38.806L23.912,38.707L23.97,38.751L24.144,38.783L24.203,38.822L24.261,38.783L24.319,38.763L24.377,38.985L24.552,39.052L24.61,39.072L24.668,39.203L24.726,39.215L24.784,39.211L24.959,39.219L25.017,38.985L25.075,38.759L25.133,38.723L25.192,38.664L25.366,38.664L25.424,38.79L25.483,39.171L25.541,39.12L25.599,39.413L25.773,39.711L25.832,39.568L25.89,39.548L25.948,39.568L26.006,39.477L26.181,39.818L26.239,39.85L26.297,39.639L26.355,39.604L26.413,39.984L26.588,39.877L26.646,40L26.704,40.322L26.762,40.349L26.821,40.226L26.995,40.413L27.053,40.468L27.112,40.191L27.17,39.933L27.228,39.937L27.402,39.853L27.461,39.715L27.519,40.131L27.577,40.21L27.635,39.992L27.81,40.072L27.868,40.111L27.926,39.941L27.984,40.028L28.042,40.111L28.217,40.111L28.275,40.111L28.333,40.111L28.392,40.111L28.45,40.111L28.624,40.389L28.682,40.492L28.741,40.52L28.799,40.516L28.857,40.425L29.031,40.548L29.09,40.548L29.148,40.568L29.206,40.27L29.264,39.794L29.439,39.635L29.497,39.715L29.555,39.615L29.613,39.921L29.671,39.675L29.846,39.83L29.904,39.635L29.962,39.973L30.021,39.857L30.079,39.754L30.253,40.361L30.311,40.107L30.37,39.984L30.428,40.314L30.486,40.222L30.661,39.921L30.719,40.528L30.777,40.647L30.835,40.607L30.893,40.587L31.068,40.429L31.126,40.552L31.184,40.786L31.242,40.809L31.3,40.659L31.475,40.587L31.533,40.734L31.591,40.73L31.65,40.845L31.708,40.893L31.882,40.56L31.94,40.686L31.999,40.833L32.057,40.964L32.115,41.226L32.29,41.063L32.348,41.02L32.406,40.996L32.464,40.968L32.522,40.746L32.697,40.476L32.755,40.726L32.813,40.595L32.871,40.98L32.93,40.595L33.104,41.258L33.162,41.174L33.22,41.282L33.279,41.678L33.337,41.817L33.511,41.896L33.569,41.674L33.628,41.805L33.686,41.587L33.744,41.523L33.919,41.9L33.977,41.817L34.035,41.734L34.093,41.857L34.151,41.619L34.326,40.952L34.384,40.607L34.442,41.123L34.5,41.912L34.559,41.678L34.733,42.031L34.791,41.996L34.849,41.861L34.908,41.757L34.966,41.623L35.14,41.829L35.198,42.166L35.257,42.293L35.315,42.543L35.373,42.523L35.548,43.106L35.606,42.698L35.664,42.876L35.722,43.011L35.78,42.709L35.955,42.483L36.013,42.801L36.071,42.706L36.129,42.809L36.188,42.928L36.362,42.777L36.42,43.217L36.478,43.582L36.537,43.709L36.595,43.86L36.769,43.792L36.828,44.217L36.886,44.554L36.944,44.772L37.002,44.475L37.177,44.475L37.235,44.475L37.293,44.475L37.351,44.475L37.409,44.475L37.584,44.653L37.642,44.237L37.7,44.042L37.758,44.046L37.817,44.574L37.991,44.249L38.049,44.284L38.107,44.364L38.166,44.276L38.224,44.582L38.398,44.669L38.457,44.534L38.515,44.554L38.573,44.836L38.631,45.07L38.806,45.617L38.864,45.45L38.922,45.688L38.98,45.637L39.038,45.768L39.213,45.411L39.271,45.605L39.329,45.942L39.387,45.958L39.446,46.006L39.62,46.049L39.678,45.978L39.736,45.903L39.795,45.867L39.853,45.76L40.027,45.665L40.086,45.784L40.144,46.022L40.202,46.164L40.26,46.502L40.435,46.914L40.493,46.803L40.551,47.335L40.609,47.287L40.667,47.489L40.842,47.485L40.9,47.795L40.958,47.664L41.016,47.723L41.075,47.672L41.249,47.235L41.307,47.366L41.366,47.521L41.424,47.787L41.482,47.37L41.656,47.787L41.715,47.696L41.773,48.005L41.831,47.938L41.889,47.866L42.064,47.787L42.122,47.87L42.296,48.421L42.471,47.965L42.529,48.398L42.587,48.398L42.645,48.382L42.704,48.414L42.878,48.033L42.936,48.374L42.995,48.326L43.053,48.814L43.111,48.711L43.285,48.878L43.344,49.016L43.402,49.477L43.46,49.762L43.518,49.683L43.693,49.699L43.751,49.52L43.809,49.695L43.867,49.798L43.925,49.643L44.1,49.493L44.158,49.604L44.216,49.643L44.274,50.29L44.333,50.437L44.507,50.214L44.565,50.345L44.624,50.679L44.682,50.675L44.74,50.587L44.914,50.329L44.973,50.226L45.031,50.119L45.089,50.46L45.322,50.873L45.38,50.758L45.438,50.798L45.496,50.798L45.554,50.877L45.729,50.603L45.787,50.841L45.845,50.913L45.903,50.825L45.962,50.679L46.136,50.762L46.194,50.817L46.253,50.988L46.311,50.976L46.369,50.738L46.543,50.579L46.602,50.809L46.66,50.996L46.718,50.837L46.776,51.139L46.951,51.103L47.009,50.984L47.067,51.202L47.125,51.5L47.183,51.416L47.358,51.028L47.416,51.25L47.474,51.416L47.533,51.48L47.591,51.317L47.765,51.285L47.823,51.234L47.882,51.214L47.94,51.452L47.998,51.583L48.172,51.218L48.231,51.178L48.289,51.535L48.347,51.575L48.405,51.686L48.58,51.436L48.638,51.329L48.696,51.734L48.754,51.872L48.812,51.849L48.987,51.642L49.045,51.547L49.103,51.896L49.162,51.337L49.22,51.765L49.394,52.436L49.452,52.309L49.511,52.349L49.569,52.269L49.627,52.428L49.802,52.412L49.86,52.721L49.918,52.813L49.976,52.753L50.034,53.241L50.209,53.086L50.267,53.13L50.325,53.301L50.383,53.614L50.441,53.816L50.616,53.907L50.674,54.407L50.732,54.241L50.791,54.49L50.849,54.459L51.023,54.697L51.081,54.546L51.14,54.693L51.198,54.709L51.256,54.653L51.431,54.51L51.489,54.879L51.547,55.133L51.605,54.502L51.663,54.28L51.838,53.86L51.896,54.784L51.954,55.45L52.012,55.252L52.07,55.411L52.245,55.458L52.303,55.72L52.361,55.871L52.42,55.736L52.478,55.625L52.652,55.744L52.71,55.835L52.769,55.835L52.827,55.907L52.885,55.934L53.06,56.299L53.118,56.803L53.176,56.72L53.234,56.676L53.292,56.383L53.467,56.41L53.525,57.216L53.583,57.993L53.641,57.89L53.7,57.672L53.874,57.854L53.932,58.005L53.99,57.969L54.049,57.977L54.107,57.767L54.281,58.033L54.339,58.005L54.398,58.291L54.456,57.803L54.514,58.076L54.689,57.846L54.747,57.612L54.805,57.493L54.863,57.596L54.921,58.064L55.096,58.156L55.154,57.767L55.212,57.422L55.27,57.918L55.329,57.35L55.503,57.271L55.561,57.41L55.619,57.073L55.678,56.609L55.736,56.632L55.91,56.926L55.969,56.898L56.027,56.383L56.085,57.208L56.143,57.799L56.318,58.057L56.376,58.223L56.434,58.505L56.492,58.663L56.55,58.715L56.725,58.711L56.783,58.473L56.841,58.501L56.899,58.953L56.958,59.001L57.132,59.651L57.19,59.627L57.248,59.627L57.307,60.036L57.365,59.873L57.539,59.615L57.598,59.631L57.656,59.965L57.714,60.032L57.772,60.357L57.947,60.187L58.005,59.953L58.063,59.953L58.121,59.941L58.179,60.083L58.412,60.258L58.761,60.325L58.819,59.913L58.877,60.08L58.936,60.337L58.994,60.087L59.168,59.405L59.227,59.754L59.285,59.873L59.343,60.052L59.401,60.183L59.576,60.111L59.634,60.321L59.692,60.766L59.75,61.222L59.808,60.988L59.983,61.44L60.041,61.631L60.099,61.98L60.157,62.372L60.216,62.277L60.39,62.293L60.448,62.309L60.507,62.797L60.565,63.61L60.623,63.995L60.797,63.999L60.856,62.987L60.914,63.459L60.972,63.542L61.03,63.519L61.205,63.404L61.263,63.646L61.321,63.899L61.379,64.022L61.437,64.252L61.612,64.407L61.67,64.955L61.728,64.562L61.786,65.181L61.845,64.788L62.019,64.292L62.077,64.613L62.136,64.959L62.194,64.018L62.252,64.411L62.426,64.514L62.485,65.232L62.543,65.478L62.601,65.756L62.659,65.605L62.834,65.145L62.892,65.03L62.95,65.268L63.008,65.72L63.066,65.744L63.241,66.426L63.299,67.343L63.357,66.72L63.415,67.791L63.474,68.271L63.648,68.287L63.706,68.271L63.765,68.683L63.823,69.492L63.881,69.461L64.055,69.584L64.114,69.738L64.172,69.917L64.23,69.604L64.288,69.937L64.463,70.329L64.521,70.738L64.579,71.111L64.637,70.484L64.695,70.714L64.87,70.952L64.928,70.849L64.986,71.115L65.044,71.289L65.103,71.991L65.277,72.531L65.335,72.63L65.394,72.737L65.452,73.122L65.51,72.947L65.684,72.856L65.743,73.031L65.801,73.035L65.859,73.035L65.917,73.035L66.092,73.035L66.15,73.015L66.208,72.503L66.266,72.777L66.324,73.094L66.499,73.895L66.557,74.125L66.615,74.625L66.674,74.689L66.732,74.709L66.906,74.145L66.964,74.062L67.023,74.701L67.081,75.835L67.139,75.938L67.313,76.208L67.372,76.156L67.43,76.049L67.488,76.129L67.546,75.926L67.721,76.248L67.779,76.252L67.837,76.275L67.895,76.545L67.953,76.601L68.128,77.021L68.186,77.101L68.244,77.826L68.303,78.291L68.361,78.172L68.535,78.108L68.593,78.58L68.652,79.127L68.71,79.873L68.768,79.849L68.943,79.857L69.001,79.869L69.059,79.599L69.117,79.707L69.175,79.707L69.35,80.274L69.408,80.298L69.466,80.27L69.524,80.663L69.582,79.941L69.757,80.373L69.815,80.631L69.873,80.655L69.932,80.976L69.99,80.587L70.164,80.329L70.222,80.797L70.281,81.024L70.339,80.591L70.397,79.953L70.572,80.187L70.63,80.897L70.688,80.817L70.746,80.829L70.804,80.829L70.979,80.813L71.037,80.817L71.095,80.841L71.153,80.131L71.211,80.659L71.386,80.793L71.444,80.746L71.502,80.226L71.561,80.54L71.619,80.766L71.793,81.305L71.851,81.305L71.91,81.968L71.968,82.59L72.026,82.646L72.201,82.844L72.259,82.067L72.317,82.527L72.375,82.793L72.433,82.63L72.608,82.983L72.666,83.3L72.724,82.741L72.782,82.448L72.841,83.384L73.015,83.388L73.073,83.292L73.131,83.582L73.19,84.006L73.248,84.213L73.422,84.268L73.48,84.637L73.539,85.006L73.597,85.177L73.655,85.085L73.83,85.331L73.888,85.49L73.946,85.657L74.004,85.637L74.062,85.803L74.237,86.109L74.295,86.026L74.353,85.938L74.411,86.244L74.47,85.93L74.644,85.657L74.702,86.24L74.76,86.006L74.819,86.565L74.877,86.918L75.051,86.68L75.11,87.426L75.168,87.818L75.226,87.12L75.284,87.596L75.459,87.1L75.517,87.402L75.575,87.081L75.633,87.12L75.691,87.521L75.866,86.898L75.924,87.247L75.982,87.184L76.04,87.001L76.099,86.553L76.273,86.22L76.331,86.065L76.389,86.343L76.448,85.716L76.506,85.958L76.68,85.978L76.739,85.752L76.797,85.95L76.855,85.815L76.913,85.363L77.088,85.125L77.146,85.657L77.204,86.093L77.262,86.501L77.32,86.918L77.495,86.39L77.553,86.244L77.611,86.763L77.669,87.132L77.728,86.692L77.902,87.243L77.96,86.652L78.018,86.525L78.077,86.831L78.135,86.7L78.309,86.525L78.368,86.747L78.426,86.736L78.484,86.422L78.542,86.513L78.717,86.521L78.775,86.478L78.833,86.716L78.891,86.7L78.949,86.767L79.124,86.855L79.182,87.799L79.24,87.319L79.298,87.584L79.357,86.561L79.531,86.478L79.589,86.442L79.648,86.478L79.706,86.478L79.764,86.39L79.938,86.565L79.997,87.588L80.055,87.576L80.113,87.461L80.171,86.839L80.346,87.243L80.404,86.926L80.462,87.001L80.52,87.081L80.578,86.95L80.753,87.081L80.811,86.926L80.869,86.91L80.927,86.855L80.986,86.529L81.16,86.2L81.218,86.736L81.277,86.343L81.335,86.644L81.393,86.728L81.567,86.755L81.626,86.831L81.684,87.14L81.742,87.267L81.8,87.247L81.975,87.204L82.033,87.263L82.091,87.085L82.149,87.081L82.207,87.275L82.382,87.192L82.44,87.148L82.498,87.073L82.556,86.906L82.615,87.033L82.789,87.136L82.847,87.235L82.906,87.136L82.964,87.152L83.022,86.89L83.196,84.927L83.255,84.808L83.313,85.006L83.371,85.006L83.429,85.046L83.604,85.058L83.662,85.351L83.72,85.744L83.778,86.208L83.836,86.545L84.011,86.283L84.069,86.454L84.127,86.851L84.185,87.104L84.244,86.45L84.418,86.212L84.476,86.331L84.535,86.688L84.593,87.045L84.651,86.628L84.825,86.18L84.884,87.041L84.942,87.168L85,87.196L85.058,87.077L85.233,87.029L85.291,86.823L85.349,86.926L85.407,86.89L85.465,86.847L85.64,86.799L85.698,86.894L85.756,86.882L85.815,86.819L85.873,86.775L86.047,86.835L86.105,86.636L86.164,86.767L86.222,86.795L86.28,86.319L86.454,86.208L86.513,86.208L86.571,86.505L86.629,86.759L86.687,86.208L86.862,86.371L86.92,86.672L86.978,86.926L87.036,86.811L87.094,86.882L87.269,86.922L87.327,86.97L87.385,86.946L87.444,86.918L87.502,86.934L87.676,86.914L87.734,86.621L87.793,86.763L87.851,86.862L87.909,86.791L88.084,86.712L88.142,86.775L88.2,86.779L88.258,86.712L88.316,86.68L88.491,86.474L88.549,86.624L88.607,86.545L88.665,86.648L88.723,86.688L88.898,86.636L88.956,86.672L89.014,86.656L89.073,86.724L89.131,86.751L89.305,86.747L89.363,86.795L89.422,86.886L89.48,87.14L89.538,87.164L89.713,86.946L89.771,87.093L89.829,87.033L89.887,86.997L89.945,86.978L90.12,86.819L90.178,86.922L90.236,86.906L90.294,86.894L90.352,86.874L90.527,86.886L90.585,86.819L90.643,86.839L90.702,86.89L90.76,86.93L90.934,86.87L90.992,86.985L91.051,86.978L91.109,86.974L91.167,86.978L91.342,86.942L91.4,87.005L91.458,87.085L91.516,87.077L91.574,87.188L91.749,87.188L91.807,87.204L91.865,87.295L91.923,87.434L92.156,87.382L92.214,87.505L92.272,87.402L92.331,87.402L92.389,87.406L92.563,87.315L92.621,87.402L92.68,87.382L92.738,87.279L92.796,87.235L92.971,87.196L93.029,87.291L93.087,87.271L93.145,87.287L93.203,87.346L93.378,87.319L93.436,86.954L93.494,87.14L93.552,87.12L93.611,87.112L93.785,87.208L93.843,87.049L93.901,87.041L93.96,86.93L94.018,86.954L94.192,86.787L94.251,86.862L94.309,86.95L94.367,86.807L94.425,86.87L94.6,86.827L94.658,86.938L94.716,86.795L94.774,86.878L94.832,86.827L95.007,86.847L95.065,86.886L95.123,86.958L95.181,86.89L95.24,86.918L95.414,86.93L95.472,87.057L95.53,86.954L95.589,87.025L95.647,86.993L95.821,86.902L95.88,86.966L95.938,86.962L95.996,87.005L96.054,86.97L96.229,86.966L96.287,86.962L96.345,86.997L96.403,87.029L96.461,87.009L96.636,86.997L96.694,87.057L96.752,87.025L96.81,87.037L96.869,87.013L97.043,87.033L97.101,87.041L97.159,86.981L97.218,86.985L97.276,86.993L97.45,87.045L97.509,87.073L97.567,87.033L97.625,87.025L97.683,87.001L97.858,86.906L97.916,86.874L97.974,86.874L98.032,86.93L98.09,86.902L98.265,86.831L98.323,86.926L98.381,86.914L98.439,87.005L98.498,87.025L98.672,87.021L98.73,86.997L98.789,87.033L98.847,87.005L98.905,87.073L99.079,87.045L99.138,87.061L99.196,87.037L99.254,87.057L99.312,87.077L99.487,87.116L99.545,87.172L99.603,87.128L99.661,87.104L99.719,87.116L99.894,87.116L99.952,87.116L100.01,87.239L100.068,87.212L100.127,87.164L100.301,87.116L100.359,87.196L100.418,87.231L100.476,87.184L100.534,87.132L100.708,87.18L100.767,87.156L100.825,87.219L100.883,87.215L100.941,87.219L101.116,87.219L101.174,87.223L101.232,87.215L101.29,87.235L101.348,87.255L101.523,87.342L101.581,87.212L101.639,87.219L101.697,87.14L101.756,87.204L101.93,87.204L101.988,87.212L102.047,87.176L102.105,87.112L102.163,87.132L102.337,87.164L102.396,87.096L102.454,87.152L102.512,87.156L102.57,87.176L102.745,87.16L102.803,87.16L102.861,87.196L102.919,87.172L102.977,87.18L103.152,87.196L103.21,87.204L103.268,87.239L103.326,87.208L103.385,87.223L103.559,87.2L103.617,87.212L103.676,87.196L103.734,87.136L103.792,87.16L103.966,87.033L104.025,87.061L104.083,87.184L104.141,87.212L104.199,87.136L104.374,87.18L104.432,87.227L104.49,87.223L104.548,87.196L104.606,87.196L104.781,87.1L104.839,87.172L104.897,87.172L104.956,87.204L105.014,87.168L105.188,87.144L105.246,87.156L105.305,87.156L105.363,87.136L105.421,87.152L105.595,87.132L105.654,87.164L105.712,87.14L105.77,87.16L105.828,87.192L106.003,87.069L106.061,87.104L106.119,87.255L106.177,87.192L106.41,87.184L106.468,87.188L106.526,87.18L106.585,87.176L106.643,87.172L106.817,87.223L106.875,87.192L106.934,87.208L106.992,87.188L107.05,87.196L107.225,87.2L107.283,87.168L107.341,87.192L107.399,87.2L107.457,87.196L107.632,87.196L107.69,87.204L107.748,87.2L107.806,87.204L107.864,87.2L108.039,87.176L108.097,87.188L108.155,87.212L108.214,87.2L108.272,87.215L108.446,87.212L108.504,87.204L108.563,86.997L108.621,86.922L108.679,86.942L108.854,87.196L108.912,87.069L108.97,86.958L109.028,87.196L109.086,86.958L109.261,87.215L109.319,87.215L109.377,87.196L109.435,87.204L109.493,87.231L109.668,87.223L109.726,87.212L109.784,87.243L109.843,87.215L109.901,87.215L110.075,87.219L110.133,87.219L110.192,87.235L110.25,87.212L110.308,87.251L110.483,87.227L110.541,87.235L110.599,87.239L110.657,87.219L110.715,87.212L110.89,87.208L110.948,87.219L111.006,87.208L111.064,87.192L111.123,87.192L111.297,87.215L111.355,87.243L111.413,87.239L111.472,87.219L111.53,87.247L111.762,87.243L111.821,87.259L111.879,87.303L111.937,87.331L112.112,87.243L112.17,87.251L112.228,87.243L112.286,87.231L112.344,87.255L112.519,87.176L112.577,87.259L112.635,87.172L112.693,87.219L112.752,87.18L112.926,87.212L112.984,87.243L113.042,87.259L113.101,87.235L113.159,87.263L113.333,87.263L113.392,87.204L113.45,87.219L113.508,87.212L113.566,87.243L113.741,87.212L113.799,87.104L113.857,87.188L113.915,87.156L113.973,87.212L114.148,87.168L114.206,87.18L114.264,87.176L114.322,87.168L114.381,87.164L114.555,87.128L114.613,87.017L114.671,87.116L114.73,87.029L114.788,87.017L114.962,87.164L115.021,87.053L115.079,87.085L115.137,87.144L115.195,87.124L115.37,86.981L115.428,87.093L115.486,87.156L115.544,87.049L115.602,86.958L115.777,86.946L115.835,86.946L115.893,86.946L115.951,87.112L116.01,87.231L116.184,88.39L116.242,87.751L116.3,87.711L116.359,88.263L116.417,88.58L116.591,88.425L116.65,88.358L116.708,88.989L116.766,89.024L116.824,89.393L116.999,89.227L117.057,89.04L117.115,89.175L117.173,89.207L117.231,89.338L117.406,89.413L117.464,89.357L117.522,89.266L117.58,89.135L117.639,89.27L117.813,89.112L117.871,89.127L117.93,89.191L117.988,89.072L118.046,89.064L118.22,89.1L118.279,89.123L118.337,89.143L118.395,89.215L118.453,89.278L118.628,89.278L118.686,89.322L118.744,89.314L118.802,89.401L118.86,89.512L119.035,89.56L119.093,89.373L119.151,89.258L119.209,88.87L119.268,88.417L119.442,87.977L119.5,88.584L119.559,88.588L119.617,88.632L119.675,88.644L119.849,88.267L119.908,88.39L119.966,88.31L120.024,88.283L120.082,88.346L120.257,88.136L120.315,87.957L120.373,87.838L120.431,87.961L120.489,88.128L120.664,88.755L120.722,88.616L120.78,88.497L120.838,88.945L120.897,89.473L121.071,89.782L121.129,90.373L121.188,90.516L121.246,91.242L121.304,91.238L121.478,91.674L121.537,91.991L121.595,92.59L121.653,92.67L121.711,92.63L121.886,92.594L121.944,92.578L122.002,92.737L122.06,92.547L122.118,92.828L122.293,92.563L122.351,92.61L122.409,93.007L122.467,93.086L122.526,93.376L122.7,93.503L122.758,93.288L122.817,93.649L122.875,94.169L122.933,94.57L123.107,94.443L123.166,94.431L123.224,94.114L123.282,94.221L123.34,93.88L123.515,93.887L123.573,93.721L123.631,93.007L123.689,92.745L123.747,93.404L123.922,92.606L123.98,93.078L124.038,93.138L124.097,93.733L124.155,93.923L124.329,93.011L124.387,94.478L124.446,94.847L124.504,95.276L124.562,94.681L124.736,94.459L124.795,94.669L124.853,94.482L124.911,94.875L124.969,94.637L125.144,94.498L125.202,94.459L125.26,94.074L125.318,94.205L125.376,93.479L125.551,93.804L125.609,93.53L125.667,93.689L125.726,93.768L125.784,93.709L125.958,94.268L126.016,94.387L126.075,93.705L126.133,94.006L126.191,94.006L126.366,93.709L126.424,94.118L126.482,93.959L126.54,93.622L126.598,93.661L126.773,93.324L126.831,93.86L126.889,94.137L126.947,94.415L127.005,95.153L127.18,94.958L127.238,95.208L127.296,95.228L127.355,95.922L127.413,95.922L127.587,95.922L127.645,95.803L127.704,95.434L127.762,95.192L127.82,94.931L127.995,94.812L128.053,95.486L128.111,95.704L128.169,96.24L128.227,96.299L128.402,96.438L128.46,96.696L128.518,96.87L128.576,96.755L128.634,96.716L128.809,96.795L128.867,96.795L128.925,96.874L128.984,96.835L129.042,96.755L129.216,96.398L129.274,96.351L129.333,96.843L129.391,96.795L129.449,96.843L129.624,96.708L129.682,96.755L129.74,96.668L129.798,96.755L129.856,96.49L130.031,96.319L130.089,96.569L130.147,96.7L130.205,96.858L130.264,97.196L130.438,97.402L130.496,96.954L130.554,97.124L130.613,96.95L130.671,97.152L130.845,97.315L130.903,97.39L130.962,97.295L131.02,97.311L131.078,97.469L131.253,97.664L131.311,97.442L131.369,97.295L131.427,97.251L131.485,97.212L131.66,97.386L131.718,97.307L131.776,97.334L131.834,97.156L131.893,97.406L132.067,97.731L132.125,97.953L132.183,97.807L132.242,97.695L132.3,97.894L132.474,97.588L132.533,97.739L132.591,97.941L132.649,98.251L132.707,98.275L132.882,98.382L132.94,98.556L132.998,98.405L133.056,98.485L133.114,98.755L133.289,98.651L133.347,98.556L133.405,98.842L133.463,98.925L133.522,98.909L133.696,99.024L133.754,98.953L133.812,99.143L133.871,99.31L133.929,99.865L134.103,98.885L134.162,99.06L134.22,99.699L134.278,100.103L134.336,100.476L134.511,100.464L134.569,100.29L134.627,100.44L134.685,100.417L134.743,100.436L134.918,100.397L134.976,100.492L135.034,100.444L135.092,100.214L135.151,100.242L135.325,99.853L135.383,99.933L135.441,99.992L135.5,99.984L135.558,100.484L135.732,99.901L135.791,100.262L135.849,100.397L135.907,100.456L135.965,100.5L136.14,100.833L136.198,101.016L136.256,101.039L136.314,100.849L136.372,100.968L136.547,101.178L136.605,100.904L136.663,101.131L136.721,101.123L136.78,100.956L136.954,100.841L137.012,100.96L137.07,100.885L137.129,101.226L137.187,101.131L137.361,101.008L137.42,101.547L137.478,101.607L137.536,101.444L137.594,101.186L137.769,100.984L137.827,101.349L137.885,101.618L137.943,101.599L138.001,101.555L138.176,101.638L138.234,101.428L138.292,101.484L138.35,101.523L138.409,101.563L138.583,101.472L138.641,101.273L138.7,101.448L138.758,101.849L138.816,101.615L138.99,101.396L139.049,101.611L139.107,101.797L139.165,102.09L139.223,102.261L139.398,102.356L139.456,102.471L139.514,102.432L139.572,102.451L139.63,102.666L139.805,102.789L139.863,102.622L139.921,102.777L139.979,102.626L140.038,102.519L140.212,102.713L140.27,102.908L140.329,103.419L140.387,104.383L140.445,104.538L140.619,104.494L140.678,104.827L140.736,104.641L140.794,104.597L140.852,104.435L141.027,104.098L141.085,104.177L141.143,104.57L141.201,104.514L141.259,104.629L141.434,104.883L141.492,104.899L141.55,105.002L141.608,104.871L141.667,104.843L141.841,104.697L141.899,104.518L141.958,104.332L142.016,104.784L142.074,104.593L142.248,103.975L142.307,104.181L142.365,104.264L142.423,104.443L142.481,104.784L142.656,104.661L142.714,104.768L142.772,104.855L142.83,104.617L142.888,104.597L143.063,104.07L143.121,104.193L143.179,104.371L143.238,104.236L143.296,104.879L143.47,105.72L143.528,105.561L143.587,105.68L143.645,105.918L143.703,105.72L143.877,106.2L143.936,105.105L143.994,105.724L144.052,104.804L144.11,104.946L144.285,105.327L144.343,104.923L144.401,104.994L144.459,104.764L144.517,104.78L144.692,105.085L144.75,105.696L144.808,105.962L144.867,105.712L144.925,105.72L145.099,105.926L145.157,105.91L145.216,105.875L145.274,106.339L145.332,106.513L145.507,106.077L145.565,106.256L145.623,106.494L145.681,106.228L145.739,106.43L145.914,105.914L145.972,106.236L146.03,106.311L146.088,106.057L146.146,105.914L146.321,105.66L146.379,105.645L146.437,105.783L146.496,105.486L146.554,104.97L146.728,104.72L146.786,105.046L146.845,104.954L146.903,105.454L146.961,105.716L147.136,105.569L147.194,105.534L147.252,105.518L147.31,105.605L147.368,105.545L147.543,105.688L147.601,105.494L147.659,105.272L147.717,105.188L147.775,106.085L147.95,106.628L148.008,106.252L148.066,106.549L148.125,106.529L148.183,106.616L148.357,107.323L148.415,107.231L148.474,107.231L148.532,107.346L148.59,108.298L148.765,108.064L148.823,108.179L148.881,108.326L148.939,108.052L148.997,107.723L149.172,107.525L149.23,107.509L149.288,107.489L149.346,107.378L149.405,107.838L149.579,107.446L149.637,107.541L149.695,107.636L149.754,107.465L149.812,106.664L149.986,106.553L150.044,107.553L150.103,107.882L150.161,107.687L150.219,107.763L150.394,106.791L150.452,107.775L150.51,107.799L150.568,108.021L150.626,107.985L150.801,107.6L150.859,107.91L150.917,108.338L150.975,108.294L151.034,108.108L151.208,108.187L151.266,108.1L151.324,108.096L151.383,108.033L151.441,108.136L151.615,108.033L151.674,108.227L151.732,108.255L151.79,108.16L151.848,108.195L152.023,108.029L152.081,108.128L152.139,108.346L152.197,108.088L152.255,108.163L152.43,107.826L152.488,107.775L152.546,107.703L152.604,107.449L152.663,107.652L152.837,107.045L152.895,107.021L152.953,106.827L153.012,106.95L153.07,107.192L153.244,107.204L153.303,107.132L153.361,107.208L153.419,108.124L153.477,107.799L153.652,107.505L153.71,107.822L153.768,107.878L153.826,107.846L153.884,108.16L154.059,108.556L154.117,108.647L154.175,108.239L154.233,107.549L154.292,107.87L154.466,107.759L154.524,107.672L154.582,107.787L154.641,107.806L154.699,107.989L154.873,107.493L154.932,108.021L154.99,107.981L155.048,107.949L155.106,107.759L155.281,107.759L155.339,107.787L155.397,107.929L155.455,107.874L155.513,107.707L155.688,108.913L155.746,108.996L155.804,107.803L155.862,107.882L155.921,107.858L156.095,107.791L156.153,107.779L156.211,107.711L156.27,107.537L156.328,107.691L156.502,107.251L156.561,107.386L156.619,107.235L156.677,107.1L156.735,106.981L156.91,107.013L156.968,107.188L157.026,106.724L157.084,106.307L157.142,106.339L157.317,106.303L157.375,106.192L157.433,105.799L157.491,105.383L157.55,105.339L157.724,105.561L157.782,105.43L157.841,105.565L157.899,105.569L157.957,105.311L158.131,105.355L158.19,105.304L158.248,105.367L158.306,105.304L158.364,105.51L158.539,105.819L158.597,105.93L158.655,105.728L158.713,105.526L158.771,105.553L158.946,105.589L159.004,105.613L159.062,105.823L159.12,105.823L159.179,105.958L159.353,106.172L159.411,106.018L159.47,106.216L159.528,105.879L159.586,105.53L159.76,105.276L159.819,105.494L159.877,105.379L159.935,105.177L159.993,104.954L160.168,104.974L160.226,105.2L160.284,105.343L160.342,105.208L160.4,105.173L160.575,104.689L160.633,104.693L160.691,104.59L160.749,104.764L160.808,104.899L160.982,104.946L161.04,105.653L161.099,105.375L161.157,105.426L161.215,105.224L161.389,105.169L161.448,105.458L161.506,105.668L161.564,105.748L161.622,105.712L161.797,105.613L161.855,105.764L161.913,105.629L161.971,105.47L162.029,105.783L162.204,105.748L162.262,105.875L162.32,106.045L162.379,105.986L162.437,105.93L162.611,105.843L162.669,105.994L162.728,106.045L162.786,106.133L162.844,106.172L163.018,106.497L163.077,106.224L163.135,106.148L163.193,106.394L163.251,106.406L163.426,106.605L163.484,106.704L163.542,107.037L163.6,106.91L163.658,107.501L163.833,107.418L163.891,107.366L163.949,107.711L164.008,107.981L164.066,107.886L164.24,107.731L164.298,107.866L164.357,108.025L164.415,108.005L164.473,108.707L165.055,108.612L165.113,108.56L165.171,108.144L165.229,109L165.287,109.457L165.462,109.322L165.52,109.548L165.578,109.913L165.637,110.028L165.695,109.945L165.869,109.905L165.927,110.032L165.986,110.175L166.044,110.401L166.102,110.107L166.277,110.337L166.335,110.476L166.393,110.587L166.451,110.492L166.509,110.417L166.684,110.27L166.742,110.262L166.8,110.337L166.858,110.365L166.916,110.361L167.091,110.897L167.149,110.988L167.207,111.067L167.266,110.722L167.324,110.659L167.498,110.686L167.556,110.762L167.615,110.861L167.673,110.916L167.731,110.944L167.906,111.055L167.964,111.182L168.022,111.115L168.08,111.135L168.138,111.035L168.313,110.928L168.371,111.051L168.429,111.055L168.487,110.948L168.546,111.103L168.72,110.476L168.778,110.278L168.836,110.024L168.895,110.774L168.953,110.242L169.127,110.599L169.185,110.778L169.244,110.841L169.302,110.853L169.36,110.869L169.535,110.75L169.593,110.714L169.651,110.662L169.709,110.599L169.767,110.789L169.942,110.853L170,110.575L170.058,110.754L170.116,110.778L170.175,110.853L170.349,110.885L170.407,111.111L170.465,111.031L170.524,111.095L170.582,111.44L170.756,111.261L170.815,111.444L170.873,111.337L170.931,111.46L170.989,111.349L171.164,111.206L171.222,111.25L171.28,111.333L171.338,111.257L171.396,111.178L171.571,111.087L171.629,111.019L171.687,111.257L171.745,111.313L171.804,110.984L171.978,110.77L172.036,110.833L172.094,110.797L172.153,110.758L172.211,110.662L172.385,110.781L172.444,110.785L172.502,110.778L172.56,110.774L172.618,110.591L172.793,110.381L172.851,110.301L172.909,110.563L172.967,110.488L173.025,110.524L173.2,110.742L173.258,110.893L173.316,110.996L173.374,111.206L173.433,111.154L173.607,111.071L173.665,111.23L173.723,111.353L173.782,111.269L173.84,111.42L174.014,111.333L174.073,111.42L174.131,111.503L174.189,111.436L174.247,111.392L174.422,111.495L174.48,111.44L174.538,111.599L174.596,111.511L174.654,111.591L174.829,111.642L174.887,111.599L174.945,111.519L175.003,111.499L175.062,111.662L175.236,111.737L175.294,112.083L175.352,112.011L175.411,111.829L175.469,111.829L175.643,111.916L175.702,111.975L175.76,112.309L175.818,112.217L175.876,112.38L176.051,112.586L176.109,112.733L176.167,113.15L176.225,112.816L176.283,112.951L176.458,112.789L176.516,112.9L176.574,112.935L176.632,113.233L176.691,113.451L176.865,113.455L176.923,113.423L177.04,113.828L177.098,113.804L177.272,113.392L177.331,113.903L177.389,114.395L177.447,114.808L177.505,114.379L177.68,114.197L177.738,114.332L177.796,114.205L177.854,114.09L177.912,114.399L178.087,114.474L178.145,114.562L178.203,114.796L178.261,114.665L178.32,114.732L178.494,115.196L178.552,115.169L178.611,114.966L178.669,114.784L178.727,114.665L178.901,114.792L178.96,114.895L179.018,114.943L179.076,114.605L179.134,114.716L179.483,114.649L179.541,114.808L179.716,115.065L179.774,114.895L179.832,114.95L179.89,114.899L179.949,114.728L180.123,114.268L180.181,114.252L180.24,114.145L180.298,114.094L180.356,114.546L180.53,114.724L180.589,114.705L180.647,114.824L180.705,115.026L180.763,114.732L180.938,114.693L180.996,114.851L181.054,114.665L181.112,114.776L181.17,114.518L181.345,114.534L181.403,114.641L181.461,114.645L181.52,114.407L181.578,114.506L181.752,114.395L181.81,114.55L181.869,114.609L181.927,114.653L181.985,114.78L182.159,114.748L182.218,114.784L182.276,114.887L182.334,114.827L182.392,114.851L182.567,115.054L182.625,115.177L182.683,115.26L182.741,115.216L182.799,115.161L182.974,115.157L183.032,115.173L183.09,115.26L183.149,115.518L183.207,115.466L183.381,115.133L183.439,115.05L183.498,115.081L183.556,115.188L183.614,115.161L183.789,115.212L183.847,115.188L183.905,115.248L183.963,115.224L184.021,115.228L184.196,115.24L184.254,115.224L184.312,115.28L184.37,115.296L184.428,115.26L184.603,115.2L184.661,115.22L184.719,115.28L184.778,115.319L184.836,115.292L185.01,115.232L185.068,115.2L185.127,115.2L185.185,115.192L185.243,115.22L185.418,115.212L185.476,115.264L185.534,115.26L185.592,115.216L185.65,115.296L185.825,115.204L185.883,115.177L185.941,115.192L185.999,115.212L186.057,115.081L186.232,115.169L186.29,115.177L186.348,115.244L186.407,115.395L186.465,115.3L186.639,115.577L186.697,115.934L186.756,116.025L186.814,116.148L186.872,116.176L187.047,116.259L187.105,116.299L187.163,116.593L187.221,116.763L187.279,116.684L187.454,116.593L187.512,116.406L187.57,116.248L187.628,116.279L187.687,116.065L187.861,116.113L187.919,116.014L187.977,116.287L188.036,116.371L188.094,116.398L188.268,116.374L188.326,116.367L188.385,116.371L188.443,116.327L188.501,116.331L188.676,116.351L188.734,116.299L188.792,116.303L188.85,116.319L188.908,116.287L189.083,116.303L189.141,116.355L189.199,116.315L189.257,116.331L189.316,116.271L189.49,116.299L189.548,116.339L189.606,116.394L189.665,116.363L189.723,116.72L189.897,117.116L189.956,117.176L190.014,117.148L190.072,117.168L190.13,117.156L190.305,117.136L190.363,117.18L190.421,117.188L190.479,117.172L190.537,117.2L190.712,117.192L190.77,117.168L190.828,117.164L190.886,117.092L190.945,117.251L191.119,117.533L191.177,117.846L191.235,117.81L191.294,117.985L191.352,117.949L191.526,117.917L191.585,117.969L191.643,117.973L191.701,117.802L191.759,117.933L191.934,118.255L191.992,118.39L192.05,118.167L192.108,117.779L192.166,118.025L192.341,117.906L192.399,118.009L192.457,117.957L192.515,117.929L192.574,118.08L192.748,118.128L192.806,117.981L192.864,117.822L192.923,117.608L192.981,117.572L193.155,117.596L193.214,117.568L193.272,117.612L193.33,117.533L193.388,117.465L193.563,117.608L193.621,117.612L193.679,117.513L193.737,117.465L193.795,117.374L193.97,117.461L194.028,117.323L194.086,116.969L194.144,116.648L194.203,116.382L194.377,116.129L194.435,115.105L194.493,115.065L194.552,114.911L194.61,114.244L194.784,114.221L194.843,114.324L194.901,114.899L194.959,115.292L195.017,114.946L195.192,114.439L195.25,114.443L195.308,114.225L195.366,114.554L195.424,114.054L195.599,112.959L195.657,112.265L195.715,112.293L195.773,110.932L195.832,111.043L196.006,112.293L196.064,112.031L196.123,111.722L196.181,111.547L196.239,111.571L196.413,111.388L196.472,111.797L196.53,111.849L196.588,111.614L196.646,111.579L196.821,111.535L196.879,112.198L196.937,112.067L196.995,111.571L197.053,111.654L197.228,111.293L197.286,111.234L197.344,111.194L197.402,111.325L197.461,111.103L197.635,110.972L197.693,110.599L197.752,110.559L197.81,110.067L197.868,109.976L198.042,109.988L198.101,109.774L198.159,109.707L198.217,109.695L198.275,109.71L198.45,110.309L198.508,111.016L198.566,110.662L198.624,110.964L198.682,110.976L198.857,110.603L198.915,110.924L198.973,110.928L199.031,110.893L199.09,110.742L199.264,110.587L199.322,110.567L199.381,110.726L199.439,110.666L199.497,110.635L199.671,110.512L199.73,110.167L199.788,109.873L199.846,110.492L199.904,110.198L200.079,110.159L200.137,109.909L200.195,110.067L200.253,109.905L200.311,110.06L200.486,110.476L200.544,111.063L200.602,110.952L200.661,111.309L200.719,111.638L200.893,111.099L200.951,111.027L201.01,110.833L201.068,110.904L201.126,111.055L201.3,111.019L201.359,110.841L201.417,110.694L201.475,111.079L201.533,111.349L201.708,111.944L201.766,112.015L201.824,111.658L201.882,111.563L201.94,111.868L202.115,111.928L202.173,111.987L202.231,112.106L202.29,111.983L202.348,111.92L202.522,111.833L202.58,111.753L202.639,111.872L202.697,111.9L202.755,111.753L202.93,111.702L202.988,111.92L203.046,112.122L203.104,112.293L203.162,112.388L203.337,112.566L203.395,112.797L203.453,113.177L203.511,113.106L203.569,112.88L203.744,112.888L203.802,113.225L203.86,113.518L203.919,113.618L203.977,113.796L204.151,113.883L204.209,113.729L204.268,113.883L204.326,113.927L204.384,114.161L204.559,114.3L204.617,114.379L204.675,114.415L204.733,113.971L204.791,113.939L204.966,113.891L205.024,113.927L205.082,114.312L205.14,114.296L205.198,114.304L205.373,114.316L205.431,114.145L205.489,114.391L205.548,114.502L205.606,114.403L205.78,114.391L205.838,114.574L205.897,114.851L205.955,114.831L206.013,114.641L206.188,114.391L206.246,114.197L206.304,114.459L206.362,114.391L206.42,114.411L206.595,114.419L206.653,114.51L206.711,114.677L206.769,114.586L206.828,114.974L207.002,113.919L207.06,114.47L207.118,114.463L207.177,114.534L207.235,114.467L207.409,114.514L207.467,114.443L207.526,114.498L207.584,114.824L207.642,114.804L207.817,114.99L207.875,115.05L207.933,114.99L207.991,115.109L208.049,115.034L208.224,115.077L208.282,115.121L208.34,115.315L208.398,115.252L208.457,115.379L208.631,115.391L208.689,115.466L208.747,115.581L208.806,115.422L208.864,115.518L209.038,115.272L209.097,115.391L209.155,115.458L209.213,115.534L209.271,115.145L209.446,115.244L209.504,115.038L209.562,114.99L209.62,114.998L209.678,114.843L209.853,114.962L209.911,115.188L209.969,115.192L210.027,114.998L210.086,115.05L210.26,114.351L210.318,114.554L210.376,114.506L210.435,114.502L210.493,114.248L210.667,114.026L210.726,114.05L210.784,114.042L210.842,113.856L210.9,113.959L211.075,113.197L211.133,112.547L211.191,113.038L211.249,112.507L211.307,112.527L211.482,112.328L211.54,112.44L211.598,112.178L211.656,111.448L211.715,111.23L211.889,111.162L211.947,111.047L212.005,111.428L212.064,112.031L212.122,111.551L212.296,111.095L212.355,111.952L212.413,111.849L212.471,111.761L212.529,111.761L212.704,111.269L212.762,111.535L212.82,111.559L212.878,111.507L212.936,111.722L213.111,111.912L213.169,112.083L213.227,112.19L213.285,112.531L213.344,111.757L213.518,111.257L213.576,111.523L213.634,111.579L213.693,111.71L213.751,110.928L213.925,109.861L213.984,110.353L214.042,110.19L214.1,110.214L214.158,110.06L214.333,109.691L214.391,109.758L214.449,110.159L214.507,109.968L214.565,110.298L214.74,110.19L214.798,110.413L214.856,110.381L214.914,110.262L214.973,110.46L215.147,110.111L215.205,109.893L215.264,109.869L215.322,109.889L215.38,109.837L215.554,109.825L215.613,109.849L215.671,109.691L215.729,109.738L215.787,109.314L215.962,109.175L216.02,109.104L216.078,109.25L216.136,109.441L216.194,109.564L216.369,109.504L216.427,109.611L216.485,109.588L216.543,109.588L216.602,109.73L216.776,109.607L216.834,110.095L216.893,110.9L216.951,112.229L217.009,111.884L217.183,111.495L217.242,111.845L217.3,111.555L217.358,111.614L217.416,111.444L217.591,111.757L217.649,112.079L217.707,112.138L217.765,112.186L217.823,112.289L218.056,112.142L218.114,111.948L218.172,111.833L218.231,111.722L218.405,111.42L218.463,111.603L218.522,111.864L218.58,112.19L218.638,112.15L218.812,111.999L218.871,111.999L218.929,112.265L218.987,112.15L219.045,112.273L219.22,111.273L219.278,111.852L219.336,112.094L219.394,111.94L219.627,111.702L219.685,111.821L219.743,112.051L219.802,111.801L219.86,111.698L220.034,111.69L220.092,111.706L220.151,111.884L220.209,112.003L220.267,111.809L220.441,111.904L220.5,111.793L220.558,111.92L220.616,112.194L220.674,112.17L220.849,111.983L220.907,111.92L220.965,112.007L221.023,112.011L221.081,112.162L221.256,112.094L221.314,112.138L221.372,112.17L221.431,112.047L221.489,111.956L221.663,111.829L221.721,111.833L221.78,111.833L221.838,111.801L221.896,111.733L222.07,111.71L222.129,111.73L222.187,111.69L222.245,111.745L222.303,111.694L222.536,111.801L222.594,111.781L222.652,111.702L222.71,111.694L222.885,111.722L222.943,112.027L223.001,112.003L223.06,111.888L223.118,111.849L223.292,111.702L223.35,111.674L223.409,111.706L223.467,111.718L223.525,111.694L223.7,111.733L223.758,111.71L223.816,111.702L223.874,111.69L223.932,111.69L224.107,111.682L224.165,111.69L224.223,111.694L224.281,111.686L224.339,111.69L224.514,111.678L224.572,111.69L224.63,111.71L224.689,111.682L224.747,111.682L224.921,111.682L224.979,111.666L225.038,111.682L225.096,111.682L225.154,111.682L225.329,111.682L225.387,107.108L225.445,104.697L225.503,104.205L225.561,104.482L225.736,104.336L225.794,104.363L225.852,104.308L225.91,104.566L225.969,104.574L226.143,103.971L226.201,103.626L226.259,103.764L226.318,103.911L226.376,104.546L226.55,104.966L226.608,105.553L226.667,105.883L226.725,105.883L226.783,105.883L226.958,105.494L227.016,105.419L227.074,104.998L227.132,105.038L227.19,105.129L227.365,105.407L227.423,105.327L227.481,105.292L227.539,105.49L227.598,105.549L227.772,105.347L227.83,105.081L227.888,104.772L227.947,104.835L228.005,105.145L228.179,105.367L228.238,105.569L228.296,105.879L228.354,105.835L228.587,105.875L228.761,105.982L228.819,106.307L228.994,107.168L229.052,106.474L229.11,106.188L229.168,106.263L229.227,105.966L229.401,105.704L229.459,106.176L229.517,106.152L229.576,105.795L229.634,106.093L229.808,106.033L229.867,106.018L229.925,105.78L229.983,105.855L230.041,107.41L230.216,106.616L230.274,106.66L230.332,106.648L230.39,106.271L230.448,105.978L230.623,105.621L230.681,105.637L230.739,105.454L230.797,105.363L230.856,105.177L231.03,105.319L231.088,104.998L231.146,104.74L231.205,104.816L231.263,104.744L231.437,104.554L231.496,104.574L231.554,104.558L231.612,104.55L231.67,104.355L231.845,104.197L231.903,104.181L231.961,104.185L232.019,104.213L232.077,104.026L232.252,103.808L232.31,103.423L232.368,103.035L232.426,102.602L232.485,101.944L232.659,101.789L232.717,101.662L232.775,101.254L232.834,100.813L232.892,100.916L233.066,100.932L233.125,101.019L233.183,101.055L233.241,101.103L233.299,101.123L233.474,100.67L233.532,100.734L233.59,100.563L233.648,100.417L233.881,98.838L233.939,99.536L233.997,97.949L234.055,96.482L234.114,96.406L234.288,97.346L234.346,97.275L234.405,97.176L234.463,96.597L234.521,96.799L234.695,97.041L234.754,97.049L234.812,97.057L234.87,96.993L234.928,97.041L235.103,97.021L235.161,96.89L235.219,97.073L235.277,97.18L235.335,97.152L235.51,97.057L235.568,97.001L235.626,97.112L235.684,97.41L235.743,97.219L236.324,100.317L236.383,99.496L236.441,99.036L236.499,99.445L236.557,99.282L236.732,99.302L236.79,99.088L236.848,98.909L236.906,98.838L236.964,98.564L237.139,98.104L237.197,98.1L237.255,98.144L237.313,98.79L237.372,99.849L237.546,99.5L237.604,99.98L237.663,99.651L237.721,99.83L237.779,100.385L237.953,100.167L238.012,99.592L238.07,99.294L238.128,101.067L238.186,101.293L238.361,100.782L238.419,100.555L238.477,99.905L238.535,99.584L238.593,99.532L238.768,99.869L238.826,99.857L238.884,101.424L238.943,102.007L239.001,100.889L239.233,101.075L239.292,100.924L239.35,101.654L239.408,101.611L239.582,101.785L239.641,101.575L239.699,101.023L239.757,100.857L239.815,101.139L239.99,101.15L240.048,101.753L240.106,101.42L240.164,100.869L240.222,100.186L240.397,100.452L240.455,100.425L240.513,100.246L240.572,101.123L240.63,101.039L240.862,100.385L240.921,99.766L240.979,99.762L241.037,100.325L241.211,99.496L241.27,99.342L241.328,100.226L241.386,99.504L241.444,98.897L241.619,99.354L241.677,99.357L241.735,98.636L241.793,98.203L241.851,98.223L242.026,97.957L242.084,97.898L242.142,97.866L242.201,97.846L242.259,97.569L242.433,96.862L242.491,96.779L242.55,96.993L242.608,96.815L242.666,98.215L242.841,97.64L242.899,97.33L242.957,97.691L243.248,96.771L243.306,96.319L243.364,96.922L243.422,96.537L243.48,96.716L243.655,96.914L243.713,96.557L243.771,97.057L243.83,96.966L243.888,95.335L244.062,94.32L244.12,94.292L244.179,94.74L244.237,94.296L244.295,93.832L244.47,93.61L244.528,92.789L244.586,92.686L244.644,92.947L244.702,92.598L244.877,92.392L244.935,92.689L244.993,92.682L245.051,92.888L245.11,92.491L245.284,92.055L245.342,92.38L245.4,93.114L245.459,93.205L245.517,93.047L245.691,93.031L245.749,93.344L245.808,93.423L245.866,93.915L245.924,94.812L246.099,94.459L246.157,95.121L246.215,94.843L246.273,94.542L246.331,93.808L246.506,93.764L246.564,93.991L246.622,94.772L246.68,94.863L246.739,94.764L246.913,94.693L246.971,95.192L247.029,94.835L247.088,94.962L247.146,94.09L247.32,94.189L247.379,94.578L247.437,93.86L247.495,93.84L247.553,93.443L247.728,92.908L247.786,92.999L247.844,93.054L247.902,93.225L247.96,93.007L248.135,93.142L248.193,93.423L248.251,93.721L248.309,93.546L248.368,92.828L248.542,93.019L248.6,93.047L248.658,93.237L248.949,93.483L249.008,93.344L249.066,93.471L249.124,93.63L249.182,93.447L249.357,93.467L249.415,93.419L249.473,93.221L249.531,93.534L249.589,93.352L250.171,91.936L250.229,91.361L250.287,91.46L250.346,91.146L250.404,91.111L250.578,90.746L250.637,90.611L250.695,90.734L250.753,90.452L250.811,89.576L250.986,89.25L251.044,89.044L251.102,89.409L251.16,88.921L251.218,89.104L251.393,89.227L251.451,89.627L251.509,89.972L251.567,89.655L251.626,89.992L251.8,89.195L251.858,88.782L251.916,88.604L251.975,88.033L252.033,87.791L252.207,85.887L252.266,85.926L252.324,85.077L252.382,85.169L252.44,84.836L252.615,84.586L252.673,84.697L252.731,83.546L252.789,83.431L252.847,83.554L253.022,83.693L253.08,84.114L253.138,84.72L253.196,84.871L253.255,85.093L253.429,85.034L253.487,85.022L253.546,85.224L253.604,84.657L253.662,83.983L253.836,84.026L253.895,84.209L253.953,84.106L254.011,82.448L254.069,81.86L254.244,81.9" stroke-width="2" fill="none" stroke="#af516c"/></g></g></svg>