<?xml-stylesheet type="text/css" href="https://ig.ft.com/graphics/bloomberg-economics/chart-style.css" ?><svg xmlns="http://www.w3.org/2000/svg" viewBox="0 0 304 270"><text class="chart-title" fill="#43423e" font-size="20" y="22">人民币对美元</text><text class="chart-subtitle" fill="#43423e" font-size="15" y="42">1美元对人民币</text><text class="chart-source" font-size="10" fill-opacity="0.4" y="265">来源：彭博，2017/04/12</text><g transform="translate(1,100)"><g transform="translate(0,120)" class="x axis"><g class="tick" style="" transform="translate(19.602990732940185,0)"><line y2="6" x2="0" fill="none" stroke="#000" stroke-opacity="0.2"/><text dy="0" style="" y="20" x="0" font-family="MetricWeb,sans-serif" fill-opacity="0.6" font-size="12" text-anchor="start">2006</text></g><g class="tick" style="" transform="translate(58.808972198820555,0)"><line y2="6" x2="0" fill="none" stroke="#000" stroke-opacity="0.2"/><text dy="0" style="" y="20" x="0" font-family="MetricWeb,sans-serif" fill-opacity="0.6" font-size="12" text-anchor="start">2008</text></g><g class="tick" style="" transform="translate(98.06866048862679,0)"><line y2="6" x2="0" fill="none" stroke="#000" stroke-opacity="0.2"/><text dy="0" style="" y="20" x="0" font-family="MetricWeb,sans-serif" fill-opacity="0.6" font-size="12" text-anchor="start">2010</text></g><g class="tick" style="" transform="translate(137.27464195450716,0)"><line y2="6" x2="0" fill="none" stroke="#000" stroke-opacity="0.2"/><text dy="0" style="" y="20" x="0" font-family="MetricWeb,sans-serif" fill-opacity="0.6" font-size="12" text-anchor="start">2012</text></g><g class="tick" style="" transform="translate(176.5343302443134,0)"><line y2="6" x2="0" fill="none" stroke="#000" stroke-opacity="0.2"/><text dy="0" style="" y="20" x="0" font-family="MetricWeb,sans-serif" fill-opacity="0.6" font-size="12" text-anchor="start">2014</text></g><g class="tick" style="" transform="translate(215.74031171019377,0)"><line y2="6" x2="0" fill="none" stroke="#000" stroke-opacity="0.2"/><text dy="0" style="" y="20" x="0" font-family="MetricWeb,sans-serif" fill-opacity="0.6" font-size="12" text-anchor="start">2016</text></g><g class="tick" style="" transform="translate(255,0)"><line y2="6" x2="0" fill="none" stroke="#000" stroke-opacity="0.2"/><text dy="0" style="" y="20" x="0" font-family="MetricWeb,sans-serif" fill-opacity="0.6" font-size="12" text-anchor="start">2018</text></g><path class="domain" d="M0,0V0H255V0" fill="none" stroke="#74736c"/></g><g transform="translate(255,0)" class="y axis"><g class="tick" style="" transform="translate(0,120)"><line x2="-255" y2="0" fill="none" stroke="#000" stroke-opacity="0.2"/><text dy="0" style="text-anchor: start;" x="3" y="0" font-family="MetricWeb,sans-serif" fill-opacity="0.6" font-size="12">6</text></g><g class="tick" style="" transform="translate(0,80.33333333333334)"><line x2="-255" y2="0" fill="none" stroke="#000" stroke-opacity="0.2"/><text dy="0" style="text-anchor: start;" x="3" y="0" font-family="MetricWeb,sans-serif" fill-opacity="0.6" font-size="12">7</text></g><g class="tick" style="" transform="translate(0,40.66666666666667)"><line x2="-255" y2="0" fill="none" stroke="#000" stroke-opacity="0.2"/><text dy="0" style="text-anchor: start;" x="3" y="0" font-family="MetricWeb,sans-serif" fill-opacity="0.6" font-size="12">8</text></g><g class="tick" style="" transform="translate(0,1)"><line x2="-255" y2="0" fill="none" stroke="#000" stroke-opacity="0.2"/><text dy="0" style="text-anchor: start;" x="3" y="0" font-family="MetricWeb,sans-serif" fill-opacity="0.6" font-size="12">9</text></g><path class="domain" d="M-255,1H0V120H-255" fill="none" stroke="#000" stroke-opacity="0"/></g><g><path d="M0.107,29.699L0.161,29.699L0.215,29.703L0.269,29.699L0.322,29.699L0.483,29.703L0.537,29.699L0.591,29.699L0.644,29.703L0.698,29.699L0.859,29.703L0.913,29.707L0.967,29.703L1.02,29.699L1.074,29.703L1.235,29.703L1.289,29.699L1.343,29.699L1.396,29.699L1.45,29.699L1.611,29.703L1.665,29.699L1.719,29.699L1.772,29.699L1.826,29.699L1.987,29.699L2.041,29.699L2.095,29.699L2.148,29.699L2.202,29.699L2.363,29.699L2.417,29.699L2.471,29.699L2.524,29.699L2.578,29.699L2.739,29.699L2.793,29.699L2.846,29.699L2.9,29.699L2.954,29.699L3.115,29.699L3.169,29.699L3.222,29.699L3.276,29.699L3.33,29.699L3.491,29.699L3.545,29.699L3.598,29.699L3.652,29.699L3.706,29.699L3.867,29.699L3.921,29.699L3.974,29.703L4.028,29.699L4.082,29.703L4.243,29.699L4.297,29.699L4.35,29.699L4.404,29.699L4.458,29.699L4.619,29.703L4.672,29.695L4.726,29.699L4.78,29.703L4.834,29.699L4.995,29.695L5.048,29.699L5.102,29.703L5.156,29.703L5.21,29.703L5.371,29.699L5.424,29.699L5.478,29.699L5.532,29.703L5.586,29.699L5.747,29.703L5.8,29.703L5.854,29.699L5.908,29.703L5.961,29.703L6.123,29.699L6.176,29.699L6.23,29.703L6.284,29.699L6.337,29.703L6.499,29.699L6.552,29.699L6.606,29.699L6.66,29.699L6.713,29.699L6.874,29.699L6.928,29.703L6.982,29.699L7.036,29.703L7.089,29.699L7.25,29.703L7.304,29.699L7.358,29.699L7.412,29.703L7.465,29.703L7.626,29.703L7.68,29.699L7.734,29.699L7.787,29.699L7.841,29.703L8.002,29.707L8.056,29.691L8.11,29.699L8.163,29.703L8.217,29.703L8.378,29.699L8.432,29.703L8.486,29.703L8.539,29.703L8.593,29.699L8.754,29.703L8.808,29.703L8.862,29.699L8.915,29.699L8.969,29.699L9.13,29.699L9.184,29.699L9.238,29.699L9.291,29.703L9.345,29.699L9.506,29.699L9.56,29.699L9.614,29.699L9.667,29.703L9.721,29.703L9.882,29.703L9.936,29.703L9.989,29.699L10.043,29.699L10.097,29.699L10.258,29.699L10.312,29.699L10.365,29.703L10.419,29.699L10.473,29.707L10.634,29.699L10.688,29.699L10.741,29.699L10.795,36.303L10.849,36.26L11.01,36.315L11.064,36.307L11.117,36.192L11.171,36.383L11.225,36.478L11.386,36.518L11.44,36.573L11.493,36.498L11.547,36.593L11.601,36.553L11.762,36.343L11.816,36.422L11.869,36.454L11.923,36.692L11.977,36.779L12.138,36.815L12.191,36.692L12.245,36.712L12.299,36.672L12.353,36.514L12.514,36.478L12.567,36.652L12.621,36.68L12.675,36.692L12.729,36.839L12.89,36.882L12.943,36.807L12.997,36.708L13.051,36.902L13.104,36.958L13.266,37.033L13.319,37.045L13.373,36.998L13.427,36.918L13.48,36.875L13.642,37.001L13.695,36.938L13.749,37.049L13.803,37.148L13.856,37.212L14.017,37.073L14.071,37.136L14.125,37.136L14.179,37.172L14.232,37.057L14.393,36.982L14.447,37.017L14.501,36.942L14.555,36.978L14.608,37.017L14.769,37.017L14.823,37.017L14.877,37.017L14.93,37.017L14.984,37.017L15.145,37.239L15.199,37.18L15.253,37.117L15.306,37.156L15.36,37.113L15.521,37.188L15.575,37.057L15.629,37.057L15.682,37.077L15.736,37.156L15.897,37.033L15.951,37.093L16.005,37.228L16.058,37.247L16.112,37.335L16.273,37.315L16.327,37.255L16.381,37.291L16.434,37.331L16.488,37.271L16.649,37.188L16.703,37.228L16.757,37.267L16.81,37.307L16.864,37.271L17.025,37.37L17.079,37.315L17.132,37.354L17.186,37.315L17.24,37.366L17.401,37.362L17.455,37.339L17.508,37.43L17.562,37.473L17.616,37.434L17.777,37.394L17.831,37.509L17.884,37.477L17.938,37.501L17.992,37.47L18.153,37.462L18.207,37.573L18.26,37.608L18.314,37.573L18.368,37.632L18.529,37.612L18.583,37.688L18.636,37.708L18.69,37.731L18.744,37.751L18.905,37.771L18.959,37.731L19.012,37.632L19.066,37.592L19.12,37.644L19.281,37.672L19.334,37.731L19.388,37.791L19.442,37.854L19.496,37.882L19.657,37.882L19.71,37.882L19.764,37.985L19.818,38.061L19.872,38.017L20.033,38.124L20.086,38.061L20.14,37.961L20.194,38.053L20.247,37.957L20.409,38.049L20.462,38.029L20.516,37.949L20.57,37.997L20.623,38.283L20.785,38.1L20.838,38.231L20.892,38.211L20.946,38.207L20.999,38.223L21.16,38.255L21.214,38.255L21.268,38.255L21.322,38.255L21.375,38.223L21.536,38.465L21.59,38.422L21.644,38.505L21.698,38.537L21.751,38.664L21.912,38.85L21.966,38.743L22.02,38.806L22.074,38.707L22.127,38.751L22.288,38.783L22.342,38.822L22.396,38.783L22.449,38.763L22.503,38.985L22.664,39.052L22.718,39.072L22.772,39.203L22.825,39.215L22.879,39.211L23.04,39.219L23.094,38.985L23.148,38.759L23.201,38.723L23.255,38.664L23.416,38.664L23.47,38.79L23.524,39.171L23.577,39.12L23.631,39.413L23.792,39.711L23.846,39.568L23.9,39.548L23.953,39.568L24.007,39.477L24.168,39.818L24.222,39.85L24.275,39.639L24.329,39.604L24.383,39.984L24.544,39.877L24.598,40L24.651,40.322L24.705,40.349L24.759,40.226L24.92,40.413L24.974,40.468L25.027,40.191L25.081,39.933L25.135,39.937L25.296,39.853L25.35,39.715L25.403,40.131L25.457,40.21L25.511,39.992L25.672,40.072L25.726,40.111L25.779,39.941L25.833,40.028L25.887,40.111L26.048,40.111L26.102,40.111L26.155,40.111L26.209,40.111L26.263,40.111L26.424,40.389L26.477,40.492L26.531,40.52L26.585,40.516L26.639,40.425L26.8,40.548L26.853,40.548L26.907,40.568L26.961,40.27L27.015,39.794L27.176,39.635L27.229,39.715L27.283,39.615L27.337,39.921L27.39,39.675L27.552,39.83L27.605,39.635L27.659,39.973L27.713,39.857L27.766,39.754L27.928,40.361L27.981,40.107L28.035,39.984L28.089,40.314L28.142,40.222L28.303,39.921L28.357,40.528L28.411,40.647L28.465,40.607L28.518,40.587L28.679,40.429L28.733,40.552L28.787,40.786L28.841,40.809L28.894,40.659L29.055,40.587L29.109,40.734L29.163,40.73L29.217,40.845L29.27,40.893L29.431,40.56L29.485,40.686L29.539,40.833L29.592,40.964L29.646,41.226L29.807,41.063L29.861,41.02L29.915,40.996L29.968,40.968L30.022,40.746L30.183,40.476L30.237,40.726L30.291,40.595L30.344,40.98L30.398,40.595L30.559,41.258L30.613,41.174L30.667,41.282L30.72,41.678L30.774,41.817L30.935,41.896L30.989,41.674L31.043,41.805L31.096,41.587L31.15,41.523L31.311,41.9L31.365,41.817L31.418,41.734L31.472,41.857L31.526,41.619L31.687,40.952L31.741,40.607L31.794,41.123L31.848,41.912L31.902,41.678L32.063,42.031L32.117,41.996L32.17,41.861L32.224,41.757L32.278,41.623L32.439,41.829L32.493,42.166L32.546,42.293L32.6,42.543L32.654,42.523L32.815,43.106L32.869,42.698L32.922,42.876L32.976,43.011L33.03,42.709L33.191,42.483L33.245,42.801L33.298,42.706L33.352,42.809L33.406,42.928L33.567,42.777L33.62,43.217L33.674,43.582L33.728,43.709L33.782,43.86L33.943,43.792L33.996,44.217L34.05,44.554L34.104,44.772L34.158,44.475L34.319,44.475L34.372,44.475L34.426,44.475L34.48,44.475L34.533,44.475L34.695,44.653L34.748,44.237L34.802,44.042L34.856,44.046L34.909,44.574L35.071,44.249L35.124,44.284L35.178,44.364L35.232,44.276L35.285,44.582L35.447,44.669L35.5,44.534L35.554,44.554L35.608,44.836L35.661,45.07L35.822,45.617L35.876,45.45L35.93,45.688L35.984,45.637L36.037,45.768L36.198,45.411L36.252,45.605L36.306,45.942L36.36,45.958L36.413,46.006L36.574,46.049L36.628,45.978L36.682,45.903L36.735,45.867L36.789,45.76L36.95,45.665L37.004,45.784L37.058,46.022L37.111,46.164L37.165,46.502L37.326,46.914L37.38,46.803L37.434,47.335L37.487,47.287L37.541,47.489L37.702,47.485L37.756,47.795L37.81,47.664L37.863,47.723L37.917,47.672L38.078,47.235L38.132,47.366L38.186,47.521L38.239,47.787L38.293,47.37L38.454,47.787L38.508,47.696L38.561,48.005L38.615,47.938L38.669,47.866L38.83,47.787L38.884,47.87L39.045,48.421L39.206,47.965L39.26,48.398L39.313,48.398L39.367,48.382L39.421,48.414L39.582,48.033L39.636,48.374L39.689,48.326L39.743,48.814L39.797,48.711L39.958,48.878L40.012,49.016L40.065,49.477L40.119,49.762L40.173,49.683L40.334,49.699L40.388,49.52L40.441,49.695L40.495,49.798L40.549,49.643L40.71,49.493L40.763,49.604L40.817,49.643L40.871,50.29L40.925,50.437L41.086,50.214L41.139,50.345L41.193,50.679L41.247,50.675L41.301,50.587L41.462,50.329L41.515,50.226L41.569,50.119L41.623,50.46L41.838,50.873L41.891,50.758L41.945,50.798L41.999,50.798L42.052,50.877L42.214,50.603L42.267,50.841L42.321,50.913L42.375,50.825L42.428,50.679L42.59,50.762L42.643,50.817L42.697,50.988L42.751,50.976L42.804,50.738L42.965,50.579L43.019,50.809L43.073,50.996L43.127,50.837L43.18,51.139L43.341,51.103L43.395,50.984L43.449,51.202L43.503,51.5L43.556,51.416L43.717,51.028L43.771,51.25L43.825,51.416L43.878,51.48L43.932,51.317L44.093,51.285L44.147,51.234L44.201,51.214L44.254,51.452L44.308,51.583L44.469,51.218L44.523,51.178L44.577,51.535L44.63,51.575L44.684,51.686L44.845,51.436L44.899,51.329L44.953,51.734L45.006,51.872L45.06,51.849L45.221,51.642L45.275,51.547L45.329,51.896L45.382,51.337L45.436,51.765L45.597,52.436L45.651,52.309L45.705,52.349L45.758,52.269L45.812,52.428L45.973,52.412L46.027,52.721L46.08,52.813L46.134,52.753L46.188,53.241L46.349,53.086L46.403,53.13L46.456,53.301L46.51,53.614L46.564,53.816L46.725,53.907L46.779,54.407L46.832,54.241L46.886,54.49L46.94,54.459L47.101,54.697L47.155,54.546L47.208,54.693L47.262,54.709L47.316,54.653L47.477,54.51L47.531,54.879L47.584,55.133L47.638,54.502L47.692,54.28L47.853,53.86L47.906,54.784L47.96,55.45L48.014,55.252L48.068,55.411L48.229,55.458L48.282,55.72L48.336,55.871L48.39,55.736L48.444,55.625L48.605,55.744L48.658,55.835L48.712,55.835L48.766,55.907L48.82,55.934L48.981,56.299L49.034,56.803L49.088,56.72L49.142,56.676L49.195,56.383L49.357,56.41L49.41,57.216L49.464,57.993L49.518,57.89L49.571,57.672L49.733,57.854L49.786,58.005L49.84,57.969L49.894,57.977L49.947,57.767L50.108,58.033L50.162,58.005L50.216,58.291L50.27,57.803L50.323,58.076L50.484,57.846L50.538,57.612L50.592,57.493L50.646,57.596L50.699,58.064L50.86,58.156L50.914,57.767L50.968,57.422L51.021,57.918L51.075,57.35L51.236,57.271L51.29,57.41L51.344,57.073L51.397,56.609L51.451,56.632L51.612,56.926L51.666,56.898L51.72,56.383L51.773,57.208L51.827,57.799L51.988,58.057L52.042,58.223L52.096,58.505L52.149,58.663L52.203,58.715L52.364,58.711L52.418,58.473L52.472,58.501L52.525,58.953L52.579,59.001L52.74,59.651L52.794,59.627L52.848,59.627L52.901,60.036L52.955,59.873L53.116,59.615L53.17,59.631L53.223,59.965L53.277,60.032L53.331,60.357L53.492,60.187L53.546,59.953L53.599,59.953L53.653,59.941L53.707,60.083L53.922,60.258L54.244,60.325L54.298,59.913L54.351,60.08L54.405,60.337L54.459,60.087L54.62,59.405L54.674,59.754L54.727,59.873L54.781,60.052L54.835,60.183L54.996,60.111L55.049,60.321L55.103,60.766L55.157,61.222L55.211,60.988L55.372,61.44L55.425,61.631L55.479,61.98L55.533,62.372L55.587,62.277L55.748,62.293L55.801,62.309L55.855,62.797L55.909,63.61L55.963,63.995L56.124,63.999L56.177,62.987L56.231,63.459L56.285,63.542L56.338,63.519L56.5,63.404L56.553,63.646L56.607,63.899L56.661,64.022L56.714,64.252L56.876,64.407L56.929,64.955L56.983,64.562L57.037,65.181L57.09,64.788L57.251,64.292L57.305,64.613L57.359,64.959L57.413,64.018L57.466,64.411L57.627,64.514L57.681,65.232L57.735,65.478L57.789,65.756L57.842,65.605L58.003,65.145L58.057,65.03L58.111,65.268L58.164,65.72L58.218,65.744L58.379,66.426L58.433,67.343L58.487,66.72L58.54,67.791L58.594,68.271L58.755,68.287L58.809,68.271L58.863,68.683L58.916,69.492L58.97,69.461L59.131,69.584L59.185,69.738L59.239,69.917L59.292,69.604L59.346,69.937L59.507,70.329L59.561,70.738L59.615,71.111L59.668,70.484L59.722,70.714L59.883,70.952L59.937,70.849L59.991,71.115L60.044,71.289L60.098,71.991L60.259,72.531L60.313,72.63L60.366,72.737L60.42,73.122L60.474,72.947L60.635,72.856L60.689,73.031L60.742,73.035L60.796,73.035L60.85,73.035L61.011,73.035L61.065,73.015L61.118,72.503L61.172,72.777L61.226,73.094L61.387,73.895L61.441,74.125L61.494,74.625L61.548,74.689L61.602,74.709L61.763,74.145L61.817,74.062L61.87,74.701L61.924,75.835L61.978,75.938L62.139,76.208L62.193,76.156L62.246,76.049L62.3,76.129L62.354,75.926L62.515,76.248L62.568,76.252L62.622,76.275L62.676,76.545L62.73,76.601L62.891,77.021L62.944,77.101L62.998,77.826L63.052,78.291L63.106,78.172L63.267,78.108L63.32,78.58L63.374,79.127L63.428,79.873L63.481,79.849L63.643,79.857L63.696,79.869L63.75,79.599L63.804,79.707L63.857,79.707L64.019,80.274L64.072,80.298L64.126,80.27L64.18,80.663L64.233,79.941L64.394,80.373L64.448,80.631L64.502,80.655L64.556,80.976L64.609,80.587L64.77,80.329L64.824,80.797L64.878,81.024L64.932,80.591L64.985,79.953L65.146,80.187L65.2,80.897L65.254,80.817L65.307,80.829L65.361,80.829L65.522,80.813L65.576,80.817L65.63,80.841L65.683,80.131L65.737,80.659L65.898,80.793L65.952,80.746L66.006,80.226L66.059,80.54L66.113,80.766L66.274,81.305L66.328,81.305L66.382,81.968L66.435,82.59L66.489,82.646L66.65,82.844L66.704,82.067L66.758,82.527L66.811,82.793L66.865,82.63L67.026,82.983L67.08,83.3L67.134,82.741L67.187,82.448L67.241,83.384L67.402,83.388L67.456,83.292L67.509,83.582L67.563,84.006L67.617,84.213L67.778,84.268L67.832,84.637L67.885,85.006L67.939,85.177L67.993,85.085L68.154,85.331L68.208,85.49L68.261,85.657L68.315,85.637L68.369,85.803L68.53,86.109L68.584,86.026L68.637,85.938L68.691,86.244L68.745,85.93L68.906,85.657L68.96,86.24L69.013,86.006L69.067,86.565L69.121,86.918L69.282,86.68L69.336,87.426L69.389,87.818L69.443,87.12L69.497,87.596L69.658,87.1L69.711,87.402L69.765,87.081L69.819,87.12L69.873,87.521L70.034,86.898L70.087,87.247L70.141,87.184L70.195,87.001L70.249,86.553L70.41,86.22L70.463,86.065L70.517,86.343L70.571,85.716L70.624,85.958L70.786,85.978L70.839,85.752L70.893,85.95L70.947,85.815L71,85.363L71.162,85.125L71.215,85.657L71.269,86.093L71.323,86.501L71.376,86.918L71.537,86.39L71.591,86.244L71.645,86.763L71.699,87.132L71.752,86.692L71.913,87.243L71.967,86.652L72.021,86.525L72.075,86.831L72.128,86.7L72.289,86.525L72.343,86.747L72.397,86.736L72.451,86.422L72.504,86.513L72.665,86.521L72.719,86.478L72.773,86.716L72.826,86.7L72.88,86.767L73.041,86.855L73.095,87.799L73.149,87.319L73.202,87.584L73.256,86.561L73.417,86.478L73.471,86.442L73.525,86.478L73.578,86.478L73.632,86.39L73.793,86.565L73.847,87.588L73.901,87.576L73.954,87.461L74.008,86.839L74.169,87.243L74.223,86.926L74.277,87.001L74.33,87.081L74.384,86.95L74.545,87.081L74.599,86.926L74.652,86.91L74.706,86.855L74.76,86.529L74.921,86.2L74.975,86.736L75.028,86.343L75.082,86.644L75.136,86.728L75.297,86.755L75.351,86.831L75.404,87.14L75.458,87.267L75.512,87.247L75.673,87.204L75.727,87.263L75.78,87.085L75.834,87.081L75.888,87.275L76.049,87.192L76.103,87.148L76.156,87.073L76.21,86.906L76.264,87.033L76.425,87.136L76.479,87.235L76.532,87.136L76.586,87.152L76.64,86.89L76.801,84.927L76.854,84.808L76.908,85.006L76.962,85.006L77.016,85.046L77.177,85.058L77.23,85.351L77.284,85.744L77.338,86.208L77.392,86.545L77.553,86.283L77.606,86.454L77.66,86.851L77.714,87.104L77.767,86.45L77.929,86.212L77.982,86.331L78.036,86.688L78.09,87.045L78.143,86.628L78.305,86.18L78.358,87.041L78.412,87.168L78.466,87.196L78.519,87.077L78.68,87.029L78.734,86.823L78.788,86.926L78.842,86.89L78.895,86.847L79.056,86.799L79.11,86.894L79.164,86.882L79.218,86.819L79.271,86.775L79.432,86.835L79.486,86.636L79.54,86.767L79.594,86.795L79.647,86.319L79.808,86.208L79.862,86.208L79.916,86.505L79.969,86.759L80.023,86.208L80.184,86.371L80.238,86.672L80.292,86.926L80.345,86.811L80.399,86.882L80.56,86.922L80.614,86.97L80.668,86.946L80.721,86.918L80.775,86.934L80.936,86.914L80.99,86.621L81.044,86.763L81.097,86.862L81.151,86.791L81.312,86.712L81.366,86.775L81.42,86.779L81.473,86.712L81.527,86.68L81.688,86.474L81.742,86.624L81.795,86.545L81.849,86.648L81.903,86.688L82.064,86.636L82.118,86.672L82.171,86.656L82.225,86.724L82.279,86.751L82.44,86.747L82.494,86.795L82.547,86.886L82.601,87.14L82.655,87.164L82.816,86.946L82.87,87.093L82.923,87.033L82.977,86.997L83.031,86.978L83.192,86.819L83.246,86.922L83.299,86.906L83.353,86.894L83.407,86.874L83.568,86.886L83.622,86.819L83.675,86.839L83.729,86.89L83.783,86.93L83.944,86.87L83.997,86.985L84.051,86.978L84.105,86.974L84.159,86.978L84.32,86.942L84.373,87.005L84.427,87.085L84.481,87.077L84.535,87.188L84.696,87.188L84.749,87.204L84.803,87.295L84.857,87.434L85.072,87.382L85.125,87.505L85.179,87.402L85.233,87.402L85.286,87.406L85.448,87.315L85.501,87.402L85.555,87.382L85.609,87.279L85.662,87.235L85.824,87.196L85.877,87.291L85.931,87.271L85.985,87.287L86.038,87.346L86.199,87.319L86.253,86.954L86.307,87.14L86.361,87.12L86.414,87.112L86.575,87.208L86.629,87.049L86.683,87.041L86.737,86.93L86.79,86.954L86.951,86.787L87.005,86.862L87.059,86.95L87.112,86.807L87.166,86.87L87.327,86.827L87.381,86.938L87.435,86.795L87.488,86.878L87.542,86.827L87.703,86.847L87.757,86.886L87.811,86.958L87.864,86.89L87.918,86.918L88.079,86.93L88.133,87.057L88.187,86.954L88.24,87.025L88.294,86.993L88.455,86.902L88.509,86.966L88.563,86.962L88.616,87.005L88.67,86.97L88.831,86.966L88.885,86.962L88.939,86.997L88.992,87.029L89.046,87.009L89.207,86.997L89.261,87.057L89.314,87.025L89.368,87.037L89.422,87.013L89.583,87.033L89.637,87.041L89.69,86.981L89.744,86.985L89.798,86.993L89.959,87.045L90.013,87.073L90.066,87.033L90.12,87.025L90.174,87.001L90.335,86.906L90.389,86.874L90.442,86.874L90.496,86.93L90.55,86.902L90.711,86.831L90.765,86.926L90.818,86.914L90.872,87.005L90.926,87.025L91.087,87.021L91.14,86.997L91.194,87.033L91.248,87.005L91.302,87.073L91.463,87.045L91.516,87.061L91.57,87.037L91.624,87.057L91.678,87.077L91.839,87.116L91.892,87.172L91.946,87.128L92,87.104L92.053,87.116L92.215,87.116L92.268,87.116L92.322,87.239L92.376,87.212L92.429,87.164L92.591,87.116L92.644,87.196L92.698,87.231L92.752,87.184L92.805,87.132L92.967,87.18L93.02,87.156L93.074,87.219L93.128,87.215L93.181,87.219L93.342,87.219L93.396,87.223L93.45,87.215L93.504,87.235L93.557,87.255L93.718,87.342L93.772,87.212L93.826,87.219L93.88,87.14L93.933,87.204L94.094,87.204L94.148,87.212L94.202,87.176L94.255,87.112L94.309,87.132L94.47,87.164L94.524,87.096L94.578,87.152L94.631,87.156L94.685,87.176L94.846,87.16L94.9,87.16L94.954,87.196L95.007,87.172L95.061,87.18L95.222,87.196L95.276,87.204L95.33,87.239L95.383,87.208L95.437,87.223L95.598,87.2L95.652,87.212L95.706,87.196L95.759,87.136L95.813,87.16L95.974,87.033L96.028,87.061L96.082,87.184L96.135,87.212L96.189,87.136L96.35,87.18L96.404,87.227L96.457,87.223L96.511,87.196L96.565,87.196L96.726,87.1L96.78,87.172L96.833,87.172L96.887,87.204L96.941,87.168L97.102,87.144L97.156,87.156L97.209,87.156L97.263,87.136L97.317,87.152L97.478,87.132L97.532,87.164L97.585,87.14L97.639,87.16L97.693,87.192L97.854,87.069L97.908,87.104L97.961,87.255L98.015,87.192L98.23,87.184L98.283,87.188L98.337,87.18L98.391,87.176L98.445,87.172L98.606,87.223L98.659,87.192L98.713,87.208L98.767,87.188L98.821,87.196L98.982,87.2L99.035,87.168L99.089,87.192L99.143,87.2L99.197,87.196L99.358,87.196L99.411,87.204L99.465,87.2L99.519,87.204L99.572,87.2L99.734,87.176L99.787,87.188L99.841,87.212L99.895,87.2L99.948,87.215L100.11,87.212L100.163,87.204L100.217,86.997L100.271,86.922L100.324,86.942L100.485,87.196L100.539,87.069L100.593,86.958L100.647,87.196L100.7,86.958L100.861,87.215L100.915,87.215L100.969,87.196L101.023,87.204L101.076,87.231L101.237,87.223L101.291,87.212L101.345,87.243L101.398,87.215L101.452,87.215L101.613,87.219L101.667,87.219L101.721,87.235L101.774,87.212L101.828,87.251L101.989,87.227L102.043,87.235L102.097,87.239L102.15,87.219L102.204,87.212L102.365,87.208L102.419,87.219L102.473,87.208L102.526,87.192L102.58,87.192L102.741,87.215L102.795,87.243L102.849,87.239L102.902,87.219L102.956,87.247L103.171,87.243L103.225,87.259L103.278,87.303L103.332,87.331L103.493,87.243L103.547,87.251L103.6,87.243L103.654,87.231L103.708,87.255L103.869,87.176L103.923,87.259L103.976,87.172L104.03,87.219L104.084,87.18L104.245,87.212L104.299,87.243L104.352,87.259L104.406,87.235L104.46,87.263L104.621,87.263L104.675,87.204L104.728,87.219L104.782,87.212L104.836,87.243L104.997,87.212L105.051,87.104L105.104,87.188L105.158,87.156L105.212,87.212L105.373,87.168L105.426,87.18L105.48,87.176L105.534,87.168L105.588,87.164L105.749,87.128L105.802,87.017L105.856,87.116L105.91,87.029L105.964,87.017L106.125,87.164L106.178,87.053L106.232,87.085L106.286,87.144L106.34,87.124L106.501,86.981L106.554,87.093L106.608,87.156L106.662,87.049L106.715,86.958L106.877,86.946L106.93,86.946L106.984,86.946L107.038,87.112L107.091,87.231L107.253,88.39L107.306,87.751L107.36,87.711L107.414,88.263L107.467,88.58L107.628,88.425L107.682,88.358L107.736,88.989L107.79,89.024L107.843,89.393L108.004,89.227L108.058,89.04L108.112,89.175L108.166,89.207L108.219,89.338L108.38,89.413L108.434,89.357L108.488,89.266L108.541,89.135L108.595,89.27L108.756,89.112L108.81,89.127L108.864,89.191L108.917,89.072L108.971,89.064L109.132,89.1L109.186,89.123L109.24,89.143L109.293,89.215L109.347,89.278L109.508,89.278L109.562,89.322L109.616,89.314L109.669,89.401L109.723,89.512L109.884,89.56L109.938,89.373L109.992,89.258L110.045,88.87L110.099,88.417L110.26,87.977L110.314,88.584L110.368,88.588L110.421,88.632L110.475,88.644L110.636,88.267L110.69,88.39L110.743,88.31L110.797,88.283L110.851,88.346L111.012,88.136L111.066,87.957L111.119,87.838L111.173,87.961L111.227,88.128L111.388,88.755L111.442,88.616L111.495,88.497L111.549,88.945L111.603,89.473L111.764,89.782L111.818,90.373L111.871,90.516L111.925,91.242L111.979,91.238L112.14,91.674L112.194,91.991L112.247,92.59L112.301,92.67L112.355,92.63L112.516,92.594L112.57,92.578L112.623,92.737L112.677,92.547L112.731,92.828L112.892,92.563L112.945,92.61L112.999,93.007L113.053,93.086L113.107,93.376L113.268,93.503L113.321,93.288L113.375,93.649L113.429,94.169L113.483,94.57L113.644,94.443L113.697,94.431L113.751,94.114L113.805,94.221L113.858,93.88L114.02,93.887L114.073,93.721L114.127,93.007L114.181,92.745L114.234,93.404L114.396,92.606L114.449,93.078L114.503,93.138L114.557,93.733L114.61,93.923L114.771,93.011L114.825,94.478L114.879,94.847L114.933,95.276L114.986,94.681L115.147,94.459L115.201,94.669L115.255,94.482L115.309,94.875L115.362,94.637L115.523,94.498L115.577,94.459L115.631,94.074L115.684,94.205L115.738,93.479L115.899,93.804L115.953,93.53L116.007,93.689L116.06,93.768L116.114,93.709L116.275,94.268L116.329,94.387L116.383,93.705L116.436,94.006L116.49,94.006L116.651,93.709L116.705,94.118L116.759,93.959L116.812,93.622L116.866,93.661L117.027,93.324L117.081,93.86L117.135,94.137L117.188,94.415L117.242,95.153L117.403,94.958L117.457,95.208L117.511,95.228L117.564,95.922L117.618,95.922L117.779,95.922L117.833,95.803L117.886,95.434L117.94,95.192L117.994,94.931L118.155,94.812L118.209,95.486L118.262,95.704L118.316,96.24L118.37,96.299L118.531,96.438L118.585,96.696L118.638,96.87L118.692,96.755L118.746,96.716L118.907,96.795L118.961,96.795L119.014,96.874L119.068,96.835L119.122,96.755L119.283,96.398L119.337,96.351L119.39,96.843L119.444,96.795L119.498,96.843L119.659,96.708L119.713,96.755L119.766,96.668L119.82,96.755L119.874,96.49L120.035,96.319L120.088,96.569L120.142,96.7L120.196,96.858L120.25,97.196L120.411,97.402L120.464,96.954L120.518,97.124L120.572,96.95L120.626,97.152L120.787,97.315L120.84,97.39L120.894,97.295L120.948,97.311L121.001,97.469L121.163,97.664L121.216,97.442L121.27,97.295L121.324,97.251L121.377,97.212L121.539,97.386L121.592,97.307L121.646,97.334L121.7,97.156L121.753,97.406L121.914,97.731L121.968,97.953L122.022,97.807L122.076,97.695L122.129,97.894L122.29,97.588L122.344,97.739L122.398,97.941L122.452,98.251L122.505,98.275L122.666,98.382L122.72,98.556L122.774,98.405L122.828,98.485L122.881,98.755L123.042,98.651L123.096,98.556L123.15,98.842L123.203,98.925L123.257,98.909L123.418,99.024L123.472,98.953L123.526,99.143L123.579,99.31L123.633,99.865L123.794,98.885L123.848,99.06L123.902,99.699L123.955,100.103L124.009,100.476L124.17,100.464L124.224,100.29L124.278,100.44L124.331,100.417L124.385,100.436L124.546,100.397L124.6,100.492L124.654,100.444L124.707,100.214L124.761,100.242L124.922,99.853L124.976,99.933L125.029,99.992L125.083,99.984L125.137,100.484L125.298,99.901L125.352,100.262L125.405,100.397L125.459,100.456L125.513,100.5L125.674,100.833L125.728,101.016L125.781,101.039L125.835,100.849L125.889,100.968L126.05,101.178L126.104,100.904L126.157,101.131L126.211,101.123L126.265,100.956L126.426,100.841L126.48,100.96L126.533,100.885L126.587,101.226L126.641,101.131L126.802,101.008L126.856,101.547L126.909,101.607L126.963,101.444L127.017,101.186L127.178,100.984L127.231,101.349L127.285,101.618L127.339,101.599L127.393,101.555L127.554,101.638L127.607,101.428L127.661,101.484L127.715,101.523L127.769,101.563L127.93,101.472L127.983,101.273L128.037,101.448L128.091,101.849L128.144,101.615L128.306,101.396L128.359,101.611L128.413,101.797L128.467,102.09L128.52,102.261L128.682,102.356L128.735,102.471L128.789,102.432L128.843,102.451L128.896,102.666L129.057,102.789L129.111,102.622L129.165,102.777L129.219,102.626L129.272,102.519L129.433,102.713L129.487,102.908L129.541,103.419L129.595,104.383L129.648,104.538L129.809,104.494L129.863,104.827L129.917,104.641L129.971,104.597L130.024,104.435L130.185,104.098L130.239,104.177L130.293,104.57L130.346,104.514L130.4,104.629L130.561,104.883L130.615,104.899L130.669,105.002L130.722,104.871L130.776,104.843L130.937,104.697L130.991,104.518L131.045,104.332L131.098,104.784L131.152,104.593L131.313,103.975L131.367,104.181L131.421,104.264L131.474,104.443L131.528,104.784L131.689,104.661L131.743,104.768L131.797,104.855L131.85,104.617L131.904,104.597L132.065,104.07L132.119,104.193L132.172,104.371L132.226,104.236L132.28,104.879L132.441,105.72L132.495,105.561L132.548,105.68L132.602,105.918L132.656,105.72L132.817,106.2L132.871,105.105L132.924,105.724L132.978,104.804L133.032,104.946L133.193,105.327L133.247,104.923L133.3,104.994L133.354,104.764L133.408,104.78L133.569,105.085L133.623,105.696L133.676,105.962L133.73,105.712L133.784,105.72L133.945,105.926L133.999,105.91L134.052,105.875L134.106,106.339L134.16,106.513L134.321,106.077L134.374,106.256L134.428,106.494L134.482,106.228L134.536,106.43L134.697,105.914L134.75,106.236L134.804,106.311L134.858,106.057L134.912,105.914L135.073,105.66L135.126,105.645L135.18,105.783L135.234,105.486L135.287,104.97L135.449,104.72L135.502,105.046L135.556,104.954L135.61,105.454L135.663,105.716L135.825,105.569L135.878,105.534L135.932,105.518L135.986,105.605L136.039,105.545L136.201,105.688L136.254,105.494L136.308,105.272L136.362,105.188L136.415,106.085L136.576,106.628L136.63,106.252L136.684,106.549L136.738,106.529L136.791,106.616L136.952,107.323L137.006,107.231L137.06,107.231L137.114,107.346L137.167,108.298L137.328,108.064L137.382,108.179L137.436,108.326L137.489,108.052L137.543,107.723L137.704,107.525L137.758,107.509L137.812,107.489L137.865,107.378L137.919,107.838L138.08,107.446L138.134,107.541L138.188,107.636L138.241,107.465L138.295,106.664L138.456,106.553L138.51,107.553L138.564,107.882L138.617,107.687L138.671,107.763L138.832,106.791L138.886,107.775L138.94,107.799L138.993,108.021L139.047,107.985L139.208,107.6L139.262,107.91L139.316,108.338L139.369,108.294L139.423,108.108L139.584,108.187L139.638,108.1L139.691,108.096L139.745,108.033L139.799,108.136L139.96,108.033L140.014,108.227L140.067,108.255L140.121,108.16L140.175,108.195L140.336,108.029L140.39,108.128L140.443,108.346L140.497,108.088L140.551,108.163L140.712,107.826L140.766,107.775L140.819,107.703L140.873,107.449L140.927,107.652L141.088,107.045L141.142,107.021L141.195,106.827L141.249,106.95L141.303,107.192L141.464,107.204L141.517,107.132L141.571,107.208L141.625,108.124L141.679,107.799L141.84,107.505L141.893,107.822L141.947,107.878L142.001,107.846L142.055,108.16L142.216,108.556L142.269,108.647L142.323,108.239L142.377,107.549L142.43,107.87L142.592,107.759L142.645,107.672L142.699,107.787L142.753,107.806L142.806,107.989L142.968,107.493L143.021,108.021L143.075,107.981L143.129,107.949L143.182,107.759L143.344,107.759L143.397,107.787L143.451,107.929L143.505,107.874L143.558,107.707L143.719,108.913L143.773,108.996L143.827,107.803L143.881,107.882L143.934,107.858L144.095,107.791L144.149,107.779L144.203,107.711L144.257,107.537L144.31,107.691L144.471,107.251L144.525,107.386L144.579,107.235L144.632,107.1L144.686,106.981L144.847,107.013L144.901,107.188L144.955,106.724L145.008,106.307L145.062,106.339L145.223,106.303L145.277,106.192L145.331,105.799L145.384,105.383L145.438,105.339L145.599,105.561L145.653,105.43L145.707,105.565L145.76,105.569L145.814,105.311L145.975,105.355L146.029,105.304L146.083,105.367L146.136,105.304L146.19,105.51L146.351,105.819L146.405,105.93L146.459,105.728L146.512,105.526L146.566,105.553L146.727,105.589L146.781,105.613L146.834,105.823L146.888,105.823L146.942,105.958L147.103,106.172L147.157,106.018L147.21,106.216L147.264,105.879L147.318,105.53L147.479,105.276L147.533,105.494L147.586,105.379L147.64,105.177L147.694,104.954L147.855,104.974L147.909,105.2L147.962,105.343L148.016,105.208L148.07,105.173L148.231,104.689L148.285,104.693L148.338,104.59L148.392,104.764L148.446,104.899L148.607,104.946L148.66,105.653L148.714,105.375L148.768,105.426L148.822,105.224L148.983,105.169L149.036,105.458L149.09,105.668L149.144,105.748L149.198,105.712L149.359,105.613L149.412,105.764L149.466,105.629L149.52,105.47L149.574,105.783L149.735,105.748L149.788,105.875L149.842,106.045L149.896,105.986L149.949,105.93L150.111,105.843L150.164,105.994L150.218,106.045L150.272,106.133L150.325,106.172L150.487,106.497L150.54,106.224L150.594,106.148L150.648,106.394L150.701,106.406L150.862,106.605L150.916,106.704L150.97,107.037L151.024,106.91L151.077,107.501L151.238,107.418L151.292,107.366L151.346,107.711L151.4,107.981L151.453,107.886L151.614,107.731L151.668,107.866L151.722,108.025L151.775,108.005L151.829,108.707L152.366,108.612L152.42,108.56L152.474,108.144L152.527,109L152.581,109.457L152.742,109.322L152.796,109.548L152.85,109.913L152.903,110.028L152.957,109.945L153.118,109.905L153.172,110.032L153.226,110.175L153.279,110.401L153.333,110.107L153.494,110.337L153.548,110.476L153.602,110.587L153.655,110.492L153.709,110.417L153.87,110.27L153.924,110.262L153.977,110.337L154.031,110.365L154.085,110.361L154.246,110.897L154.3,110.988L154.353,111.067L154.407,110.722L154.461,110.659L154.622,110.686L154.676,110.762L154.729,110.861L154.783,110.916L154.837,110.944L154.998,111.055L155.052,111.182L155.105,111.115L155.159,111.135L155.213,111.035L155.374,110.928L155.428,111.051L155.481,111.055L155.535,110.948L155.589,111.103L155.75,110.476L155.803,110.278L155.857,110.024L155.911,110.774L155.965,110.242L156.126,110.599L156.179,110.778L156.233,110.841L156.287,110.853L156.341,110.869L156.502,110.75L156.555,110.714L156.609,110.662L156.663,110.599L156.717,110.789L156.878,110.853L156.931,110.575L156.985,110.754L157.039,110.778L157.092,110.853L157.254,110.885L157.307,111.111L157.361,111.031L157.415,111.095L157.468,111.44L157.63,111.261L157.683,111.444L157.737,111.337L157.791,111.46L157.844,111.349L158.005,111.206L158.059,111.25L158.113,111.333L158.167,111.257L158.22,111.178L158.381,111.087L158.435,111.019L158.489,111.257L158.543,111.313L158.596,110.984L158.757,110.77L158.811,110.833L158.865,110.797L158.918,110.758L158.972,110.662L159.133,110.781L159.187,110.785L159.241,110.778L159.294,110.774L159.348,110.591L159.509,110.381L159.563,110.301L159.617,110.563L159.67,110.488L159.724,110.524L159.885,110.742L159.939,110.893L159.993,110.996L160.046,111.206L160.1,111.154L160.261,111.071L160.315,111.23L160.369,111.353L160.422,111.269L160.476,111.42L160.637,111.333L160.691,111.42L160.745,111.503L160.798,111.436L160.852,111.392L161.013,111.495L161.067,111.44L161.12,111.599L161.174,111.511L161.228,111.591L161.389,111.642L161.443,111.599L161.496,111.519L161.55,111.499L161.604,111.662L161.765,111.737L161.819,112.083L161.872,112.011L161.926,111.829L161.98,111.829L162.141,111.916L162.195,111.975L162.248,112.309L162.302,112.217L162.356,112.38L162.517,112.586L162.571,112.733L162.624,113.15L162.678,112.816L162.732,112.951L162.893,112.789L162.947,112.9L163,112.935L163.054,113.233L163.108,113.451L163.269,113.455L163.322,113.423L163.43,113.828L163.484,113.804L163.645,113.392L163.698,113.903L163.752,114.395L163.806,114.808L163.86,114.379L164.021,114.197L164.074,114.332L164.128,114.205L164.182,114.09L164.235,114.399L164.397,114.474L164.45,114.562L164.504,114.796L164.558,114.665L164.611,114.732L164.773,115.196L164.826,115.169L164.88,114.966L164.934,114.784L164.987,114.665L165.148,114.792L165.202,114.895L165.256,114.943L165.31,114.605L165.363,114.716L165.686,114.649L165.739,114.808L165.9,115.065L165.954,114.895L166.008,114.95L166.061,114.899L166.115,114.728L166.276,114.268L166.33,114.252L166.384,114.145L166.437,114.094L166.491,114.546L166.652,114.724L166.706,114.705L166.76,114.824L166.813,115.026L166.867,114.732L167.028,114.693L167.082,114.851L167.136,114.665L167.189,114.776L167.243,114.518L167.404,114.534L167.458,114.641L167.512,114.645L167.565,114.407L167.619,114.506L167.78,114.395L167.834,114.55L167.888,114.609L167.941,114.653L167.995,114.78L168.156,114.748L168.21,114.784L168.263,114.887L168.317,114.827L168.371,114.851L168.532,115.054L168.586,115.177L168.639,115.26L168.693,115.216L168.747,115.161L168.908,115.157L168.962,115.173L169.015,115.26L169.069,115.518L169.123,115.466L169.284,115.133L169.338,115.05L169.391,115.081L169.445,115.188L169.499,115.161L169.66,115.212L169.714,115.188L169.767,115.248L169.821,115.224L169.875,115.228L170.036,115.24L170.09,115.224L170.143,115.28L170.197,115.296L170.251,115.26L170.412,115.2L170.465,115.22L170.519,115.28L170.573,115.319L170.627,115.292L170.788,115.232L170.841,115.2L170.895,115.2L170.949,115.192L171.003,115.22L171.164,115.212L171.217,115.264L171.271,115.26L171.325,115.216L171.378,115.296L171.54,115.204L171.593,115.177L171.647,115.192L171.701,115.212L171.754,115.081L171.916,115.169L171.969,115.177L172.023,115.244L172.077,115.395L172.13,115.3L172.291,115.577L172.345,115.934L172.399,116.025L172.453,116.148L172.506,116.176L172.667,116.259L172.721,116.299L172.775,116.593L172.829,116.763L172.882,116.684L173.043,116.593L173.097,116.406L173.151,116.248L173.205,116.279L173.258,116.065L173.419,116.113L173.473,116.014L173.527,116.287L173.58,116.371L173.634,116.398L173.795,116.374L173.849,116.367L173.903,116.371L173.956,116.327L174.01,116.331L174.171,116.351L174.225,116.299L174.279,116.303L174.332,116.319L174.386,116.287L174.547,116.303L174.601,116.355L174.655,116.315L174.708,116.331L174.762,116.271L174.923,116.299L174.977,116.339L175.031,116.394L175.084,116.363L175.138,116.72L175.299,117.116L175.353,117.176L175.406,117.148L175.46,117.168L175.514,117.156L175.675,117.136L175.729,117.18L175.782,117.188L175.836,117.172L175.89,117.2L176.051,117.192L176.105,117.168L176.158,117.164L176.212,117.092L176.266,117.251L176.427,117.533L176.481,117.846L176.534,117.81L176.588,117.985L176.642,117.949L176.803,117.917L176.857,117.969L176.91,117.973L176.964,117.802L177.018,117.933L177.179,118.255L177.233,118.39L177.286,118.167L177.34,117.779L177.394,118.025L177.555,117.906L177.608,118.009L177.662,117.957L177.716,117.929L177.77,118.08L177.931,118.128L177.984,117.981L178.038,117.822L178.092,117.608L178.146,117.572L178.307,117.596L178.36,117.568L178.414,117.612L178.468,117.533L178.521,117.465L178.683,117.608L178.736,117.612L178.79,117.513L178.844,117.465L178.897,117.374L179.059,117.461L179.112,117.323L179.166,116.969L179.22,116.648L179.273,116.382L179.434,116.129L179.488,115.105L179.542,115.065L179.596,114.911L179.649,114.244L179.81,114.221L179.864,114.324L179.918,114.899L179.972,115.292L180.025,114.946L180.186,114.439L180.24,114.443L180.294,114.225L180.348,114.554L180.401,114.054L180.562,112.959L180.616,112.265L180.67,112.293L180.723,110.932L180.777,111.043L180.938,112.293L180.992,112.031L181.046,111.722L181.099,111.547L181.153,111.571L181.314,111.388L181.368,111.797L181.422,111.849L181.475,111.614L181.529,111.579L181.69,111.535L181.744,112.198L181.798,112.067L181.851,111.571L181.905,111.654L182.066,111.293L182.12,111.234L182.174,111.194L182.227,111.325L182.281,111.103L182.442,110.972L182.496,110.599L182.549,110.559L182.603,110.067L182.657,109.976L182.818,109.988L182.872,109.774L182.925,109.707L182.979,109.695L183.033,109.71L183.194,110.309L183.248,111.016L183.301,110.662L183.355,110.964L183.409,110.976L183.57,110.603L183.624,110.924L183.677,110.928L183.731,110.893L183.785,110.742L183.946,110.587L184,110.567L184.053,110.726L184.107,110.666L184.161,110.635L184.322,110.512L184.376,110.167L184.429,109.873L184.483,110.492L184.537,110.198L184.698,110.159L184.751,109.909L184.805,110.067L184.859,109.905L184.913,110.06L185.074,110.476L185.127,111.063L185.181,110.952L185.235,111.309L185.289,111.638L185.45,111.099L185.503,111.027L185.557,110.833L185.611,110.904L185.664,111.055L185.826,111.019L185.879,110.841L185.933,110.694L185.987,111.079L186.04,111.349L186.202,111.944L186.255,112.015L186.309,111.658L186.363,111.563L186.416,111.868L186.578,111.928L186.631,111.987L186.685,112.106L186.739,111.983L186.792,111.92L186.953,111.833L187.007,111.753L187.061,111.872L187.115,111.9L187.168,111.753L187.329,111.702L187.383,111.92L187.437,112.122L187.491,112.293L187.544,112.388L187.705,112.566L187.759,112.797L187.813,113.177L187.866,113.106L187.92,112.88L188.081,112.888L188.135,113.225L188.189,113.518L188.242,113.618L188.296,113.796L188.457,113.883L188.511,113.729L188.565,113.883L188.618,113.927L188.672,114.161L188.833,114.3L188.887,114.379L188.941,114.415L188.994,113.971L189.048,113.939L189.209,113.891L189.263,113.927L189.317,114.312L189.37,114.296L189.424,114.304L189.585,114.316L189.639,114.145L189.693,114.391L189.746,114.502L189.8,114.403L189.961,114.391L190.015,114.574L190.068,114.851L190.122,114.831L190.176,114.641L190.337,114.391L190.391,114.197L190.444,114.459L190.498,114.391L190.552,114.411L190.713,114.419L190.767,114.51L190.82,114.677L190.874,114.586L190.928,114.974L191.089,113.919L191.143,114.47L191.196,114.463L191.25,114.534L191.304,114.467L191.465,114.514L191.519,114.443L191.572,114.498L191.626,114.824L191.68,114.804L191.841,114.99L191.894,115.05L191.948,114.99L192.002,115.109L192.056,115.034L192.217,115.077L192.27,115.121L192.324,115.315L192.378,115.252L192.432,115.379L192.593,115.391L192.646,115.466L192.7,115.581L192.754,115.422L192.807,115.518L192.969,115.272L193.022,115.391L193.076,115.458L193.13,115.534L193.183,115.145L193.345,115.244L193.398,115.038L193.452,114.99L193.506,114.998L193.559,114.843L193.721,114.962L193.774,115.188L193.828,115.192L193.882,114.998L193.935,115.05L194.096,114.351L194.15,114.554L194.204,114.506L194.258,114.502L194.311,114.248L194.472,114.026L194.526,114.05L194.58,114.042L194.634,113.856L194.687,113.959L194.848,113.197L194.902,112.547L194.956,113.038L195.009,112.507L195.063,112.527L195.224,112.328L195.278,112.44L195.332,112.178L195.385,111.448L195.439,111.23L195.6,111.162L195.654,111.047L195.708,111.428L195.761,112.031L195.815,111.551L195.976,111.095L196.03,111.952L196.084,111.849L196.137,111.761L196.191,111.761L196.352,111.269L196.406,111.535L196.46,111.559L196.513,111.507L196.567,111.722L196.728,111.912L196.782,112.083L196.836,112.19L196.889,112.531L196.943,111.757L197.104,111.257L197.158,111.523L197.211,111.579L197.265,111.71L197.319,110.928L197.48,109.861L197.534,110.353L197.587,110.19L197.641,110.214L197.695,110.06L197.856,109.691L197.91,109.758L197.963,110.159L198.017,109.968L198.071,110.298L198.232,110.19L198.286,110.413L198.339,110.381L198.393,110.262L198.447,110.46L198.608,110.111L198.662,109.893L198.715,109.869L198.769,109.889L198.823,109.837L198.984,109.825L199.037,109.849L199.091,109.691L199.145,109.738L199.199,109.314L199.36,109.175L199.413,109.104L199.467,109.25L199.521,109.441L199.575,109.564L199.736,109.504L199.789,109.611L199.843,109.588L199.897,109.588L199.951,109.73L200.112,109.607L200.165,110.095L200.219,110.9L200.273,112.229L200.326,111.884L200.488,111.495L200.541,111.845L200.595,111.555L200.649,111.614L200.702,111.444L200.864,111.757L200.917,112.079L200.971,112.138L201.025,112.186L201.078,112.289L201.293,112.142L201.347,111.948L201.401,111.833L201.454,111.722L201.615,111.42L201.669,111.603L201.723,111.864L201.777,112.19L201.83,112.15L201.991,111.999L202.045,111.999L202.099,112.265L202.152,112.15L202.206,112.273L202.367,111.273L202.421,111.852L202.475,112.094L202.528,111.94L202.743,111.702L202.797,111.821L202.851,112.051L202.904,111.801L202.958,111.698L203.119,111.69L203.173,111.706L203.227,111.884L203.28,112.003L203.334,111.809L203.495,111.904L203.549,111.793L203.603,111.92L203.656,112.194L203.71,112.17L203.871,111.983L203.925,111.92L203.979,112.007L204.032,112.011L204.086,112.162L204.247,112.094L204.301,112.138L204.354,112.17L204.408,112.047L204.462,111.956L204.623,111.829L204.677,111.833L204.73,111.833L204.784,111.801L204.838,111.733L204.999,111.71L205.053,111.73L205.106,111.69L205.16,111.745L205.214,111.694L205.429,111.801L205.482,111.781L205.536,111.702L205.59,111.694L205.751,111.722L205.805,112.027L205.858,112.003L205.912,111.888L205.966,111.849L206.127,111.702L206.18,111.674L206.234,111.706L206.288,111.718L206.342,111.694L206.503,111.733L206.556,111.71L206.61,111.702L206.664,111.69L206.718,111.69L206.879,111.682L206.932,111.69L206.986,111.694L207.04,111.686L207.094,111.69L207.255,111.678L207.308,111.69L207.362,111.71L207.416,111.682L207.469,111.682L207.631,111.682L207.684,111.666L207.738,111.682L207.792,111.682L207.845,111.682L208.007,111.682L208.06,107.108L208.114,104.697L208.168,104.205L208.221,104.482L208.382,104.336L208.436,104.363L208.49,104.308L208.544,104.566L208.597,104.574L208.758,103.971L208.812,103.626L208.866,103.764L208.92,103.911L208.973,104.546L209.134,104.966L209.188,105.553L209.242,105.883L209.295,105.883L209.349,105.883L209.51,105.494L209.564,105.419L209.618,104.998L209.671,105.038L209.725,105.129L209.886,105.407L209.94,105.327L209.994,105.292L210.047,105.49L210.101,105.549L210.262,105.347L210.316,105.081L210.37,104.772L210.423,104.835L210.477,105.145L210.638,105.367L210.692,105.569L210.746,105.879L210.799,105.835L211.014,105.875L211.175,105.982L211.229,106.307L211.39,107.168L211.444,106.474L211.497,106.188L211.551,106.263L211.605,105.966L211.766,105.704L211.82,106.176L211.873,106.152L211.927,105.795L211.981,106.093L212.142,106.033L212.196,106.018L212.249,105.78L212.303,105.855L212.357,107.41L212.518,106.616L212.572,106.66L212.625,106.648L212.679,106.271L212.733,105.978L212.894,105.621L212.948,105.637L213.001,105.454L213.055,105.363L213.109,105.177L213.27,105.319L213.324,104.998L213.377,104.74L213.431,104.816L213.485,104.744L213.646,104.554L213.699,104.574L213.753,104.558L213.807,104.55L213.861,104.355L214.022,104.197L214.075,104.181L214.129,104.185L214.183,104.213L214.237,104.026L214.398,103.808L214.451,103.423L214.505,103.035L214.559,102.602L214.612,101.944L214.774,101.789L214.827,101.662L214.881,101.254L214.935,100.813L214.988,100.916L215.15,100.932L215.203,101.019L215.257,101.055L215.311,101.103L215.364,101.123L215.525,100.67L215.579,100.734L215.633,100.563L215.687,100.417L215.901,98.838L215.955,99.536L216.009,97.949L216.063,96.482L216.116,96.406L216.277,97.346L216.331,97.275L216.385,97.176L216.439,96.597L216.492,96.799L216.653,97.041L216.707,97.049L216.761,97.057L216.814,96.993L216.868,97.041L217.029,97.021L217.083,96.89L217.137,97.073L217.19,97.18L217.244,97.152L217.405,97.057L217.459,97.001L217.513,97.112L217.566,97.41L217.62,97.219L218.157,100.317L218.211,99.496L218.265,99.036L218.318,99.445L218.372,99.282L218.533,99.302L218.587,99.088L218.64,98.909L218.694,98.838L218.748,98.564L218.909,98.104L218.963,98.1L219.016,98.144L219.07,98.79L219.124,99.849L219.285,99.5L219.339,99.98L219.392,99.651L219.446,99.83L219.5,100.385L219.661,100.167L219.715,99.592L219.768,99.294L219.822,101.067L219.876,101.293L220.037,100.782L220.091,100.555L220.144,99.905L220.198,99.584L220.252,99.532L220.413,99.869L220.467,99.857L220.52,101.424L220.574,102.007L220.628,100.889L220.842,101.075L220.896,100.924L220.95,101.654L221.004,101.611L221.165,101.785L221.218,101.575L221.272,101.023L221.326,100.857L221.38,101.139L221.541,101.15L221.594,101.753L221.648,101.42L221.702,100.869L221.755,100.186L221.917,100.452L221.97,100.425L222.024,100.246L222.078,101.123L222.131,101.039L222.346,100.385L222.4,99.766L222.454,99.762L222.507,100.325L222.668,99.496L222.722,99.342L222.776,100.226L222.83,99.504L222.883,98.897L223.044,99.354L223.098,99.357L223.152,98.636L223.206,98.203L223.259,98.223L223.42,97.957L223.474,97.898L223.528,97.866L223.582,97.846L223.635,97.569L223.796,96.862L223.85,96.779L223.904,96.993L223.957,96.815L224.011,98.215L224.172,97.64L224.226,97.33L224.28,97.691L224.548,96.771L224.602,96.319L224.656,96.922L224.709,96.537L224.763,96.716L224.924,96.914L224.978,96.557L225.032,97.057L225.085,96.966L225.139,95.335L225.3,94.32L225.354,94.292L225.408,94.74L225.461,94.296L225.515,93.832L225.676,93.61L225.73,92.789L225.783,92.686L225.837,92.947L225.891,92.598L226.052,92.392L226.106,92.689L226.159,92.682L226.213,92.888L226.267,92.491L226.428,92.055L226.482,92.38L226.535,93.114L226.589,93.205L226.643,93.047L226.804,93.031L226.858,93.344L226.911,93.423L226.965,93.915L227.019,94.812L227.18,94.459L227.234,95.121L227.287,94.843L227.341,94.542L227.395,93.808L227.556,93.764L227.61,93.991L227.663,94.772L227.717,94.863L227.771,94.764L227.932,94.693L227.985,95.192L228.039,94.835L228.093,94.962L228.147,94.09L228.308,94.189L228.361,94.578L228.415,93.86L228.469,93.84L228.523,93.443L228.684,92.908L228.737,92.999L228.791,93.054L228.845,93.225L228.898,93.007L229.06,93.142L229.113,93.423L229.167,93.721L229.221,93.546L229.274,92.828L229.436,93.019L229.489,93.047L229.543,93.237L229.811,93.483L229.865,93.344L229.919,93.471L229.973,93.63L230.026,93.447L230.187,93.467L230.241,93.419L230.295,93.221L230.349,93.534L230.402,93.352L230.939,91.936L230.993,91.361L231.047,91.46L231.1,91.146L231.154,91.111L231.315,90.746L231.369,90.611L231.423,90.734L231.476,90.452L231.53,89.576L231.691,89.25L231.745,89.044L231.799,89.409L231.852,88.921L231.906,89.104L232.067,89.227L232.121,89.627L232.175,89.972L232.228,89.655L232.282,89.992L232.443,89.195L232.497,88.782L232.551,88.604L232.604,88.033L232.658,87.791L232.819,85.887L232.873,85.926L232.926,85.077L232.98,85.169L233.034,84.836L233.195,84.586L233.249,84.697L233.302,83.546L233.356,83.431L233.41,83.554L233.571,83.693L233.625,84.114L233.678,84.72L233.732,84.871L233.786,85.093L233.947,85.034L234.001,85.022L234.054,85.224L234.108,84.657L234.162,83.983L234.323,84.026L234.377,84.209L234.43,84.106L234.484,82.448L234.538,81.86L234.699,81.9L234.753,82.21L234.806,82.555L234.86,82.38L234.914,82.467L235.075,82.36L235.128,82.237L235.182,81.868L235.236,82.083L235.29,82.515L235.504,81.761L235.558,82.943L235.612,85.224L235.666,83.344L235.827,82.813L235.88,83.447L235.934,82.805L235.988,84.534L236.041,84.28L236.203,84.268L236.256,86.482L236.31,86.299L236.364,85.411L236.417,85.232L236.579,86.137L236.632,85.926L236.686,84.951L236.74,84.935L237.169,85.601L237.33,85.768L237.384,84.883L237.438,85.736L237.492,85.526L237.545,85.153L237.706,85.085L237.76,85.589L237.814,85.446L237.868,86.164L237.921,85.629L238.082,85.153L238.136,84.935L238.19,85.181L238.243,85.645L238.297,85.526L238.458,85.458L238.512,85.609L238.566,85.018L238.619,84.701L238.673,84.304L238.834,84.419L238.888,84.201L238.942,83.78L238.995,83.864L239.049,83.931L239.21,83.733L239.264,83.705L239.318,83.709L239.371,84.379L239.425,84.165L239.586,83.963L239.64,84.8L239.694,85.018L239.747,84.843L239.801,84.947L239.962,85.375L240.016,85.113L240.07,84.693L240.123,84.72L240.177,84.808L240.445,84.506L240.499,84.391L240.553,84.28L240.714,84.181L240.768,84.613L240.821,84.344" stroke-width="2" fill="none" stroke="#af516c"/></g></g></svg>