<?xml-stylesheet type="text/css" href="https://ig.ft.com/graphics/bloomberg-economics/chart-style.css" ?><svg xmlns="http://www.w3.org/2000/svg" viewBox="0 0 304 270"><text class="chart-title" fill="#43423e" font-size="20" y="22">上证综指</text><text class="chart-subtitle" fill="#43423e" font-size="15" y="42"></text><text class="chart-source" font-size="10" fill-opacity="0.4" y="265">来源：CEIC，2016/04/29</text><g transform="translate(1,100)"><g transform="translate(0,120)" class="x axis"><g class="tick" style="" transform="translate(21.235455167693363,0)"><line y2="6" x2="0" fill="none" stroke="#000" stroke-opacity="0.2"/><text dy="0" style="" y="20" x="0" font-family="MetricWeb,sans-serif" fill-opacity="0.6" font-size="12" text-anchor="start">2006</text></g><g class="tick" style="" transform="translate(63.706365503080086,0)"><line y2="6" x2="0" fill="none" stroke="#000" stroke-opacity="0.2"/><text dy="0" style="" y="20" x="0" font-family="MetricWeb,sans-serif" fill-opacity="0.6" font-size="12" text-anchor="start">2008</text></g><g class="tick" style="" transform="translate(106.23545516769336,0)"><line y2="6" x2="0" fill="none" stroke="#000" stroke-opacity="0.2"/><text dy="0" style="" y="20" x="0" font-family="MetricWeb,sans-serif" fill-opacity="0.6" font-size="12" text-anchor="start">2010</text></g><g class="tick" style="" transform="translate(148.70636550308006,0)"><line y2="6" x2="0" fill="none" stroke="#000" stroke-opacity="0.2"/><text dy="0" style="" y="20" x="0" font-family="MetricWeb,sans-serif" fill-opacity="0.6" font-size="12" text-anchor="start">2012</text></g><g class="tick" style="" transform="translate(191.23545516769335,0)"><line y2="6" x2="0" fill="none" stroke="#000" stroke-opacity="0.2"/><text dy="0" style="" y="20" x="0" font-family="MetricWeb,sans-serif" fill-opacity="0.6" font-size="12" text-anchor="start">2014</text></g><g class="tick" style="" transform="translate(233.7063655030801,0)"><line y2="6" x2="0" fill="none" stroke="#000" stroke-opacity="0.2"/><text dy="0" style="" y="20" x="0" font-family="MetricWeb,sans-serif" fill-opacity="0.6" font-size="12" text-anchor="start">2016</text></g><path class="domain" d="M0,0V0H255V0" fill="none" stroke="#74736c"/></g><g transform="translate(255,0)" class="y axis"><g class="tick" style="" transform="translate(0,120)"><line x2="-255" y2="0" fill="none" stroke="#000" stroke-opacity="0.2"/><text dy="0" style="text-anchor: start;" x="3" y="0" font-family="MetricWeb,sans-serif" fill-opacity="0.6" font-size="12">1,000</text></g><g class="tick" style="" transform="translate(0,96.2)"><line x2="-255" y2="0" fill="none" stroke="#000" stroke-opacity="0.2"/><text dy="0" style="text-anchor: start;" x="3" y="0" font-family="MetricWeb,sans-serif" fill-opacity="0.6" font-size="12">2,000</text></g><g class="tick" style="" transform="translate(0,72.4)"><line x2="-255" y2="0" fill="none" stroke="#000" stroke-opacity="0.2"/><text dy="0" style="text-anchor: start;" x="3" y="0" font-family="MetricWeb,sans-serif" fill-opacity="0.6" font-size="12">3,000</text></g><g class="tick" style="" transform="translate(0,48.6)"><line x2="-255" y2="0" fill="none" stroke="#000" stroke-opacity="0.2"/><text dy="0" style="text-anchor: start;" x="3" y="0" font-family="MetricWeb,sans-serif" fill-opacity="0.6" font-size="12">4,000</text></g><g class="tick" style="" transform="translate(0,24.799999999999994)"><line x2="-255" y2="0" fill="none" stroke="#000" stroke-opacity="0.2"/><text dy="0" style="text-anchor: start;" x="3" y="0" font-family="MetricWeb,sans-serif" fill-opacity="0.6" font-size="12">5,000</text></g><g class="tick" style="" transform="translate(0,1)"><line x2="-255" y2="0" fill="none" stroke="#000" stroke-opacity="0.2"/><text dy="0" style="text-anchor: start;" x="3" y="0" font-family="MetricWeb,sans-serif" fill-opacity="0.6" font-size="12">6,000</text></g><path class="domain" d="M-255,1H0V120H-255" fill="none" stroke="#000" stroke-opacity="0"/></g><g><path d="M1.804,112.717L3.433,115.686L5.236,116.212L6.982,118.554L8.785,118.074L10.53,118.024L12.334,116.125L14.138,116.296L15.883,117.791L17.687,117.638L19.432,116.167L21.235,113.858L23.039,112.883L24.668,112.9L26.472,109.523L28.217,104.737L30.021,104.001L31.766,105.417L33.569,104.324L35.373,102.092L37.118,100.056L38.922,93.837L40.667,80.124L42.471,77.485L44.274,75.231L45.903,68.021L47.707,52.378L49.452,45.99L51.256,52.867L53.001,37.389L54.805,19.592L56.608,11.655L58.354,2.076L60.157,27.852L61.903,18.575L63.706,39.475L65.51,40.305L67.197,61.15L69.001,55.904L70.746,62.086L72.55,78.681L74.295,77.738L76.099,86.743L77.902,89.208L79.648,102.655L81.451,99.266L83.196,100.465L85,96.422L86.804,94.228L88.433,87.318L90.236,84.834L91.982,81.136L93.785,73.367L95.53,62.593L97.334,80.308L99.138,77.65L100.883,72.499L102.687,67.752L104.432,65.804L106.235,72.655L108.039,71.164L109.668,69.803L111.472,75.479L113.217,82.107L115.021,86.719L116.766,81.028L118.569,80.997L120.373,80.595L122.118,72.904L123.922,76.68L125.667,76.968L127.471,77.382L129.274,74.66L130.903,74.111L132.707,74.506L134.452,78.505L136.256,78.062L138.001,79.499L139.805,82.697L141.608,87.651L143.354,85.056L145.157,88.265L146.903,91.454L148.706,89.236L150.51,86.002L152.197,89.946L154.001,86.768L155.746,87.341L157.55,90.835L159.295,93.734L161.099,95.069L162.902,94.149L164.648,94.561L166.451,96.673L168.196,89.795L170,87.027L171.804,87.499L173.433,90.568L175.236,91.966L176.982,89.046L178.785,96.695L180.53,96.348L182.334,93.859L184.138,92.043L185.883,92.83L187.687,90.952L189.432,93.44L191.235,95.413L193.039,94.86L194.668,95.407L196.472,95.573L198.217,95.267L200.021,95.05L201.766,91.403L203.569,91.031L205.373,87.54L207.118,86.2L208.922,79.948L210.667,66.815L212.471,67.393L214.274,65.015L215.903,54.6L217.707,38.089L219.452,34.041L221.256,42.002L223.001,56.603L224.805,67.497L226.608,71.144L228.354,63.295L230.157,61.799L231.903,59.568L233.706,78.645L235.51,79.826L237.197,72.307L239.001,73.868" stroke-width="2" fill="none" stroke="#af516c"/></g></g></svg>