<?xml-stylesheet type="text/css" href="https://ig.ft.com/graphics/bloomberg-economics/chart-style.css" ?><svg xmlns="http://www.w3.org/2000/svg" viewBox="0 0 304 270"><text class="chart-title" fill="#43423e" font-size="20" y="22">上证综指</text><text class="chart-subtitle" fill="#43423e" font-size="15" y="42"></text><text class="chart-source" font-size="10" fill-opacity="0.4" y="265">来源：CEIC，2017/03/31</text><g transform="translate(1,100)"><g transform="translate(0,120)" class="x axis"><g class="tick" style="" transform="translate(19.602990732940185,0)"><line y2="6" x2="0" fill="none" stroke="#000" stroke-opacity="0.2"/><text dy="0" style="" y="20" x="0" font-family="MetricWeb,sans-serif" fill-opacity="0.6" font-size="12" text-anchor="start">2006</text></g><g class="tick" style="" transform="translate(58.808972198820555,0)"><line y2="6" x2="0" fill="none" stroke="#000" stroke-opacity="0.2"/><text dy="0" style="" y="20" x="0" font-family="MetricWeb,sans-serif" fill-opacity="0.6" font-size="12" text-anchor="start">2008</text></g><g class="tick" style="" transform="translate(98.06866048862679,0)"><line y2="6" x2="0" fill="none" stroke="#000" stroke-opacity="0.2"/><text dy="0" style="" y="20" x="0" font-family="MetricWeb,sans-serif" fill-opacity="0.6" font-size="12" text-anchor="start">2010</text></g><g class="tick" style="" transform="translate(137.27464195450716,0)"><line y2="6" x2="0" fill="none" stroke="#000" stroke-opacity="0.2"/><text dy="0" style="" y="20" x="0" font-family="MetricWeb,sans-serif" fill-opacity="0.6" font-size="12" text-anchor="start">2012</text></g><g class="tick" style="" transform="translate(176.5343302443134,0)"><line y2="6" x2="0" fill="none" stroke="#000" stroke-opacity="0.2"/><text dy="0" style="" y="20" x="0" font-family="MetricWeb,sans-serif" fill-opacity="0.6" font-size="12" text-anchor="start">2014</text></g><g class="tick" style="" transform="translate(215.74031171019377,0)"><line y2="6" x2="0" fill="none" stroke="#000" stroke-opacity="0.2"/><text dy="0" style="" y="20" x="0" font-family="MetricWeb,sans-serif" fill-opacity="0.6" font-size="12" text-anchor="start">2016</text></g><g class="tick" style="" transform="translate(255,0)"><line y2="6" x2="0" fill="none" stroke="#000" stroke-opacity="0.2"/><text dy="0" style="" y="20" x="0" font-family="MetricWeb,sans-serif" fill-opacity="0.6" font-size="12" text-anchor="start">2018</text></g><path class="domain" d="M0,0V0H255V0" fill="none" stroke="#74736c"/></g><g transform="translate(255,0)" class="y axis"><g class="tick" style="" transform="translate(0,120)"><line x2="-255" y2="0" fill="none" stroke="#000" stroke-opacity="0.2"/><text dy="0" style="text-anchor: start;" x="3" y="0" font-family="MetricWeb,sans-serif" fill-opacity="0.6" font-size="12">1,000</text></g><g class="tick" style="" transform="translate(0,96.2)"><line x2="-255" y2="0" fill="none" stroke="#000" stroke-opacity="0.2"/><text dy="0" style="text-anchor: start;" x="3" y="0" font-family="MetricWeb,sans-serif" fill-opacity="0.6" font-size="12">2,000</text></g><g class="tick" style="" transform="translate(0,72.4)"><line x2="-255" y2="0" fill="none" stroke="#000" stroke-opacity="0.2"/><text dy="0" style="text-anchor: start;" x="3" y="0" font-family="MetricWeb,sans-serif" fill-opacity="0.6" font-size="12">3,000</text></g><g class="tick" style="" transform="translate(0,48.6)"><line x2="-255" y2="0" fill="none" stroke="#000" stroke-opacity="0.2"/><text dy="0" style="text-anchor: start;" x="3" y="0" font-family="MetricWeb,sans-serif" fill-opacity="0.6" font-size="12">4,000</text></g><g class="tick" style="" transform="translate(0,24.799999999999994)"><line x2="-255" y2="0" fill="none" stroke="#000" stroke-opacity="0.2"/><text dy="0" style="text-anchor: start;" x="3" y="0" font-family="MetricWeb,sans-serif" fill-opacity="0.6" font-size="12">5,000</text></g><g class="tick" style="" transform="translate(0,1)"><line x2="-255" y2="0" fill="none" stroke="#000" stroke-opacity="0.2"/><text dy="0" style="text-anchor: start;" x="3" y="0" font-family="MetricWeb,sans-serif" fill-opacity="0.6" font-size="12">6,000</text></g><path class="domain" d="M-255,1H0V120H-255" fill="none" stroke="#000" stroke-opacity="0"/></g><g><path d="M1.665,112.717L3.169,115.686L4.834,116.212L6.445,118.554L8.11,118.074L9.721,118.024L11.386,116.125L13.051,116.296L14.662,117.791L16.327,117.638L17.938,116.167L19.603,113.858L21.268,112.883L22.772,112.9L24.437,109.523L26.048,104.737L27.713,104.001L29.324,105.417L30.989,104.324L32.654,102.092L34.265,100.056L35.93,93.837L37.541,80.124L39.206,77.485L40.871,75.231L42.375,68.021L44.04,52.378L45.651,45.99L47.316,52.867L48.927,37.389L50.592,19.592L52.257,11.655L53.868,2.076L55.533,27.852L57.144,18.575L58.809,39.475L60.474,40.305L62.031,61.15L63.696,55.904L65.307,62.086L66.972,78.681L68.584,77.738L70.249,86.743L71.913,89.208L73.525,102.655L75.19,99.266L76.801,100.465L78.466,96.422L80.131,94.228L81.634,87.318L83.299,84.834L84.91,81.136L86.575,73.367L88.187,62.593L89.852,80.308L91.516,77.65L93.128,72.499L94.793,67.752L96.404,65.804L98.069,72.655L99.734,71.164L101.237,69.803L102.902,75.479L104.513,82.107L106.178,86.719L107.79,81.028L109.455,80.997L111.119,80.595L112.731,72.904L114.396,76.68L116.007,76.968L117.672,77.382L119.337,74.66L120.84,74.111L122.505,74.506L124.116,78.505L125.781,78.062L127.393,79.499L129.057,82.697L130.722,87.651L132.334,85.056L133.999,88.265L135.61,91.454L137.275,89.236L138.94,86.002L140.497,89.946L142.162,86.768L143.773,87.341L145.438,90.835L147.049,93.734L148.714,95.069L150.379,94.149L151.99,94.561L153.655,96.673L155.266,89.795L156.931,87.027L158.596,87.499L160.1,90.568L161.765,91.966L163.376,89.046L165.041,96.695L166.652,96.348L168.317,93.859L169.982,92.043L171.593,92.83L173.258,90.952L174.869,93.44L176.534,95.413L178.199,94.86L179.703,95.407L181.368,95.573L182.979,95.267L184.644,95.05L186.255,91.403L187.92,91.031L189.585,87.54L191.196,86.2L192.861,79.948L194.472,66.815L196.137,67.393L197.802,65.015L199.306,54.6L200.971,38.089L202.582,34.041L204.247,42.002L205.858,56.603L207.523,67.497L209.188,71.144L210.799,63.295L212.464,61.799L214.075,59.568L215.74,78.645L217.405,79.826L218.963,72.307L220.628,73.868L222.239,74.384L223.904,74.075L225.515,72.892L227.18,70.365L228.845,72.288L230.456,70.008L232.121,66.449L233.732,69.933L235.397,68.612L237.062,66.647L238.566,67.104" stroke-width="2" fill="none" stroke="#af516c"/></g></g></svg>