<?xml-stylesheet type="text/css" href="https://ig.ft.com/graphics/bloomberg-economics/chart-style.css" ?><svg xmlns="http://www.w3.org/2000/svg" viewBox="0 0 304 270"><text class="chart-title" font-family="MetricWeb,sans-serif" fill="#43423e" font-size="20" y="22">中国增长来源</text><text class="chart-subtitle" font-family="MetricWeb,sans-serif" fill="#43423e" font-size="15" y="42">百分点</text><text class="chart-source" font-family="MetricWeb,sans-serif" font-size="10" fill-opacity="0.4" y="265">来源：CEIC、中国国家统计局 29 Jan 2016</text><g transform="translate(1,100)"><g transform="translate(0,120)" class="x axis"><g class="tick" style="" transform="translate(36.414319248826295,0)"><line y2="6" x2="0" fill="none" stroke="#000" stroke-opacity="0.2"/><text dy="0" style="" y="20" x="0" font-family="MetricWeb,sans-serif" fill-opacity="0.6" font-size="12" text-anchor="start">2010</text></g><g class="tick" style="" transform="translate(109.24295774647888,0)"><line y2="6" x2="0" fill="none" stroke="#000" stroke-opacity="0.2"/><text dy="0" style="" y="20" x="0" font-family="MetricWeb,sans-serif" fill-opacity="0.6" font-size="12" text-anchor="start">2012</text></g><g class="tick" style="" transform="translate(182.17136150234742,0)"><line y2="6" x2="0" fill="none" stroke="#000" stroke-opacity="0.2"/><text dy="0" style="" y="20" x="0" font-family="MetricWeb,sans-serif" fill-opacity="0.6" font-size="12" text-anchor="start">2014</text></g><g class="tick" style="" transform="translate(255,0)"><line y2="6" x2="0" fill="none" stroke="#000" stroke-opacity="0.2"/><text dy="0" style="" y="20" x="0" font-family="MetricWeb,sans-serif" fill-opacity="0.6" font-size="12" text-anchor="start">2016</text></g><path class="domain" d="M0,0V0H255V0" fill="none" stroke="#74736c"/></g><g transform="translate(255,0)" class="y axis"><g class="tick" style="" transform="translate(0,120)"><line x2="-255" y2="0" fill="none" stroke="#000" stroke-opacity="0.2"/><text dy="0" style="text-anchor: start;" x="3" y="0" font-family="MetricWeb,sans-serif" fill-opacity="0.6" font-size="12">-5</text></g><g class="tick" style="" transform="translate(0,74.23076923076924)"><line x2="-255" y2="0" fill="none" stroke="#000" stroke-opacity="0.2"/><text dy="0" style="text-anchor: start;" x="3" y="0" font-family="MetricWeb,sans-serif" fill-opacity="0.6" font-size="12">0</text></g><g class="tick" style="" transform="translate(0,28.461538461538456)"><line x2="-255" y2="0" fill="none" stroke="#000" stroke-opacity="0.2"/><text dy="0" style="text-anchor: start;" x="3" y="0" font-family="MetricWeb,sans-serif" fill-opacity="0.6" font-size="12">5</text></g><path class="domain" d="M-255,1H0V120H-255" fill="none" stroke="#000" stroke-opacity="0"/><line class="highlight-line" x1="0" x2="-255" y1="74.23076923076924" y2="74.23076923076924" fill="none" stroke="#74736c"/></g><g class="chart-key" transform="translate(0,-35)"><g class="key-element" transform="translate(0,0)"><text x="28" font-family="MetricWeb,sans-serif" font-size="12" fill="#43423e">最终消费支出</text><line x1="0" x2="25" y1="-5" y2="-5" stroke-width="2" fill="none" stroke="#af516c"/></g><g class="key-element" transform="translate(0,20)"><text x="28" font-family="MetricWeb,sans-serif" font-size="12" fill="#43423e">资本形成总额</text><line x1="0" x2="25" y1="-5" y2="-5" stroke-width="2" fill="none" stroke="#76acb8"/></g><g class="key-element" transform="translate(0,40)"><text x="28" font-family="MetricWeb,sans-serif" font-size="12" fill="#43423e">净出口</text><line x1="0" x2="25" y1="-5" y2="-5" stroke-width="2" fill="none" stroke="#ecafaf"/></g></g><g><path d="M5.886,112.677L15.065,100.777L24.243,107.185L33.322,110.274L42.3,77.892L51.479,67.823L60.657,65.077L69.736,85.16L78.715,75.146L87.893,73.698L97.072,73.315L106.15,81.195L115.229,80.638L124.407,82.469L133.586,77.892L142.664,73.054L151.643,64.162L160.822,73.315L170,75.146L179.079,75.927L188.058,85.215L197.236,76.062L206.414,66.908L215.493,72.4L224.472,62.331L233.65,71.485L242.829,75.146L251.907,76.062" stroke-width="2" fill="none" stroke="#ecafaf"/><path d="M5.886,19.308L15.065,17.477L24.243,7.408L33.322,1.841L42.3,29.377L51.479,23.885L60.657,24.8L69.736,11.069L78.715,39.446L87.893,32.232L97.072,33.954L106.15,35.621L115.229,52.262L124.407,37.615L133.586,38.531L142.664,44.735L151.643,53.177L160.822,36.7L170,34.869L179.079,36.025L188.058,45.854L197.236,41.277L206.414,46.769L215.493,43.108L224.472,63.246L233.65,50.431L242.829,46.769L251.907,51.346" stroke-width="2" fill="none" stroke="#76acb8"/><path d="M5.886,34.869L15.065,39.446L24.243,37.615L33.322,26.362L42.3,4.662L51.479,28.462L60.657,34.869L69.736,29.377L78.715,18.392L87.893,27.97L97.072,28.462L106.15,19.308L115.229,15.646L124.407,31.208L133.586,35.785L142.664,34.419L151.643,34.869L160.822,43.108L170,42.192L179.079,40.255L188.058,23.885L197.236,37.615L206.414,41.421L215.493,40.362L224.472,33.038L233.65,36.7L242.829,37.615L251.907,32.123" stroke-width="2" fill="none" stroke="#af516c"/></g></g></svg>