<?xml-stylesheet type="text/css" href="https://ig.ft.com/graphics/bloomberg-economics/chart-style.css" ?><svg xmlns="http://www.w3.org/2000/svg" viewBox="0 0 304 270"><text class="chart-title" fill="#43423e" font-size="20" y="22">中国增长来源</text><text class="chart-subtitle" fill="#43423e" font-size="15" y="42">百分点</text><text class="chart-source" font-size="10" fill-opacity="0.4" y="265">来源：CEIC、中国国家统计局，2017/01/20</text><g transform="translate(1,100)"><g transform="translate(0,120)" class="x axis"><g class="tick" style="" transform="translate(31.853182751540043,0)"><line y2="6" x2="0" fill="none" stroke="#000" stroke-opacity="0.2"/><text dy="0" style="" y="20" x="0" font-family="MetricWeb,sans-serif" fill-opacity="0.6" font-size="12" text-anchor="start">2010</text></g><g class="tick" style="" transform="translate(95.55954825462011,0)"><line y2="6" x2="0" fill="none" stroke="#000" stroke-opacity="0.2"/><text dy="0" style="" y="20" x="0" font-family="MetricWeb,sans-serif" fill-opacity="0.6" font-size="12" text-anchor="start">2012</text></g><g class="tick" style="" transform="translate(159.35318275154006,0)"><line y2="6" x2="0" fill="none" stroke="#000" stroke-opacity="0.2"/><text dy="0" style="" y="20" x="0" font-family="MetricWeb,sans-serif" fill-opacity="0.6" font-size="12" text-anchor="start">2014</text></g><g class="tick" style="" transform="translate(223.05954825462013,0)"><line y2="6" x2="0" fill="none" stroke="#000" stroke-opacity="0.2"/><text dy="0" style="" y="20" x="0" font-family="MetricWeb,sans-serif" fill-opacity="0.6" font-size="12" text-anchor="start">2016</text></g><path class="domain" d="M0,0V0H255V0" fill="none" stroke="#74736c"/></g><g transform="translate(255,0)" class="y axis"><g class="tick" style="" transform="translate(0,112.5625)"><line x2="-255" y2="0" fill="none" stroke="#000" stroke-opacity="0.2"/><text dy="0" style="text-anchor: start;" x="3" y="0" font-family="MetricWeb,sans-serif" fill-opacity="0.6" font-size="12">-5</text></g><g class="tick" style="" transform="translate(0,75.375)"><line x2="-255" y2="0" fill="none" stroke="#000" stroke-opacity="0.2"/><text dy="0" style="text-anchor: start;" x="3" y="0" font-family="MetricWeb,sans-serif" fill-opacity="0.6" font-size="12">0</text></g><g class="tick" style="" transform="translate(0,38.1875)"><line x2="-255" y2="0" fill="none" stroke="#000" stroke-opacity="0.2"/><text dy="0" style="text-anchor: start;" x="3" y="0" font-family="MetricWeb,sans-serif" fill-opacity="0.6" font-size="12">5</text></g><g class="tick" style="" transform="translate(0,1)"><line x2="-255" y2="0" fill="none" stroke="#000" stroke-opacity="0.2"/><text dy="0" style="text-anchor: start;" x="3" y="0" font-family="MetricWeb,sans-serif" fill-opacity="0.6" font-size="12">10</text></g><path class="domain" d="M-255,1H0V120H-255" fill="none" stroke="#000" stroke-opacity="0"/><line class="highlight-line" x1="0" x2="-255" y1="75.375" y2="75.375" fill="none" stroke="#74736c"/></g><g class="chart-key" transform="translate(0,-35)"><g class="key-element" transform="translate(0,0)"><text x="28" font-size="12" fill="#43423e">最终消费支出</text><line x1="0" x2="25" y1="-5" y2="-5" stroke-width="2" fill="none" stroke="#af516c"/></g><g class="key-element" transform="translate(0,20)"><text x="28" font-size="12" fill="#43423e">资本形成总额</text><line x1="0" x2="25" y1="-5" y2="-5" stroke-width="2" fill="none" stroke="#76acb8"/></g><g class="key-element" transform="translate(0,40)"><text x="28" font-size="12" fill="#43423e">净出口</text><line x1="0" x2="25" y1="-5" y2="-5" stroke-width="2" fill="none" stroke="#ecafaf"/></g></g><g><path d="M5.149,106.613L13.178,96.944L21.206,102.15L29.148,105.125L37.002,78.35L45.031,70.169L53.06,67.938L61.001,85.044L68.855,76.119L76.884,74.942L84.913,74.631L92.854,81.325L100.796,80.581L108.824,82.069L116.853,78.35L124.795,73.888L132.649,67.194L140.678,74.631L148.706,76.119L156.648,76.119L164.502,84.3L172.531,76.863L180.56,69.425L188.501,73.144L196.355,65.706L204.384,73.144L212.413,76.119L220.354,76.119L228.296,85.491L236.324,80.557L244.353,79.262L252.295,78.764" stroke-width="2" fill="none" stroke="#ecafaf"/><path d="M5.149,30.75L13.178,29.263L21.206,21.081L29.148,15.131L37.002,38.931L45.031,34.469L53.06,35.213L61.001,22.569L68.855,47.112L76.884,41.251L84.913,42.65L92.854,42.65L100.796,57.525L108.824,45.625L116.853,46.369L124.795,50.088L132.649,58.269L140.678,44.881L148.706,43.394L156.648,43.394L164.502,52.319L172.531,48.6L180.56,53.063L188.501,50.088L196.355,66.45L204.384,56.038L212.413,53.063L220.354,53.806L228.296,57.137L236.324,56.937L244.353,57.037L252.295,54.346" stroke-width="2" fill="none" stroke="#76acb8"/><path d="M5.149,43.394L13.178,47.112L21.206,45.625L29.148,35.956L37.002,18.85L45.031,38.188L53.06,43.394L61.001,39.675L68.855,30.006L76.884,37.788L84.913,38.188L92.854,31.494L100.796,27.775L108.824,40.419L116.853,44.138L124.795,43.394L132.649,43.394L140.678,50.088L148.706,49.344L156.648,48.6L164.502,34.469L172.531,45.625L180.56,48.717L188.501,48.6L196.355,41.906L204.384,44.033L212.413,45.335L220.354,44.881L228.296,33.666L236.324,38.799L244.353,39.995L252.295,43.184" stroke-width="2" fill="none" stroke="#af516c"/></g></g></svg>