<?xml-stylesheet type="text/css" href="https://ig.ft.com/graphics/bloomberg-economics/chart-style.css" ?><svg xmlns="http://www.w3.org/2000/svg" viewBox="0 0 304 270"><text class="chart-title" fill="#43423e" font-size="20" y="22">加权平均银行贷款利率</text><text class="chart-subtitle" fill="#43423e" font-size="15" y="42">%</text><text class="chart-source" font-size="10" fill-opacity="0.4" y="265">来源：CEIC、中国人民银行. 06 May 2016</text><g transform="translate(1,100)"><g transform="translate(0,120)" class="x axis"><g class="tick" style="" transform="translate(31.853182751540043,0)"><line y2="6" x2="0" fill="none" stroke="#000" stroke-opacity="0.2"/><text dy="0" style="" y="20" x="0" font-family="MetricWeb,sans-serif" fill-opacity="0.6" font-size="12" text-anchor="start">2010</text></g><g class="tick" style="" transform="translate(95.55954825462011,0)"><line y2="6" x2="0" fill="none" stroke="#000" stroke-opacity="0.2"/><text dy="0" style="" y="20" x="0" font-family="MetricWeb,sans-serif" fill-opacity="0.6" font-size="12" text-anchor="start">2012</text></g><g class="tick" style="" transform="translate(159.35318275154006,0)"><line y2="6" x2="0" fill="none" stroke="#000" stroke-opacity="0.2"/><text dy="0" style="" y="20" x="0" font-family="MetricWeb,sans-serif" fill-opacity="0.6" font-size="12" text-anchor="start">2014</text></g><g class="tick" style="" transform="translate(223.05954825462013,0)"><line y2="6" x2="0" fill="none" stroke="#000" stroke-opacity="0.2"/><text dy="0" style="" y="20" x="0" font-family="MetricWeb,sans-serif" fill-opacity="0.6" font-size="12" text-anchor="start">2016</text></g><path class="domain" d="M0,0V0H255V0" fill="none" stroke="#74736c"/></g><g transform="translate(255,0)" class="y axis"><g class="tick" style="" transform="translate(0,120)"><line x2="-255" y2="0" fill="none" stroke="#000" stroke-opacity="0.2"/><text dy="0" style="text-anchor: start;" x="3" y="0" font-family="MetricWeb,sans-serif" fill-opacity="0.6" font-size="12">5</text></g><g class="tick" style="" transform="translate(0,80.33333333333334)"><line x2="-255" y2="0" fill="none" stroke="#000" stroke-opacity="0.2"/><text dy="0" style="text-anchor: start;" x="3" y="0" font-family="MetricWeb,sans-serif" fill-opacity="0.6" font-size="12">6</text></g><g class="tick" style="" transform="translate(0,40.66666666666667)"><line x2="-255" y2="0" fill="none" stroke="#000" stroke-opacity="0.2"/><text dy="0" style="text-anchor: start;" x="3" y="0" font-family="MetricWeb,sans-serif" fill-opacity="0.6" font-size="12">7</text></g><g class="tick" style="" transform="translate(0,1)"><line x2="-255" y2="0" fill="none" stroke="#000" stroke-opacity="0.2"/><text dy="0" style="text-anchor: start;" x="3" y="0" font-family="MetricWeb,sans-serif" fill-opacity="0.6" font-size="12">8</text></g><path class="domain" d="M-255,1H0V120H-255" fill="none" stroke="#000" stroke-opacity="0"/></g><g><path d="M5.149,92.233L13.178,92.233L21.206,90.647L29.148,85.093L37.002,78.747L45.031,80.73L53.06,76.763L61.001,66.847L68.855,36.7L76.884,26.387L84.913,8.933L92.854,8.933L100.796,2.19L108.824,18.85L116.853,33.527L124.795,37.89L132.649,31.94L140.678,36.7L148.706,34.32L156.648,35.113L164.502,25.99L172.531,30.353L180.56,27.577L188.501,43.84L196.355,49.393L204.384,62.087L212.413,79.937L220.354,94.613L228.296,93.423" stroke-width="2" fill="none" stroke="#af516c"/></g></g></svg>