<?xml version="1.0" encoding="utf-8"?>
<!-- Generator: Adobe Illustrator 18.0.0, SVG Export Plug-In . SVG Version: 6.00 Build 0)  -->
<!DOCTYPE svg PUBLIC "-//W3C//DTD SVG 1.1//EN" "http://www.w3.org/Graphics/SVG/1.1/DTD/svg11.dtd">
<svg version="1.1" id="Layer_1" xmlns="http://www.w3.org/2000/svg" xmlns:xlink="http://www.w3.org/1999/xlink" x="0px" y="0px"
	 viewBox="0 0 300 276" enable-background="new 0 0 300 276" xml:space="preserve">
<title>China labour demand index</title>
<desc>Index above 50 indicates growth from previous month</desc>
<g transform="translate(0,18)">
	<g enable-background="new    ">
		<path fill="#43423E" d="M0.8-6.7c0-4.2,2.3-6.9,5.7-6.9c2.8,0,4.3,1.6,4.9,4.1L9.9-9.1c-0.6-2-1.5-3-3.4-3c-2.5,0-4,2.1-4,5.4
			c0,3.5,1.6,5.5,4.1,5.5c1.9,0,3.1-1.1,3.6-3.2l1.5,0.3c-0.6,2.6-2.3,4.3-5.1,4.3C3.1,0.3,0.8-2.4,0.8-6.7z"/>
		<path fill="#43423E" d="M13.5-13.3h1.6v5.2c0.8-0.8,2-1.6,3.6-1.6c1.8,0,2.8,1,2.8,2.8V0h-1.5v-6.5c0-1.3-0.5-1.9-1.7-1.9
			c-1.1,0-2.1,0.6-3.1,1.5V0h-1.6V-13.3z"/>
		<path fill="#43423E" d="M23.8-13.1h1.6v1.5h-1.6V-13.1z M23.9-9.5h1.5V0h-1.5V-9.5z"/>
		<path fill="#43423E" d="M27.9-9.5h1.6v1.4c0.8-0.8,2-1.6,3.6-1.6c1.8,0,2.8,1,2.8,2.8V0h-1.5v-6.5c0-1.3-0.5-1.9-1.7-1.9
			c-1.1,0-2.1,0.6-3.1,1.5V0h-1.6V-9.5z"/>
		<path fill="#43423E" d="M37.5-2.3c0-1.9,1.6-3.3,6.4-4v-0.4c0-1.2-0.6-1.8-1.8-1.8c-1.4,0-2.5,0.6-3.4,1.4l-0.8-1
			c1.1-1,2.5-1.8,4.4-1.8c2.3,0,3.2,1.2,3.2,3.2v4.2c0,1.2,0.1,1.9,0.3,2.3h-1.6c-0.1-0.4-0.2-0.8-0.2-1.3c-1.1,1-2.3,1.5-3.7,1.5
			C38.6,0.1,37.5-0.7,37.5-2.3z M43.9-2.5v-2.7c-3.6,0.6-4.8,1.5-4.8,2.6c0,0.9,0.6,1.4,1.6,1.4C41.9-1.1,43-1.6,43.9-2.5z"/>
		<path fill="#43423E" d="M52-13.3h1.5V0H52V-13.3z"/>
		<path fill="#43423E" d="M55.5-2.3c0-1.9,1.6-3.3,6.4-4v-0.4c0-1.2-0.6-1.8-1.8-1.8c-1.4,0-2.5,0.6-3.4,1.4l-0.8-1
			c1.1-1,2.5-1.8,4.4-1.8c2.3,0,3.2,1.2,3.2,3.2v4.2c0,1.2,0.1,1.9,0.3,2.3H62c-0.1-0.4-0.2-0.8-0.2-1.3c-1.1,1-2.3,1.5-3.7,1.5
			C56.5,0.1,55.5-0.7,55.5-2.3z M61.8-2.5v-2.7C58.2-4.6,57-3.7,57-2.5c0,0.9,0.6,1.4,1.6,1.4C59.9-1.1,60.9-1.6,61.8-2.5z"/>
		<path fill="#43423E" d="M67.2-1.2V0h-1.5v-13.3h1.5v5.1c0.7-0.8,1.7-1.5,3.1-1.5c2.2,0,3.9,1.6,3.9,4.9c0,3.3-1.7,4.9-4,4.9
			C69,0.1,68-0.4,67.2-1.2z M72.6-4.8c0-2.4-1.2-3.6-2.7-3.6c-1.1,0-2,0.6-2.8,1.5v4.4c0.8,0.9,1.7,1.4,2.8,1.4
			C71.6-1.1,72.6-2.2,72.6-4.8z"/>
		<path fill="#43423E" d="M75.5-4.8c0-3.3,2.1-5,4.4-5c2.3,0,4.4,1.7,4.4,5c0,3.3-2.1,5-4.4,5S75.5-1.5,75.5-4.8z M82.8-4.8
			c0-2-1-3.6-2.8-3.6c-1.8,0-2.9,1.5-2.9,3.6c0,2,0.9,3.6,2.9,3.6C81.8-1.1,82.8-2.6,82.8-4.8z"/>
		<path fill="#43423E" d="M86.1-2.6v-6.9h1.5V-3c0,1.3,0.5,1.9,1.7,1.9c1.2,0,2.1-0.6,3.1-1.5v-6.9h1.6V0h-1.6v-1.4
			c-0.8,0.8-2,1.6-3.6,1.6C87.1,0.2,86.1-0.8,86.1-2.6z"/>
		<path fill="#43423E" d="M96.4-9.5H98v1.8h0c0.7-1.1,1.8-2,3.7-2h0.2l-0.1,1.4c-0.1,0-0.4,0-0.5,0c-1.5,0-2.6,0.8-3.3,2.1V0h-1.5
			V-9.5z"/>
		<path fill="#43423E" d="M107-4.7c0-3.3,1.7-5,4.1-5c1.2,0,2.2,0.6,3,1.4v-5h1.5v11c0,1.2,0.1,1.9,0.3,2.3h-1.6
			c-0.1-0.3-0.2-0.9-0.2-1.4c-0.8,0.8-1.7,1.5-3.1,1.5C108.6,0.1,107-1.4,107-4.7z M114-2.6V-7c-0.8-0.9-1.7-1.4-2.7-1.4
			c-1.7,0-2.7,1.2-2.7,3.7c0,2.4,1.2,3.6,2.7,3.6C112.3-1.1,113.2-1.7,114-2.6z"/>
		<path fill="#43423E" d="M117.4-4.8c0-3.5,2.3-5,4.3-5c2.3,0,4,1.6,4,5v0.3h-6.7c0.1,2.1,1.3,3.3,2.9,3.3c1.4,0,2.1-0.6,2.9-1.5
			l0.9,0.8c-0.9,1.3-2.1,2-3.9,2C119.4,0.2,117.4-1.4,117.4-4.8z M124.1-5.6c-0.1-1.7-0.9-2.8-2.5-2.8c-1.3,0-2.5,0.9-2.7,2.8H124.1
			z"/>
		<path fill="#43423E" d="M127.5-9.5h1.5v1.4c0.9-0.9,2-1.6,3.4-1.6c1.6,0,2.3,0.7,2.6,1.7c0.9-0.9,2.1-1.7,3.5-1.7
			c1.9,0,2.8,1.1,2.8,2.8V0h-1.5v-6.5c0-1.3-0.4-1.9-1.7-1.9c-1.1,0-1.9,0.6-2.9,1.5V0h-1.5v-6.5c0-1.3-0.4-1.9-1.7-1.9
			c-1,0-1.9,0.6-3,1.5V0h-1.5V-9.5z"/>
		<path fill="#43423E" d="M143-2.3c0-1.9,1.6-3.3,6.4-4v-0.4c0-1.2-0.6-1.8-1.8-1.8c-1.4,0-2.5,0.6-3.4,1.4l-0.8-1
			c1.1-1,2.5-1.8,4.4-1.8c2.3,0,3.2,1.2,3.2,3.2v4.2c0,1.2,0.1,1.9,0.3,2.3h-1.6c-0.1-0.4-0.2-0.8-0.2-1.3c-1.1,1-2.3,1.5-3.7,1.5
			C144.1,0.1,143-0.7,143-2.3z M149.4-2.5v-2.7c-3.6,0.6-4.8,1.5-4.8,2.6c0,0.9,0.6,1.4,1.6,1.4C147.4-1.1,148.5-1.6,149.4-2.5z"/>
		<path fill="#43423E" d="M153.2-9.5h1.6v1.4c0.8-0.8,2-1.6,3.6-1.6c1.8,0,2.8,1,2.8,2.8V0h-1.5v-6.5c0-1.3-0.5-1.9-1.7-1.9
			c-1.1,0-2.1,0.6-3.1,1.5V0h-1.6V-9.5z"/>
		<path fill="#43423E" d="M162.9-4.7c0-3.3,1.7-5,4.1-5c1.2,0,2.2,0.6,3,1.4v-5h1.5v11c0,1.2,0.1,1.9,0.3,2.3h-1.6
			c-0.1-0.3-0.2-0.9-0.2-1.4c-0.8,0.8-1.7,1.5-3.1,1.5C164.6,0.1,162.9-1.4,162.9-4.7z M169.9-2.6V-7c-0.8-0.9-1.7-1.4-2.7-1.4
			c-1.7,0-2.7,1.2-2.7,3.7c0,2.4,1.2,3.6,2.7,3.6C168.3-1.1,169.1-1.7,169.9-2.6z"/>
		<path fill="#43423E" d="M178.1-13.1h1.6v1.5h-1.6V-13.1z M178.2-9.5h1.5V0h-1.5V-9.5z"/>
		<path fill="#43423E" d="M182.2-9.5h1.6v1.4c0.8-0.8,2-1.6,3.6-1.6c1.8,0,2.8,1,2.8,2.8V0h-1.5v-6.5c0-1.3-0.5-1.9-1.7-1.9
			c-1.1,0-2.1,0.6-3.1,1.5V0h-1.6V-9.5z"/>
		<path fill="#43423E" d="M191.9-4.7c0-3.3,1.7-5,4.1-5c1.2,0,2.2,0.6,3,1.4v-5h1.5v11c0,1.2,0.1,1.9,0.3,2.3h-1.6
			c-0.1-0.3-0.2-0.9-0.2-1.4c-0.8,0.8-1.7,1.5-3.1,1.5C193.6,0.1,191.9-1.4,191.9-4.7z M198.9-2.6V-7c-0.8-0.9-1.7-1.4-2.7-1.4
			c-1.7,0-2.7,1.2-2.7,3.7c0,2.4,1.2,3.6,2.7,3.6C197.3-1.1,198.1-1.7,198.9-2.6z"/>
		<path fill="#43423E" d="M202.3-4.8c0-3.5,2.3-5,4.3-5c2.2,0,4,1.6,4,5v0.3h-6.7c0.1,2.1,1.3,3.3,2.9,3.3c1.4,0,2.1-0.6,2.9-1.5
			l0.9,0.8c-0.9,1.3-2.1,2-3.9,2C204.4,0.2,202.3-1.4,202.3-4.8z M209.1-5.6c-0.1-1.7-0.9-2.8-2.5-2.8c-1.3,0-2.5,0.9-2.7,2.8H209.1
			z"/>
		<path fill="#43423E" d="M214.5-4.9l-3.2-4.6h1.7l2.3,3.5l2.3-3.5h1.6l-3.2,4.6l3.4,4.9h-1.7l-2.6-3.8L212.8,0h-1.6L214.5-4.9z"/>
	</g>
</g>
<g transform="translate(0,34)">
	<g enable-background="new    ">
		<path fill="#74736C" d="M1.1-8.9h1.1V0H1.1V-8.9z"/>
		<path fill="#74736C" d="M4-6.3h1v0.9c0.6-0.5,1.3-1.1,2.4-1.1c1.2,0,1.9,0.7,1.9,1.9V0h-1v-4.3c0-0.8-0.4-1.2-1.2-1.2
			c-0.8,0-1.4,0.4-2.1,1V0H4V-6.3z"/>
		<path fill="#74736C" d="M10.5-3.2c0-2.2,1.2-3.3,2.7-3.3c0.8,0,1.5,0.4,2,0.9v-3.3h1v7.3c0,0.8,0,1.2,0.2,1.6h-1.1
			c-0.1-0.2-0.1-0.6-0.1-0.9c-0.5,0.6-1.1,1-2.1,1C11.6,0.1,10.5-0.9,10.5-3.2z M15.2-1.7v-2.9c-0.6-0.6-1.2-1-1.8-1
			c-1.1,0-1.8,0.8-1.8,2.4c0,1.6,0.8,2.4,1.8,2.4C14.1-0.8,14.6-1.2,15.2-1.7z"/>
		<path fill="#74736C" d="M17.4-3.2c0-2.3,1.5-3.3,2.9-3.3c1.5,0,2.6,1.1,2.6,3.3v0.2h-4.5c0,1.4,0.9,2.2,1.9,2.2
			c0.9,0,1.4-0.4,1.9-1l0.6,0.5c-0.6,0.8-1.4,1.3-2.6,1.3C18.8,0.1,17.4-1,17.4-3.2z M22-3.7c-0.1-1.1-0.6-1.9-1.7-1.9
			c-0.9,0-1.7,0.6-1.8,1.9H22z"/>
		<path fill="#74736C" d="M25.6-3.3l-2.1-3.1h1.1L26.1-4l1.5-2.3h1.1l-2.1,3L28.9,0h-1.1l-1.7-2.5L24.4,0h-1.1L25.6-3.3z"/>
		<path fill="#74736C" d="M32.3-1.5c0-1.3,1.1-2.2,4.2-2.6v-0.3c0-0.8-0.4-1.2-1.2-1.2c-1,0-1.7,0.4-2.3,1l-0.5-0.6
			c0.7-0.7,1.7-1.2,2.9-1.2c1.5,0,2.1,0.8,2.1,2.1v2.8c0,0.8,0,1.2,0.2,1.6h-1.1c-0.1-0.3-0.1-0.5-0.1-0.9c-0.7,0.7-1.5,1-2.4,1
			C33,0.1,32.3-0.5,32.3-1.5z M36.5-1.6v-1.8c-2.4,0.4-3.2,1-3.2,1.8c0,0.6,0.4,0.9,1.1,0.9C35.2-0.7,35.9-1.1,36.5-1.6z"/>
		<path fill="#74736C" d="M40.1-0.8V0h-1v-8.9h1v3.4c0.5-0.5,1.1-1,2.1-1c1.5,0,2.6,1.1,2.6,3.3c0,2.2-1.1,3.3-2.7,3.3
			C41.3,0.1,40.7-0.3,40.1-0.8z M43.7-3.2c0-1.6-0.8-2.4-1.8-2.4c-0.7,0-1.3,0.4-1.8,1v2.9c0.6,0.6,1.2,1,1.8,1
			C43.1-0.7,43.7-1.5,43.7-3.2z"/>
		<path fill="#74736C" d="M45.7-3.2c0-2.2,1.4-3.3,3-3.3c1.5,0,2.9,1.1,2.9,3.3c0,2.2-1.4,3.3-2.9,3.3C47.1,0.1,45.7-1,45.7-3.2z
			 M50.5-3.2c0-1.3-0.6-2.4-1.9-2.4c-1.2,0-1.9,1-1.9,2.4c0,1.3,0.6,2.4,1.9,2.4C49.8-0.7,50.5-1.7,50.5-3.2z"/>
		<path fill="#74736C" d="M51.8-6.3h1.1l1.8,5.1h0l1.8-5.1h1L55.2,0h-1L51.8-6.3z"/>
		<path fill="#74736C" d="M57.8-3.2c0-2.3,1.5-3.3,2.9-3.3c1.5,0,2.6,1.1,2.6,3.3v0.2h-4.5c0,1.4,0.9,2.2,1.9,2.2
			c0.9,0,1.4-0.4,1.9-1l0.6,0.5c-0.6,0.8-1.4,1.3-2.6,1.3C59.1,0.1,57.8-1,57.8-3.2z M62.3-3.7c-0.1-1.1-0.6-1.9-1.7-1.9
			c-0.9,0-1.7,0.6-1.8,1.9H62.3z"/>
		<path fill="#74736C" d="M66.8-1.3L67.5-2c0.6,0.7,1.3,1.2,2.3,1.2c1.5,0,2.1-1,2.1-2.2C71.9-4.3,71.1-5,70-5c-0.9,0-1.5,0.4-2,1
			l-0.8-0.3l0.3-4.7h4.8l-0.1,0.9h-3.9l-0.2,2.8c0.4-0.5,1-0.8,1.9-0.8C71.8-5.9,73-4.7,73-3c0,1.8-1.2,3.1-3.1,3.1
			C68.5,0.2,67.5-0.4,66.8-1.3z"/>
		<path fill="#74736C" d="M73.8-4.4c0-2.8,1.2-4.6,3.3-4.6c2.1,0,3.3,1.8,3.3,4.6s-1.2,4.6-3.3,4.6C75.1,0.2,73.8-1.7,73.8-4.4z
			 M79.5-4.4c0-2.4-0.9-3.7-2.3-3.7c-1.5,0-2.3,1.3-2.3,3.7c0,2.4,0.9,3.7,2.3,3.7C78.6-0.8,79.5-2,79.5-4.4z"/>
		<path fill="#74736C" d="M84.7-8.7h1.1v1h-1.1V-8.7z M84.7-6.3h1V0h-1V-6.3z"/>
		<path fill="#74736C" d="M87.4-6.3h1v0.9c0.6-0.5,1.3-1.1,2.4-1.1c1.2,0,1.9,0.7,1.9,1.9V0h-1v-4.3c0-0.8-0.4-1.2-1.2-1.2
			c-0.8,0-1.4,0.4-2.1,1V0h-1V-6.3z"/>
		<path fill="#74736C" d="M93.9-3.2c0-2.2,1.2-3.3,2.7-3.3c0.8,0,1.5,0.4,2,0.9v-3.3h1v7.3c0,0.8,0,1.2,0.2,1.6h-1.1
			c-0.1-0.2-0.1-0.6-0.1-0.9c-0.5,0.6-1.1,1-2.1,1C95,0.1,93.9-0.9,93.9-3.2z M98.5-1.7v-2.9c-0.6-0.6-1.2-1-1.8-1
			c-1.1,0-1.8,0.8-1.8,2.4c0,1.6,0.8,2.4,1.8,2.4C97.4-0.8,98-1.2,98.5-1.7z"/>
		<path fill="#74736C" d="M101.2-8.7h1.1v1h-1.1V-8.7z M101.2-6.3h1V0h-1V-6.3z"/>
		<path fill="#74736C" d="M103.5-3.2c0-2.3,1.5-3.3,2.9-3.3c1.4,0,2.1,0.8,2.5,1.8l-0.9,0.4c-0.3-0.8-0.8-1.3-1.6-1.3
			c-0.9,0-1.8,0.6-1.8,2.4c0,1.6,0.7,2.4,1.8,2.4c0.8,0,1.3-0.3,1.7-1.3l0.9,0.3c-0.5,1.1-1.2,1.8-2.6,1.8
			C104.9,0.1,103.5-1,103.5-3.2z"/>
		<path fill="#74736C" d="M109.6-1.5c0-1.3,1.1-2.2,4.2-2.6v-0.3c0-0.8-0.4-1.2-1.2-1.2c-1,0-1.7,0.4-2.3,1l-0.5-0.6
			c0.7-0.7,1.7-1.2,2.9-1.2c1.5,0,2.1,0.8,2.1,2.1v2.8c0,0.8,0,1.2,0.2,1.6H114c-0.1-0.3-0.1-0.5-0.1-0.9c-0.7,0.7-1.5,1-2.4,1
			C110.3,0.1,109.6-0.5,109.6-1.5z M113.9-1.6v-1.8c-2.4,0.4-3.2,1-3.2,1.8c0,0.6,0.4,0.9,1.1,0.9C112.6-0.7,113.3-1.1,113.9-1.6z"
			/>
		<path fill="#74736C" d="M116.9-1.5v-3.9h-1.1v-0.9h1.1v-2.3h1v2.3h1.6v0.9h-1.6v3.7c0,0.7,0.2,1,1,1c0.2,0,0.5,0,0.6-0.1V0
			c-0.2,0-0.6,0.1-0.9,0.1C117.3,0.1,116.9-0.4,116.9-1.5z"/>
		<path fill="#74736C" d="M120.2-3.2c0-2.3,1.5-3.3,2.9-3.3c1.5,0,2.6,1.1,2.6,3.3v0.2h-4.5c0,1.4,0.9,2.2,1.9,2.2
			c0.9,0,1.4-0.4,1.9-1l0.6,0.5c-0.6,0.8-1.4,1.3-2.6,1.3C121.6,0.1,120.2-1,120.2-3.2z M124.8-3.7c-0.1-1.1-0.6-1.9-1.7-1.9
			c-0.9,0-1.7,0.6-1.8,1.9H124.8z"/>
		<path fill="#74736C" d="M126.4-1l0.6-0.6c0.5,0.5,1.1,0.9,2,0.9c1,0,1.5-0.3,1.5-1c0-0.6-0.6-0.9-1.6-1.1
			c-1.3-0.3-2.3-0.7-2.3-1.9c0-1,0.8-1.7,2.2-1.7c1.1,0,1.8,0.4,2.4,0.9l-0.5,0.7c-0.5-0.4-1.1-0.8-1.8-0.8c-0.9,0-1.3,0.4-1.3,0.9
			c0,0.6,0.5,0.8,1.5,1c1.4,0.3,2.4,0.7,2.4,2c0,1.2-1.1,1.9-2.5,1.9C127.9,0.1,126.9-0.3,126.4-1z"/>
		<path fill="#74736C" d="M134.9,0.9c0-0.6,0.4-1.1,1.2-1.4c-0.4-0.2-0.5-0.4-0.5-0.8c0-0.4,0.3-0.8,0.8-1c-0.6-0.4-1-1-1-1.8
			c0-1.3,1.1-2.3,2.6-2.3c0.8,0,1.4,0.3,1.9,0.7c0.4-0.3,1-0.5,1.5-0.6v0.9c-0.3,0-0.8,0.1-1.1,0.2c0.2,0.3,0.3,0.7,0.3,1.1
			c0,1.4-1.1,2.3-2.6,2.3c-0.4,0-0.7-0.1-1-0.2c-0.3,0.1-0.4,0.3-0.4,0.5c0,0.3,0.2,0.4,0.9,0.4l1.3,0.1c1.6,0.1,2.4,0.6,2.4,1.6
			c0,1.2-1.3,1.8-3.1,1.8C135.8,2.4,134.9,1.8,134.9,0.9z M140.1,0.7c0-0.6-0.4-0.8-1.8-0.9l-1.2-0.1c-0.1,0-0.2,0-0.4,0
			c-0.6,0.2-0.9,0.6-0.9,1c0,0.6,0.7,0.9,2.2,0.9C139.3,1.7,140.1,1.3,140.1,0.7z M139.5-4.2c0-0.9-0.6-1.5-1.6-1.5
			c-1,0-1.6,0.6-1.6,1.5c0,0.9,0.6,1.5,1.6,1.5C138.9-2.7,139.5-3.2,139.5-4.2z"/>
		<path fill="#74736C" d="M142.2-6.3h1v1.2h0c0.5-0.7,1.2-1.3,2.4-1.3h0.1l-0.1,1c0,0-0.3,0-0.3,0c-1,0-1.8,0.5-2.2,1.4V0h-1V-6.3z"
			/>
		<path fill="#74736C" d="M146.1-3.2c0-2.2,1.4-3.3,3-3.3c1.5,0,2.9,1.1,2.9,3.3c0,2.2-1.4,3.3-2.9,3.3C147.5,0.1,146.1-1,146.1-3.2
			z M151-3.2c0-1.3-0.6-2.4-1.9-2.4c-1.2,0-1.9,1-1.9,2.4c0,1.3,0.6,2.4,1.9,2.4C150.3-0.7,151-1.7,151-3.2z"/>
		<path fill="#74736C" d="M152.4-6.3h1.1l0.8,3c0.2,0.8,0.4,1.3,0.6,2.1h0c0.2-0.9,0.3-1.3,0.6-2.1l0.8-3h0.9l0.8,3
			c0.2,0.8,0.3,1.2,0.5,2.1h0c0.2-0.8,0.3-1.3,0.6-2l0.9-3h1L159,0h-1l-1.3-5h0l-1.4,5h-0.9L152.4-6.3z"/>
		<path fill="#74736C" d="M162.3-1.5v-3.9h-1.1v-0.9h1.1v-2.3h1v2.3h1.6v0.9h-1.6v3.7c0,0.7,0.2,1,1,1c0.2,0,0.5,0,0.6-0.1V0
			c-0.2,0-0.6,0.1-0.9,0.1C162.8,0.1,162.3-0.4,162.3-1.5z"/>
		<path fill="#74736C" d="M166.1-8.9h1v3.5c0.6-0.5,1.3-1.1,2.4-1.1c1.2,0,1.9,0.7,1.9,1.9V0h-1v-4.3c0-0.8-0.4-1.2-1.2-1.2
			c-0.8,0-1.4,0.4-2.1,1V0h-1V-8.9z"/>
		<path fill="#74736C" d="M176.3-5.5h-1.1v-0.9h1.1v-0.9c0-1.1,0.6-1.7,1.9-1.7c0.2,0,0.5,0,0.6,0V-8c-0.1,0-0.3,0-0.4,0
			c-0.6,0-1,0.2-1,0.9v0.8h1.4v0.9h-1.4V0h-1V-5.5z"/>
		<path fill="#74736C" d="M179.7-6.3h1v1.2h0c0.5-0.7,1.2-1.3,2.4-1.3h0.1l-0.1,1c0,0-0.3,0-0.3,0c-1,0-1.8,0.5-2.2,1.4V0h-1V-6.3z"
			/>
		<path fill="#74736C" d="M183.6-3.2c0-2.2,1.4-3.3,3-3.3c1.5,0,2.9,1.1,2.9,3.3c0,2.2-1.4,3.3-2.9,3.3S183.6-1,183.6-3.2z
			 M188.4-3.2c0-1.3-0.6-2.4-1.9-2.4c-1.2,0-1.9,1-1.9,2.4c0,1.3,0.6,2.4,1.9,2.4C187.7-0.7,188.4-1.7,188.4-3.2z"/>
		<path fill="#74736C" d="M190.7-6.3h1v1c0.6-0.6,1.3-1.1,2.3-1.1c1.1,0,1.5,0.5,1.7,1.1c0.6-0.6,1.4-1.1,2.3-1.1
			c1.3,0,1.8,0.8,1.8,1.9V0h-1v-4.3c0-0.8-0.3-1.2-1.1-1.2c-0.7,0-1.3,0.4-2,1V0h-1v-4.3c0-0.8-0.3-1.2-1.1-1.2c-0.7,0-1.3,0.4-2,1
			V0h-1V-6.3z"/>
		<path fill="#74736C" d="M204.2-6.3h1v0.9c0.5-0.5,1.1-1,2.1-1c1.5,0,2.6,1.1,2.6,3.3c0,2.2-1.1,3.3-2.7,3.3c-0.8,0-1.4-0.3-2-0.9
			v3.2h-1V-6.3z M208.9-3.2c0-1.6-0.8-2.4-1.8-2.4c-0.7,0-1.3,0.4-1.8,1v2.9c0.6,0.6,1.2,1,1.8,1C208.2-0.7,208.9-1.5,208.9-3.2z"/>
		<path fill="#74736C" d="M211.2-6.3h1v1.2h0c0.5-0.7,1.2-1.3,2.4-1.3h0.1l-0.1,1c0,0-0.3,0-0.3,0c-1,0-1.8,0.5-2.2,1.4V0h-1V-6.3z"
			/>
		<path fill="#74736C" d="M215.1-3.2c0-2.3,1.5-3.3,2.9-3.3c1.5,0,2.6,1.1,2.6,3.3v0.2h-4.5c0,1.4,0.9,2.2,1.9,2.2
			c0.9,0,1.4-0.4,1.9-1l0.6,0.5c-0.6,0.8-1.4,1.3-2.6,1.3C216.4,0.1,215.1-1,215.1-3.2z M219.6-3.7c-0.1-1.1-0.6-1.9-1.7-1.9
			c-0.9,0-1.7,0.6-1.8,1.9H219.6z"/>
		<path fill="#74736C" d="M220.9-6.3h1.1l1.8,5.1h0l1.8-5.1h1L224.3,0h-1L220.9-6.3z"/>
		<path fill="#74736C" d="M227.6-8.7h1.1v1h-1.1V-8.7z M227.6-6.3h1V0h-1V-6.3z"/>
		<path fill="#74736C" d="M229.9-3.2c0-2.2,1.4-3.3,3-3.3c1.5,0,2.9,1.1,2.9,3.3c0,2.2-1.4,3.3-2.9,3.3S229.9-1,229.9-3.2z
			 M234.8-3.2c0-1.3-0.6-2.4-1.9-2.4c-1.2,0-1.9,1-1.9,2.4c0,1.3,0.6,2.4,1.9,2.4C234.1-0.7,234.8-1.7,234.8-3.2z"/>
		<path fill="#74736C" d="M237-1.8v-4.6h1V-2c0,0.8,0.4,1.2,1.2,1.2c0.8,0,1.4-0.4,2.1-1v-4.6h1V0h-1v-0.9c-0.6,0.5-1.3,1.1-2.4,1.1
			C237.6,0.1,237-0.6,237-1.8z"/>
		<path fill="#74736C" d="M243.4-1l0.6-0.6c0.5,0.5,1.1,0.9,2,0.9c1,0,1.5-0.3,1.5-1c0-0.6-0.6-0.9-1.6-1.1
			c-1.3-0.3-2.3-0.7-2.3-1.9c0-1,0.8-1.7,2.2-1.7c1.1,0,1.8,0.4,2.4,0.9l-0.5,0.7c-0.5-0.4-1.1-0.8-1.8-0.8c-0.9,0-1.3,0.4-1.3,0.9
			c0,0.6,0.5,0.8,1.5,1c1.4,0.3,2.4,0.7,2.4,2c0,1.2-1.1,1.9-2.5,1.9C244.9,0.1,243.9-0.3,243.4-1z"/>
		<path fill="#74736C" d="M252.6-6.3h1v1c0.6-0.6,1.3-1.1,2.3-1.1c1.1,0,1.5,0.5,1.7,1.1c0.6-0.6,1.4-1.1,2.3-1.1
			c1.3,0,1.8,0.8,1.8,1.9V0h-1v-4.3c0-0.8-0.3-1.2-1.1-1.2c-0.7,0-1.3,0.4-2,1V0h-1v-4.3c0-0.8-0.3-1.2-1.1-1.2c-0.7,0-1.3,0.4-2,1
			V0h-1V-6.3z"/>
		<path fill="#74736C" d="M263-3.2c0-2.2,1.4-3.3,3-3.3c1.5,0,2.9,1.1,2.9,3.3c0,2.2-1.4,3.3-2.9,3.3C264.4,0.1,263-1,263-3.2z
			 M267.8-3.2c0-1.3-0.6-2.4-1.9-2.4c-1.2,0-1.9,1-1.9,2.4c0,1.3,0.6,2.4,1.9,2.4C267.1-0.7,267.8-1.7,267.8-3.2z"/>
		<path fill="#74736C" d="M270.1-6.3h1v0.9c0.6-0.5,1.3-1.1,2.4-1.1c1.2,0,1.9,0.7,1.9,1.9V0h-1v-4.3c0-0.8-0.4-1.2-1.2-1.2
			c-0.8,0-1.4,0.4-2.1,1V0h-1V-6.3z"/>
		<path fill="#74736C" d="M277.4-1.5v-3.9h-1.1v-0.9h1.1v-2.3h1v2.3h1.6v0.9h-1.6v3.7c0,0.7,0.2,1,1,1c0.2,0,0.5,0,0.6-0.1V0
			c-0.2,0-0.6,0.1-0.9,0.1C277.8,0.1,277.4-0.4,277.4-1.5z"/>
		<path fill="#74736C" d="M281.2-8.9h1v3.5c0.6-0.5,1.3-1.1,2.4-1.1c1.2,0,1.9,0.7,1.9,1.9V0h-1v-4.3c0-0.8-0.4-1.2-1.2-1.2
			c-0.8,0-1.4,0.4-2.1,1V0h-1V-8.9z"/>
	</g>
</g>
<g transform="translate(0,269)">
	<g enable-background="new    ">
		<path fill="#74736C" d="M0.4-1.8l0.7-0.3c0.4,1,1.1,1.5,2.1,1.5c1,0,1.7-0.4,1.7-1.2c0-0.7-0.4-1.1-1.9-1.5
			C1.6-3.9,0.7-4.3,0.7-5.6c0-1.1,1-2,2.4-2s2.2,0.7,2.6,1.7L5-5.5c-0.4-0.9-1-1.2-1.9-1.2c-0.9,0-1.5,0.5-1.5,1.1
			c0,0.8,0.5,1,1.9,1.5c1.5,0.5,2.4,1,2.4,2.2c0,1.2-1.1,2.1-2.6,2.1C1.8,0.1,0.8-0.6,0.4-1.8z"/>
		<path fill="#74736C" d="M6.6-2.6c0-1.8,1.2-2.7,2.5-2.7c1.3,0,2.4,0.9,2.4,2.7c0,1.8-1.2,2.7-2.4,2.7C7.8,0.1,6.6-0.8,6.6-2.6z
			 M10.7-2.6c0-1.1-0.5-2-1.6-2c-1,0-1.6,0.8-1.6,2c0,1.1,0.5,2,1.6,2C10.1-0.6,10.7-1.4,10.7-2.6z"/>
		<path fill="#74736C" d="M12.5-1.5v-3.8h0.9v3.6c0,0.7,0.3,1,1,1c0.6,0,1.2-0.3,1.7-0.8v-3.8h0.9V0H16v-0.8c-0.5,0.5-1.1,0.9-2,0.9
			C13.1,0.1,12.5-0.5,12.5-1.5z"/>
		<path fill="#74736C" d="M18.2-5.3h0.9v1h0c0.4-0.6,1-1.1,2-1.1h0.1l-0.1,0.8c0,0-0.2,0-0.2,0c-0.8,0-1.5,0.4-1.9,1.2V0h-0.9V-5.3z
			"/>
		<path fill="#74736C" d="M21.5-2.6c0-1.9,1.2-2.7,2.4-2.7c1.2,0,1.7,0.7,2.1,1.5l-0.7,0.3c-0.3-0.7-0.7-1-1.4-1
			c-0.8,0-1.5,0.5-1.5,2c0,1.3,0.6,2,1.5,2c0.7,0,1.1-0.3,1.4-1.1L26-1.4c-0.4,0.9-1,1.5-2.2,1.5C22.6,0.1,21.5-0.8,21.5-2.6z"/>
		<path fill="#74736C" d="M26.5-2.6c0-1.9,1.3-2.7,2.4-2.7c1.2,0,2.2,0.9,2.2,2.8v0.2h-3.7c0,1.2,0.7,1.8,1.6,1.8
			c0.8,0,1.2-0.3,1.6-0.9L31.1-1c-0.5,0.7-1.2,1.1-2.1,1.1C27.7,0.1,26.5-0.8,26.5-2.6z M30.3-3.1c-0.1-0.9-0.5-1.6-1.4-1.6
			c-0.7,0-1.4,0.5-1.5,1.6H30.3z"/>
		<path fill="#74736C" d="M32.3-5.3h1v1.1h-1V-5.3z M32.3-1h1v1h-1V-1z"/>
		<path fill="#74736C" d="M37.2-7.4h4.4v0.8h-3.6v2.4h2.6v0.8h-2.6V0h-0.9V-7.4z"/>
		<path fill="#74736C" d="M44.4-6.6h-2.3v-0.8h5.6v0.8h-2.4V0h-0.9V-6.6z"/>
		<path fill="#74736C" d="M50.4-3.7c0-2.3,1.3-3.8,3.1-3.8c1.6,0,2.4,0.9,2.7,2.3L55.4-5c-0.3-1.1-0.8-1.7-1.9-1.7
			c-1.4,0-2.2,1.2-2.2,3c0,2,0.9,3.1,2.3,3.1c1,0,1.7-0.6,2-1.8l0.8,0.2c-0.4,1.5-1.3,2.4-2.8,2.4C51.7,0.1,50.4-1.3,50.4-3.7z"/>
		<path fill="#74736C" d="M57.1-2.6c0-1.8,1.2-2.7,2.5-2.7c1.3,0,2.4,0.9,2.4,2.7c0,1.8-1.2,2.7-2.4,2.7C58.2,0.1,57.1-0.8,57.1-2.6
			z M61.1-2.6c0-1.1-0.5-2-1.6-2c-1,0-1.6,0.8-1.6,2c0,1.1,0.5,2,1.6,2C60.5-0.6,61.1-1.4,61.1-2.6z"/>
		<path fill="#74736C" d="M63-5.3h0.9v0.8c0.5-0.5,1.1-0.9,2-0.9c1,0,1.6,0.6,1.6,1.6V0h-0.9v-3.6c0-0.7-0.3-1-1-1
			c-0.6,0-1.2,0.3-1.7,0.8V0H63V-5.3z"/>
		<path fill="#74736C" d="M69.1-4.6h-0.9v-0.7h0.9V-6c0-0.9,0.5-1.4,1.5-1.4c0.2,0,0.4,0,0.5,0v0.7c-0.1,0-0.2,0-0.4,0
			c-0.5,0-0.8,0.2-0.8,0.7v0.7H71v0.7h-1.1V0h-0.9V-4.6z M72.1-7.2h0.9v0.9h-0.9V-7.2z M72.1-5.3h0.9V0h-0.9V-5.3z"/>
		<path fill="#74736C" d="M74.1-2.6c0-1.8,1-2.8,2.2-2.8c0.6,0,1.2,0.3,1.6,0.8v-2.8h0.9v6.1c0,0.6,0,1,0.2,1.3h-0.9
			C78-0.2,78-0.5,78-0.8c-0.4,0.5-0.9,0.8-1.7,0.8C75,0.1,74.1-0.8,74.1-2.6z M78-1.4v-2.4c-0.5-0.5-1-0.8-1.5-0.8
			c-0.9,0-1.5,0.6-1.5,2c0,1.3,0.6,2,1.5,2C77.1-0.6,77.5-1,78-1.4z"/>
		<path fill="#74736C" d="M79.9-2.6c0-1.9,1.3-2.7,2.4-2.7c1.2,0,2.2,0.9,2.2,2.8v0.2h-3.7c0,1.2,0.7,1.8,1.6,1.8
			c0.8,0,1.2-0.3,1.6-0.9L84.4-1c-0.5,0.7-1.2,1.1-2.1,1.1C81,0.1,79.9-0.8,79.9-2.6z M83.6-3.1c-0.1-0.9-0.5-1.6-1.4-1.6
			c-0.7,0-1.4,0.5-1.5,1.6H83.6z"/>
		<path fill="#74736C" d="M85.5-5.3h0.9v0.8c0.5-0.5,1.1-0.9,2-0.9c1,0,1.6,0.6,1.6,1.6V0H89v-3.6c0-0.7-0.3-1-1-1
			c-0.6,0-1.2,0.3-1.7,0.8V0h-0.9V-5.3z"/>
		<path fill="#74736C" d="M91.5-1.3v-3.3h-0.9v-0.7h0.9v-1.9h0.9v1.9h1.4v0.7h-1.4v3.1c0,0.6,0.2,0.8,0.8,0.8c0.2,0,0.4,0,0.5-0.1V0
			c-0.1,0-0.5,0.1-0.7,0.1C91.9,0.1,91.5-0.4,91.5-1.3z"/>
		<path fill="#74736C" d="M94.8-7.2h0.9v0.8h-0.9V-7.2z M94.8-5.3h0.9V0h-0.9V-5.3z"/>
		<path fill="#74736C" d="M96.7-1.2c0-1.1,0.9-1.8,3.5-2.2v-0.2c0-0.7-0.3-1-1-1c-0.8,0-1.4,0.3-1.9,0.8l-0.4-0.5
			c0.6-0.6,1.4-1,2.4-1c1.3,0,1.8,0.7,1.8,1.8v2.3c0,0.6,0,1,0.1,1.3h-0.9c-0.1-0.2-0.1-0.4-0.1-0.7c-0.6,0.5-1.2,0.8-2,0.8
			C97.3,0.1,96.7-0.4,96.7-1.2z M100.2-1.4v-1.5c-2,0.3-2.7,0.8-2.7,1.5c0,0.5,0.3,0.8,0.9,0.8C99.2-0.6,99.8-0.9,100.2-1.4z"/>
		<path fill="#74736C" d="M102.4-7.4h0.9V0h-0.9V-7.4z"/>
		<path fill="#74736C" d="M107.2-7.4h2.5c1.7,0,2.6,0.7,2.6,2.1c0,1.2-0.7,1.8-1.7,2l1.8,3.3h-1l-1.8-3.2H108V0h-0.9V-7.4z M109.6-4
			c1.2,0,1.8-0.3,1.8-1.3c0-1-0.6-1.3-1.8-1.3H108V-4H109.6z"/>
		<path fill="#74736C" d="M113-2.6c0-1.9,1.3-2.7,2.4-2.7c1.2,0,2.2,0.9,2.2,2.8v0.2h-3.7c0,1.2,0.7,1.8,1.6,1.8
			c0.8,0,1.2-0.3,1.6-0.9l0.5,0.4c-0.5,0.7-1.2,1.1-2.1,1.1C114.1,0.1,113-0.8,113-2.6z M116.7-3.1c-0.1-0.9-0.5-1.6-1.4-1.6
			c-0.7,0-1.4,0.5-1.5,1.6H116.7z"/>
		<path fill="#74736C" d="M118.1-0.8l0.5-0.5c0.4,0.4,0.9,0.7,1.6,0.7c0.8,0,1.3-0.3,1.3-0.8c0-0.5-0.5-0.7-1.4-0.9
			c-1.1-0.3-1.9-0.6-1.9-1.6c0-0.8,0.7-1.4,1.8-1.4c0.9,0,1.5,0.3,2,0.8l-0.4,0.6c-0.4-0.4-0.9-0.6-1.5-0.6c-0.8,0-1.1,0.3-1.1,0.7
			c0,0.5,0.4,0.7,1.2,0.9c1.2,0.3,2,0.6,2,1.7c0,1-0.9,1.5-2.1,1.5C119.3,0.1,118.5-0.3,118.1-0.8z"/>
		<path fill="#74736C" d="M123-2.6c0-1.9,1.3-2.7,2.4-2.7c1.2,0,2.2,0.9,2.2,2.8v0.2h-3.7c0,1.2,0.7,1.8,1.6,1.8
			c0.8,0,1.2-0.3,1.6-0.9l0.5,0.4c-0.5,0.7-1.2,1.1-2.1,1.1C124.2,0.1,123-0.8,123-2.6z M126.8-3.1c-0.1-0.9-0.5-1.6-1.4-1.6
			c-0.7,0-1.4,0.5-1.5,1.6H126.8z"/>
		<path fill="#74736C" d="M128.2-1.2c0-1.1,0.9-1.8,3.5-2.2v-0.2c0-0.7-0.3-1-1-1c-0.8,0-1.4,0.3-1.9,0.8l-0.4-0.5
			c0.6-0.6,1.4-1,2.4-1c1.3,0,1.8,0.7,1.8,1.8v2.3c0,0.6,0,1,0.1,1.3h-0.9c-0.1-0.2-0.1-0.4-0.1-0.7c-0.6,0.5-1.2,0.8-2,0.8
			C128.8,0.1,128.2-0.4,128.2-1.2z M131.8-1.4v-1.5c-2,0.3-2.7,0.8-2.7,1.5c0,0.5,0.3,0.8,0.9,0.8C130.7-0.6,131.3-0.9,131.8-1.4z"
			/>
		<path fill="#74736C" d="M133.9-5.3h0.9v1h0c0.4-0.6,1-1.1,2-1.1h0.1l-0.1,0.8c0,0-0.2,0-0.2,0c-0.8,0-1.5,0.4-1.9,1.2V0h-0.9V-5.3
			z"/>
		<path fill="#74736C" d="M137.1-2.6c0-1.9,1.2-2.7,2.4-2.7c1.2,0,1.7,0.7,2.1,1.5l-0.7,0.3c-0.3-0.7-0.7-1-1.4-1
			c-0.8,0-1.5,0.5-1.5,2c0,1.3,0.6,2,1.5,2c0.7,0,1.1-0.3,1.4-1.1l0.7,0.3c-0.4,0.9-1,1.5-2.2,1.5C138.2,0.1,137.1-0.8,137.1-2.6z"
			/>
		<path fill="#74736C" d="M142.6-7.4h0.9v2.9c0.5-0.5,1.1-0.9,2-0.9c1,0,1.6,0.6,1.6,1.6V0h-0.9v-3.6c0-0.7-0.3-1-1-1
			c-0.6,0-1.2,0.3-1.7,0.8V0h-0.9V-7.4z"/>
		<path fill="#74736C" d="M148.7,0h-0.4v-1h1v0.9L148.9,1h-0.4L148.7,0z"/>
		<path fill="#74736C" d="M153-7.4h4.4v0.8h-3.6v2.4h2.6v0.8h-2.6V0H153V-7.4z"/>
		<path fill="#74736C" d="M157.2-2.6c0-1.9,1.3-2.7,2.4-2.7c1.2,0,2.2,0.9,2.2,2.8v0.2h-3.7c0,1.2,0.7,1.8,1.6,1.8
			c0.8,0,1.2-0.3,1.6-0.9l0.5,0.4c-0.5,0.7-1.2,1.1-2.1,1.1C158.4,0.1,157.2-0.8,157.2-2.6z M161-3.1c-0.1-0.9-0.5-1.6-1.4-1.6
			c-0.7,0-1.4,0.5-1.5,1.6H161z"/>
		<path fill="#74736C" d="M163.7-0.7V0h-0.9v-7.4h0.9v2.9c0.4-0.5,1-0.8,1.7-0.8c1.2,0,2.1,0.9,2.1,2.7s-0.9,2.7-2.2,2.7
			C164.7,0.1,164.2-0.2,163.7-0.7z M166.7-2.6c0-1.3-0.6-2-1.5-2c-0.6,0-1.1,0.3-1.5,0.8v2.4c0.5,0.5,1,0.8,1.5,0.8
			C166.2-0.6,166.7-1.2,166.7-2.6z"/>
		<path fill="#74736C" d="M168.6-5.3h0.9v1h0c0.4-0.6,1-1.1,2-1.1h0.1l-0.1,0.8c0,0-0.2,0-0.2,0c-0.8,0-1.5,0.4-1.9,1.2V0h-0.9V-5.3
			z"/>
		<path fill="#74736C" d="M172.4-1.5v-3.8h0.9v3.6c0,0.7,0.3,1,1,1c0.6,0,1.2-0.3,1.7-0.8v-3.8h0.9V0h-0.9v-0.8
			c-0.5,0.5-1.1,0.9-2,0.9C172.9,0.1,172.4-0.5,172.4-1.5z"/>
		<path fill="#74736C" d="M177.8-1.2c0-1.1,0.9-1.8,3.5-2.2v-0.2c0-0.7-0.3-1-1-1c-0.8,0-1.4,0.3-1.9,0.8L178-4.4
			c0.6-0.6,1.4-1,2.4-1c1.3,0,1.8,0.7,1.8,1.8v2.3c0,0.6,0,1,0.2,1.3h-0.9c-0.1-0.2-0.1-0.4-0.1-0.7c-0.6,0.5-1.2,0.8-2,0.8
			C178.4,0.1,177.8-0.4,177.8-1.2z M181.3-1.4v-1.5c-2,0.3-2.7,0.8-2.7,1.5c0,0.5,0.3,0.8,0.9,0.8C180.2-0.6,180.8-0.9,181.3-1.4z"
			/>
		<path fill="#74736C" d="M183.4-5.3h0.9v1h0c0.4-0.6,1-1.1,2-1.1h0.1l-0.1,0.8c0,0-0.2,0-0.2,0c-0.8,0-1.5,0.4-1.9,1.2V0h-0.9V-5.3
			z"/>
		<path fill="#74736C" d="M186.6,1.9l0.2-0.7c0.1,0,0.4,0.1,0.8,0.1c0.5,0,0.8-0.2,1-0.7l0.2-0.5l-2-5.3h0.9l1.5,4.3h0l1.5-4.3h0.9
			l-2.3,5.9C189,1.5,188.6,2,187.6,2C187.1,2,186.8,2,186.6,1.9z"/>
		<path fill="#74736C" d="M194.4-0.2c0-1.1,0.5-2.1,2.4-3.3c1.1-0.7,1.6-1.2,1.6-1.9c0-0.8-0.5-1.3-1.4-1.3c-0.8,0-1.4,0.4-1.8,1.2
			L194.6-6c0.5-1,1.4-1.6,2.5-1.6c1.4,0,2.2,0.8,2.2,2c0,1-0.4,1.6-1.9,2.5c-1.3,0.8-1.9,1.5-2,2.2h3.9V0h-4.9V-0.2z"/>
		<path fill="#74736C" d="M201,0h-0.4v-1h1v0.9L201.1,1h-0.4L201,0z"/>
		<path fill="#74736C" d="M204.7-0.2c0-1.1,0.5-2.1,2.4-3.3c1.1-0.7,1.6-1.2,1.6-1.9c0-0.8-0.5-1.3-1.4-1.3c-0.8,0-1.4,0.4-1.8,1.2
			L204.8-6c0.5-1,1.4-1.6,2.5-1.6c1.4,0,2.2,0.8,2.2,2c0,1-0.4,1.6-1.9,2.5c-1.3,0.8-1.9,1.5-2,2.2h3.9V0h-4.9V-0.2z"/>
		<path fill="#74736C" d="M210.4-3.7c0-2.3,1-3.8,2.8-3.8c1.8,0,2.8,1.5,2.8,3.8s-1,3.8-2.8,3.8C211.4,0.1,210.4-1.4,210.4-3.7z
			 M215.1-3.7c0-2-0.7-3.1-1.9-3.1c-1.2,0-1.9,1-1.9,3.1s0.7,3.1,1.9,3.1C214.4-0.6,215.1-1.7,215.1-3.7z"/>
		<path fill="#74736C" d="M216.8-0.8h1.4v-5.7c-0.4,0.2-0.9,0.3-1.4,0.3v-0.8c0.6,0,1.1-0.2,1.4-0.5h0.8v6.6h1.2V0h-3.5V-0.8z"/>
		<path fill="#74736C" d="M220.9-3.6c0-2.4,1.3-4,3-4c0.8,0,1.4,0.3,1.8,0.6l-0.4,0.6c-0.4-0.3-0.8-0.5-1.4-0.5
			c-1.3,0-2.1,1.3-2.1,3c0.5-0.5,1.2-0.9,2.1-0.9c1.5,0,2.3,0.9,2.3,2.3c0,1.4-1.1,2.5-2.5,2.5C222.1,0.1,220.9-1,220.9-3.6z
			 M225.3-2.3c0-0.9-0.5-1.6-1.6-1.6c-0.8,0-1.5,0.4-1.9,1c0.1,1.6,0.9,2.3,1.9,2.3C224.6-0.6,225.3-1.2,225.3-2.3z"/>
	</g>
</g>
<g transform="translate(1,62)">
	<g transform="translate(0,152)">
		<g>
			<g transform="translate(0,0)">
				<g transform="translate(0,0)">
					<line fill="none" stroke="#CEC6B9" stroke-miterlimit="10" x1="0" y1="0" x2="0" y2="5"/>
					<g enable-background="new    ">
						<path fill="#757470" d="M0.2,19l0.7-0.6c0.4,0.5,0.8,0.8,1.5,0.8c0.9,0,1.5-0.4,1.5-1.7v-6.4h1.1v6.5c0,1.7-0.9,2.6-2.5,2.6
							C1.3,20.2,0.7,19.7,0.2,19z"/>
						<path fill="#757470" d="M6.6,18.2v-4.6h1V18c0,0.8,0.4,1.2,1.2,1.2c0.8,0,1.4-0.4,2.1-1v-4.6h1V20h-1v-0.9
							c-0.6,0.5-1.3,1.1-2.4,1.1C7.2,20.1,6.6,19.4,6.6,18.2z"/>
						<path fill="#757470" d="M13.4,13.7h1v0.9c0.6-0.5,1.3-1.1,2.4-1.1c1.2,0,1.9,0.7,1.9,1.9V20h-1v-4.3c0-0.8-0.4-1.2-1.2-1.2
							c-0.8,0-1.4,0.4-2.1,1V20h-1V13.7z"/>
					</g>
				</g>
				<g transform="translate(6.693333333333333,0)">
					<line fill="none" stroke="#CEC6B9" stroke-miterlimit="10" x1="0" y1="0" x2="0" y2="5"/>
				</g>
				<g transform="translate(13.609777777777778,0)">
					<line fill="none" stroke="#CEC6B9" stroke-miterlimit="10" x1="0" y1="0" x2="0" y2="5"/>
				</g>
				<g transform="translate(20.526222222222223,0)">
					<line fill="none" stroke="#CEC6B9" stroke-miterlimit="10" x1="0" y1="0" x2="0" y2="5"/>
				</g>
				<g transform="translate(27.219555555555555,0)">
					<line fill="none" stroke="#CEC6B9" stroke-miterlimit="10" x1="0" y1="0" x2="0" y2="5"/>
				</g>
				<g transform="translate(34.145296296296294,0)">
					<line fill="none" stroke="#CEC6B9" stroke-miterlimit="10" x1="0" y1="0" x2="0" y2="5"/>
				</g>
				<g transform="translate(40.83862962962963,0)">
					<line fill="none" stroke="#CEC6B9" stroke-miterlimit="10" x1="0" y1="0" x2="0" y2="5"/>
				</g>
				<g transform="translate(47.755074074074074,0)">
					<line fill="none" stroke="#CEC6B9" stroke-miterlimit="10" x1="0" y1="0" x2="0" y2="7.5"/>
					<g enable-background="new    ">
						<path fill="#757470" d="M0.2,19l0.7-0.6c0.4,0.5,0.8,0.8,1.5,0.8c0.9,0,1.5-0.4,1.5-1.7v-6.4h1.1v6.5c0,1.7-0.9,2.6-2.5,2.6
							C1.3,20.2,0.7,19.7,0.2,19z"/>
						<path fill="#757470" d="M6.2,18.5c0-1.3,1.1-2.2,4.2-2.6v-0.3c0-0.8-0.4-1.2-1.2-1.2c-1,0-1.7,0.4-2.3,1l-0.5-0.6
							c0.7-0.7,1.7-1.2,2.9-1.2c1.5,0,2.1,0.8,2.1,2.1v2.8c0,0.8,0,1.2,0.2,1.6h-1.1c-0.1-0.3-0.1-0.5-0.1-0.9c-0.7,0.7-1.5,1-2.4,1
							C6.9,20.1,6.2,19.5,6.2,18.5z M10.5,18.4v-1.8c-2.4,0.4-3.2,1-3.2,1.8c0,0.6,0.4,0.9,1.1,0.9C9.2,19.3,9.9,18.9,10.5,18.4z"/>
						<path fill="#757470" d="M13,13.7h1v0.9c0.6-0.5,1.3-1.1,2.4-1.1c1.2,0,1.9,0.7,1.9,1.9V20h-1v-4.3c0-0.8-0.4-1.2-1.2-1.2
							c-0.8,0-1.4,0.4-2.1,1V20h-1V13.7z"/>
					</g>
				</g>
				<g transform="translate(54.67151851851852,0)">
					<line fill="none" stroke="#CEC6B9" stroke-miterlimit="10" x1="0" y1="0" x2="0" y2="5"/>
				</g>
				<g transform="translate(60.91862962962963,0)">
					<line fill="none" stroke="#CEC6B9" stroke-miterlimit="10" x1="0" y1="0" x2="0" y2="5"/>
				</g>
				<g transform="translate(67.82577777777777,0)">
					<line fill="none" stroke="#CEC6B9" stroke-miterlimit="10" x1="0" y1="0" x2="0" y2="5"/>
				</g>
				<g transform="translate(74.5191111111111,0)">
					<line fill="none" stroke="#CEC6B9" stroke-miterlimit="10" x1="0" y1="0" x2="0" y2="5"/>
				</g>
				<g transform="translate(81.43555555555555,0)">
					<line fill="none" stroke="#CEC6B9" stroke-miterlimit="10" x1="0" y1="0" x2="0" y2="5"/>
				</g>
				<g transform="translate(88.12888888888888,0)">
					<line fill="none" stroke="#CEC6B9" stroke-miterlimit="10" x1="0" y1="0" x2="0" y2="5"/>
				</g>
				<g transform="translate(95.04533333333333,0)">
					<line fill="none" stroke="#CEC6B9" stroke-miterlimit="10" x1="0" y1="0" x2="0" y2="5"/>
				</g>
				<g transform="translate(101.96177777777777,0)">
					<line fill="none" stroke="#CEC6B9" stroke-miterlimit="10" x1="0" y1="0" x2="0" y2="5"/>
				</g>
				<g transform="translate(108.65511111111111,0)">
					<line fill="none" stroke="#CEC6B9" stroke-miterlimit="10" x1="0" y1="0" x2="0" y2="5"/>
				</g>
				<g transform="translate(115.58085185185186,0)">
					<line fill="none" stroke="#CEC6B9" stroke-miterlimit="10" x1="0" y1="0" x2="0" y2="5"/>
				</g>
				<g transform="translate(122.27418518518519,0)">
					<line fill="none" stroke="#CEC6B9" stroke-miterlimit="10" x1="0" y1="0" x2="0" y2="5"/>
				</g>
				<g transform="translate(129.19062962962963,0)">
					<line fill="none" stroke="#CEC6B9" stroke-miterlimit="10" x1="0" y1="0" x2="0" y2="7.5"/>
					<g enable-background="new    ">
						<path fill="#757470" d="M0.2,19l0.7-0.6c0.4,0.5,0.8,0.8,1.5,0.8c0.9,0,1.5-0.4,1.5-1.7v-6.4h1.1v6.5c0,1.7-0.9,2.6-2.5,2.6
							C1.3,20.2,0.7,19.7,0.2,19z"/>
						<path fill="#757470" d="M6.2,18.5c0-1.3,1.1-2.2,4.2-2.6v-0.3c0-0.8-0.4-1.2-1.2-1.2c-1,0-1.7,0.4-2.3,1l-0.5-0.6
							c0.7-0.7,1.7-1.2,2.9-1.2c1.5,0,2.1,0.8,2.1,2.1v2.8c0,0.8,0,1.2,0.2,1.6h-1.1c-0.1-0.3-0.1-0.5-0.1-0.9c-0.7,0.7-1.5,1-2.4,1
							C6.9,20.1,6.2,19.5,6.2,18.5z M10.5,18.4v-1.8c-2.4,0.4-3.2,1-3.2,1.8c0,0.6,0.4,0.9,1.1,0.9C9.2,19.3,9.9,18.9,10.5,18.4z"/>
						<path fill="#757470" d="M13,13.7h1v0.9c0.6-0.5,1.3-1.1,2.4-1.1c1.2,0,1.9,0.7,1.9,1.9V20h-1v-4.3c0-0.8-0.4-1.2-1.2-1.2
							c-0.8,0-1.4,0.4-2.1,1V20h-1V13.7z"/>
					</g>
				</g>
				<g transform="translate(136.10707407407406,0)">
					<line fill="none" stroke="#CEC6B9" stroke-miterlimit="10" x1="0" y1="0" x2="0" y2="5"/>
				</g>
				<g transform="translate(142.3541851851852,0)">
					<line fill="none" stroke="#CEC6B9" stroke-miterlimit="10" x1="0" y1="0" x2="0" y2="5"/>
				</g>
				<g transform="translate(149.26133333333334,0)">
					<line fill="none" stroke="#CEC6B9" stroke-miterlimit="10" x1="0" y1="0" x2="0" y2="5"/>
				</g>
				<g transform="translate(155.95466666666667,0)">
					<line fill="none" stroke="#CEC6B9" stroke-miterlimit="10" x1="0" y1="0" x2="0" y2="5"/>
				</g>
				<g transform="translate(162.8711111111111,0)">
					<line fill="none" stroke="#CEC6B9" stroke-miterlimit="10" x1="0" y1="0" x2="0" y2="5"/>
				</g>
				<g transform="translate(169.56444444444446,0)">
					<line fill="none" stroke="#CEC6B9" stroke-miterlimit="10" x1="0" y1="0" x2="0" y2="5"/>
				</g>
				<g transform="translate(176.4808888888889,0)">
					<line fill="none" stroke="#CEC6B9" stroke-miterlimit="10" x1="0" y1="0" x2="0" y2="5"/>
				</g>
				<g transform="translate(183.39733333333334,0)">
					<line fill="none" stroke="#CEC6B9" stroke-miterlimit="10" x1="0" y1="0" x2="0" y2="5"/>
				</g>
				<g transform="translate(190.09066666666666,0)">
					<line fill="none" stroke="#CEC6B9" stroke-miterlimit="10" x1="0" y1="0" x2="0" y2="5"/>
				</g>
				<g transform="translate(197.0164074074074,0)">
					<line fill="none" stroke="#CEC6B9" stroke-miterlimit="10" x1="0" y1="0" x2="0" y2="5"/>
				</g>
				<g transform="translate(203.70974074074076,0)">
					<line fill="none" stroke="#CEC6B9" stroke-miterlimit="10" x1="0" y1="0" x2="0" y2="5"/>
				</g>
				<g transform="translate(210.6261851851852,0)">
					<line fill="none" stroke="#CEC6B9" stroke-miterlimit="10" x1="0" y1="0" x2="0" y2="7.5"/>
					<g enable-background="new    ">
						<path fill="#757470" d="M0.2,19l0.7-0.6c0.4,0.5,0.8,0.8,1.5,0.8c0.9,0,1.5-0.4,1.5-1.7v-6.4h1.1v6.5c0,1.7-0.9,2.6-2.5,2.6
							C1.3,20.2,0.7,19.7,0.2,19z"/>
						<path fill="#757470" d="M6.2,18.5c0-1.3,1.1-2.2,4.2-2.6v-0.3c0-0.8-0.4-1.2-1.2-1.2c-1,0-1.7,0.4-2.3,1l-0.5-0.6
							c0.7-0.7,1.7-1.2,2.9-1.2c1.5,0,2.1,0.8,2.1,2.1v2.8c0,0.8,0,1.2,0.2,1.6h-1.1c-0.1-0.3-0.1-0.5-0.1-0.9c-0.7,0.7-1.5,1-2.4,1
							C6.9,20.1,6.2,19.5,6.2,18.5z M10.5,18.4v-1.8c-2.4,0.4-3.2,1-3.2,1.8c0,0.6,0.4,0.9,1.1,0.9C9.2,19.3,9.9,18.9,10.5,18.4z"/>
						<path fill="#757470" d="M13,13.7h1v0.9c0.6-0.5,1.3-1.1,2.4-1.1c1.2,0,1.9,0.7,1.9,1.9V20h-1v-4.3c0-0.8-0.4-1.2-1.2-1.2
							c-0.8,0-1.4,0.4-2.1,1V20h-1V13.7z"/>
					</g>
				</g>
				<g transform="translate(217.54262962962963,0)">
					<line fill="none" stroke="#CEC6B9" stroke-miterlimit="10" x1="0" y1="0" x2="0" y2="5"/>
				</g>
				<g transform="translate(223.78974074074074,0)">
					<line fill="none" stroke="#CEC6B9" stroke-miterlimit="10" x1="0" y1="0" x2="0" y2="5"/>
				</g>
				<g transform="translate(230.69688888888888,0)">
					<line fill="none" stroke="#CEC6B9" stroke-miterlimit="10" x1="0" y1="0" x2="0" y2="5"/>
				</g>
				<g transform="translate(237.39022222222223,0)">
					<line fill="none" stroke="#CEC6B9" stroke-miterlimit="10" x1="0" y1="0" x2="0" y2="5"/>
				</g>
				<g transform="translate(244.30666666666667,0)">
					<line fill="none" stroke="#CEC6B9" stroke-miterlimit="10" x1="0" y1="0" x2="0" y2="5"/>
				</g>
				<g transform="translate(251,0)">
					<line fill="none" x1="0" y1="0" x2="0" y2="5"/>
					<g enable-background="new    ">
						<path fill="#757470" d="M0.2,19l0.7-0.6c0.4,0.5,0.8,0.8,1.5,0.8c0.9,0,1.5-0.4,1.5-1.7v-6.4h1.1v6.5c0,1.7-0.9,2.6-2.5,2.6
							C1.3,20.2,0.7,19.7,0.2,19z"/>
						<path fill="#757470" d="M6.6,18.2v-4.6h1V18c0,0.8,0.4,1.2,1.2,1.2c0.8,0,1.4-0.4,2.1-1v-4.6h1V20h-1v-0.9
							c-0.6,0.5-1.3,1.1-2.4,1.1C7.2,20.1,6.6,19.4,6.6,18.2z"/>
						<path fill="#757470" d="M13.5,11.1h1V20h-1V11.1z"/>
					</g>
				</g>
			</g>
			<g transform="translate(0,20)">
				<g transform="translate(0,0)">
					<line fill="none" x1="0" y1="0" x2="0" y2="5"/>
					<g enable-background="new    ">
						<path fill="#757470" d="M0.3,14.9c0-1.1,0.5-2.1,2.4-3.3c1.1-0.7,1.6-1.2,1.6-1.9c0-0.8-0.5-1.3-1.4-1.3
							c-0.8,0-1.4,0.4-1.8,1.2L0.4,9.1C1,8.2,1.8,7.6,3,7.6c1.4,0,2.2,0.8,2.2,2c0,1-0.4,1.6-1.9,2.5c-1.3,0.8-1.9,1.5-2,2.2h3.9
							v0.8H0.3V14.9z"/>
						<path fill="#757470" d="M6,11.4c0-2.3,1-3.8,2.8-3.8c1.8,0,2.8,1.5,2.8,3.8s-1,3.8-2.8,3.8C7.1,15.2,6,13.7,6,11.4z
							 M10.7,11.4c0-2-0.7-3.1-1.9-3.1c-1.2,0-1.9,1-1.9,3.1s0.7,3.1,1.9,3.1C10,14.5,10.7,13.4,10.7,11.4z"/>
						<path fill="#757470" d="M12.5,14.3h1.4V8.6C13.5,8.8,12.9,9,12.5,9V8.2c0.6,0,1.1-0.2,1.4-0.5h0.8v6.6H16v0.8h-3.5V14.3z"/>
						<path fill="#757470" d="M16.5,14.9c0-1.1,0.5-2.1,2.4-3.3c1.1-0.7,1.6-1.2,1.6-1.9c0-0.8-0.5-1.3-1.4-1.3
							c-0.8,0-1.4,0.4-1.8,1.2l-0.7-0.4c0.5-1,1.4-1.6,2.5-1.6c1.4,0,2.2,0.8,2.2,2c0,1-0.4,1.6-1.9,2.5c-1.3,0.8-1.9,1.5-2,2.2h3.9
							v0.8h-4.9V14.9z"/>
					</g>
				</g>
				<g transform="translate(47.755074074074074,0)">
					<line fill="none" x1="0" y1="0" x2="0" y2="7.5"/>
					<g enable-background="new    ">
						<path fill="#757470" d="M0.4,14.3h1.4V8.6C1.5,8.8,0.9,9,0.5,9V8.2C1,8.2,1.5,8,1.9,7.7h0.8v6.6h1.2v0.8H0.4V14.3z"/>
						<path fill="#757470" d="M4.3,13.9l0.6-0.5c0.5,0.8,1.2,1.1,2,1.1c1,0,1.7-0.5,1.7-1.4c0-1-0.6-1.5-2.3-1.5H6v-0.7h0.3
							c1.5,0,2-0.5,2-1.3c0-0.7-0.4-1.2-1.5-1.2c-0.7,0-1.3,0.3-1.7,0.8L4.6,8.7C5.1,8,6,7.6,7,7.6c1.6,0,2.3,0.8,2.3,1.8
							c0,0.9-0.5,1.5-1.4,1.7c1.1,0.2,1.6,0.9,1.6,1.9c0,1.2-1,2.1-2.5,2.1C5.8,15.2,4.8,14.8,4.3,13.9z"/>
					</g>
				</g>
				<g transform="translate(129.19062962962963,0)">
					<line fill="none" x1="0" y1="0" x2="0" y2="7.5"/>
					<g enable-background="new    ">
						<path fill="#757470" d="M0.4,14.3h1.4V8.6C1.5,8.8,0.9,9,0.5,9V8.2C1,8.2,1.5,8,1.9,7.7h0.8v6.6h1.2v0.8H0.4V14.3z"/>
						<path fill="#757470" d="M7.6,13.4H4v-0.7l3.4-5h1v4.9h1.2v0.8H8.4v1.7H7.6V13.4z M7.6,12.6V8.7h0L5,12.6H7.6z"/>
					</g>
				</g>
				<g transform="translate(210.6261851851852,0)">
					<line fill="none" x1="0" y1="0" x2="0" y2="7.5"/>
					<g enable-background="new    ">
						<path fill="#757470" d="M0.4,14.3h1.4V8.6C1.5,8.8,0.9,9,0.5,9V8.2C1,8.2,1.5,8,1.9,7.7h0.8v6.6h1.2v0.8H0.4V14.3z"/>
						<path fill="#757470" d="M4.4,14L5,13.4c0.5,0.6,1,1,1.9,1c1.2,0,1.8-0.8,1.8-1.8C8.7,11.5,8,11,7,11c-0.7,0-1.2,0.3-1.6,0.9
							l-0.6-0.2l0.3-3.9h4L9,8.5H5.8l-0.2,2.4c0.3-0.4,0.8-0.6,1.6-0.6c1.4,0,2.3,1,2.3,2.4c0,1.5-1,2.6-2.6,2.6
							C5.8,15.2,4.9,14.7,4.4,14z"/>
					</g>
				</g>
				<path fill="none" d="M0,0L0,0h251l0,0"/>
			</g>
		</g>
	</g>
	<g transform="translate(251,0)">
		<g>
			<g>
				<g transform="translate(0,152)">
					<line fill="none" stroke="#A7A59B" stroke-miterlimit="10" x1="19" y1="0" x2="-251" y2="0"/>
					<g enable-background="new    ">
						<path fill="#757470" d="M7.4-6.2H3.1V-7l4-6h1.3v5.9h1.5v0.9H8.4v2.1h-1V-6.2z M7.4-7.1v-4.7h0L4.3-7.1H7.4z"/>
						<path fill="#757470" d="M10.6-8.6c0-2.8,1.2-4.6,3.3-4.6c2.1,0,3.3,1.8,3.3,4.6S16.1-4,13.9-4C11.8-4,10.6-5.8,10.6-8.6z
							 M16.2-8.6c0-2.4-0.9-3.7-2.3-3.7c-1.5,0-2.3,1.3-2.3,3.7c0,2.4,0.9,3.7,2.3,3.7C15.4-4.9,16.2-6.2,16.2-8.6z"/>
					</g>
				</g>
				<g transform="translate(0,121.60000000000001)">
					<line fill="none" stroke="#A7A59B" stroke-miterlimit="10" x1="19" y1="0" x2="-251" y2="0"/>
					<g enable-background="new    ">
						<path fill="#757470" d="M3.6-5.5l0.7-0.6c0.6,0.7,1.3,1.2,2.3,1.2c1.5,0,2.1-1,2.1-2.2c0-1.4-0.8-2.1-1.9-2.1
							c-0.9,0-1.5,0.4-2,1L4-8.4L4.4-13h4.8l-0.1,0.9H5.2L5-9.3C5.4-9.7,6-10,6.9-10c1.7,0,2.8,1.1,2.8,2.9C9.7-5.3,8.5-4,6.6-4
							C5.2-4,4.2-4.6,3.6-5.5z"/>
						<path fill="#757470" d="M10.6-8.6c0-2.8,1.2-4.6,3.3-4.6c2.1,0,3.3,1.8,3.3,4.6S16.1-4,13.9-4C11.8-4,10.6-5.8,10.6-8.6z
							 M16.2-8.6c0-2.4-0.9-3.7-2.3-3.7c-1.5,0-2.3,1.3-2.3,3.7c0,2.4,0.9,3.7,2.3,3.7C15.3-4.9,16.2-6.2,16.2-8.6z"/>
					</g>
				</g>
				<g transform="translate(0,91.2)">
					
						<line fill="none" stroke="#CEC6B9" stroke-miterlimit="10" stroke-dasharray="1,2" x1="19" y1="0" x2="-251" y2="0"/>
					<g enable-background="new    ">
						<path fill="#757470" d="M3.4-8.4c0-2.9,1.5-4.8,3.6-4.8c1,0,1.7,0.3,2.2,0.7l-0.5,0.8c-0.4-0.3-0.9-0.6-1.7-0.6
							c-1.5,0-2.5,1.5-2.5,3.7C5-9.2,5.8-9.7,6.9-9.7c1.8,0,2.8,1.1,2.8,2.8c0,1.7-1.3,3-3.1,3C4.8-4,3.4-5.4,3.4-8.4z M8.7-6.9
							c0-1.1-0.6-1.9-1.9-1.9c-0.9,0-1.8,0.5-2.3,1.2c0.2,1.9,1.1,2.8,2.2,2.8C7.9-4.9,8.7-5.6,8.7-6.9z"/>
						<path fill="#757470" d="M10.6-8.6c0-2.8,1.2-4.6,3.3-4.6c2.1,0,3.3,1.8,3.3,4.6S16.1-4,13.9-4C11.8-4,10.6-5.8,10.6-8.6z
							 M16.2-8.6c0-2.4-0.9-3.7-2.3-3.7c-1.5,0-2.3,1.3-2.3,3.7c0,2.4,0.9,3.7,2.3,3.7C15.3-4.9,16.2-6.2,16.2-8.6z"/>
					</g>
				</g>
				<g transform="translate(0,60.800000000000004)">
					
						<line fill="none" stroke="#CEC6B9" stroke-miterlimit="10" stroke-dasharray="1,2" x1="19" y1="0" x2="-251" y2="0"/>
					<g enable-background="new    ">
						<path fill="#757470" d="M8.9-12.1H4.4V-13H10v0.9l-3.7,8H5.3L8.9-12.1z"/>
						<path fill="#757470" d="M10.6-8.6c0-2.8,1.2-4.6,3.3-4.6c2.1,0,3.3,1.8,3.3,4.6S16.1-4,13.9-4C11.8-4,10.6-5.8,10.6-8.6z
							 M16.2-8.6c0-2.4-0.9-3.7-2.3-3.7c-1.5,0-2.3,1.3-2.3,3.7c0,2.4,0.9,3.7,2.3,3.7C15.3-4.9,16.2-6.2,16.2-8.6z"/>
					</g>
				</g>
				<g transform="translate(0,30.400000000000002)">
					
						<line fill="none" stroke="#CEC6B9" stroke-miterlimit="10" stroke-dasharray="1,2" x1="19" y1="0" x2="-251" y2="0"/>
					<g enable-background="new    ">
						<path fill="#757470" d="M3.2-6.3c0-1.2,0.9-1.9,2.3-2.5C4.3-9.4,3.6-10,3.6-11c0-1.1,1-2.2,2.8-2.2c1.8,0,2.8,1.1,2.8,2.2
							c0,1-0.7,1.6-1.9,2.2c1.4,0.6,2.3,1.2,2.3,2.6S8.5-4,6.4-4C4.4-4,3.2-5,3.2-6.3z M8.6-6.4c0-0.9-0.8-1.5-2.3-2.1
							C4.9-7.8,4.2-7.3,4.2-6.4c0,0.9,0.9,1.5,2.2,1.5C7.7-4.8,8.6-5.4,8.6-6.4z M8.2-11c0-0.7-0.6-1.4-1.8-1.4
							c-1.2,0-1.8,0.6-1.8,1.3c0,0.8,0.6,1.2,1.9,1.8C7.7-9.8,8.2-10.2,8.2-11z"/>
						<path fill="#757470" d="M10.5-8.6c0-2.8,1.2-4.6,3.3-4.6c2.1,0,3.3,1.8,3.3,4.6S16-4,13.8-4C11.7-4,10.5-5.8,10.5-8.6z
							 M16.1-8.6c0-2.4-0.9-3.7-2.3-3.7c-1.5,0-2.3,1.3-2.3,3.7c0,2.4,0.9,3.7,2.3,3.7C15.3-4.9,16.1-6.2,16.1-8.6z"/>
					</g>
				</g>
				<g transform="translate(0,0)">
					
						<line fill="none" stroke="#CEC6B9" stroke-miterlimit="10" stroke-dasharray="1,2" x1="19" y1="0" x2="-251" y2="0"/>
					<g enable-background="new    ">
						<path fill="#757470" d="M3.7-4.8l0.5-0.8c0.5,0.4,1,0.6,1.8,0.6c1.5,0,2.5-1.6,2.5-3.7C7.9-8,7.1-7.4,6-7.4
							c-1.8,0-2.8-1.1-2.8-2.8c0-1.7,1.3-3,3.1-3c1.8,0,3.2,1.4,3.2,4.4C9.5-5.9,8-4,6-4C4.9-4,4.2-4.3,3.7-4.8z M8.5-9.5
							c-0.2-1.9-1.1-2.8-2.2-2.8c-1.2,0-2,0.7-2,2c0,1.1,0.5,1.9,1.9,1.9C7.1-8.3,8-8.9,8.5-9.5z"/>
						<path fill="#757470" d="M10.6-8.6c0-2.8,1.2-4.6,3.3-4.6c2.1,0,3.3,1.8,3.3,4.6S16.1-4,13.9-4C11.8-4,10.6-5.8,10.6-8.6z
							 M16.2-8.6c0-2.4-0.9-3.7-2.3-3.7c-1.5,0-2.3,1.3-2.3,3.7c0,2.4,0.9,3.7,2.3,3.7C15.3-4.9,16.2-6.2,16.2-8.6z"/>
					</g>
				</g>
				<path fill="none" d="M-251,0H0v152h-251"/>
			</g>
		</g>
	</g>
	<g>
		<path fill="none" stroke="#ECAFAF" stroke-width="2" stroke-linecap="round" stroke-linejoin="round" d="M0,109.7l6.7-8.5l6.9,3.6
			l6.9-6.1l6.7,15.2l6.9,9.7l6.7-17.3l6.9,23.4l6.9-15.2l6.2-3.6l6.9-2.1l6.7,10l6.9-0.6l6.7,3.3l6.9-8.5l6.9,0.9l6.7-1.5l6.9-9.1
			l6.7-2.1l6.9,12.5l6.9-6.4l6.2-12.5l6.9-9.4l6.7,5.5l6.9-1.8l6.7,7l6.9-16.1l6.9-5.2l6.7,2.1l6.9,6.4l6.7-14.9l6.9,1.2l6.9,4.9
			l6.2-24.3l6.9-23.1l6.7,57.8l6.9,13.4l6.7,25.5"/>
		<path fill="none" stroke="#AF516C" stroke-width="2" stroke-linecap="round" stroke-linejoin="round" d="M0,62.9l6.7,17.9
			l6.9,15.8l6.9-14.6l6.7,4.6l6.9-2.1l6.7,21l6.9-0.6l6.9-36.2l6.2-4.9l6.9,24.6l6.7-3l6.9,10l6.7-2.7l6.9-3.6l6.9,9.7l6.7-13.1
			l6.9,5.5l6.7-1.2l6.9,16.1l6.9-24l6.2-7.3l6.9-8.5l6.7,1.5l6.9,7l6.7,8.8l6.9-17.3l6.9,8.5l6.7,3l6.9,4.3l6.7-4l6.9,22.8l6.9,7.6
			l6.2-52.6l6.9,2.1l6.7,23.1l6.9,2.1l6.7,41"/>
	</g>
</g>
<g transform="translate(1,37)">
	<g>
		<g transform="translate(0,24)">
			
				<line fill="none" stroke="#AF516C" stroke-width="2" stroke-linecap="round" stroke-linejoin="round" x1="1" y1="-5" x2="15" y2="-5"/>
			<g enable-background="new    ">
				<path fill="#74736C" d="M26-8.9H27V-1h4.3v1H26V-8.9z"/>
				<path fill="#74736C" d="M32-1.5c0-1.3,1.1-2.2,4.2-2.6v-0.3c0-0.8-0.4-1.2-1.2-1.2c-1,0-1.7,0.4-2.3,1l-0.5-0.6
					c0.7-0.7,1.7-1.2,2.9-1.2c1.5,0,2.1,0.8,2.1,2.1v2.8c0,0.8,0,1.2,0.2,1.6h-1.1c-0.1-0.3-0.1-0.5-0.1-0.9c-0.7,0.7-1.5,1-2.4,1
					C32.7,0.1,32-0.5,32-1.5z M36.2-1.6v-1.8C33.8-3,33-2.4,33-1.7c0,0.6,0.4,0.9,1.1,0.9C34.9-0.7,35.6-1.1,36.2-1.6z"/>
				<path fill="#74736C" d="M39.8-0.8V0h-1v-8.9h1v3.4c0.5-0.5,1.1-1,2.1-1c1.5,0,2.6,1.1,2.6,3.3c0,2.2-1.1,3.3-2.7,3.3
					C41,0.1,40.3-0.3,39.8-0.8z M43.4-3.2c0-1.6-0.8-2.4-1.8-2.4c-0.7,0-1.3,0.4-1.8,1v2.9c0.6,0.6,1.2,1,1.8,1
					C42.7-0.7,43.4-1.5,43.4-3.2z"/>
				<path fill="#74736C" d="M45.4-3.2c0-2.2,1.4-3.3,3-3.3c1.5,0,2.9,1.1,2.9,3.3c0,2.2-1.4,3.3-2.9,3.3C46.8,0.1,45.4-1,45.4-3.2z
					 M50.2-3.2c0-1.3-0.6-2.4-1.9-2.4c-1.2,0-1.9,1-1.9,2.4c0,1.3,0.6,2.4,1.9,2.4C49.5-0.7,50.2-1.7,50.2-3.2z"/>
				<path fill="#74736C" d="M52.4-1.8v-4.6h1V-2c0,0.8,0.4,1.2,1.2,1.2c0.8,0,1.4-0.4,2.1-1v-4.6h1V0h-1v-0.9
					c-0.6,0.5-1.3,1.1-2.4,1.1C53.1,0.1,52.4-0.6,52.4-1.8z"/>
				<path fill="#74736C" d="M59.3-6.3h1v1.2h0c0.5-0.7,1.2-1.3,2.4-1.3h0.1l-0.1,1c0,0-0.3,0-0.3,0c-1,0-1.8,0.5-2.2,1.4V0h-1V-6.3z
					"/>
				<path fill="#74736C" d="M66.3-3.2c0-2.2,1.2-3.3,2.7-3.3c0.8,0,1.5,0.4,2,0.9v-3.3h1v7.3c0,0.8,0,1.2,0.2,1.6h-1.1
					C71.1-0.2,71-0.6,71-0.9c-0.5,0.6-1.1,1-2.1,1C67.4,0.1,66.3-0.9,66.3-3.2z M71-1.7v-2.9c-0.6-0.6-1.2-1-1.8-1
					c-1.1,0-1.8,0.8-1.8,2.4c0,1.6,0.8,2.4,1.8,2.4C69.9-0.8,70.5-1.2,71-1.7z"/>
				<path fill="#74736C" d="M73.3-3.2c0-2.3,1.5-3.3,2.9-3.3c1.5,0,2.6,1.1,2.6,3.3v0.2h-4.5c0,1.4,0.9,2.2,1.9,2.2
					c0.9,0,1.4-0.4,1.9-1l0.6,0.5c-0.6,0.8-1.4,1.3-2.6,1.3C74.6,0.1,73.3-1,73.3-3.2z M77.8-3.7c-0.1-1.1-0.6-1.9-1.7-1.9
					c-0.9,0-1.7,0.6-1.8,1.9H77.8z"/>
				<path fill="#74736C" d="M80-6.3h1v1c0.6-0.6,1.3-1.1,2.3-1.1c1.1,0,1.5,0.5,1.7,1.1c0.6-0.6,1.4-1.1,2.3-1.1
					c1.3,0,1.8,0.8,1.8,1.9V0h-1v-4.3c0-0.8-0.3-1.2-1.1-1.2c-0.7,0-1.3,0.4-2,1V0h-1v-4.3c0-0.8-0.3-1.2-1.1-1.2
					c-0.7,0-1.3,0.4-2,1V0h-1V-6.3z"/>
				<path fill="#74736C" d="M90.4-1.5c0-1.3,1.1-2.2,4.2-2.6v-0.3c0-0.8-0.4-1.2-1.2-1.2c-1,0-1.7,0.4-2.3,1l-0.5-0.6
					c0.7-0.7,1.7-1.2,2.9-1.2c1.5,0,2.1,0.8,2.1,2.1v2.8c0,0.8,0,1.2,0.2,1.6h-1.1c-0.1-0.3-0.1-0.5-0.1-0.9c-0.7,0.7-1.5,1-2.4,1
					C91.1,0.1,90.4-0.5,90.4-1.5z M94.6-1.6v-1.8c-2.4,0.4-3.2,1-3.2,1.8c0,0.6,0.4,0.9,1.1,0.9C93.3-0.7,94-1.1,94.6-1.6z"/>
				<path fill="#74736C" d="M97.2-6.3h1v0.9c0.6-0.5,1.3-1.1,2.4-1.1c1.2,0,1.9,0.7,1.9,1.9V0h-1v-4.3c0-0.8-0.4-1.2-1.2-1.2
					c-0.8,0-1.4,0.4-2.1,1V0h-1V-6.3z"/>
				<path fill="#74736C" d="M103.6-3.2c0-2.2,1.2-3.3,2.7-3.3c0.8,0,1.5,0.4,2,0.9v-3.3h1v7.3c0,0.8,0,1.2,0.2,1.6h-1.1
					c-0.1-0.2-0.1-0.6-0.1-0.9c-0.5,0.6-1.1,1-2.1,1C104.8,0.1,103.6-0.9,103.6-3.2z M108.3-1.7v-2.9c-0.6-0.6-1.2-1-1.8-1
					c-1.1,0-1.8,0.8-1.8,2.4c0,1.6,0.8,2.4,1.8,2.4C107.2-0.8,107.8-1.2,108.3-1.7z"/>
				<path fill="#74736C" d="M113.8-8.7h1.1v1h-1.1V-8.7z M113.8-6.3h1V0h-1V-6.3z"/>
				<path fill="#74736C" d="M116.5-6.3h1v0.9c0.6-0.5,1.3-1.1,2.4-1.1c1.2,0,1.9,0.7,1.9,1.9V0h-1v-4.3c0-0.8-0.4-1.2-1.2-1.2
					c-0.8,0-1.4,0.4-2.1,1V0h-1V-6.3z"/>
				<path fill="#74736C" d="M123-3.2c0-2.2,1.2-3.3,2.7-3.3c0.8,0,1.5,0.4,2,0.9v-3.3h1v7.3c0,0.8,0,1.2,0.2,1.6h-1.1
					c-0.1-0.2-0.1-0.6-0.1-0.9c-0.5,0.6-1.1,1-2.1,1C124.1,0.1,123-0.9,123-3.2z M127.6-1.7v-2.9c-0.6-0.6-1.2-1-1.8-1
					c-1.1,0-1.8,0.8-1.8,2.4c0,1.6,0.8,2.4,1.8,2.4C126.5-0.8,127.1-1.2,127.6-1.7z"/>
				<path fill="#74736C" d="M129.9-3.2c0-2.3,1.5-3.3,2.9-3.3c1.5,0,2.6,1.1,2.6,3.3v0.2h-4.5c0,1.4,0.9,2.2,1.9,2.2
					c0.9,0,1.4-0.4,1.9-1l0.6,0.5c-0.6,0.8-1.4,1.3-2.6,1.3C131.3,0.1,129.9-1,129.9-3.2z M134.4-3.7c-0.1-1.1-0.6-1.9-1.7-1.9
					c-0.9,0-1.7,0.6-1.8,1.9H134.4z"/>
				<path fill="#74736C" d="M138-3.3l-2.1-3.1h1.1l1.5,2.3l1.5-2.3h1.1l-2.1,3l2.2,3.3h-1.1l-1.7-2.5L136.8,0h-1.1L138-3.3z"/>
			</g>
		</g>
		<g transform="translate(0,40)">
			
				<line fill="none" stroke="#ECAFAF" stroke-width="2" stroke-linecap="round" stroke-linejoin="round" x1="1" y1="-5" x2="15" y2="-5"/>
			<g enable-background="new    ">
				<path fill="#74736C" d="M25.5-4.4c0-2.9,1.6-4.6,3.8-4.6s3.8,1.8,3.8,4.6s-1.6,4.6-3.8,4.6S25.5-1.6,25.5-4.4z M32.1-4.4
					c0-2.3-1.2-3.6-2.8-3.6c-1.6,0-2.8,1.3-2.8,3.6s1.1,3.7,2.8,3.7C31-0.8,32.1-2.1,32.1-4.4z"/>
				<path fill="#74736C" d="M33.7-6.3h1.1l1.8,5.1h0l1.8-5.1h1L37.1,0h-1L33.7-6.3z"/>
				<path fill="#74736C" d="M39.7-3.2c0-2.3,1.5-3.3,2.9-3.3c1.5,0,2.6,1.1,2.6,3.3v0.2h-4.5c0,1.4,0.9,2.2,1.9,2.2
					c0.9,0,1.4-0.4,1.9-1l0.6,0.5c-0.6,0.8-1.4,1.3-2.6,1.3C41.1,0.1,39.7-1,39.7-3.2z M44.2-3.7c-0.1-1.1-0.6-1.9-1.7-1.9
					c-0.9,0-1.7,0.6-1.8,1.9H44.2z"/>
				<path fill="#74736C" d="M46.4-6.3h1v1.2h0c0.5-0.7,1.2-1.3,2.4-1.3h0.1l-0.1,1c0,0-0.3,0-0.3,0c-1,0-1.8,0.5-2.2,1.4V0h-1V-6.3z
					"/>
				<path fill="#74736C" d="M51.5-1.5v-3.9h-1.1v-0.9h1.1v-2.3h1v2.3h1.6v0.9h-1.6v3.7c0,0.7,0.2,1,1,1c0.2,0,0.5,0,0.6-0.1V0
					c-0.2,0-0.6,0.1-0.9,0.1C51.9,0.1,51.5-0.4,51.5-1.5z"/>
				<path fill="#74736C" d="M55.3-8.7h1.1v1h-1.1V-8.7z M55.4-6.3h1V0h-1V-6.3z"/>
				<path fill="#74736C" d="M58-6.3h1v1c0.6-0.6,1.3-1.1,2.3-1.1c1.1,0,1.5,0.5,1.7,1.1c0.6-0.6,1.4-1.1,2.3-1.1
					c1.3,0,1.8,0.8,1.8,1.9V0h-1v-4.3c0-0.8-0.3-1.2-1.1-1.2c-0.7,0-1.3,0.4-2,1V0h-1v-4.3c0-0.8-0.3-1.2-1.1-1.2
					c-0.7,0-1.3,0.4-2,1V0h-1V-6.3z"/>
				<path fill="#74736C" d="M68.5-3.2c0-2.3,1.5-3.3,2.9-3.3c1.5,0,2.6,1.1,2.6,3.3v0.2h-4.5c0,1.4,0.9,2.2,1.9,2.2
					c0.9,0,1.4-0.4,1.9-1l0.6,0.5c-0.6,0.8-1.4,1.3-2.6,1.3C69.8,0.1,68.5-1,68.5-3.2z M73-3.7c-0.1-1.1-0.6-1.9-1.7-1.9
					c-0.9,0-1.7,0.6-1.8,1.9H73z"/>
				<path fill="#74736C" d="M78.1-8.7h1.1v1h-1.1V-8.7z M78.1-6.3h1V0h-1V-6.3z"/>
				<path fill="#74736C" d="M80.8-6.3h1v0.9c0.6-0.5,1.3-1.1,2.4-1.1c1.2,0,1.9,0.7,1.9,1.9V0h-1v-4.3c0-0.8-0.4-1.2-1.2-1.2
					c-0.8,0-1.4,0.4-2.1,1V0h-1V-6.3z"/>
				<path fill="#74736C" d="M87.2-3.2c0-2.2,1.2-3.3,2.7-3.3c0.8,0,1.5,0.4,2,0.9v-3.3h1v7.3c0,0.8,0,1.2,0.2,1.6H92
					c-0.1-0.2-0.1-0.6-0.1-0.9c-0.5,0.6-1.1,1-2.1,1C88.4,0.1,87.2-0.9,87.2-3.2z M91.9-1.7v-2.9c-0.6-0.6-1.2-1-1.8-1
					c-1.1,0-1.8,0.8-1.8,2.4c0,1.6,0.8,2.4,1.8,2.4C90.8-0.8,91.4-1.2,91.9-1.7z"/>
				<path fill="#74736C" d="M94.2-3.2c0-2.3,1.5-3.3,2.9-3.3c1.5,0,2.6,1.1,2.6,3.3v0.2h-4.5c0,1.4,0.9,2.2,1.9,2.2
					c0.9,0,1.4-0.4,1.9-1l0.6,0.5C99-0.4,98.2,0.1,97,0.1C95.5,0.1,94.2-1,94.2-3.2z M98.7-3.7c-0.1-1.1-0.6-1.9-1.7-1.9
					c-0.9,0-1.7,0.6-1.8,1.9H98.7z"/>
				<path fill="#74736C" d="M102.3-3.3l-2.1-3.1h1.1l1.5,2.3l1.5-2.3h1.1l-2.1,3l2.2,3.3h-1.1l-1.7-2.5L101.1,0H100L102.3-3.3z"/>
			</g>
		</g>
	</g>
</g>
</svg>
