<?xml version="1.0" encoding="utf-8"?>
<!-- Generator: Adobe Illustrator 18.0.0, SVG Export Plug-In . SVG Version: 6.00 Build 0)  -->
<!DOCTYPE svg PUBLIC "-//W3C//DTD SVG 1.1//EN" "http://www.w3.org/Graphics/SVG/1.1/DTD/svg11.dtd">
<svg version="1.1" id="Layer_1" xmlns="http://www.w3.org/2000/svg" xmlns:xlink="http://www.w3.org/1999/xlink" x="0px" y="0px"
	 viewBox="0 0 300 276" enable-background="new 0 0 300 276" xml:space="preserve">
<title>Property price growth in China</title>
<desc>Annual % change</desc>
<g transform="translate(0,18)">
	<g enable-background="new    ">
		<path fill="#43423E" d="M1.5-13.3H6c2.9,0,4.8,1.1,4.8,3.8c0,2.8-2.1,3.9-4.9,3.9H3V0H1.5V-13.3z M6-7c2.1,0,3.3-0.6,3.3-2.4
			c0-1.7-1.1-2.4-3.3-2.4H3V-7H6z"/>
		<path fill="#43423E" d="M12.2-9.5h1.5v1.8h0c0.7-1.1,1.8-2,3.7-2h0.2l-0.1,1.4c-0.1,0-0.4,0-0.5,0c-1.5,0-2.6,0.8-3.3,2.1V0h-1.5
			V-9.5z"/>
		<path fill="#43423E" d="M18-4.8c0-3.3,2.1-5,4.4-5c2.3,0,4.4,1.7,4.4,5c0,3.3-2.1,5-4.4,5S18-1.5,18-4.8z M25.3-4.8
			c0-2-1-3.6-2.8-3.6c-1.8,0-2.9,1.5-2.9,3.6c0,2,0.9,3.6,2.9,3.6C24.2-1.1,25.3-2.6,25.3-4.8z"/>
		<path fill="#43423E" d="M28.7-9.5h1.5v1.3c0.7-0.8,1.7-1.5,3.1-1.5c2.2,0,3.9,1.6,3.9,4.9c0,3.3-1.7,4.9-4,4.9
			c-1.2,0-2.2-0.5-3-1.4v4.8h-1.5V-9.5z M35.7-4.8c0-2.4-1.2-3.6-2.7-3.6c-1.1,0-2,0.6-2.8,1.5v4.4C31.1-1.6,32-1.1,33-1.1
			C34.6-1.1,35.7-2.2,35.7-4.8z"/>
		<path fill="#43423E" d="M38.6-4.8c0-3.5,2.3-5,4.3-5c2.3,0,4,1.6,4,5v0.3h-6.7c0.1,2.1,1.3,3.3,2.9,3.3c1.4,0,2.1-0.6,2.9-1.5
			l0.9,0.8c-0.9,1.3-2.1,2-3.9,2C40.6,0.2,38.6-1.4,38.6-4.8z M45.3-5.6c-0.1-1.7-0.9-2.8-2.5-2.8c-1.3,0-2.5,0.9-2.7,2.8H45.3z"/>
		<path fill="#43423E" d="M48.7-9.5h1.5v1.8h0c0.7-1.1,1.8-2,3.7-2h0.2L54-8.3c-0.1,0-0.4,0-0.5,0c-1.5,0-2.6,0.8-3.3,2.1V0h-1.5
			V-9.5z"/>
		<path fill="#43423E" d="M56.2-2.3v-5.9h-1.7v-1.3h1.7v-3.4h1.5v3.4h2.5v1.3h-2.5v5.6c0,1,0.3,1.5,1.5,1.5c0.3,0,0.7-0.1,1-0.1V0
			c-0.3,0.1-0.9,0.1-1.4,0.1C56.8,0.1,56.2-0.6,56.2-2.3z"/>
		<path fill="#43423E" d="M60.5,3.4l0.4-1.2c0.3,0.1,0.7,0.2,1.4,0.2c1,0,1.4-0.4,1.8-1.4l0.4-0.9l-3.7-9.6h1.6l2.8,7.7h0L68-9.5
			h1.6L65.5,1.1c-0.6,1.7-1.4,2.6-3.2,2.6C61.4,3.7,60.9,3.5,60.5,3.4z"/>
		<path fill="#43423E" d="M75.2-9.5h1.5v1.3c0.7-0.8,1.7-1.5,3.1-1.5c2.2,0,3.9,1.6,3.9,4.9c0,3.3-1.7,4.9-4,4.9
			c-1.2,0-2.2-0.5-3-1.4v4.8h-1.5V-9.5z M82.2-4.8c0-2.4-1.2-3.6-2.7-3.6c-1.1,0-2,0.6-2.8,1.5v4.4c0.8,0.9,1.7,1.4,2.8,1.4
			C81.1-1.1,82.2-2.2,82.2-4.8z"/>
		<path fill="#43423E" d="M85.6-9.5h1.5v1.8h0c0.7-1.1,1.8-2,3.7-2H91l-0.1,1.4c-0.1,0-0.4,0-0.5,0c-1.5,0-2.6,0.8-3.3,2.1V0h-1.5
			V-9.5z"/>
		<path fill="#43423E" d="M92.5-13.1h1.6v1.5h-1.6V-13.1z M92.5-9.5h1.5V0h-1.5V-9.5z"/>
		<path fill="#43423E" d="M96-4.8c0-3.5,2.2-5,4.4-5c2.1,0,3.2,1.3,3.7,2.7l-1.3,0.5c-0.5-1.2-1.2-1.9-2.4-1.9c-1.4,0-2.8,1-2.8,3.6
			c0,2.3,1.1,3.7,2.7,3.7c1.2,0,1.9-0.5,2.6-1.9l1.3,0.5c-0.7,1.6-1.8,2.7-3.9,2.7C98.1,0.2,96-1.5,96-4.8z"/>
		<path fill="#43423E" d="M105.2-4.8c0-3.5,2.3-5,4.3-5c2.3,0,4,1.6,4,5v0.3h-6.7c0.1,2.1,1.3,3.3,2.9,3.3c1.4,0,2.1-0.6,2.9-1.5
			l0.9,0.8c-0.9,1.3-2.1,2-3.9,2C107.2,0.2,105.2-1.4,105.2-4.8z M111.9-5.6c-0.1-1.7-0.9-2.8-2.5-2.8c-1.3,0-2.5,0.9-2.7,2.8H111.9
			z"/>
		<path fill="#43423E" d="M118.4,1.3c0-1,0.7-1.7,1.7-2.1c-0.5-0.3-0.8-0.6-0.8-1.2c0-0.6,0.5-1.1,1.2-1.5c-0.9-0.6-1.5-1.5-1.5-2.7
			c0-2,1.6-3.4,3.9-3.4c1.2,0,2.1,0.4,2.8,1c0.6-0.4,1.5-0.8,2.3-0.9v1.4c-0.5,0-1.2,0.1-1.7,0.3c0.3,0.4,0.5,1,0.5,1.6
			c0,2.1-1.6,3.4-3.8,3.4c-0.6,0-1-0.1-1.5-0.2c-0.4,0.2-0.7,0.4-0.7,0.7c0,0.4,0.3,0.6,1.3,0.7l1.9,0.2c2.4,0.2,3.6,0.9,3.6,2.5
			c0,1.8-1.9,2.8-4.6,2.8C119.8,3.7,118.4,2.7,118.4,1.3z M126.2,1c0-0.8-0.6-1.2-2.6-1.4l-1.8-0.1c-0.2,0-0.4,0-0.5-0.1
			c-0.9,0.3-1.4,0.9-1.4,1.6c0,1,1,1.4,3.3,1.4C125.1,2.5,126.2,1.9,126.2,1z M125.3-6.2c0-1.4-0.9-2.2-2.4-2.2
			c-1.5,0-2.4,0.9-2.4,2.2s1,2.2,2.4,2.2S125.3-4.9,125.3-6.2z"/>
		<path fill="#43423E" d="M129.5-9.5h1.5v1.8h0c0.7-1.1,1.8-2,3.7-2h0.2l-0.1,1.4c-0.1,0-0.4,0-0.5,0c-1.5,0-2.6,0.8-3.3,2.1V0h-1.5
			V-9.5z"/>
		<path fill="#43423E" d="M135.3-4.8c0-3.3,2.1-5,4.4-5c2.3,0,4.4,1.7,4.4,5c0,3.3-2.1,5-4.4,5S135.3-1.5,135.3-4.8z M142.6-4.8
			c0-2-1-3.6-2.8-3.6c-1.8,0-2.9,1.5-2.9,3.6c0,2,0.9,3.6,2.9,3.6C141.6-1.1,142.6-2.6,142.6-4.8z"/>
		<path fill="#43423E" d="M144.8-9.5h1.6l1.2,4.5c0.3,1.2,0.5,1.9,0.8,3.2h0c0.3-1.3,0.5-2,0.8-3.2l1.2-4.4h1.3l1.2,4.5
			c0.3,1.1,0.5,1.9,0.8,3.1h0c0.3-1.3,0.5-1.9,0.8-3.1l1.3-4.6h1.5L154.6,0h-1.4l-2-7.4h0l-2,7.4h-1.4L144.8-9.5z"/>
		<path fill="#43423E" d="M159.6-2.3v-5.9h-1.7v-1.3h1.7v-3.4h1.5v3.4h2.5v1.3h-2.5v5.6c0,1,0.3,1.5,1.5,1.5c0.3,0,0.7-0.1,1-0.1V0
			c-0.3,0.1-0.9,0.1-1.3,0.1C160.2,0.1,159.6-0.6,159.6-2.3z"/>
		<path fill="#43423E" d="M165.3-13.3h1.6v5.2c0.8-0.8,2-1.6,3.6-1.6c1.8,0,2.8,1,2.8,2.8V0h-1.5v-6.5c0-1.3-0.5-1.9-1.7-1.9
			c-1.1,0-2.1,0.6-3.1,1.5V0h-1.6V-13.3z"/>
		<path fill="#43423E" d="M179.8-13.1h1.6v1.5h-1.6V-13.1z M179.9-9.5h1.5V0h-1.5V-9.5z"/>
		<path fill="#43423E" d="M183.9-9.5h1.6v1.4c0.8-0.8,2-1.6,3.6-1.6c1.8,0,2.8,1,2.8,2.8V0h-1.5v-6.5c0-1.3-0.5-1.9-1.7-1.9
			c-1.1,0-2.1,0.6-3.1,1.5V0h-1.6V-9.5z"/>
		<path fill="#43423E" d="M198-6.7c0-4.2,2.3-6.9,5.7-6.9c2.8,0,4.3,1.6,4.9,4.1L207-9.1c-0.6-2-1.5-3-3.4-3c-2.5,0-4,2.1-4,5.4
			c0,3.5,1.6,5.5,4.1,5.5c1.9,0,3.1-1.1,3.6-3.2l1.5,0.3c-0.6,2.6-2.3,4.3-5.1,4.3C200.2,0.3,198-2.4,198-6.7z"/>
		<path fill="#43423E" d="M210.7-13.3h1.6v5.2c0.8-0.8,2-1.6,3.6-1.6c1.8,0,2.8,1,2.8,2.8V0h-1.5v-6.5c0-1.3-0.5-1.9-1.7-1.9
			c-1.1,0-2.1,0.6-3.1,1.5V0h-1.6V-13.3z"/>
		<path fill="#43423E" d="M221-13.1h1.6v1.5H221V-13.1z M221-9.5h1.5V0H221V-9.5z"/>
		<path fill="#43423E" d="M225-9.5h1.6v1.4c0.8-0.8,2-1.6,3.6-1.6c1.8,0,2.8,1,2.8,2.8V0h-1.5v-6.5c0-1.3-0.5-1.9-1.7-1.9
			c-1.1,0-2.1,0.6-3.1,1.5V0H225V-9.5z"/>
		<path fill="#43423E" d="M234.7-2.3c0-1.9,1.6-3.3,6.4-4v-0.4c0-1.2-0.6-1.8-1.8-1.8c-1.4,0-2.5,0.6-3.4,1.4l-0.8-1
			c1.1-1,2.5-1.8,4.4-1.8c2.3,0,3.2,1.2,3.2,3.2v4.2c0,1.2,0.1,1.9,0.3,2.3h-1.6c-0.1-0.4-0.2-0.8-0.2-1.3c-1.1,1-2.2,1.5-3.7,1.5
			C235.7,0.1,234.7-0.7,234.7-2.3z M241-2.5v-2.7c-3.6,0.6-4.8,1.5-4.8,2.6c0,0.9,0.6,1.4,1.6,1.4C239.1-1.1,240.2-1.6,241-2.5z"/>
	</g>
</g>
<g transform="translate(0,34)">
	<g enable-background="new    ">
		<path fill="#74736C" d="M3.4-8.9h1.1L7.7,0H6.6L5.7-2.5H2.2L1.3,0h-1L3.4-8.9z M5.4-3.5L3.9-7.6h0L2.5-3.5H5.4z"/>
		<path fill="#74736C" d="M8.7-6.3h1v0.9c0.6-0.5,1.3-1.1,2.4-1.1c1.2,0,1.9,0.7,1.9,1.9V0h-1v-4.3c0-0.8-0.4-1.2-1.2-1.2
			c-0.8,0-1.4,0.4-2.1,1V0h-1V-6.3z"/>
		<path fill="#74736C" d="M15.5-6.3h1v0.9c0.6-0.5,1.3-1.1,2.4-1.1c1.2,0,1.9,0.7,1.9,1.9V0h-1v-4.3c0-0.8-0.4-1.2-1.2-1.2
			c-0.8,0-1.4,0.4-2.1,1V0h-1V-6.3z"/>
		<path fill="#74736C" d="M22.3-1.8v-4.6h1V-2c0,0.8,0.4,1.2,1.2,1.2c0.8,0,1.4-0.4,2.1-1v-4.6h1V0h-1v-0.9
			c-0.6,0.5-1.3,1.1-2.4,1.1C22.9,0.1,22.3-0.6,22.3-1.8z"/>
		<path fill="#74736C" d="M28.8-1.5c0-1.3,1.1-2.2,4.2-2.6v-0.3c0-0.8-0.4-1.2-1.2-1.2c-1,0-1.7,0.4-2.3,1L29-5.3
			c0.7-0.7,1.7-1.2,2.9-1.2c1.5,0,2.1,0.8,2.1,2.1v2.8c0,0.8,0,1.2,0.2,1.6h-1.1C33.1-0.3,33-0.5,33-0.9c-0.7,0.7-1.5,1-2.4,1
			C29.5,0.1,28.8-0.5,28.8-1.5z M33-1.6v-1.8c-2.4,0.4-3.2,1-3.2,1.8c0,0.6,0.4,0.9,1.1,0.9C31.7-0.7,32.4-1.1,33-1.6z"/>
		<path fill="#74736C" d="M35.6-8.9h1V0h-1V-8.9z"/>
		<path fill="#74736C" d="M40.9-6.3C40.9-7.9,41.7-9,43-9S45-8,45-6.3c0,1.6-0.8,2.7-2.1,2.7C41.7-3.6,40.9-4.7,40.9-6.3z M44.1-6.3
			c0-1.2-0.4-1.9-1.2-1.9c-0.8,0-1.2,0.8-1.2,1.9c0,1.2,0.4,1.9,1.2,1.9C43.7-4.4,44.1-5.2,44.1-6.3z M48.4-8.9h0.9L44,0h-0.9
			L48.4-8.9z M47.3-2.6c0-1.7,0.8-2.7,2.1-2.7c1.3,0,2.1,1.1,2.1,2.7c0,1.6-0.8,2.7-2.1,2.7C48.1,0.1,47.3-1,47.3-2.6z M50.5-2.6
			c0-1.2-0.4-1.9-1.2-1.9c-0.8,0-1.2,0.8-1.2,1.9c0,1.2,0.4,1.9,1.2,1.9C50.1-0.7,50.5-1.5,50.5-2.6z"/>
		<path fill="#74736C" d="M55.3-3.2c0-2.3,1.5-3.3,2.9-3.3c1.4,0,2.1,0.8,2.5,1.8l-0.9,0.4c-0.3-0.8-0.8-1.3-1.6-1.3
			c-0.9,0-1.8,0.6-1.8,2.4c0,1.6,0.7,2.4,1.8,2.4c0.8,0,1.3-0.3,1.7-1.3l0.9,0.3c-0.5,1.1-1.2,1.8-2.6,1.8C56.6,0.1,55.3-1,55.3-3.2
			z"/>
		<path fill="#74736C" d="M61.8-8.9h1v3.5c0.6-0.5,1.3-1.1,2.4-1.1c1.2,0,1.9,0.7,1.9,1.9V0h-1v-4.3c0-0.8-0.4-1.2-1.2-1.2
			c-0.8,0-1.4,0.4-2.1,1V0h-1V-8.9z"/>
		<path fill="#74736C" d="M68.3-1.5c0-1.3,1.1-2.2,4.2-2.6v-0.3c0-0.8-0.4-1.2-1.2-1.2c-1,0-1.7,0.4-2.3,1l-0.5-0.6
			c0.7-0.7,1.7-1.2,2.9-1.2c1.5,0,2.1,0.8,2.1,2.1v2.8c0,0.8,0,1.2,0.2,1.6h-1.1c-0.1-0.3-0.1-0.5-0.1-0.9c-0.7,0.7-1.5,1-2.4,1
			C69,0.1,68.3-0.5,68.3-1.5z M72.5-1.6v-1.8c-2.4,0.4-3.2,1-3.2,1.8c0,0.6,0.4,0.9,1.1,0.9C71.2-0.7,71.9-1.1,72.5-1.6z"/>
		<path fill="#74736C" d="M75-6.3h1v0.9c0.6-0.5,1.3-1.1,2.4-1.1c1.2,0,1.9,0.7,1.9,1.9V0h-1v-4.3c0-0.8-0.4-1.2-1.2-1.2
			c-0.8,0-1.4,0.4-2.1,1V0h-1V-6.3z"/>
		<path fill="#74736C" d="M81.1,0.9c0-0.6,0.4-1.1,1.2-1.4c-0.4-0.2-0.5-0.4-0.5-0.8c0-0.4,0.3-0.8,0.8-1c-0.6-0.4-1-1-1-1.8
			c0-1.3,1.1-2.3,2.6-2.3c0.8,0,1.4,0.3,1.9,0.7c0.4-0.3,1-0.5,1.5-0.6v0.9c-0.3,0-0.8,0.1-1.1,0.2c0.2,0.3,0.3,0.7,0.3,1.1
			c0,1.4-1.1,2.3-2.6,2.3c-0.4,0-0.7-0.1-1-0.2c-0.3,0.1-0.4,0.3-0.4,0.5c0,0.3,0.2,0.4,0.9,0.4L84.9-1c1.6,0.1,2.4,0.6,2.4,1.6
			c0,1.2-1.3,1.8-3.1,1.8C82.1,2.4,81.1,1.8,81.1,0.9z M86.3,0.7c0-0.6-0.4-0.8-1.8-0.9l-1.2-0.1c-0.1,0-0.2,0-0.4,0
			c-0.6,0.2-0.9,0.6-0.9,1c0,0.6,0.7,0.9,2.2,0.9C85.6,1.7,86.3,1.3,86.3,0.7z M85.7-4.2c0-0.9-0.6-1.5-1.6-1.5
			c-1,0-1.6,0.6-1.6,1.5c0,0.9,0.6,1.5,1.6,1.5C85.1-2.7,85.7-3.2,85.7-4.2z"/>
		<path fill="#74736C" d="M87.9-3.2c0-2.3,1.5-3.3,2.9-3.3c1.5,0,2.6,1.1,2.6,3.3v0.2h-4.5c0,1.4,0.9,2.2,1.9,2.2
			c0.9,0,1.4-0.4,1.9-1l0.6,0.5c-0.6,0.8-1.4,1.3-2.6,1.3C89.3,0.1,87.9-1,87.9-3.2z M92.4-3.7c-0.1-1.1-0.6-1.9-1.7-1.9
			c-0.9,0-1.7,0.6-1.8,1.9H92.4z"/>
	</g>
</g>
<g transform="translate(0,269)">
	<g enable-background="new    ">
		<path fill="#74736C" d="M0.4-1.8l0.7-0.3c0.4,1,1.1,1.5,2.1,1.5c1,0,1.7-0.4,1.7-1.2c0-0.7-0.4-1.1-1.9-1.5
			C1.6-3.9,0.7-4.3,0.7-5.6c0-1.1,1-2,2.4-2s2.2,0.7,2.6,1.7L5-5.5c-0.4-0.9-1-1.2-1.9-1.2c-0.9,0-1.5,0.5-1.5,1.1
			c0,0.8,0.5,1,1.9,1.5c1.5,0.5,2.4,1,2.4,2.2c0,1.2-1.1,2.1-2.6,2.1C1.8,0.1,0.8-0.6,0.4-1.8z"/>
		<path fill="#74736C" d="M6.6-2.6c0-1.8,1.2-2.7,2.5-2.7c1.3,0,2.4,0.9,2.4,2.7c0,1.8-1.2,2.7-2.4,2.7C7.8,0.1,6.6-0.8,6.6-2.6z
			 M10.7-2.6c0-1.1-0.5-2-1.6-2c-1,0-1.6,0.8-1.6,2c0,1.1,0.5,2,1.6,2C10.1-0.6,10.7-1.4,10.7-2.6z"/>
		<path fill="#74736C" d="M12.5-1.5v-3.8h0.9v3.6c0,0.7,0.3,1,1,1c0.6,0,1.2-0.3,1.7-0.8v-3.8h0.9V0H16v-0.8c-0.5,0.5-1.1,0.9-2,0.9
			C13.1,0.1,12.5-0.5,12.5-1.5z"/>
		<path fill="#74736C" d="M18.2-5.3h0.9v1h0c0.4-0.6,1-1.1,2-1.1h0.1l-0.1,0.8c0,0-0.2,0-0.2,0c-0.8,0-1.5,0.4-1.9,1.2V0h-0.9V-5.3z
			"/>
		<path fill="#74736C" d="M21.5-2.6c0-1.9,1.2-2.7,2.4-2.7c1.2,0,1.7,0.7,2.1,1.5l-0.7,0.3c-0.3-0.7-0.7-1-1.4-1
			c-0.8,0-1.5,0.5-1.5,2c0,1.3,0.6,2,1.5,2c0.7,0,1.1-0.3,1.4-1.1L26-1.4c-0.4,0.9-1,1.5-2.2,1.5C22.6,0.1,21.5-0.8,21.5-2.6z"/>
		<path fill="#74736C" d="M26.5-2.6c0-1.9,1.3-2.7,2.4-2.7c1.2,0,2.2,0.9,2.2,2.8v0.2h-3.7c0,1.2,0.7,1.8,1.6,1.8
			c0.8,0,1.2-0.3,1.6-0.9L31.1-1c-0.5,0.7-1.2,1.1-2.1,1.1C27.7,0.1,26.5-0.8,26.5-2.6z M30.3-3.1c-0.1-0.9-0.5-1.6-1.4-1.6
			c-0.7,0-1.4,0.5-1.5,1.6H30.3z"/>
		<path fill="#74736C" d="M32.3-5.3h1v1.1h-1V-5.3z M32.3-1h1v1h-1V-1z"/>
		<path fill="#74736C" d="M38.7-6.6h-2.3v-0.8h5.6v0.8h-2.4V0h-0.9V-6.6z"/>
		<path fill="#74736C" d="M42.8-7.4h0.9v2.9c0.5-0.5,1.1-0.9,2-0.9c1,0,1.6,0.6,1.6,1.6V0h-0.9v-3.6c0-0.7-0.3-1-1-1
			c-0.6,0-1.2,0.3-1.7,0.8V0h-0.9V-7.4z"/>
		<path fill="#74736C" d="M48.2-2.6c0-1.8,1.2-2.7,2.5-2.7c1.3,0,2.4,0.9,2.4,2.7c0,1.8-1.2,2.7-2.4,2.7C49.3,0.1,48.2-0.8,48.2-2.6
			z M52.2-2.6c0-1.1-0.5-2-1.6-2c-1,0-1.6,0.8-1.6,2c0,1.1,0.5,2,1.6,2C51.6-0.6,52.2-1.4,52.2-2.6z"/>
		<path fill="#74736C" d="M54.1-5.3h0.9v0.8c0.5-0.5,1.1-0.9,1.9-0.9c0.9,0,1.3,0.4,1.4,0.9c0.5-0.5,1.2-0.9,1.9-0.9
			c1.1,0,1.5,0.6,1.5,1.6V0h-0.9v-3.6c0-0.7-0.2-1-0.9-1c-0.6,0-1.1,0.3-1.6,0.8V0h-0.9v-3.6c0-0.7-0.2-1-0.9-1
			c-0.6,0-1.1,0.3-1.6,0.8V0h-0.9V-5.3z"/>
		<path fill="#74736C" d="M62.7-0.8l0.5-0.5c0.4,0.4,0.9,0.7,1.6,0.7c0.8,0,1.3-0.3,1.3-0.8c0-0.5-0.5-0.7-1.4-0.9
			c-1.1-0.3-1.9-0.6-1.9-1.6c0-0.8,0.7-1.4,1.8-1.4c0.9,0,1.5,0.3,2,0.8l-0.4,0.6c-0.4-0.4-0.9-0.6-1.5-0.6c-0.8,0-1.1,0.3-1.1,0.7
			c0,0.5,0.4,0.7,1.2,0.9c1.2,0.3,2,0.6,2,1.7c0,1-0.9,1.5-2.1,1.5C63.9,0.1,63.1-0.3,62.7-0.8z"/>
		<path fill="#74736C" d="M67.6-2.6c0-1.8,1.2-2.7,2.5-2.7c1.3,0,2.4,0.9,2.4,2.7c0,1.8-1.2,2.7-2.4,2.7C68.8,0.1,67.6-0.8,67.6-2.6
			z M71.6-2.6c0-1.1-0.5-2-1.6-2c-1,0-1.6,0.8-1.6,2c0,1.1,0.5,2,1.6,2C71-0.6,71.6-1.4,71.6-2.6z"/>
		<path fill="#74736C" d="M73.5-5.3h0.9v0.8c0.5-0.5,1.1-0.9,2-0.9c1,0,1.6,0.6,1.6,1.6V0h-0.9v-3.6c0-0.7-0.3-1-1-1
			c-0.6,0-1.2,0.3-1.7,0.8V0h-0.9V-5.3z"/>
		<path fill="#74736C" d="M81.7-7.4h2.5c1.7,0,2.6,0.7,2.6,2.1c0,1.2-0.7,1.8-1.7,2L87,0h-1l-1.8-3.2h-1.7V0h-0.9V-7.4z M84.2-4
			C85.3-4,86-4.3,86-5.3c0-1-0.6-1.3-1.8-1.3h-1.6V-4H84.2z"/>
		<path fill="#74736C" d="M87.5-2.6c0-1.9,1.3-2.7,2.4-2.7c1.2,0,2.2,0.9,2.2,2.8v0.2h-3.7c0,1.2,0.7,1.8,1.6,1.8
			c0.8,0,1.2-0.3,1.6-0.9L92-1c-0.5,0.7-1.2,1.1-2.1,1.1C88.6,0.1,87.5-0.8,87.5-2.6z M91.3-3.1c-0.1-0.9-0.5-1.6-1.4-1.6
			c-0.7,0-1.4,0.5-1.5,1.6H91.3z"/>
		<path fill="#74736C" d="M93.1-1.5v-3.8h0.9v3.6c0,0.7,0.3,1,1,1c0.6,0,1.2-0.3,1.7-0.8v-3.8h0.9V0h-0.9v-0.8
			c-0.5,0.5-1.1,0.9-2,0.9C93.6,0.1,93.1-0.5,93.1-1.5z"/>
		<path fill="#74736C" d="M99.2-1.3v-3.3h-0.9v-0.7h0.9v-1.9h0.9v1.9h1.4v0.7H100v3.1c0,0.6,0.2,0.8,0.8,0.8c0.2,0,0.4,0,0.5-0.1V0
			c-0.1,0-0.5,0.1-0.7,0.1C99.5,0.1,99.2-0.4,99.2-1.3z"/>
		<path fill="#74736C" d="M102-2.6c0-1.9,1.3-2.7,2.4-2.7c1.2,0,2.2,0.9,2.2,2.8v0.2h-3.7c0,1.2,0.7,1.8,1.6,1.8
			c0.8,0,1.2-0.3,1.6-0.9l0.5,0.4c-0.5,0.7-1.2,1.1-2.1,1.1C103.1,0.1,102-0.8,102-2.6z M105.8-3.1c-0.1-0.9-0.5-1.6-1.4-1.6
			c-0.7,0-1.4,0.5-1.5,1.6H105.8z"/>
		<path fill="#74736C" d="M107.6-5.3h0.9v1h0c0.4-0.6,1-1.1,2-1.1h0.1l-0.1,0.8c0,0-0.2,0-0.2,0c-0.8,0-1.5,0.4-1.9,1.2V0h-0.9V-5.3
			z"/>
		<path fill="#74736C" d="M110.9-0.8l0.5-0.5c0.4,0.4,0.9,0.7,1.6,0.7c0.8,0,1.3-0.3,1.3-0.8c0-0.5-0.5-0.7-1.4-0.9
			c-1.1-0.3-1.9-0.6-1.9-1.6c0-0.8,0.7-1.4,1.8-1.4c0.9,0,1.5,0.3,2,0.8l-0.4,0.6c-0.4-0.4-0.9-0.6-1.5-0.6c-0.8,0-1.1,0.3-1.1,0.7
			c0,0.5,0.4,0.7,1.2,0.9c1.2,0.3,2,0.6,2,1.7c0,1-0.9,1.5-2.1,1.5C112.1,0.1,111.3-0.3,110.9-0.8z"/>
		<path fill="#74736C" d="M118.7-7.4h1.9c2.4,0,3.7,1.2,3.7,3.7c0,2.5-1.4,3.7-3.7,3.7h-1.9V-7.4z M120.7-0.8c1.8,0,2.7-0.9,2.7-2.9
			c0-2-1-2.9-2.8-2.9h-1.2v5.8H120.7z"/>
		<path fill="#74736C" d="M125.1-1.2c0-1.1,0.9-1.8,3.5-2.2v-0.2c0-0.7-0.3-1-1-1c-0.8,0-1.4,0.3-1.9,0.8l-0.4-0.5
			c0.6-0.6,1.4-1,2.4-1c1.3,0,1.8,0.7,1.8,1.8v2.3c0,0.6,0,1,0.1,1.3h-0.9c-0.1-0.2-0.1-0.4-0.1-0.7c-0.6,0.5-1.2,0.8-2,0.8
			C125.6,0.1,125.1-0.4,125.1-1.2z M128.6-1.4v-1.5c-2,0.3-2.7,0.8-2.7,1.5c0,0.5,0.3,0.8,0.9,0.8C127.5-0.6,128.1-0.9,128.6-1.4z"
			/>
		<path fill="#74736C" d="M131.1-1.3v-3.3h-0.9v-0.7h0.9v-1.9h0.9v1.9h1.4v0.7H132v3.1c0,0.6,0.2,0.8,0.8,0.8c0.2,0,0.4,0,0.5-0.1V0
			c-0.1,0-0.5,0.1-0.7,0.1C131.5,0.1,131.1-0.4,131.1-1.3z"/>
		<path fill="#74736C" d="M134-1.2c0-1.1,0.9-1.8,3.5-2.2v-0.2c0-0.7-0.3-1-1-1c-0.8,0-1.4,0.3-1.9,0.8l-0.4-0.5
			c0.6-0.6,1.4-1,2.4-1c1.3,0,1.8,0.7,1.8,1.8v2.3c0,0.6,0,1,0.1,1.3h-0.9c-0.1-0.2-0.1-0.4-0.1-0.7c-0.6,0.5-1.2,0.8-2,0.8
			C134.5,0.1,134-0.4,134-1.2z M137.5-1.4v-1.5c-2,0.3-2.7,0.8-2.7,1.5c0,0.5,0.3,0.8,0.9,0.8C136.4-0.6,137-0.9,137.5-1.4z"/>
		<path fill="#74736C" d="M139.2-0.8l0.5-0.5c0.4,0.4,0.9,0.7,1.6,0.7c0.8,0,1.3-0.3,1.3-0.8c0-0.5-0.5-0.7-1.4-0.9
			c-1.1-0.3-1.9-0.6-1.9-1.6c0-0.8,0.7-1.4,1.8-1.4c0.9,0,1.5,0.3,2,0.8l-0.4,0.6c-0.4-0.4-0.9-0.6-1.5-0.6c-0.8,0-1.1,0.3-1.1,0.7
			c0,0.5,0.4,0.7,1.2,0.9c1.2,0.3,2,0.6,2,1.7c0,1-0.9,1.5-2.1,1.5C140.4,0.1,139.7-0.3,139.2-0.8z"/>
		<path fill="#74736C" d="M144.8-1.3v-3.3h-0.9v-0.7h0.9v-1.9h0.9v1.9h1.4v0.7h-1.4v3.1c0,0.6,0.2,0.8,0.8,0.8c0.2,0,0.4,0,0.5-0.1
			V0c-0.1,0-0.5,0.1-0.7,0.1C145.2,0.1,144.8-0.4,144.8-1.3z"/>
		<path fill="#74736C" d="M148-5.3h0.9v1h0c0.4-0.6,1-1.1,2-1.1h0.1L151-4.6c0,0-0.2,0-0.2,0c-0.8,0-1.5,0.4-1.9,1.2V0H148V-5.3z"/>
		<path fill="#74736C" d="M151.2-2.6c0-1.9,1.3-2.7,2.4-2.7c1.2,0,2.2,0.9,2.2,2.8v0.2h-3.7c0,1.2,0.7,1.8,1.6,1.8
			c0.8,0,1.2-0.3,1.6-0.9l0.5,0.4c-0.5,0.7-1.2,1.1-2.1,1.1C152.4,0.1,151.2-0.8,151.2-2.6z M155-3.1c-0.1-0.9-0.5-1.6-1.4-1.6
			c-0.7,0-1.4,0.5-1.5,1.6H155z"/>
		<path fill="#74736C" d="M156.4-1.2c0-1.1,0.9-1.8,3.5-2.2v-0.2c0-0.7-0.3-1-1-1c-0.8,0-1.4,0.3-1.9,0.8l-0.5-0.5
			c0.6-0.6,1.4-1,2.4-1c1.3,0,1.8,0.7,1.8,1.8v2.3c0,0.6,0,1,0.1,1.3h-0.9C160-0.2,160-0.4,160-0.7c-0.6,0.5-1.2,0.8-2,0.8
			C157,0.1,156.4-0.4,156.4-1.2z M160-1.4v-1.5c-2,0.3-2.7,0.8-2.7,1.5c0,0.5,0.3,0.8,0.9,0.8C158.9-0.6,159.5-0.9,160-1.4z"/>
		<path fill="#74736C" d="M162.1-5.3h0.9v0.8c0.5-0.5,1.1-0.9,1.9-0.9c0.9,0,1.3,0.4,1.4,0.9c0.5-0.5,1.2-0.9,1.9-0.9
			c1.1,0,1.5,0.6,1.5,1.6V0h-0.9v-3.6c0-0.7-0.2-1-0.9-1c-0.6,0-1.1,0.3-1.6,0.8V0h-0.9v-3.6c0-0.7-0.2-1-0.9-1
			c-0.6,0-1.1,0.3-1.6,0.8V0h-0.9V-5.3z"/>
		<path fill="#74736C" d="M171.5,0h-0.4v-1h1v0.9L171.7,1h-0.4L171.5,0z"/>
		<path fill="#74736C" d="M175.8-7.4h4.4v0.8h-3.6v2.4h2.6v0.8h-2.6V0h-0.9V-7.4z"/>
		<path fill="#74736C" d="M180-2.6c0-1.9,1.3-2.7,2.4-2.7c1.2,0,2.2,0.9,2.2,2.8v0.2h-3.7c0,1.2,0.7,1.8,1.6,1.8
			c0.8,0,1.2-0.3,1.6-0.9l0.5,0.4c-0.5,0.7-1.2,1.1-2.1,1.1C181.2,0.1,180-0.8,180-2.6z M183.8-3.1c-0.1-0.9-0.5-1.6-1.4-1.6
			c-0.7,0-1.4,0.5-1.5,1.6H183.8z"/>
		<path fill="#74736C" d="M186.5-0.7V0h-0.9v-7.4h0.9v2.9c0.4-0.5,0.9-0.8,1.7-0.8c1.2,0,2.1,0.9,2.1,2.7s-1,2.7-2.2,2.7
			C187.5,0.1,187-0.2,186.5-0.7z M189.5-2.6c0-1.3-0.6-2-1.5-2c-0.6,0-1.1,0.3-1.5,0.8v2.4c0.5,0.5,1,0.8,1.5,0.8
			C189-0.6,189.5-1.2,189.5-2.6z"/>
		<path fill="#74736C" d="M191.4-5.3h0.9v1h0c0.4-0.6,1-1.1,2-1.1h0.1l-0.1,0.8c0,0-0.2,0-0.2,0c-0.8,0-1.5,0.4-1.9,1.2V0h-0.9V-5.3
			z"/>
		<path fill="#74736C" d="M195.2-1.5v-3.8h0.9v3.6c0,0.7,0.3,1,1,1c0.6,0,1.2-0.3,1.7-0.8v-3.8h0.9V0h-0.9v-0.8
			c-0.5,0.5-1.1,0.9-2,0.9C195.7,0.1,195.2-0.5,195.2-1.5z"/>
		<path fill="#74736C" d="M200.6-1.2c0-1.1,0.9-1.8,3.5-2.2v-0.2c0-0.7-0.3-1-1-1c-0.8,0-1.4,0.3-1.9,0.8l-0.4-0.5
			c0.6-0.6,1.4-1,2.4-1c1.3,0,1.8,0.7,1.8,1.8v2.3c0,0.6,0,1,0.2,1.3h-0.9c-0.1-0.2-0.1-0.4-0.1-0.7c-0.6,0.5-1.2,0.8-2,0.8
			C201.2,0.1,200.6-0.4,200.6-1.2z M204.1-1.4v-1.5c-2,0.3-2.7,0.8-2.7,1.5c0,0.5,0.3,0.8,0.9,0.8C203-0.6,203.6-0.9,204.1-1.4z"/>
		<path fill="#74736C" d="M206.3-5.3h0.9v1h0c0.4-0.6,1-1.1,2-1.1h0.1l-0.1,0.8c0,0-0.2,0-0.2,0c-0.8,0-1.5,0.4-1.9,1.2V0h-0.9V-5.3
			z"/>
		<path fill="#74736C" d="M209.4,1.9l0.2-0.7c0.2,0,0.4,0.1,0.8,0.1c0.5,0,0.8-0.2,1-0.7l0.2-0.5l-2-5.3h0.9L212-1h0l1.5-4.3h0.9
			l-2.3,5.9c-0.4,0.9-0.8,1.4-1.8,1.4C209.9,2,209.6,2,209.4,1.9z"/>
		<path fill="#74736C" d="M217.3-0.2c0-1.1,0.5-2.1,2.4-3.3c1.1-0.7,1.6-1.2,1.6-1.9c0-0.8-0.5-1.3-1.4-1.3c-0.8,0-1.4,0.4-1.8,1.2
			L217.4-6c0.5-1,1.4-1.6,2.5-1.6c1.4,0,2.2,0.8,2.2,2c0,1-0.4,1.6-1.9,2.5c-1.3,0.8-1.9,1.5-2,2.2h3.9V0h-4.9V-0.2z"/>
		<path fill="#74736C" d="M223-3.7c0-2.3,1-3.8,2.8-3.8c1.8,0,2.8,1.5,2.8,3.8s-1,3.8-2.8,3.8C224,0.1,223-1.4,223-3.7z M227.6-3.7
			c0-2-0.7-3.1-1.9-3.1c-1.2,0-1.9,1-1.9,3.1s0.7,3.1,1.9,3.1C226.9-0.6,227.6-1.7,227.6-3.7z"/>
		<path fill="#74736C" d="M229.4-0.8h1.4v-5.7c-0.4,0.2-0.9,0.3-1.4,0.3v-0.8c0.6,0,1.1-0.2,1.4-0.5h0.8v6.6h1.2V0h-3.5V-0.8z"/>
		<path fill="#74736C" d="M233.4-3.6c0-2.4,1.3-4,3-4c0.8,0,1.4,0.3,1.8,0.6l-0.4,0.6c-0.4-0.3-0.8-0.5-1.4-0.5
			c-1.3,0-2.1,1.3-2.1,3c0.5-0.5,1.2-0.9,2.1-0.9c1.5,0,2.3,0.9,2.3,2.3c0,1.4-1.1,2.5-2.5,2.5C234.6,0.1,233.4-1,233.4-3.6z
			 M237.8-2.3c0-0.9-0.5-1.6-1.6-1.6c-0.8,0-1.5,0.4-1.9,1c0.1,1.6,0.9,2.3,1.9,2.3C237.2-0.6,237.8-1.2,237.8-2.3z"/>
	</g>
</g>
<g transform="translate(1,62)">
	<g transform="translate(0,152)">
		<g>
			<g transform="translate(0,20)">
				<g transform="translate(0,0)">
					<line fill="none" stroke="#CEC6B9" stroke-miterlimit="10" x1="0" y1="-7.4" x2="0" y2="-2"/>
					<g enable-background="new    ">
						<path fill="#757470" d="M0.4,13.8c0-1.3,0.6-2.5,2.9-4c1.3-0.9,1.9-1.4,1.9-2.3c0-1-0.6-1.6-1.7-1.6c-0.9,0-1.6,0.5-2.2,1.5
							L0.5,6.8c0.6-1.2,1.7-1.9,3-1.9c1.6,0,2.7,1,2.7,2.5c0,1.2-0.5,2-2.2,3c-1.5,1-2.3,1.9-2.4,2.6h4.7V14H0.4V13.8z"/>
						<path fill="#757470" d="M7.2,9.5c0-2.8,1.2-4.6,3.3-4.6c2.1,0,3.3,1.8,3.3,4.6s-1.2,4.6-3.3,4.6C8.5,14.1,7.2,12.3,7.2,9.5z
							 M12.9,9.5c0-2.4-0.9-3.7-2.3-3.7c-1.5,0-2.3,1.3-2.3,3.7c0,2.4,0.9,3.7,2.3,3.7C12,13.2,12.9,11.9,12.9,9.5z"/>
						<path fill="#757470" d="M15,13h1.7V6.2c-0.4,0.2-1.1,0.4-1.6,0.4V5.7c0.7,0,1.3-0.2,1.7-0.6h1V13h1.5V14H15V13z"/>
						<path fill="#757470" d="M20,13h1.7V6.2c-0.4,0.2-1.1,0.4-1.6,0.4V5.7c0.7,0,1.3-0.2,1.7-0.6h1V13h1.5V14H20V13z"/>
					</g>
				</g>
				<g transform="translate(26.15164256224513,0)">
					<line fill="none" stroke="#CEC6B9" stroke-miterlimit="10" x1="0" y1="-7.4" x2="0" y2="0.7"/>
				</g>
				<g transform="translate(82.44079430612193,0)">
					<line fill="none" stroke="#CEC6B9" stroke-miterlimit="10" x1="0" y1="-7.4" x2="0" y2="0.7"/>
					<g enable-background="new    ">
						<path fill="#757470" d="M0.5,13h1.7V6.2C1.8,6.4,1.1,6.6,0.6,6.6V5.7c0.7,0,1.3-0.2,1.7-0.6h1V13h1.5V14H0.5V13z"/>
						<path fill="#757470" d="M5.1,12.5l0.8-0.6c0.6,0.9,1.4,1.3,2.4,1.3c1.2,0,2-0.6,2-1.7c0-1.2-0.8-1.8-2.7-1.8H7.2V8.8h0.4
							c1.8,0,2.5-0.6,2.5-1.5c0-0.8-0.5-1.4-1.8-1.4c-0.9,0-1.6,0.4-2.1,1L5.5,6.2c0.7-0.8,1.6-1.3,2.9-1.3c1.9,0,2.7,1,2.7,2.2
							c0,1.1-0.7,1.9-1.7,2.1c1.3,0.3,1.9,1,1.9,2.3c0,1.5-1.2,2.6-3.1,2.6C6.9,14.1,5.8,13.5,5.1,12.5z"/>
					</g>
				</g>
				<g transform="translate(138.57615055343078,0)">
					<line fill="none" stroke="#CEC6B9" stroke-miterlimit="10" x1="0" y1="-7.4" x2="0" y2="0.7"/>
					<g enable-background="new    ">
						<path fill="#757470" d="M0.5,13h1.7V6.2C1.8,6.4,1.1,6.6,0.6,6.6V5.7c0.7,0,1.3-0.2,1.7-0.6h1V13h1.5V14H0.5V13z"/>
						<path fill="#757470" d="M9.1,11.9H4.8v-0.8l4-6h1.3V11h1.5v0.9h-1.5V14h-1V11.9z M9.1,11V6.3h0L6,11H9.1z"/>
					</g>
				</g>
				<g transform="translate(194.7115068007396,0)">
					<line fill="none" stroke="#CEC6B9" stroke-miterlimit="10" x1="0" y1="-7.4" x2="0" y2="0.7"/>
					<g enable-background="new    ">
						<path fill="#757470" d="M0.5,13h1.7V6.2C1.8,6.4,1.1,6.6,0.6,6.6V5.7c0.7,0,1.3-0.2,1.7-0.6h1V13h1.5V14H0.5V13z"/>
						<path fill="#757470" d="M5.3,12.6L6,12c0.6,0.7,1.3,1.2,2.3,1.2c1.5,0,2.1-1,2.1-2.2C10.4,9.7,9.6,9,8.5,9c-0.9,0-1.5,0.4-2,1
							L5.7,9.7l0.3-4.7h4.8L10.8,6H6.9L6.7,8.9c0.4-0.5,1-0.8,1.9-0.8c1.7,0,2.8,1.1,2.8,2.9c0,1.8-1.2,3.1-3.1,3.1
							C7,14.1,5.9,13.5,5.3,12.6z"/>
					</g>
				</g>
				<g transform="translate(250.84686304804842,0)">
					<line fill="none" stroke="#CEC6B9" stroke-miterlimit="10" x1="0" y1="-7.4" x2="0" y2="0.7"/>
					<g enable-background="new    ">
						<path fill="#757470" d="M0.5,13h1.7V6.2C1.8,6.4,1.1,6.6,0.6,6.6V5.7c0.7,0,1.3-0.2,1.7-0.6h1V13h1.5V14H0.5V13z"/>
						<path fill="#757470" d="M5.4,9.7c0-2.9,1.5-4.8,3.6-4.8c1,0,1.7,0.3,2.2,0.7l-0.5,0.8C10.2,6,9.7,5.8,8.9,5.8
							c-1.5,0-2.5,1.5-2.5,3.7C7,8.9,7.8,8.4,8.9,8.4c1.8,0,2.8,1.1,2.8,2.8c0,1.7-1.3,3-3.1,3C6.8,14.1,5.4,12.7,5.4,9.7z
							 M10.7,11.2c0-1.1-0.6-1.9-1.9-1.9c-0.9,0-1.8,0.5-2.3,1.2c0.2,1.9,1.1,2.8,2.2,2.8C9.9,13.2,10.7,12.5,10.7,11.2z"/>
					</g>
				</g>
			</g>
		</g>
	</g>
	<g transform="translate(253,0)">
		<g>
			<g>
				<g transform="translate(0,152)">
					
						<line shape-rendering="crispEdges" fill="none" stroke="#CEC6B9" stroke-miterlimit="10" x1="17" y1="12.9" x2="-253" y2="12.9"/>
					<g enable-background="new    ">
						<path fill="#757470" d="M5.4,4.2h2.8v0.8H5.4V4.2z"/>
						<path fill="#757470" d="M9.1,7.1l0.7-0.6c0.6,0.7,1.3,1.2,2.3,1.2c1.5,0,2.1-1,2.1-2.2c0-1.4-0.8-2.1-1.9-2.1
							c-0.9,0-1.5,0.4-2,1L9.6,4.2l0.3-4.7h4.8l-0.1,0.9h-3.9l-0.2,2.8c0.4-0.5,1-0.8,1.9-0.8c1.7,0,2.8,1.1,2.8,2.9
							c0,1.8-1.2,3.1-3.1,3.1C10.8,8.6,9.8,8,9.1,7.1z"/>
					</g>
				</g>
				<g transform="translate(0,114)">
					
						<line shape-rendering="crispEdges" fill="none" stroke="#CEC6B9" stroke-miterlimit="10" x1="17" y1="9.7" x2="-253" y2="9.7"/>
					<g enable-background="new    ">
						<path fill="#757470" d="M8.7,0.7C8.7-2,9.9-3.9,12-3.9c2.1,0,3.3,1.8,3.3,4.6S14.2,5.3,12,5.3C9.9,5.3,8.7,3.5,8.7,0.7z
							 M14.3,0.7c0-2.4-0.9-3.7-2.3-3.7c-1.5,0-2.3,1.3-2.3,3.7c0,2.4,0.9,3.7,2.3,3.7C13.5,4.4,14.3,3.1,14.3,0.7z"/>
					</g>
				</g>
				<g transform="translate(0,76)">
					
						<line shape-rendering="crispEdges" fill="none" stroke="#CEC6B9" stroke-miterlimit="10" stroke-dasharray="1,2" x1="17" y1="6.4" x2="-253" y2="6.4"/>
					<g enable-background="new    ">
						<path fill="#757470" d="M9.4,0.6l0.7-0.6c0.6,0.7,1.3,1.2,2.3,1.2c1.5,0,2.1-1,2.1-2.2c0-1.4-0.8-2.1-1.9-2.1
							c-0.9,0-1.5,0.4-2,1L9.8-2.3l0.3-4.7H15L14.9-6H11l-0.2,2.8c0.4-0.5,1-0.8,1.9-0.8c1.7,0,2.8,1.1,2.8,2.9
							c0,1.8-1.2,3.1-3.1,3.1C11.1,2.1,10,1.5,9.4,0.6z"/>
					</g>
				</g>
				<g transform="translate(0,38)">
					
						<line shape-rendering="crispEdges" fill="none" stroke="#CEC6B9" stroke-miterlimit="10" stroke-dasharray="1,2" x1="17" y1="3.2" x2="-253" y2="3.2"/>
					<g enable-background="new    ">
						<path fill="#757470" d="M3.6-2.2h1.7v-6.8C4.8-8.8,4.1-8.7,3.6-8.7v-0.9c0.7,0,1.3-0.2,1.7-0.6h1v7.9h1.5v0.9H3.6V-2.2z"/>
						<path fill="#757470" d="M8.5-5.7c0-2.8,1.2-4.6,3.3-4.6c2.1,0,3.3,1.8,3.3,4.6s-1.2,4.6-3.3,4.6C9.7-1.1,8.5-3,8.5-5.7z
							 M14.1-5.7c0-2.4-0.9-3.7-2.3-3.7c-1.5,0-2.3,1.3-2.3,3.7s0.9,3.7,2.3,3.7C13.2-2.1,14.1-3.3,14.1-5.7z"/>
					</g>
				</g>
				<g transform="translate(0,0)">
					
						<line shape-rendering="crispEdges" fill="none" stroke="#CEC6B9" stroke-miterlimit="10" stroke-dasharray="1,2" x1="17" y1="0" x2="-253" y2="0"/>
					<g enable-background="new    ">
						<path fill="#757470" d="M4.4-5.5H6v-6.8c-0.4,0.2-1.1,0.4-1.6,0.4v-0.9c0.7,0,1.3-0.2,1.7-0.6h1v7.9h1.5v0.9H4.4V-5.5z"/>
						<path fill="#757470" d="M9.1-5.9l0.7-0.6c0.6,0.7,1.3,1.2,2.3,1.2c1.5,0,2.1-1,2.1-2.2c0-1.4-0.8-2.1-1.9-2.1
							c-0.9,0-1.5,0.4-2,1L9.6-8.8l0.3-4.7h4.8l-0.1,0.9h-3.9l-0.2,2.8c0.4-0.5,1-0.8,1.9-0.8c1.7,0,2.8,1.1,2.8,2.9
							c0,1.8-1.2,3.1-3.1,3.1C10.8-4.4,9.8-5,9.1-5.9z"/>
					</g>
				</g>
			</g>
		</g>
	</g>
	<g>
		<path fill="none" stroke="#AF516C" stroke-width="2" stroke-linecap="round" stroke-linejoin="round" d="M0,46.2l4.8-4.8l4.8,10.1
			L14,62.9l4.9,14.2l4.6,11.4l4.5,13.3l5.1,11.5l4.5,9l4.5,8.7l4.9,11.1l4.8,1.6l4.3,0.1l5.1-1.7l4.6-2.6l4.8-3.7l4.8-7.9l4.5-4.3
			l4.9-9.6l4.8-10.6l4.3-11.7l4.8-11.9l4.6-12.9l4.6-4.1l4.8-4.5l4.8-5.5l4.5-7.2l4.9-10l4.8-2.5l4.3-4.3l5.1,3.4l4.6,2.6l4.3,6.1
			l4.9,8.1l4.6,10.1l4.5,11.2l4.9,14.6l4.8,12.9l4.8,16.8l4.6,13.5l4.6,8.6l4.8,9.2l4.8,3.3l4.5,6.2l4.3,4.2l5.1,0.9l4.6-6l4.8-8.5
			l4.6-10.9l4.6-12.6l4.9-10l4.6-5.9l4.5-7.1l4.9-10.1l4.8-1.8"/>
	</g>
</g>
</svg>
