<?xml-stylesheet type="text/css" href="https://ig.ft.com/graphics/bloomberg-economics/chart-style.css" ?><svg xmlns="http://www.w3.org/2000/svg" viewBox="0 0 304 270"><text class="chart-title" font-family="MetricWeb,sans-serif" fill="#43423e" font-size="20" y="22">China's trade balance</text><text class="chart-subtitle" font-family="MetricWeb,sans-serif" fill="#43423e" font-size="15" y="42">$bn</text><text class="chart-source" font-family="MetricWeb,sans-serif" font-size="10" fill-opacity="0.4" y="265">Source: CEIC. 23 May 2016</text><g transform="translate(1,100)"><g transform="translate(0,120)" class="x axis"><g class="tick" style="" transform="translate(21.235455167693363,0)"><line y2="6" x2="0" fill="none" stroke="#000" stroke-opacity="0.2"></line><text dy="0" style="" y="20" x="0" font-family="MetricWeb,sans-serif" fill-opacity="0.6" font-size="12" text-anchor="start">2006</text></g><g class="tick" style="" transform="translate(63.706365503080086,0)"><line y2="6" x2="0" fill="none" stroke="#000" stroke-opacity="0.2"></line><text dy="0" style="" y="20" x="0" font-family="MetricWeb,sans-serif" fill-opacity="0.6" font-size="12" text-anchor="start">2008</text></g><g class="tick" style="" transform="translate(106.23545516769336,0)"><line y2="6" x2="0" fill="none" stroke="#000" stroke-opacity="0.2"></line><text dy="0" style="" y="20" x="0" font-family="MetricWeb,sans-serif" fill-opacity="0.6" font-size="12" text-anchor="start">2010</text></g><g class="tick" style="" transform="translate(148.70636550308006,0)"><line y2="6" x2="0" fill="none" stroke="#000" stroke-opacity="0.2"></line><text dy="0" style="" y="20" x="0" font-family="MetricWeb,sans-serif" fill-opacity="0.6" font-size="12" text-anchor="start">2012</text></g><g class="tick" style="" transform="translate(191.23545516769335,0)"><line y2="6" x2="0" fill="none" stroke="#000" stroke-opacity="0.2"></line><text dy="0" style="" y="20" x="0" font-family="MetricWeb,sans-serif" fill-opacity="0.6" font-size="12" text-anchor="start">2014</text></g><g class="tick" style="" transform="translate(233.7063655030801,0)"><line y2="6" x2="0" fill="none" stroke="#000" stroke-opacity="0.2"></line><text dy="0" style="" y="20" x="0" font-family="MetricWeb,sans-serif" fill-opacity="0.6" font-size="12" text-anchor="start">2016</text></g><path class="domain" d="M0,0V0H255V0" fill="none" stroke="#74736c"></path></g><g transform="translate(255,0)" class="y axis"><g class="tick" style="" transform="translate(0,103.77272727272728)"><line x2="-255" y2="0" fill="none" stroke="#000" stroke-opacity="0.2"></line><text dy="0" style="text-anchor: start;" x="3" y="0" font-family="MetricWeb,sans-serif" fill-opacity="0.6" font-size="12">50</text></g><g class="tick" style="" transform="translate(0,76.72727272727272)"><line x2="-255" y2="0" fill="none" stroke="#000" stroke-opacity="0.2"></line><text dy="0" style="text-anchor: start;" x="3" y="0" font-family="MetricWeb,sans-serif" fill-opacity="0.6" font-size="12">100</text></g><g class="tick" style="" transform="translate(0,49.68181818181818)"><line x2="-255" y2="0" fill="none" stroke="#000" stroke-opacity="0.2"></line><text dy="0" style="text-anchor: start;" x="3" y="0" font-family="MetricWeb,sans-serif" fill-opacity="0.6" font-size="12">150</text></g><g class="tick" style="" transform="translate(0,22.63636363636363)"><line x2="-255" y2="0" fill="none" stroke="#000" stroke-opacity="0.2"></line><text dy="0" style="text-anchor: start;" x="3" y="0" font-family="MetricWeb,sans-serif" fill-opacity="0.6" font-size="12">200</text></g><path class="domain" d="M-255,1H0V120H-255" fill="none" stroke="#000" stroke-opacity="0"></path></g><g class="chart-key" transform="translate(0,-35)"><g class="key-element" transform="translate(0,0)"><text x="28" font-family="MetricWeb,sans-serif" font-size="12" fill="#43423e">Imports</text><line x1="0" x2="25" y1="-5" y2="-5" stroke-width="2" fill="none" stroke="#af516c"></line></g><g class="key-element" transform="translate(0,20)"><text x="28" font-family="MetricWeb,sans-serif" font-size="12" fill="#43423e">Exports</text><line x1="0" x2="25" y1="-5" y2="-5" stroke-width="2" fill="none" stroke="#76acb8"></line></g></g><g><path d="M1.804,106.871L3.433,97.894L5.236,97.2L6.982,99.214L8.785,95.14L10.53,95.343L12.334,93.82L14.138,92.854L15.883,93.987L17.687,91.755L19.432,90.027L21.235,95.665L23.039,101.551L24.668,88.602L26.472,89.196L28.217,91.27L30.021,86.836L31.766,87.363L33.569,81.722L35.373,81.255L37.118,83.149L38.922,78.97L40.667,79.922L42.471,83.965L44.274,86.412L45.903,85.693L47.707,78.107L49.452,79.938L51.256,74.96L53.001,72.538L54.805,70.585L56.608,69.976L58.354,72.549L60.157,67.196L61.903,68.93L63.706,71.505L65.51,83.56L67.197,71.879L69.001,66.608L70.746,65.641L72.55,65.08L74.295,56.889L76.099,57.864L77.902,57.019L79.648,61.405L81.451,68.621L83.196,70.692L85,81.891L86.804,95.716L88.433,81.979L90.236,81.09L91.982,82.808L93.785,79.155L95.53,73.795L97.334,74.722L99.138,68.106L100.883,70.906L102.687,69.342L104.432,60.108L106.235,71.602L108.039,79.69L109.668,70.176L111.472,65.952L113.217,59.549L115.021,56.5L116.766,52.105L118.569,55.468L120.373,52.394L122.118,57.265L123.922,47.883L125.667,47.438L127.471,49.285L129.274,78.493L130.903,48.492L132.707,46.607L134.452,45.81L136.256,43.201L138.001,36.09L139.805,37.07L141.608,39.041L143.354,45.63L145.157,36.449L146.903,36.312L148.706,49.715L150.51,68.9L152.197,41.212L154.001,42.514L155.746,32.837L157.55,33.344L159.295,35.11L161.099,34.551L162.902,30.02L164.648,35.85L166.451,33.789L168.196,23.053L170,29.47L171.804,55.433L173.433,32.27L175.236,29.635L176.982,31.958L178.785,36.529L180.53,30.214L182.334,27.716L184.138,30.401L185.883,30.531L187.687,21.444L189.432,18.448L191.235,18.779L193.039,69.104L194.668,38.805L196.472,28.835L198.217,25.085L200.021,29.783L201.766,15.663L203.569,18.057L205.373,15.233L207.118,18.922L208.922,16.329L210.667,7.755L212.471,22.497L214.274,39.301L215.903,52.62L217.707,35.439L219.452,28.014L221.256,26.977L223.001,25.289L224.805,24.33L226.608,19.632L228.354,26.75L230.157,24.549L231.903,9.826L233.706,34.977L235.51,62.585L237.197,43.833L239.001,37.372" stroke-width="2" fill="none" stroke="#76acb8"></path><path d="M1.804,109.227L3.433,100.995L5.236,99.683L6.982,104.076L8.785,100.375L10.53,101.047L12.334,99.55L14.138,96.945L15.883,100.486L17.687,97.451L19.432,95.986L21.235,100.798L23.039,102.862L24.668,94.655L26.472,94.853L28.217,98.304L30.021,94.681L31.766,95.273L33.569,91.889L35.373,89.524L37.118,96.039L38.922,91.372L40.667,91.279L42.471,92.555L44.274,99.262L45.903,89.41L47.707,87.219L49.452,92.094L51.256,89.515L53.001,85.713L54.805,84.094L56.608,82.911L58.354,87.181L60.157,81.412L61.903,81.201L63.706,82.042L65.51,88.188L67.197,79.131L69.001,75.63L70.746,76.572L72.55,76.629L74.295,70.563L76.099,73.386L77.902,72.906L79.648,80.466L81.451,90.305L83.196,91.777L85,103.046L86.804,98.335L88.433,92.019L90.236,88.195L91.982,90.05L93.785,83.664L95.53,79.545L97.334,83.221L99.138,75.101L100.883,83.881L102.687,79.67L104.432,70.077L106.235,79.266L108.039,83.808L109.668,66.262L111.472,66.861L113.217,70.113L115.021,67.33L116.766,67.646L118.569,66.306L120.373,61.522L122.118,71.949L123.922,60.264L125.667,54.513L127.471,52.779L129.274,74.541L130.903,48.567L132.707,52.785L134.452,52.868L136.256,55.249L138.001,53.12L139.805,46.676L141.608,46.891L143.354,54.843L145.157,44.307L146.903,45.248L148.706,64.47L150.51,51.87L152.197,44.105L154.001,52.481L155.746,42.952L157.55,50.503L159.295,48.712L161.099,48.972L162.902,44.986L164.648,53.185L166.451,44.409L168.196,40.156L170,45.236L171.804,63.669L173.433,31.825L175.236,39.459L176.982,43.006L178.785,51.201L180.53,39.852L182.334,43.142L184.138,38.627L185.883,47.357L187.687,39.727L189.432,32.318L191.235,36.017L193.039,56.669L194.668,42.972L196.472,38.816L198.217,44.515L200.021,46.856L201.766,41.249L203.569,45.014L205.373,31.981L207.118,43.482L208.922,45.795L210.667,34.59L212.471,54.969L214.274,72.091L215.903,54.286L217.707,53.903L219.452,59.856L221.256,52.15L223.001,48.561L224.805,56.915L226.608,52.271L228.354,60.093L230.157,53.62L231.903,41.95L233.706,69.209L235.51,80.215L237.197,59.983L239.001,62.014" stroke-width="2" fill="none" stroke="#af516c"></path></g></g></svg>