<?xml-stylesheet type="text/css" href="https://ig.ft.com/graphics/bloomberg-economics/chart-style.css" ?><svg xmlns="http://www.w3.org/2000/svg" viewBox="0 0 304 270"><text class="chart-title" font-family="MetricWeb,sans-serif" fill="#43423e" font-size="20" y="22">China's 7-day repo rate</text><text class="chart-subtitle" font-family="MetricWeb,sans-serif" fill="#43423e" font-size="15" y="42">%</text><text class="chart-source" font-family="MetricWeb,sans-serif" font-size="10" fill-opacity="0.4" y="265">Source: CEIC. 12 May 2016</text><g transform="translate(1,100)"><g transform="translate(0,120)" class="x axis"><g class="tick" style="" transform="translate(21.235455167693363,0)"><line y2="6" x2="0" fill="none" stroke="#000" stroke-opacity="0.2"></line><text dy="0" style="" y="20" x="0" font-family="MetricWeb,sans-serif" fill-opacity="0.6" font-size="12" text-anchor="start">2006</text></g><g class="tick" style="" transform="translate(63.706365503080086,0)"><line y2="6" x2="0" fill="none" stroke="#000" stroke-opacity="0.2"></line><text dy="0" style="" y="20" x="0" font-family="MetricWeb,sans-serif" fill-opacity="0.6" font-size="12" text-anchor="start">2008</text></g><g class="tick" style="" transform="translate(106.23545516769336,0)"><line y2="6" x2="0" fill="none" stroke="#000" stroke-opacity="0.2"></line><text dy="0" style="" y="20" x="0" font-family="MetricWeb,sans-serif" fill-opacity="0.6" font-size="12" text-anchor="start">2010</text></g><g class="tick" style="" transform="translate(148.70636550308006,0)"><line y2="6" x2="0" fill="none" stroke="#000" stroke-opacity="0.2"></line><text dy="0" style="" y="20" x="0" font-family="MetricWeb,sans-serif" fill-opacity="0.6" font-size="12" text-anchor="start">2012</text></g><g class="tick" style="" transform="translate(191.23545516769335,0)"><line y2="6" x2="0" fill="none" stroke="#000" stroke-opacity="0.2"></line><text dy="0" style="" y="20" x="0" font-family="MetricWeb,sans-serif" fill-opacity="0.6" font-size="12" text-anchor="start">2014</text></g><g class="tick" style="" transform="translate(233.7063655030801,0)"><line y2="6" x2="0" fill="none" stroke="#000" stroke-opacity="0.2"></line><text dy="0" style="" y="20" x="0" font-family="MetricWeb,sans-serif" fill-opacity="0.6" font-size="12" text-anchor="start">2016</text></g><path class="domain" d="M0,0V0H255V0" fill="none" stroke="#74736c"></path></g><g transform="translate(255,0)" class="y axis"><g class="tick" style="" transform="translate(0,120)"><line x2="-255" y2="0" fill="none" stroke="#000" stroke-opacity="0.2"></line><text dy="0" style="text-anchor: start;" x="3" y="0" font-family="MetricWeb,sans-serif" fill-opacity="0.6" font-size="12">0</text></g><g class="tick" style="" transform="translate(0,74.23076923076924)"><line x2="-255" y2="0" fill="none" stroke="#000" stroke-opacity="0.2"></line><text dy="0" style="text-anchor: start;" x="3" y="0" font-family="MetricWeb,sans-serif" fill-opacity="0.6" font-size="12">5</text></g><g class="tick" style="" transform="translate(0,28.461538461538456)"><line x2="-255" y2="0" fill="none" stroke="#000" stroke-opacity="0.2"></line><text dy="0" style="text-anchor: start;" x="3" y="0" font-family="MetricWeb,sans-serif" fill-opacity="0.6" font-size="12">10</text></g><path class="domain" d="M-255,1H0V120H-255" fill="none" stroke="#000" stroke-opacity="0"></path><line class="highlight-line" x1="0" x2="-255" y1="120" y2="120" fill="none" stroke="#74736c"></line></g><g><path d="M0.349,100.857L0.524,100.06L0.582,102.239L0.64,101.897L0.698,100.501L0.756,101.179L0.931,101.905L0.989,101.517L1.047,102.358L1.105,100.133L1.164,98.956L1.338,101.665L1.396,101.534L1.454,100.295L1.513,100.915L1.571,101.193L1.745,101.493L1.804,101.614L1.862,101.88L1.92,97.938L1.978,96.051L2.036,93.885L2.094,96.566L2.153,95.824L2.211,96.078L2.676,98.326L2.734,100.022L2.793,100.154L2.967,100.703L3.025,100.816L3.084,100.403L3.142,99.599L3.2,99.118L3.374,101.492L3.433,101.723L3.491,101.575L3.549,101.078L3.607,101.294L3.782,101.594L3.84,101.238L3.898,101.588L3.956,100.563L4.014,102.201L4.189,101.019L4.247,101.537L4.305,101.146L4.363,101.235L4.422,102.468L4.596,102.859L4.654,102.56L4.713,103.05L4.771,102.724L4.829,104.252L5.003,103.564L5.062,101.092L5.12,101.626L5.178,102.728L5.236,104.189L5.411,102.101L5.469,103.175L5.527,102.43L5.585,102.45L5.643,103.005L5.818,104.461L5.876,103.246L5.934,102.864L5.992,102.499L6.051,104.341L6.225,103.511L6.283,104.803L6.342,103.462L6.4,103.724L6.458,103.029L6.632,105.566L6.691,103.737L6.749,102.689L6.807,104.4L6.865,104.675L6.923,102.34L7.389,102.772L7.447,104.265L7.505,106.16L7.563,104.497L7.621,107.308L7.68,103.854L7.854,103.897L7.912,103.443L7.971,103.682L8.029,103.195L8.087,105.091L8.261,105.674L8.32,103.052L8.378,108.311L8.436,105.376L8.494,104.215L8.669,106.978L8.727,105.904L8.785,106.496L8.843,102.033L8.901,104.497L9.076,106.919L9.134,105.545L9.192,105.588L9.251,104.673L9.309,104.088L9.483,105.438L9.541,107.066L9.6,104.946L9.658,105.26L9.716,106.596L9.89,107.265L9.949,107.034L10.007,105.143L10.065,105.827L10.123,106.169L10.298,105.985L10.356,104.49L10.414,106.469L10.472,103.921L10.53,106.209L10.705,108.042L10.763,106.465L10.821,107.243L10.88,104.077L10.938,106.775L11.112,104.685L11.17,105.531L11.229,104.643L11.287,105.149L11.345,104.541L11.52,106.41L11.578,105.075L11.636,107.193L11.694,104.911L11.752,104.443L11.927,104.716L11.985,106.162L12.043,105.956L12.101,105.318L12.159,104.957L12.334,104.669L12.392,105.21L12.45,106.081L12.509,104.956L12.567,106.484L12.741,102.647L12.799,106.465L12.858,107.549L12.916,105.225L12.974,105.894L13.149,105.634L13.207,104.944L13.265,106.182L13.323,104.41L13.381,106.234L13.556,103.044L13.614,107.959L13.672,105.876L13.73,106.044L13.789,106.918L13.963,106.685L14.021,102.995L14.079,104.532L14.138,106.174L14.196,105.36L14.37,106.504L14.428,105.175L14.487,103.841L14.545,106.811L14.603,105.623L14.778,106.681L14.836,105.124L14.894,103.802L14.952,106.396L15.01,106.143L15.185,106.83L15.243,105.415L15.301,103.093L15.359,107.01L15.418,105.954L15.592,106.583L15.65,106.582L15.708,104.466L15.767,104.373L15.825,105.513L16.29,104.272L16.348,107.395L16.407,104.984L16.465,107.302L16.523,106.694L16.581,104.341L16.639,106.172L16.814,106.429L16.872,106.375L16.93,104.849L16.988,103.232L17.047,107.245L17.221,106.431L17.279,108.829L17.337,108.719L17.396,106.645L17.454,103.93L17.628,104.69L17.687,106.53L17.745,104.459L17.803,106.14L17.861,104.906L18.036,107.468L18.094,103.832L18.152,106.296L18.21,105.44L18.268,106.764L18.443,103.611L18.501,104.629L18.559,107.068L18.617,106.222L18.676,105.375L18.85,105.598L18.908,106.015L18.966,104.261L19.025,103.606L19.083,103.971L19.257,104.473L19.316,104.036L19.374,103.886L19.432,103.105L19.49,101.228L19.665,103.091L19.723,104.5L19.781,104.779L19.839,102.86L19.897,102.581L20.072,103.897L20.13,102.121L20.188,105.159L20.246,102.915L20.305,104.132L20.479,102.749L20.537,103.006L20.595,104.531L20.654,104.015L20.712,102.376L20.886,103.914L20.945,105.087L21.003,102.174L21.061,102.013L21.119,105.82L21.177,105.836L21.41,105.049L21.468,102.561L21.526,103.011L21.701,103.991L21.759,102.932L21.817,103.845L21.875,104.69L21.934,104.814L22.108,103.92L22.166,104.683L22.225,105.695L22.283,103.94L22.341,102.25L22.515,102.87L22.574,98.877L22.632,98.235L22.69,97.838L22.748,96.752L22.806,98.513L23.272,103.271L23.33,103.493L23.388,106.004L23.446,104.964L23.504,104.403L23.563,103.505L23.737,103.829L23.795,105.142L23.854,104.271L23.912,104.547L23.97,105.337L24.144,103.877L24.203,104.917L24.261,106.875L24.319,104.152L24.377,105.693L24.552,105.282L24.61,103.661L24.668,104.512L24.726,105.315L24.784,104.19L24.959,104.681L25.017,104.491L25.075,104.678L25.133,104.072L25.192,103.621L25.366,104.33L25.424,103.8L25.483,105.204L25.541,103.865L25.599,103.893L25.773,103.756L25.832,103.985L25.89,103.814L25.948,103.024L26.006,103.508L26.181,103.104L26.239,103.067L26.297,103.409L26.355,103.137L26.413,104.465L26.588,101.933L26.646,103.943L26.704,103.574L26.762,103.433L26.821,103.945L26.995,103.449L27.053,103.737L27.112,103.377L27.17,105.019L27.228,105.211L27.402,103.034L27.461,102.638L27.519,102.806L27.577,103.25L27.635,102.268L27.81,100.825L27.868,100.268L27.926,100.554L27.984,98.527L28.042,98.385L28.101,98.78L28.159,101.235L28.624,101.499L28.682,102.9L28.741,102.327L28.799,102.602L28.857,102.244L29.031,102.267L29.09,102.876L29.148,103.54L29.206,102.74L29.264,103.301L29.439,103.234L29.497,102.844L29.555,104.164L29.613,103.935L29.671,102.707L29.846,102.945L29.904,103.103L29.962,102.94L30.021,102.248L30.079,102.124L30.253,100.836L30.311,101.236L30.37,102.394L30.428,101.937L30.486,102.137L30.661,99.538L30.719,100.681L30.777,100.781L30.835,100.974L30.893,100.961L31.068,98.856L31.126,97.055L31.184,99.535L31.242,98.431L31.3,96.742L31.475,97.908L31.533,99.888L31.591,100.491L31.65,99.793L31.708,100.809L31.882,99L31.94,99.753L31.999,100.301L32.057,100.335L32.115,99.412L32.29,98.851L32.348,100.676L32.406,100.733L32.464,99.522L32.522,100.33L32.697,99.442L32.755,99.931L32.813,96.657L32.871,96.297L32.93,95.407L33.104,95.469L33.162,95.268L33.22,94.881L33.279,95.44L33.337,94.28L33.511,94.161L33.569,95.119L33.628,95.37L33.686,94.65L33.744,93.811L33.919,95.318L33.977,97.672L34.035,93.66L34.093,95.307L34.151,94.841L34.326,96.505L34.384,98.752L34.442,98.599L34.5,97.262L34.559,97.825L34.733,97.406L34.791,98.652L34.849,96.662L34.908,97.283L34.966,97.6L35.14,98.598L35.198,100.081L35.257,98.101L35.315,98.835L35.373,98.819L35.548,97.606L35.606,98.903L35.664,98.104L35.722,96.441L35.78,97.359L35.955,99.656L36.013,98.44L36.071,99.074L36.129,98.466L36.188,99.838L36.362,99.115L36.42,98.23L36.478,98.59L36.537,100.75L36.595,96.34L36.769,97.097L36.828,97.031L36.886,96.772L36.944,95.814L37.002,94.797L37.06,96.961L37.526,96.447L37.584,95.161L37.642,97.027L37.7,98.071L37.758,97.563L37.817,98.733L37.991,97.319L38.049,96.175L38.107,95.552L38.166,94.6L38.224,97.178L38.398,97.039L38.457,95.459L38.515,96.586L38.573,96.962L38.631,96.411L38.806,95.887L38.864,97.053L38.922,96.665L38.98,94.88L39.038,94.505L39.213,94.894L39.271,94.791L39.329,94.134L39.387,93.589L39.446,92.379L39.62,92.441L39.678,88.241L39.736,87.396L39.795,87.762L39.853,86.422L40.027,86.105L40.086,87.162L40.144,87.286L40.202,86.459L40.26,86.944L40.435,89.814L40.493,89.271L40.551,96.495L40.609,96.779L40.667,95.596L40.842,96.601L40.9,96.07L40.958,97.147L41.016,96.487L41.075,98.026L41.249,98.023L41.307,95.976L41.366,96.576L41.424,98.662L41.482,99.222L41.656,99.014L41.715,100.389L41.773,99.461L41.831,100.845L41.889,100.055L42.064,96.636L42.122,97.107L42.18,97.64L42.238,100.55L42.296,101.41L42.355,100.71L42.413,93.666L42.645,102.89L42.704,104.944L42.878,104.93L42.936,99.294L42.995,101.642L43.053,99.795L43.111,102.427L43.285,103.743L43.344,106.689L43.402,102.794L43.46,105.067L43.518,103.734L43.693,99.442L43.751,100.717L43.809,101.002L43.867,97.853L43.925,98.08L44.1,99.457L44.158,96.353L44.216,100.537L44.274,98.858L44.333,99.018L44.507,97.925L44.565,97.769L44.624,97.421L44.682,91.211L44.74,83.799L44.914,81.782L44.973,88.472L45.031,86.733L45.089,89.485L45.147,93.727L45.205,105.045L45.671,97.508L45.729,96.421L45.787,92.735L45.845,99.423L45.903,102.031L45.962,99.252L46.136,101.353L46.194,102.988L46.253,105.596L46.311,103.825L46.369,103.207L46.543,102.994L46.602,100.874L46.66,104.5L46.718,102.013L46.776,101.834L46.951,102.664L47.009,102.65L47.067,102.053L47.125,100.338L47.183,98.167L47.358,100.747L47.416,101.926L47.474,101.048L47.533,100.976L47.591,101.712L47.765,100.983L47.823,101.677L47.882,101.431L47.94,98.999L47.998,97.633L48.172,98.412L48.231,96.893L48.289,97.784L48.347,97.144L48.405,95.133L48.58,94.345L48.638,93.02L48.696,88.033L48.754,83.36L48.812,82.583L48.987,78.814L49.045,75.82L49.103,75.976L49.162,80.875L49.22,86.946L49.278,101.735L49.336,99.608L49.394,103.226L49.86,103.451L49.918,102.497L49.976,101.054L50.034,92.499L50.209,90.721L50.267,91.913L50.325,92.546L50.383,93.075L50.441,95.291L50.616,96.537L50.674,97.046L50.732,96.036L50.791,98.261L50.849,98.03L51.023,96.352L51.081,98.798L51.14,97.618L51.198,95.598L51.256,94.884L51.431,94.761L51.489,94.361L51.547,94.775L51.605,96.595L51.663,96.405L51.838,101.307L51.896,97.787L51.954,98.883L52.012,90.134L52.07,79.713L52.245,80.227L52.303,83.074L52.361,88.438L52.42,96.546L52.478,99.791L52.652,101.005L52.71,98.012L52.769,101.118L52.827,101.322L52.885,94.153L53.06,85.672L53.118,84.717L53.176,94.722L53.234,96.901L53.292,95.296L53.467,93.134L53.525,83.461L53.583,81.495L53.641,84.359L53.7,88.988L53.874,93.388L53.932,96.692L53.99,93.338L54.049,99.54L54.107,99.868L54.281,95.893L54.339,96.052L54.398,99.814L54.456,99.156L54.514,99.283L54.689,97.242L54.747,94.345L54.805,93.281L54.863,98.219L54.921,98.486L55.096,99.549L55.154,94.874L55.212,99.565L55.27,98.868L55.329,99.164L55.503,99.044L55.561,100.516L55.619,98.591L55.678,100.99L55.736,101.904L55.91,102.231L55.969,102.067L56.027,98.951L56.085,96.56L56.143,94.285L56.318,97.936L56.376,96.332L56.434,96.358L56.492,95.057L56.55,96.936L56.725,95.598L56.783,97.993L56.841,94.423L56.899,97.356L56.958,93.552L57.132,85.06L57.19,84.257L57.248,83.516L57.307,81.585L57.365,67.998L57.539,66.682L57.598,65.594L57.656,57.305L57.714,58.031L57.772,64.276L57.947,56.077L58.005,53.477L58.063,62.505L58.121,86.97L58.179,101.515L58.238,102.378L58.296,96.2L58.761,101.186L58.819,101.337L58.877,100.641L58.936,100.297L58.994,98.907L59.168,97.492L59.227,99.001L59.285,97.393L59.343,94.43L59.401,96.799L59.576,88.965L59.634,68.739L59.692,49.049L59.75,42.256L59.808,31.079L59.983,92.542L60.041,92.842L60.099,86.063L60.157,91.081L60.216,90.108L60.39,92.712L60.448,90.98L60.507,95.413L60.565,94.371L60.623,93.344L60.797,98.154L60.856,97.252L60.914,99.873L60.972,92.97L61.03,98.272L61.205,93.003L61.263,78.73L61.321,76.37L61.379,98.7L61.437,93.944L61.612,90.812L61.67,94.178L61.728,101.023L61.786,92.455L61.845,85.816L62.019,84.738L62.077,80.275L62.136,73.056L62.194,82.477L62.252,85.24L62.426,95.496L62.485,78.241L62.543,72.487L62.601,64.598L62.659,60.3L62.834,90.614L62.892,94.529L62.95,87.498L63.008,95.63L63.066,98.696L63.241,72.766L63.299,97.517L63.357,98.153L63.415,98.203L63.474,97.204L63.532,96.451L63.765,94.153L63.823,87.952L63.881,91.22L64.055,94.609L64.114,98.218L64.172,94.773L64.23,95.449L64.288,89.385L64.463,101.31L64.521,96.939L64.579,93.375L64.637,91.782L64.695,95.338L64.87,90.986L64.928,82.687L64.986,75.358L65.044,64.061L65.103,69.118L65.277,90.158L65.335,92.17L65.394,88.445L65.452,80.072L65.51,92.863L65.568,97.089L65.684,94.132L65.743,97.05L66.208,95.405L66.266,91.043L66.324,91.827L66.499,96.55L66.557,90.284L66.615,91.812L66.674,87.002L66.732,85.417L66.906,73.408L66.964,67.594L67.023,87.146L67.081,93.926L67.139,94.048L67.313,92.335L67.372,92.943L67.43,91.746L67.488,94.889L67.546,97.82L67.721,98.626L67.779,97.063L67.837,95.478L67.895,96.507L67.953,96.495L68.128,96.874L68.186,97.244L68.244,97.21L68.303,97.621L68.361,97.071L68.535,97.947L68.593,97.014L68.652,97.295L68.71,97.017L68.768,98.291L68.943,93.508L69.001,91.445L69.059,91.14L69.117,94.983L69.35,90.254L69.408,85.401L69.466,77.87L69.524,82.023L69.582,93.101L69.757,94.16L69.815,88.031L69.873,80.916L69.932,86.237L69.99,93.449L70.164,93.685L70.222,90.471L70.281,94.22L70.339,94.462L70.397,92.861L70.572,93.541L70.63,92.986L70.688,94.39L70.921,94.149L70.979,92.939L71.037,89.344L71.095,91.288L71.153,91.987L71.211,92.076L71.386,90.683L71.444,88.484L71.502,87.571L71.561,87.089L71.619,84.457L71.793,83.709L71.851,83.503L71.91,85.46L71.968,84.574L72.026,87.749L72.201,87.945L72.259,88.33L72.317,91.76L72.375,90.289L72.433,91.159L72.608,91.179L72.666,90.876L72.724,89.906L72.782,89.543L72.841,89.42L73.073,74.075L73.131,82.205L73.19,87.234L73.248,88.467L73.422,89.178L73.48,90.278L73.539,90.602L73.597,88.837L73.655,89.481L73.83,91.817L73.888,91.431L73.946,90.622L74.004,89.492L74.062,88.587L74.237,89.798L74.295,92.991L74.353,91.167L74.411,92.849L74.47,93.589L74.644,93.229L74.702,90.694L74.76,90.958L74.819,92.755L74.877,94.771L75.051,92.509L75.11,91.941L75.168,93.356L75.226,92.141L75.284,91.032L75.459,91.797L75.517,91.307L75.575,92.634L75.633,91.548L75.691,91.226L75.866,90.212L75.924,88.857L75.982,91.478L76.04,85.087L76.099,85.157L76.273,84.276L76.331,83.198L76.389,85.032L76.448,89.606L76.506,91.014L76.68,90.9L76.739,90.891L76.797,91.16L76.855,90.189L76.913,93.794L77.088,89.631L77.146,91.382L77.204,91.228L77.262,92.247L77.32,91.63L77.495,92.048L77.553,91.076L77.611,92.131L77.669,90.564L77.728,91.81L77.902,91.465L77.96,91.091L78.018,92.018L78.077,91.176L78.135,91.921L78.309,93.099L78.368,91.381L78.426,92.269L78.484,92.246L78.542,92.291L78.775,92.435L78.833,91.487L78.891,90.68L78.949,89.334L79.124,87.967L79.182,87.855L79.24,87.616L79.298,88.641L79.357,88.378L79.415,88.309L79.473,90.039L79.938,86.87L79.997,85.771L80.055,88.713L80.113,89.316L80.171,88.572L80.346,89.224L80.404,90.448L80.462,89.871L80.52,89.873L80.578,92.161L80.753,92.396L80.811,92.583L80.869,92.883L80.927,92.409L80.986,92.658L81.16,93.146L81.218,93.404L81.277,93.068L81.335,93.1L81.393,94.061L81.567,93.544L81.626,92.857L81.684,93.594L81.742,93.827L81.8,94.379L81.975,94.258L82.033,94.281L82.091,94.491L82.149,95.249L82.207,95.051L82.382,95.364L82.44,95.72L82.498,95.864L82.556,96.016L82.615,96.935L82.789,96.133L82.847,96.321L82.906,96.359L82.964,102.323L83.022,100.726L83.196,101.991L83.255,101.842L83.313,101.93L83.371,101.363L83.429,102.585L83.604,103.356L83.662,104.064L83.72,105.401L83.778,105.345L83.836,106.32L84.011,105.888L84.069,106.007L84.127,106.67L84.185,106.998L84.244,106.886L84.418,107.057L84.476,107.499L84.535,108.474L84.593,108.701L84.651,108.945L84.825,108.452L84.884,109.791L84.942,109.76L85.175,109.519L85.233,109.09L85.291,110.373L85.349,110.539L85.407,110.591L85.465,110.28L85.64,110.904L85.698,109.937L85.756,110.872L85.815,111.616L85.873,111.535L86.047,110.923L86.105,111.205L86.164,109.819L86.222,110.471L86.28,110.499L86.338,111.894L86.804,110.949L86.862,111.452L86.92,110.767L86.978,111.094L87.036,109.791L87.094,111.211L87.269,110.937L87.327,111.038L87.385,110.986L87.444,111.078L87.502,108.614L87.676,111.013L87.734,110.628L87.793,110.927L87.851,110.994L87.909,110.937L88.084,110.617L88.142,110.757L88.2,110.909L88.258,110.882L88.316,111.105L88.491,110.991L88.549,111.34L88.607,110.725L88.665,110.703L88.723,111.208L88.898,110.626L88.956,111.463L89.014,111.27L89.073,111.167L89.131,110.989L89.305,110.939L89.363,110.756L89.422,111.086L89.48,110.611L89.538,110.167L89.713,110.628L89.771,110.554L89.829,111.186L89.887,110.129L89.945,110.655L90.12,111.065L90.178,110.657L90.236,109.844L90.294,110.784L90.352,110.784L90.585,110.667L90.643,111.189L90.702,111.076L90.76,111.194L90.934,110.512L90.992,111.346L91.051,111.038L91.109,111.397L91.167,111.221L91.342,111.368L91.4,110.875L91.458,110.892L91.516,111.032L91.574,110.909L91.749,110.284L91.807,110.359L91.865,111.054L91.923,110.729L92.156,110.34L92.214,110.951L92.272,110.664L92.331,110.61L92.389,111.01L92.563,111.205L92.621,111.578L92.68,110.056L92.738,110.836L92.796,110.95L92.971,111.198L93.029,110.328L93.087,110.949L93.145,110.111L93.203,110.879L93.378,111.01L93.436,110.984L93.494,111.215L93.727,111.249L93.785,111.145L93.843,110.266L93.901,111.179L93.96,110.463L94.018,110.676L94.192,111.115L94.251,110.805L94.309,111.05L94.367,111.037L94.425,110.56L94.6,111.118L94.658,111.112L94.716,111.249L94.774,111.014L94.832,110.29L95.007,109.887L95.065,109.673L95.123,108.961L95.181,109.42L95.24,109.382L95.414,108.809L95.472,108.611L95.53,109.091L95.589,108.056L95.647,108.433L95.821,108.616L95.88,108.506L95.938,108.335L95.996,108.608L96.054,108.837L96.229,108.165L96.287,107.076L96.345,106.374L96.403,105.739L96.461,105.487L96.636,103.422L96.694,100.562L96.752,101.52L96.81,102.282L96.869,104.462L97.043,104.969L97.101,105.549L97.159,105.988L97.218,105.226L97.276,102.225L97.45,100.406L97.509,105.641L97.567,103.673L97.625,105.758L97.683,104.937L97.858,105.112L97.916,105.526L97.974,106.24L98.032,106.782L98.09,106.84L98.265,107.145L98.323,107.952L98.381,108.061L98.439,107.827L98.498,108.071L98.672,108.206L98.73,107.411L98.789,107.058L98.847,106.835L98.905,107.214L99.079,106.346L99.138,107.866L99.196,105.103L99.254,104.664L99.312,104.665L99.487,103.991L99.545,104.095L99.603,104.557L99.661,105.148L99.719,107.056L99.894,106.487L99.952,106.713L100.01,106.295L100.068,106.417L100.127,106.274L100.301,105.091L100.359,105.315L100.418,105.075L100.476,104.312L100.534,105.394L100.65,105.29L100.708,105.767L100.767,104.892L100.825,103.296L101.348,104.146L101.407,104.59L101.523,105.514L101.581,105.585L101.639,104.972L101.697,105.552L101.756,105.944L101.93,105.822L101.988,106.054L102.047,105.963L102.105,105.888L102.163,106.251L102.337,106.31L102.396,106.451L102.454,106.535L102.512,106.993L102.57,107.243L102.745,107.1L102.803,106.342L102.861,106.856L102.919,106.939L102.977,106.584L103.152,106.267L103.21,106.141L103.268,106.791L103.326,105.502L103.385,107.034L103.559,107.188L103.617,106.769L103.676,106.962L103.734,107.181L103.792,106.632L103.966,106.536L104.025,106.645L104.083,106.786L104.141,105.285L104.199,106.151L104.374,106.406L104.432,106.395L104.49,106.409L104.548,106.005L104.606,106.249L104.781,106.144L104.839,106.367L104.897,106.223L104.956,106.512L105.014,106.31L105.188,106.25L105.246,106.623L105.305,106.154L105.363,106.433L105.421,106.44L105.595,106.536L105.654,106.642L105.712,107.032L105.77,107.091L105.828,106.53L106.003,105.716L106.061,105.253L106.119,105.362L106.177,102.937L106.41,106.239L106.468,106.603L106.526,106.651L106.585,106.765L106.643,107.121L106.817,106.932L106.875,106.267L106.934,106.84L106.992,106.514L107.05,106.755L107.225,106.765L107.283,106.861L107.341,106.199L107.399,106.587L107.457,105.986L107.632,106.98L107.69,105.705L107.748,105.772L107.806,102.9L107.864,102.767L108.039,102.975L108.097,103.764L108.155,103.519L108.214,103.268L108.272,104.148L108.446,102.831L108.504,102.177L108.563,102.703L108.621,96.034L108.679,95.265L109.144,100.139L109.203,106.156L109.261,106.062L109.319,105.316L109.377,104.802L109.435,104.37L109.493,104.681L109.668,104.67L109.726,103.829L109.784,103.81L109.843,104.521L109.901,104.397L110.075,104.381L110.133,104.471L110.192,104.16L110.25,104.191L110.308,104.283L110.483,104.543L110.541,104.854L110.599,104.723L110.657,104.474L110.715,104.973L110.89,105.293L110.948,105.218L111.006,105.335L111.064,105.442L111.123,105.505L111.297,105.272L111.355,104.578L111.413,104.378L111.472,105.151L111.53,105.401L111.762,105.231L111.821,104.384L111.879,104.064L111.937,104.422L112.112,104.496L112.17,104.453L112.228,104.838L112.286,104.403L112.344,104.706L112.519,105.184L112.577,104.894L112.635,104.408L112.693,105.034L112.752,104.375L112.926,104.509L112.984,104.852L113.042,105.094L113.101,105.231L113.159,104.79L113.392,104.748L113.45,104.806L113.508,104.452L113.566,104.126L113.741,104.257L113.799,104.081L113.857,104.258L113.915,103.737L113.973,103.881L114.148,103.87L114.206,103.806L114.264,103.604L114.322,103.446L114.381,102.977L114.555,102.644L114.613,100.176L114.671,98.384L114.73,97.871L114.788,98.553L114.962,97.582L115.021,90.692L115.079,90.08L115.137,90.662L115.195,99.686L115.37,102.362L115.428,99.964L115.486,99.521L115.544,97.273L115.602,94.785L115.661,94.799L115.719,95.397L115.951,96.337L116.01,95.195L116.184,95.484L116.242,94.034L116.3,95.107L116.359,93.134L116.417,91.166L116.591,93.257L116.65,92.96L116.708,95.531L116.766,95.617L116.824,95.972L116.999,96.249L117.057,95.317L117.115,97.464L117.173,97.194L117.231,99.47L117.406,100.995L117.464,101.479L117.522,103.164L117.58,102.74L117.639,102.779L117.813,102.891L117.871,102.261L117.93,102.851L117.988,104.166L118.046,103.51L118.22,104.033L118.279,103.858L118.337,104.067L118.395,104.405L118.453,104.168L118.628,104.646L118.686,104.453L118.744,104.795L118.802,104.412L118.86,104.289L119.035,104.286L119.093,104.012L119.151,104.217L119.209,104.134L119.268,103.952L119.442,103.418L119.5,103.497L119.559,103.647L119.617,103.98L119.675,103.775L119.849,103.557L119.908,103.89L119.966,103.729L120.024,102.929L120.082,99.72L120.257,98.091L120.315,92.507L120.373,92.43L120.431,97.233L120.489,98.582L120.664,99.418L120.722,99.144L120.78,99.293L120.838,98.979L120.897,99.027L121.071,97.799L121.129,98.121L121.188,98.74L121.246,96.809L121.304,101.604L121.42,102.126L121.478,99.372L121.537,98.369L121.769,98.834L121.828,94.909L121.886,91.867L121.944,95.762L122.002,94.413L122.06,91.511L122.526,95.884L122.584,102.587L122.7,102.083L122.758,102.409L122.817,102.474L122.875,102.155L122.933,102.091L123.107,101.355L123.166,101.243L123.224,101.641L123.282,102.143L123.34,101.977L123.515,101.014L123.573,101.679L123.631,101.182L123.689,101.212L123.747,100.617L123.922,101.495L123.98,102.577L124.038,103.097L124.097,103.201L124.155,105.175L124.329,105.008L124.387,104.522L124.446,104.628L124.504,104.576L124.562,104.3L124.736,103.443L124.795,103.669L124.853,102.532L124.911,101.745L124.969,100.653L125.144,100.34L125.202,99.301L125.26,98.391L125.318,96.765L125.376,95.11L125.551,96.117L125.609,89.166L125.667,89.165L125.726,89.273L125.784,89.408L125.958,92.001L126.016,94.372L126.075,97.056L126.133,95.78L126.191,97.364L126.366,96.483L126.424,89.79L126.482,86.683L126.54,89.033L126.598,86.024L126.773,88.188L126.831,82.163L126.889,81.608L126.947,68.165L127.005,71.821L127.18,70.86L127.238,66.556L127.296,64.155L127.355,62.731L127.413,60.507L127.645,79.959L127.704,89.915L127.762,90.307L127.82,94.111L127.995,98.319L128.053,97.369L128.111,96.981L128.169,98.162L128.227,96.921L128.402,95.355L128.46,94.077L128.518,79.26L128.576,63.415L128.634,51.336L128.809,64.587L128.867,50.56L128.925,48.006L128.984,41.959L129.042,46.271L129.158,42.051L129.216,44.451L129.274,89.379L129.74,82.199L129.798,83.648L129.856,85.058L129.914,96.076L130.031,95.072L130.089,95.907L130.147,96.172L130.205,92.924L130.264,94.061L130.438,64.038L130.496,61.067L130.554,62.762L130.613,88.468L130.671,91.371L130.845,92.359L130.903,92.037L130.962,90.816L131.02,97.647L131.078,99.099L131.253,99.726L131.311,99.325L131.369,99.628L131.427,99.051L131.485,100.403L131.66,100.591L131.718,101.369L131.776,101.601L131.834,101.572L131.893,100.882L132.067,91.943L132.125,93.971L132.183,94.865L132.242,94.953L132.3,98.978L132.474,98.882L132.533,100.547L132.591,95.963L132.649,93.2L132.707,94.828L132.765,99.093L132.998,97.969L133.056,100.793L133.114,97.408L133.289,101.593L133.347,101.763L133.405,101.796L133.463,97.28L133.522,96.001L133.696,95.242L133.754,92.735L133.812,93.441L133.871,83.62L133.929,88.657L134.103,81.89L134.162,79.869L134.22,84.373L134.278,91.982L134.336,92.766L134.569,92.837L134.627,92.343L134.685,92.103L134.743,94.574L134.918,94.731L134.976,93.376L135.034,94.096L135.092,91.643L135.151,86.356L135.325,76.795L135.383,77.22L135.441,89.67L135.5,86.832L135.558,82L135.732,75.909L135.791,76.124L135.849,70.325L135.907,72.603L135.965,79.701L136.14,89.643L136.198,86.385L136.256,83.966L136.314,87.72L136.372,87.705L136.605,90.361L136.663,83.876L136.721,82.069L136.78,78.115L136.954,78.518L137.012,81.839L137.07,62.938L137.129,60.048L137.187,58.731L137.361,51.278L137.42,45.396L137.478,39.684L137.536,37.231L137.594,41.188L137.769,51.054L137.827,59.104L137.885,60.907L137.943,59.211L138.001,65.39L138.176,75.959L138.234,58.271L138.292,51.281L138.35,67.927L138.409,62.283L138.583,68.907L138.641,75.045L138.7,85.339L138.758,73.98L138.816,82.077L138.99,78.389L139.049,76.318L139.107,70.986L139.165,66.396L139.223,68.62L139.398,71.414L139.456,74.051L139.514,74.374L139.572,73.557L139.63,73.173L139.805,73.141L139.863,73.526L139.921,80.969L139.979,89.943L140.038,92.496L140.212,92.178L140.27,91.53L140.329,91.115L140.387,91.553L140.445,91.819L140.619,90.32L140.678,90.556L140.736,90.366L140.794,84.799L140.852,78.034L141.027,74.189L141.085,72.441L141.143,79.229L141.201,78.947L141.259,82.897L141.434,79.177L141.492,74.603L141.55,74.081L141.608,76.149L141.667,81.643L141.841,75.25L141.899,78.664L141.958,79.519L142.016,82.864L142.074,86.625L142.307,89.711L142.365,89.662L142.423,89.092L142.481,89.441L142.656,87.337L142.714,83.031L142.772,82.313L142.83,83.943L142.888,81.601L143.063,83.896L143.121,76.582L143.179,75.048L143.238,72.9L143.296,72.965L143.761,74.11L143.819,76.073L143.877,79.178L143.936,81.208L143.994,89.658L144.052,91.034L144.11,91.1L144.285,89.086L144.343,87.773L144.401,89.267L144.459,88.128L144.517,88.421L144.692,88.688L144.75,83.379L144.808,82.687L144.867,77.906L144.925,74.278L145.099,74.512L145.157,80.017L145.216,85.992L145.274,88.657L145.332,87.899L145.507,86.909L145.565,87.356L145.623,87.667L145.681,87.789L145.739,88.086L145.914,89.571L145.972,89.549L146.03,89.296L146.088,87.419L146.146,85.899L146.321,81.47L146.379,79.518L146.437,80.065L146.496,82.107L146.554,82.816L146.728,83.477L146.786,86.537L146.845,83.188L146.903,83.588L146.961,86.254L147.136,89.78L147.194,88.764L147.252,88.478L147.31,88.008L147.368,87.78L147.543,87.55L147.601,87.998L147.659,90.333L147.717,88.426L147.775,91.747L147.95,92.311L148.008,90.372L148.066,86.709L148.125,85.192L148.183,85.573L148.357,79.501L148.415,79.015L148.474,75.921L148.532,69.781L148.59,68.802L148.648,61.793L148.881,82.779L148.939,78.432L148.997,80.035L149.172,78.681L149.23,82.165L149.288,83.049L149.346,81.627L149.405,75.028L149.579,66.488L149.637,46.027L149.695,42.134L149.754,62.988L149.812,73.938L149.87,87.519L150.335,80.765L150.394,79.683L150.452,80.223L150.51,79.815L150.568,80.15L150.626,89.163L150.801,88.224L150.859,87.859L150.917,85.971L150.975,86.053L151.034,86.482L151.208,86.35L151.266,85.038L151.324,83.784L151.383,79.623L151.441,69.726L151.615,70.52L151.674,71.789L151.732,72.799L151.79,69.648L151.848,78.374L152.023,86.063L152.081,85.879L152.139,87.601L152.197,89.931L152.255,89.384L152.43,90.697L152.488,91.16L152.546,91.442L152.604,92.979L152.663,92.708L152.837,93.914L152.895,92.589L152.953,92.482L153.012,93.635L153.07,93.437L153.244,93.216L153.303,92.043L153.361,91.547L153.419,90.945L153.477,92.607L153.652,89.415L153.71,89.233L153.768,85.147L153.826,87.649L153.884,85.719L153.943,87.699L154.001,88.413L154.233,83.306L154.292,81.13L154.466,85.578L154.524,85.978L154.582,85.054L154.641,85.052L154.699,85.001L154.873,85.019L154.932,85.521L154.99,85.665L155.048,84.991L155.106,83.53L155.281,86.055L155.339,85.062L155.397,84.011L155.455,83.24L155.513,83.948L155.572,84.96L155.804,84.991L155.862,84.221L155.921,86.361L156.095,85.503L156.153,85.842L156.211,89.523L156.27,90.473L156.328,90.856L156.502,90.792L156.561,93.773L156.619,94.258L156.677,95.503L156.735,94.582L156.91,95.215L156.968,95.464L157.026,97.641L157.084,99.427L157.142,97.586L157.317,96.668L157.375,96.303L157.433,98.235L157.491,100.228L157.55,97.981L157.724,96.018L157.782,95.947L157.841,96.026L157.899,95.216L157.957,97.316L158.131,97.762L158.19,96.611L158.248,94.806L158.306,94.928L158.364,94.875L158.539,96.011L158.597,92.849L158.655,87.809L158.713,79.659L158.946,80.021L159.004,80.033L159.062,81.477L159.12,83.352L159.179,81.963L159.353,81.784L159.411,81.772L159.47,83.91L159.528,83.259L159.586,87.719L159.76,89.298L159.819,89.475L159.877,89.685L159.935,90.471L159.993,89.555L160.168,89.736L160.226,89.588L160.284,88.016L160.342,87.376L160.4,86.372L160.575,87.423L160.633,88.861L160.691,88.893L160.749,88.677L160.808,90.807L160.982,91.005L161.04,88.958L161.099,87.972L161.157,87.593L161.215,88.013L161.389,87.691L161.448,90.241L161.506,90L161.564,89.424L161.622,89.405L161.797,88.586L161.855,88.841L161.913,88.633L161.971,87.468L162.029,83.766L162.204,85.786L162.262,85.692L162.32,84.981L162.379,84.776L162.437,86.783L162.611,88.264L162.669,91.499L162.728,87.334L162.786,86.677L162.844,87.973L163.018,88.718L163.077,96.865L163.135,88.346L163.193,88.337L163.251,88.697L163.426,92.131L163.484,92.381L163.542,87.994L163.6,88.373L163.658,89.182L163.833,89.954L163.891,90.782L163.949,88.906L164.008,83.873L164.066,79.228L164.24,78.29L164.298,76.621L164.357,84.222L164.415,84.519L164.473,92.186L164.531,88.339L165.055,84.312L165.113,85.485L165.171,90.903L165.229,90.926L165.287,90.789L165.462,93.088L165.52,93.459L165.578,93.659L165.637,95.161L165.695,95.257L165.869,95.162L165.927,93.255L165.986,91.001L166.044,86.303L166.102,84.665L166.277,80.761L166.335,89.615L166.393,90.197L166.451,88.301L166.509,88.756L166.684,89.067L166.742,90.444L166.8,91.241L166.858,89.671L166.916,90.877L167.091,91.696L167.149,89.883L167.207,89.19L167.266,88.857L167.324,93.186L167.498,90.641L167.556,89.048L167.615,89.76L167.673,89.908L167.731,93.651L167.906,93.212L167.964,93.294L168.022,88.362L168.08,89.205L168.138,87.539L168.313,88.643L168.371,92.702L168.429,93.583L168.487,93.336L168.546,91.067L168.72,92.979L168.778,91.52L168.836,91.303L168.895,94.629L168.953,91.75L169.127,91.993L169.185,92.33L169.244,90.912L169.302,87.814L169.36,88.495L169.535,90.051L169.593,83.603L169.651,83.494L169.709,80.803L169.767,82.065L169.942,78.001L170.175,82.586L170.233,84.827L170.291,87.013L170.349,89.719L170.407,90.533L170.465,92.046L170.524,92.671L170.582,94.299L170.756,93.394L170.815,92.835L170.873,93.696L170.931,91.99L170.989,92.982L171.164,91.911L171.222,91.134L171.28,92.377L171.338,93.416L171.396,94.899L171.571,92.085L171.629,91.4L171.687,89.725L171.745,89.676L171.804,88.361L171.978,87.077L172.036,86.09L172.094,84.338L172.153,81.681L172.211,87.59L172.676,93.284L172.734,92.011L172.793,92.724L172.851,92.605L172.909,92.225L172.967,92.631L173.025,91.554L173.2,89.595L173.258,84.511L173.316,80.552L173.374,79.749L173.433,79.643L173.607,79.863L173.665,90.302L173.723,92.365L173.782,96.595L173.84,96.664L174.014,91.845L174.073,91.377L174.131,92.096L174.189,90.848L174.247,87.564L174.422,91.152L174.48,92.589L174.538,89.732L174.596,91.683L174.654,91.84L174.829,92.45L174.887,91.629L174.945,92.856L175.003,90.518L175.062,87.29L175.236,88.461L175.294,87.8L175.352,89.907L175.585,89.505L175.643,89.654L175.702,89.55L175.76,90.577L175.818,91.687L175.876,91.349L176.051,91.986L176.109,90.905L176.167,92.296L176.225,92.234L176.283,91.501L176.458,90.901L176.516,85.643L176.574,74.777L176.632,73.894L176.691,86.89L176.749,87.757L176.807,91.694L177.04,92.452L177.098,89.769L177.272,90.358L177.331,90.51L177.389,90.27L177.447,89.635L177.505,91.989L177.68,92.595L177.738,93.927L177.796,93.155L177.854,90.1L177.912,86.284L178.087,80.497L178.145,79.426L178.203,82.165L178.261,79.904L178.32,81.738L178.494,82.088L178.552,87.486L178.611,85.821L178.669,80.706L178.727,75.29L178.901,76.854L178.96,75.989L179.018,75.197L179.076,68.612L179.134,55.983L179.192,49.806L179.251,60.717L179.483,57.379L179.541,55.933L179.716,56.929L179.774,58.244L179.832,45.02L179.89,7.846L179.949,35.319L180.123,47.908L180.181,48.977L180.24,53.427L180.298,56.891L180.356,60.836L180.53,69.789L180.589,77.176L180.647,80.45L180.705,83.793L180.763,84.687L180.938,86.209L180.996,86.985L181.054,86.276L181.112,84.543L181.17,84.825L181.345,84.83L181.403,85.868L181.461,86.696L181.52,85.753L181.578,84.094L181.752,83.55L181.81,83.143L181.869,82.414L181.927,81.165L181.985,76.417L182.159,72.719L182.218,74.111L182.276,73.937L182.334,77.544L182.392,79.39L182.567,79.295L182.625,81.674L182.683,84.349L182.741,85.255L182.799,86.413L182.974,86.372L183.032,85.426L183.09,83.375L183.149,83.017L183.207,84.843L183.381,82.138L183.439,78.868L183.498,80.585L183.556,81.622L183.614,81.394L183.789,82.36L183.847,80.492L183.905,80.495L183.963,79.743L184.021,85.012L184.196,85.195L184.254,85.273L184.312,87.204L184.37,87.826L184.428,87.67L184.603,86.895L184.661,86.265L184.719,86.908L184.778,86.819L184.836,86.159L185.01,87.089L185.068,86.01L185.127,84.894L185.359,83.674L185.418,80.207L185.476,77.009L185.534,77.02L185.592,80.431L185.65,81.527L185.767,84.397L185.825,79.763L186.29,78.667L186.348,78.709L186.407,78.126L186.465,81.023L186.523,81.423L186.639,83.346L186.697,82.63L186.756,89.184L186.814,88.726L186.872,86.117L187.047,86.672L187.105,85.913L187.163,82.234L187.221,75.594L187.279,72.204L187.454,73.705L187.512,72.436L187.57,68.063L187.628,73.385L187.687,77.207L187.861,78.706L187.919,80.141L187.977,84.244L188.036,83.959L188.094,83.059L188.268,84.96L188.326,85.399L188.385,85.398L188.443,81.322L188.501,70.587L188.676,69.924L188.734,74.621L188.792,75.256L188.85,76.335L188.908,75.097L189.083,75.464L189.141,74.374L189.199,76.522L189.257,75.12L189.316,76.559L189.49,77.116L189.548,76.995L189.606,77.483L189.665,77.589L189.723,77.66L189.897,78.147L189.956,78.344L190.014,79.95L190.072,80.354L190.13,80.006L190.305,78.883L190.363,77.496L190.421,64.14L190.479,58.17L190.537,49.081L190.712,39.039L190.77,57.717L190.828,68.105L190.886,70.394L190.945,72.948L191.119,74.921L191.177,71.352L191.294,74.079L191.352,76.261L191.526,76.9L191.585,79.879L191.643,81.377L191.701,82.832L191.759,81.568L191.934,81.142L191.992,82.672L192.05,82.308L192.108,79.709L192.166,74.623L192.341,59.234L192.399,68.592L192.457,71.209L192.515,71.133L192.574,78.242L192.69,75.824L192.748,70.538L192.806,65.356L192.864,66.846L192.923,71.59L193.388,69.637L193.446,71.8L193.563,71.07L193.621,71.892L193.679,72.373L193.737,73.527L193.795,77.543L193.97,83.317L194.028,83.714L194.086,84.997L194.144,84.814L194.203,87.264L194.377,88.674L194.435,88.778L194.493,91.086L194.552,87.865L194.61,86.335L194.784,91.492L194.843,87.406L194.901,84.71L194.959,95.621L195.017,96.217L195.192,97.302L195.25,98.123L195.308,98.548L195.366,94.576L195.424,95.472L195.599,95.08L195.657,92.935L195.715,87.693L195.773,87.648L195.832,86.888L196.006,86.259L196.064,84.76L196.123,83.278L196.181,75.299L196.239,80.646L196.413,80.627L196.472,81.318L196.53,81.056L196.588,80.906L196.646,90.937L196.879,86.653L196.937,85.979L196.995,85.43L197.053,85.225L197.228,86.735L197.286,87.541L197.344,94.453L197.402,92.815L197.461,93.483L197.635,93.537L197.693,90.234L197.752,91.043L197.81,86.799L197.868,87.592L198.042,82.227L198.101,81.299L198.159,83.616L198.392,86.172L198.45,90.674L198.508,90.956L198.566,90.777L198.624,90.092L198.682,90.213L198.857,89.597L198.915,89.736L198.973,89.845L199.031,90.876L199.09,90.972L199.264,90.783L199.322,88.103L199.381,88.709L199.439,88.074L199.497,86.825L199.671,89.197L199.73,90.107L199.788,90.305L199.846,89.862L199.904,89.092L200.137,89.979L200.195,90.721L200.253,90.867L200.311,90.034L200.486,90.837L200.544,90.09L200.602,90.138L200.661,90.352L200.719,91.599L200.893,90.692L200.951,90.314L201.01,89.575L201.068,87.931L201.126,86.941L201.3,86.868L201.359,85.561L201.417,83.45L201.475,85.594L201.533,84.149L201.708,83.463L201.766,79.067L201.824,82.423L201.882,87.792L201.94,87.994L202.115,87.291L202.173,86.469L202.231,84.422L202.29,84.371L202.348,85.176L202.522,84.317L202.58,85.609L202.639,86.03L202.697,84.613L202.755,84.79L202.93,82.38L202.988,81.623L203.046,78.455L203.104,79.912L203.162,80.958L203.337,81.584L203.395,83.363L203.453,83.469L203.511,82.8L203.569,83.508L203.744,83.805L203.802,85.297L203.86,87.076L203.919,86.466L203.977,87.42L204.151,87.582L204.209,88.679L204.268,88.305L204.326,88.359L204.384,88.49L204.559,88.438L204.617,88.588L204.675,88.579L204.733,87.984L204.791,87.085L204.966,85.622L205.024,87.104L205.082,86.88L205.14,85.161L205.198,85.123L205.373,86.489L205.431,86.458L205.489,87.783L205.548,88.396L205.606,89.191L205.838,89.827L205.897,90.158L205.955,89.243L206.013,89.221L206.188,88.75L206.246,88.016L206.304,88.417L206.362,88.532L206.42,87.649L206.595,88.601L206.653,90.012L206.711,85.707L206.769,88.331L206.828,88.224L206.944,90.716L207.002,90.825L207.06,94.293L207.526,91.116L207.584,91.59L207.642,91.821L207.7,91.186L207.817,89.913L207.875,90.64L207.933,90.313L207.991,91.261L208.049,91.491L208.224,91.353L208.282,90.206L208.34,91.278L208.398,91.223L208.457,90.336L208.631,91.061L208.689,90.669L208.747,89.069L208.806,90.192L208.864,89.931L209.038,89.141L209.097,89.973L209.155,89.85L209.213,90.291L209.271,90.171L209.446,88.018L209.504,91.283L209.562,89.446L209.62,91.226L209.678,91.887L209.853,90.493L209.911,88.662L209.969,89.495L210.027,88.112L210.086,86.14L210.26,85.069L210.318,88.219L210.376,88.708L210.435,88.239L210.493,87.579L210.667,86.661L210.726,86.86L210.784,87.75L210.842,87.037L210.9,88.385L211.075,86.686L211.133,84.137L211.191,84.199L211.249,83.349L211.307,83.981L211.482,85.69L211.54,82.464L211.598,75.961L211.656,68.249L211.715,63.783L211.889,62.691L211.947,67.319L212.005,71.963L212.064,73.343L212.122,75.42L212.296,74.524L212.355,75.77L212.413,75.212L212.645,75.809L212.704,76.748L212.762,80.531L212.82,83.885L212.878,83.816L212.936,81.969L213.111,82.925L213.169,83.726L213.227,83.646L213.285,83.341L213.344,83.396L213.518,83.505L213.576,85.47L213.634,78.718L213.693,81.915L213.751,81.986L213.925,83.353L213.984,83.919L214.042,81.469L214.1,80.047L214.158,81.086L214.333,77.749L214.391,79.88L214.449,77.971L214.507,77.634L214.565,78.307L214.74,77.903L214.798,76.895L214.856,78.339L214.914,75.461L214.973,75.782L215.089,75.623L215.147,74.285L215.205,76.397L215.671,75.398L215.729,73.46L215.787,72.722L215.845,75.409L215.962,74.537L216.02,74.516L216.078,75.007L216.136,75.143L216.194,72.812L216.369,72.367L216.427,73.612L216.485,72.679L216.543,74.11L216.602,72.622L216.776,74.451L216.834,75.666L216.893,74.907L216.951,77.539L217.009,78.494L217.183,79.58L217.242,81.287L217.3,82.47L217.358,82.85L217.416,82.209L217.591,82.699L217.649,83.126L217.707,84.793L217.765,85.505L217.823,86.124L218.056,87.86L218.114,88.82L218.172,88.598L218.231,89.273L218.405,87.754L218.463,89.491L218.522,90.583L218.58,91.468L218.638,91.705L218.812,90.445L218.871,93.712L218.929,93.299L218.987,95.026L219.045,94.875L219.22,96.102L219.278,96.155L219.336,95.659L219.394,96.705L219.627,94.637L219.685,95.642L219.743,97.257L219.802,97.159L219.86,96.286L220.034,97.444L220.092,98.283L220.151,98.982L220.209,98.998L220.267,98.369L220.441,100.179L220.5,100.547L220.558,100.823L220.616,100.271L220.674,100.273L220.849,100.074L220.907,99.554L220.965,98.701L221.023,98.657L221.081,100.753L221.256,99.357L221.314,99.223L221.372,98.178L221.431,98.733L221.489,98.834L221.663,99.049L221.721,99.617L221.78,100.094L221.838,98.339L221.896,96.995L222.07,99.073L222.129,97.072L222.187,94.209L222.245,94.315L222.303,91.018L222.536,89.324L222.594,93.263L222.652,91.29L222.71,91.659L222.885,92.707L222.943,95.507L223.001,93.691L223.06,92.69L223.118,92.857L223.292,94.358L223.35,95.252L223.409,95.267L223.467,90.019L223.525,95.639L223.7,95.763L223.758,95.251L223.816,94.909L223.874,96.723L223.932,96.815L224.107,97.557L224.165,96.605L224.223,95.868L224.281,95.751L224.339,94.42L224.514,96.437L224.572,95.617L224.63,96.178L224.689,96.754L224.747,95.939L224.921,96.789L224.979,95.368L225.038,97.314L225.096,97.173L225.154,97.08L225.329,97.596L225.387,96.849L225.445,96.733L225.503,96.395L225.561,96.878L225.736,96.768L225.794,96.122L225.852,96.109L225.91,95.125L225.969,95.144L226.143,95.75L226.201,94.726L226.259,96.099L226.318,96.983L226.376,97.131L226.55,96.97L226.608,97.462L226.667,97.46L226.899,96.749L226.958,97.536L227.016,96.168L227.074,97.444L227.132,96.95L227.19,96.266L227.365,97.407L227.423,97.314L227.481,97.24L227.539,97.061L227.598,97.29L227.772,97.087L227.83,97.048L227.888,97.01L227.947,93.562L228.005,95.053L228.179,94.206L228.238,95.031L228.296,97.064L228.761,97.229L228.819,97.338L228.877,97.21L228.994,97.593L229.052,97.049L229.11,96.728L229.168,96.436L229.227,96.054L229.401,96.157L229.459,97.184L229.517,97.426L229.576,97.795L229.634,97.109L229.808,97.739L229.867,98.13L229.925,97.72L229.983,97.417L230.041,97.345L230.216,98.459L230.274,96.779L230.332,96.705L230.39,97.53L230.448,97.965L230.623,97.93L230.681,97.651L230.739,96.736L230.797,97.65L230.856,97.32L231.03,97.873L231.088,97.839L231.146,97.16L231.205,97.875L231.263,97.745L231.437,98.312L231.496,98.098L231.554,98.606L231.612,97.8L231.67,96.987L231.845,97.837L231.903,96.857L231.961,97.148L232.019,96.984L232.077,97.714L232.252,97.857L232.31,97.401L232.368,96.007L232.426,96.643L232.485,96.298L232.659,96.917L232.717,97.291L232.775,96.975L232.834,96.4L232.892,96.353L233.066,96.622L233.125,94.583L233.183,96.483L233.241,97.301L233.299,96.523L233.474,97.249L233.532,96.914L233.59,96.698L233.648,97.612L233.881,96.481L233.939,96.498L233.997,96.634L234.055,97.401L234.114,96.649L234.288,96.995L234.346,96.58L234.405,97.057L234.463,97.233L234.521,97.386L234.695,97.723L234.754,95.475L234.812,95.607L234.87,94.524L234.928,95.974L235.103,96.578L235.161,97.166L235.219,97.174L235.277,96.733L235.335,96.622L235.51,94.888L235.568,94.41L235.626,95.71L235.684,95.06L235.743,97.357L235.801,97.344L236.266,97.452L236.324,97.532L236.383,97.808L236.441,97.792L236.499,97.168L236.557,97.868L236.732,97.399L236.79,97.662L236.848,97.728L236.906,97.53L236.964,97.593L237.139,96.324L237.197,97.017L237.255,97.344L237.313,97.903L237.372,97.915L237.546,96.912L237.604,97.278L237.663,97.691L237.721,98.01L237.779,97.641L237.953,97.321L238.012,97.669L238.07,97.669L238.128,97.645L238.186,97.683L238.361,95.809L238.419,96.774L238.477,97.755L238.535,98.049L238.593,98.534L238.768,97.233L238.826,97.506L238.884,97.871L238.943,96.428L239.001,97.645L239.233,97.298L239.292,97.772L239.35,98.159L239.408,97.359L239.582,97.026L239.641,97.266L239.699,96.917L239.757,97.016L239.815,97.487L239.99,96.819L240.048,97.705L240.106,96.362L240.164,96.868L240.222,95.943L240.397,95.802L240.455,95.854L240.513,96.205L240.572,95.837L240.63,97.07L240.862,96.7L240.921,96.687L240.979,97.194L241.037,98.165L241.211,96.918L241.27,97.471L241.328,97.338" stroke-width="2" fill="none" stroke="#af516c"></path></g></g></svg>