<?xml-stylesheet type="text/css" href="https://ig.ft.com/graphics/bloomberg-economics/chart-style.css" ?><svg xmlns="http://www.w3.org/2000/svg" viewBox="0 0 304 270"><text class="chart-title" font-family="MetricWeb,sans-serif" fill="#43423e" font-size="20" y="22">Sources of China's growth</text><text class="chart-subtitle" font-family="MetricWeb,sans-serif" fill="#43423e" font-size="15" y="42">Percentage points</text><text class="chart-source" font-family="MetricWeb,sans-serif" font-size="10" fill-opacity="0.4" y="265">Source: CEIC, National Bureau of Statistics. 26 May 2016</text><g transform="translate(1,100)"><g transform="translate(0,120)" class="x axis"><g class="tick" style="" transform="translate(31.853182751540043,0)"><line y2="6" x2="0" fill="none" stroke="#000" stroke-opacity="0.2"></line><text dy="0" style="" y="20" x="0" font-family="MetricWeb,sans-serif" fill-opacity="0.6" font-size="12" text-anchor="start">2010</text></g><g class="tick" style="" transform="translate(95.55954825462011,0)"><line y2="6" x2="0" fill="none" stroke="#000" stroke-opacity="0.2"></line><text dy="0" style="" y="20" x="0" font-family="MetricWeb,sans-serif" fill-opacity="0.6" font-size="12" text-anchor="start">2012</text></g><g class="tick" style="" transform="translate(159.35318275154006,0)"><line y2="6" x2="0" fill="none" stroke="#000" stroke-opacity="0.2"></line><text dy="0" style="" y="20" x="0" font-family="MetricWeb,sans-serif" fill-opacity="0.6" font-size="12" text-anchor="start">2014</text></g><g class="tick" style="" transform="translate(223.05954825462013,0)"><line y2="6" x2="0" fill="none" stroke="#000" stroke-opacity="0.2"></line><text dy="0" style="" y="20" x="0" font-family="MetricWeb,sans-serif" fill-opacity="0.6" font-size="12" text-anchor="start">2016</text></g><path class="domain" d="M0,0V0H255V0" fill="none" stroke="#74736c"></path></g><g transform="translate(255,0)" class="y axis"><g class="tick" style="" transform="translate(0,120)"><line x2="-255" y2="0" fill="none" stroke="#000" stroke-opacity="0.2"></line><text dy="0" style="text-anchor: start;" x="3" y="0" font-family="MetricWeb,sans-serif" fill-opacity="0.6" font-size="12">-5</text></g><g class="tick" style="" transform="translate(0,74.23076923076924)"><line x2="-255" y2="0" fill="none" stroke="#000" stroke-opacity="0.2"></line><text dy="0" style="text-anchor: start;" x="3" y="0" font-family="MetricWeb,sans-serif" fill-opacity="0.6" font-size="12">0</text></g><g class="tick" style="" transform="translate(0,28.461538461538456)"><line x2="-255" y2="0" fill="none" stroke="#000" stroke-opacity="0.2"></line><text dy="0" style="text-anchor: start;" x="3" y="0" font-family="MetricWeb,sans-serif" fill-opacity="0.6" font-size="12">5</text></g><path class="domain" d="M-255,1H0V120H-255" fill="none" stroke="#000" stroke-opacity="0"></path><line class="highlight-line" x1="0" x2="-255" y1="74.23076923076924" y2="74.23076923076924" fill="none" stroke="#74736c"></line></g><g class="chart-key" transform="translate(0,-35)"><g class="key-element" transform="translate(0,0)"><text x="28" font-family="MetricWeb,sans-serif" font-size="12" fill="#43423e">Final consumption</text><line x1="0" x2="25" y1="-5" y2="-5" stroke-width="2" fill="none" stroke="#af516c"></line></g><g class="key-element" transform="translate(0,20)"><text x="28" font-family="MetricWeb,sans-serif" font-size="12" fill="#43423e">Gross capital formation</text><line x1="0" x2="25" y1="-5" y2="-5" stroke-width="2" fill="none" stroke="#76acb8"></line></g><g class="key-element" transform="translate(0,40)"><text x="28" font-family="MetricWeb,sans-serif" font-size="12" fill="#43423e">Net exports</text><line x1="0" x2="25" y1="-5" y2="-5" stroke-width="2" fill="none" stroke="#ecafaf"></line></g></g><g><path d="M5.149,112.677L13.178,100.777L21.206,107.185L29.148,110.274L37.002,77.892L45.031,67.823L53.06,65.077L61.001,85.16L68.855,75.146L76.884,73.698L84.913,73.315L92.854,80.638L100.796,80.638L108.824,82.469L116.853,77.892L124.795,72.4L132.649,64.162L140.678,73.315L148.706,75.146L156.648,75.927L164.502,85.215L172.531,76.062L180.56,66.908L188.501,71.485L196.355,62.331L204.384,71.485L212.413,75.146L220.354,76.062L228.296,86.804" stroke-width="2" fill="none" stroke="#ecafaf"></path><path d="M5.149,19.308L13.178,17.477L21.206,7.408L29.148,1.841L37.002,29.377L45.031,23.885L53.06,24.8L61.001,11.069L68.855,39.446L76.884,32.232L84.913,33.954L92.854,35.621L100.796,52.262L108.824,37.615L116.853,38.531L124.795,44.735L132.649,53.177L140.678,36.7L148.706,34.869L156.648,36.025L164.502,45.854L172.531,41.277L180.56,46.769L188.501,43.108L196.355,63.246L204.384,50.431L212.413,46.769L220.354,47.685L228.296,52.274" stroke-width="2" fill="none" stroke="#76acb8"></path><path d="M5.149,34.869L13.178,39.446L21.206,37.615L29.148,26.362L37.002,4.662L45.031,28.462L53.06,34.869L61.001,29.377L68.855,18.392L76.884,27.97L84.913,28.462L92.854,19.308L100.796,15.646L108.824,31.208L116.853,35.785L124.795,34.419L132.649,34.869L140.678,43.108L148.706,42.192L156.648,40.255L164.502,23.885L172.531,37.615L180.56,41.421L188.501,41.277L196.355,33.038L204.384,36.7L212.413,37.615L220.354,35.785L228.296,22.284" stroke-width="2" fill="none" stroke="#af516c"></path></g></g></svg>